<svg width="486" height="363" viewBox="0 0 486 363" fill="none" xmlns="http://www.w3.org/2000/svg">
<path d="M486 318.232H0V318.475H486V318.232Z" fill="#EBEBEB"/>
<path d="M437.305 333.872H422.822V334.115H437.305V333.872Z" fill="#EBEBEB"/>
<path d="M321.946 336.516H313.5V336.759H321.946V336.516Z" fill="#EBEBEB"/>
<path d="M418.718 324.852H385.485V325.095H418.718V324.852Z" fill="#EBEBEB"/>
<path d="M106.56 329.867H64.5789V330.11H106.56V329.867Z" fill="#EBEBEB"/>
<path d="M130.355 329.867H115.211V330.11H130.355V329.867Z" fill="#EBEBEB"/>
<path d="M247.627 326.602H156.57V326.845H247.627V326.602Z" fill="#EBEBEB"/>
<path d="M230.363 274.882H42.6791C41.2088 274.879 39.7996 274.293 38.7608 273.253C37.7221 272.212 37.1387 270.802 37.1387 269.331V5.50152C37.1515 4.03966 37.7405 2.64188 38.7779 1.61179C39.8153 0.581701 41.2172 0.00250425 42.6791 0H230.363C231.835 0 233.246 0.584743 234.287 1.62559C235.328 2.66644 235.913 4.07814 235.913 5.55012V269.331C235.913 270.803 235.328 272.215 234.287 273.256C233.246 274.297 231.835 274.882 230.363 274.882ZM42.6791 0.194401C41.2732 0.196976 39.9258 0.757251 38.9327 1.75225C37.9395 2.74725 37.3817 4.09567 37.3817 5.50152V269.331C37.3817 270.737 37.9395 272.086 38.9327 273.081C39.9258 274.076 41.2732 274.636 42.6791 274.639H230.363C231.769 274.636 233.118 274.076 234.112 273.081C235.107 272.087 235.667 270.738 235.67 269.331V5.50152C235.667 4.09477 235.107 2.74638 234.112 1.75166C233.118 0.756936 231.769 0.19697 230.363 0.194401H42.6791Z" fill="#EBEBEB"/>
<path d="M440.617 274.882H252.924C251.452 274.879 250.042 274.293 249.002 273.253C247.962 272.213 247.376 270.803 247.374 269.331V5.50152C247.389 4.03877 247.98 2.641 249.019 1.61118C250.058 0.581362 251.461 0.00247694 252.924 0H440.617C442.077 0.00505877 443.477 0.585386 444.512 1.6152C445.547 2.64501 446.135 4.04134 446.148 5.50152V269.331C446.148 270.8 445.565 272.209 444.529 273.249C443.492 274.289 442.085 274.876 440.617 274.882ZM252.924 0.194401C251.517 0.19697 250.169 0.756936 249.174 1.75166C248.179 2.74638 247.619 4.09477 247.617 5.50152V269.331C247.619 270.738 248.179 272.087 249.174 273.081C250.169 274.076 251.517 274.636 252.924 274.639H440.617C442.024 274.636 443.372 274.076 444.367 273.081C445.361 272.087 445.921 270.738 445.924 269.331V5.50152C445.921 4.09477 445.361 2.74638 444.367 1.75166C443.372 0.756936 442.024 0.19697 440.617 0.194401H252.924Z" fill="#EBEBEB"/>
<path d="M208.475 318.232H226.574L226.574 193.943H208.475V318.232Z" fill="#E6E6E6"/>
<path d="M214.843 318.233H208.466V294.613H221.52L214.843 318.233Z" fill="#F0F0F0"/>
<path d="M399.883 318.232H417.982V193.943H399.883V318.232Z" fill="#E6E6E6"/>
<path d="M208.476 311.778H405.442V193.933L208.476 193.933L208.476 311.778Z" fill="#F0F0F0"/>
<path d="M399.065 318.233H405.441V294.613H392.387L399.065 318.233Z" fill="#F0F0F0"/>
<path d="M340.501 203.702V301.184H398.89V203.702H340.501Z" fill="#E6E6E6"/>
<path d="M363.916 207.123H375.473C380.357 207.185 385.089 205.42 388.741 202.176H350.658C354.306 205.42 359.034 207.185 363.916 207.123Z" fill="#F0F0F0"/>
<path d="M277.759 203.702V301.184H336.147V203.702H277.759Z" fill="#E6E6E6"/>
<path d="M300.59 207.123H312.137C317.021 207.185 321.753 205.42 325.405 202.176H287.322C290.974 205.42 295.705 207.185 300.59 207.123Z" fill="#F0F0F0"/>
<path d="M215.026 203.702V301.184H273.414V203.702H215.026Z" fill="#E6E6E6"/>
<path d="M237.852 207.123H249.399C254.284 207.186 259.016 205.422 262.667 202.176H224.584C228.236 205.42 232.967 207.185 237.852 207.123Z" fill="#F0F0F0"/>
<path d="M68.0206 318.232H191.523L191.523 40.6098H68.0206L68.0206 318.232Z" fill="#F0F0F0"/>
<path d="M68.0228 318.232H188.92L188.92 40.6098H68.0228L68.0228 318.232Z" fill="#F5F5F5"/>
<path d="M181.552 311.935L181.552 46.9092L75.3901 46.9092L75.3901 311.935H181.552Z" fill="#F0F0F0"/>
<path d="M171.12 96.2284C171.12 88.5514 168.07 81.1888 162.642 75.7604C157.213 70.3319 149.851 67.2822 142.174 67.2822H114.763C107.086 67.2822 99.7237 70.3319 94.2953 75.7604C88.8668 81.1888 85.8171 88.5514 85.8171 96.2284H171.12Z" fill="#FAFAFA"/>
<path d="M171.121 295.459V232.143H85.8281V295.459H171.121Z" fill="#F5F5F5"/>
<path d="M171.123 114.045H133.497V223.968H171.123V114.045Z" fill="#F5F5F5"/>
<path d="M123.443 114.045H85.8171V223.968H123.443V114.045Z" fill="#F5F5F5"/>
<path d="M99.4667 168.516H84.0605C83.7448 168.518 83.4318 168.458 83.1394 168.339C82.8471 168.22 82.5812 168.044 82.3571 167.822C82.133 167.6 81.9551 167.335 81.8338 167.044C81.7124 166.753 81.6499 166.44 81.6499 166.125C81.6499 165.49 81.9018 164.882 82.3502 164.434C82.7987 163.985 83.4069 163.733 84.041 163.733H99.4472C100.081 163.736 100.687 163.989 101.135 164.437C101.583 164.884 101.836 165.491 101.838 166.125C101.838 166.755 101.589 167.361 101.145 167.808C100.701 168.256 100.097 168.511 99.4667 168.516Z" fill="#E0E0E0"/>
<path d="M77.2954 311.935L77.2954 46.9092H75.3806L75.3806 311.935H77.2954Z" fill="#F0F0F0"/>
<path d="M269.641 163.471L400.609 163.471V40.6099L269.641 40.6099V163.471Z" fill="#E6E6E6"/>
<path d="M266.347 163.471L397.314 163.471V40.6099L266.347 40.6099V163.471Z" fill="#F5F5F5"/>
<path d="M258.687 170.586L400.609 170.586V163.471L258.687 163.471V170.586Z" fill="#E6E6E6"/>
<path d="M254.974 170.586L389.586 170.586V163.471L254.974 163.471V170.586Z" fill="#F5F5F5"/>
<path d="M391.387 157.075V46.9961L272.268 46.9961V157.075H391.387Z" fill="white"/>
<path d="M335.125 157.075V46.9961H328.525V157.075H335.125Z" fill="#F5F5F5"/>
<path d="M274.765 157.085V47.0059H272.267V157.085H274.765Z" fill="#E6E6E6"/>
<path d="M337.624 157.075V46.9961H335.126V157.075H337.624Z" fill="#E6E6E6"/>
<path d="M287.247 166.727C284.836 141.766 283.164 101.272 284.467 87.7226C284.489 87.4917 284.561 87.2682 284.677 87.0671C284.792 86.866 284.949 86.6918 285.138 86.5562C285.39 86.3733 285.688 86.2643 285.998 86.2417C286.309 86.2191 286.62 86.2837 286.895 86.4282C287.171 86.5727 287.401 86.7913 287.56 87.0595C287.718 87.3278 287.798 87.6348 287.791 87.9461C287.558 94.6627 287.295 111.439 288.763 140.376C289.473 154.781 290.503 164.676 289.794 166.727H287.247Z" fill="#E6E6E6"/>
<path d="M278.264 109.205C271.46 101.584 257.405 96.1702 243.127 96.1993C237.528 96.1993 260.175 105.054 269.594 114.823C276.913 122.404 285.146 135.167 287.975 142.253C286.157 127.333 285.127 116.815 278.264 109.205Z" fill="#E6E6E6"/>
<path d="M291.864 111.527C297.559 103.596 310.711 97.4915 324.912 96.8013C330.501 96.5292 309.253 106.521 301.321 116.688C295.159 124.61 288.841 137.742 287.11 144.935C286.741 129.995 286.168 119.459 291.864 111.527Z" fill="#E6E6E6"/>
<path d="M277.99 81.3957C272.158 74.9416 260.319 70.3538 248.237 70.383C243.484 70.383 262.671 77.8868 270.652 86.1488C276.843 92.5737 283.832 103.382 286.204 109.38C284.639 96.763 283.764 87.8401 277.99 81.3957Z" fill="#E6E6E6"/>
<path d="M289.47 90.9302C294.33 84.2137 305.431 79.0426 317.474 78.4594C322.198 78.2359 304.206 86.6631 297.499 95.3042C292.28 102.011 286.934 113.131 285.456 119.225C285.106 106.57 284.649 97.6467 289.47 90.9302Z" fill="#E6E6E6"/>
<path d="M288.22 193.943C284.608 193.929 281.138 192.539 278.516 190.056C275.893 187.573 274.316 184.183 274.106 180.578L272.862 158.883H303.674L302.421 180.578C302.212 184.199 300.623 187.603 297.982 190.089C295.34 192.575 291.847 193.954 288.22 193.943Z" fill="#E6E6E6"/>
<path d="M305.617 163.811H270.81L269.819 154.781H306.609L305.617 163.811Z" fill="#E6E6E6"/>
<path d="M242.999 362.128C347.083 362.128 431.46 357.202 431.46 351.125C431.46 345.048 347.083 340.122 242.999 340.122C138.914 340.122 54.5376 345.048 54.5376 351.125C54.5376 357.202 138.914 362.128 242.999 362.128Z" fill="#F5F5F5"/>
<path d="M246.801 340.608L238.685 341.522L235.691 323.112L243.808 322.198L246.801 340.608Z" fill="#FFC3BD"/>
<path d="M283.132 342.377H275.025L273.013 323.607H281.12L283.132 342.377Z" fill="#FFC3BD"/>
<path d="M274.365 341.434H284.241C284.402 341.434 284.558 341.489 284.683 341.59C284.808 341.691 284.896 341.831 284.931 341.988L286.535 349.19C286.573 349.366 286.571 349.547 286.529 349.722C286.487 349.896 286.406 350.059 286.291 350.198C286.177 350.336 286.033 350.447 285.87 350.522C285.707 350.596 285.529 350.633 285.349 350.629C282.171 350.58 279.848 350.395 275.843 350.395C273.384 350.395 265.958 350.648 262.556 350.648C259.154 350.648 258.668 347.285 260.106 346.984C266.346 345.613 271.051 343.728 273.053 341.929C273.414 341.607 273.882 341.43 274.365 341.434Z" fill="#263238"/>
<path d="M238.559 340.131L247.307 339.159C247.468 339.14 247.63 339.177 247.767 339.264C247.903 339.351 248.005 339.482 248.056 339.636L250.457 346.605C250.516 346.772 250.538 346.95 250.519 347.126C250.5 347.302 250.442 347.472 250.348 347.622C250.255 347.772 250.129 347.9 249.979 347.995C249.83 348.09 249.661 348.149 249.485 348.17C246.306 348.481 241.709 348.811 237.714 349.268C233.048 349.793 232.271 351.047 226.779 350.911C223.445 350.833 222.599 347.45 223.999 347.178C230.375 345.944 231.6 344.982 236.635 341.006C237.178 340.534 237.847 340.23 238.559 340.131Z" fill="#263238"/>
<path d="M245.712 104.246C242.991 106.492 240.308 108.445 237.538 110.448C234.768 112.45 231.939 114.336 229.023 116.114C226.107 117.893 223.123 119.633 219.984 121.198C216.781 122.867 213.445 124.269 210.011 125.387C209.107 125.669 208.222 125.912 207.202 126.155C206.204 126.374 205.195 126.536 204.179 126.641C202.351 126.845 200.641 126.923 198.93 127.011C195.518 127.166 192.126 127.156 188.821 127.137C182.134 127.059 175.505 126.738 168.837 126.165L168.74 120.08C175.281 119.244 181.852 118.515 188.355 117.786C191.601 117.427 194.848 117.038 198.007 116.62C199.591 116.406 201.156 116.153 202.594 115.881C203.217 115.77 203.833 115.627 204.441 115.453C205.005 115.259 205.705 115.036 206.385 114.773C209.164 113.642 211.863 112.323 214.463 110.827C217.155 109.281 219.838 107.619 222.482 105.86C225.125 104.101 227.76 102.273 230.374 100.417C232.989 98.5601 235.584 96.5869 238.034 94.7207L245.712 104.246Z" fill="#FFC3BD"/>
<path d="M253.633 97.3264C252.467 104.986 236.341 116.698 236.341 116.698L224.765 102.342C229.834 96.9292 235.211 91.8144 240.871 87.0232C246.071 82.7658 254.897 88.9866 253.633 97.3264Z" fill="#2E3192"/>
<path d="M170.976 120.702L166.378 117.427L165.873 127.779C165.873 127.779 168.419 127.779 169.401 125.912L170.976 120.702Z" fill="#FFC3BD"/>
<path d="M162.218 114.414L161.276 124.552L165.873 127.779L166.379 117.427L162.218 114.414Z" fill="#FFC3BD"/>
<path opacity="0.2" d="M235.7 323.122L237.236 332.608L245.352 331.695L243.816 322.208L235.7 323.122Z" fill="black"/>
<path opacity="0.2" d="M281.12 323.607H273.013L274.053 333.289H282.16L281.12 323.607Z" fill="black"/>
<path d="M281.237 87.2654C281.841 87.3999 282.411 87.6541 282.915 88.0128C283.419 88.3716 283.845 88.8277 284.17 89.3542C284.494 89.8807 284.71 90.4668 284.804 91.078C284.898 91.6892 284.868 92.3131 284.717 92.9127C282.959 100.212 281.635 107.609 280.751 115.065C279.983 121.344 279.527 127.341 279.245 132.774C278.564 145.508 278.846 155.218 278.467 158.513L235.223 155.519C230.829 121.11 235.971 99.1432 238.868 90.23C239.314 88.8418 240.144 87.6084 241.262 86.6726C242.38 85.7368 243.741 85.1368 245.186 84.9423C246.848 84.7285 248.831 84.5146 250.93 84.3883C251.659 84.3883 252.408 84.3202 253.156 84.3008C259.308 84.3599 265.452 84.772 271.556 85.5352C272.713 85.6713 273.879 85.8463 275.016 86.0212C277.281 86.4197 279.449 86.8669 281.237 87.2654Z" fill="#263238"/>
<path d="M271.19 64.7441C269.616 70.5761 267.701 81.3265 271.56 85.5644C261.539 92.3101 255.143 101.797 253.296 99.7361C252.324 98.6572 251.916 86.1281 253.179 84.2813C259.886 83.1635 260.061 78.2647 259.235 73.5893L271.19 64.7441Z" fill="#FFC3BD"/>
<path d="M270.779 83.1445C270.779 83.1445 254.44 90.3762 252.311 106.531C256.802 101.321 266.745 95.6542 266.745 95.6542L262.362 94.4003C265.148 93.3412 268.033 92.563 270.974 92.0772C270.488 89.8416 273.083 85.3899 273.083 85.3899L270.779 83.1445Z" fill="#2E3192"/>
<path d="M256.046 82.8818C256.046 82.8818 258.213 92.1158 252.284 106.531C251.36 101.029 247.482 91.8242 247.482 91.8242L251.487 92.9032C251.487 92.9032 251.283 91.0466 248.046 88.568C249.251 86.2547 253.023 83.5233 253.023 83.5233L256.046 82.8818Z" fill="#2E3192"/>
<path opacity="0.2" d="M266.328 68.3506L259.252 73.5799C259.464 74.6691 259.578 75.7752 259.592 76.8848C262.139 76.7001 265.793 74.1729 266.24 71.5485C266.464 70.4967 266.494 69.413 266.328 68.3506Z" fill="black"/>
<path d="M250.425 47.8516C246.469 48.0169 244.292 54.8306 248.296 60.4876C252.301 66.1447 255.742 47.6281 250.425 47.8516Z" fill="#263238"/>
<path d="M269.911 53.8481C270.378 61.8768 271.058 66.5522 267.53 71.1206C262.213 78.0023 251.929 75.5432 249.062 67.8158C246.496 60.8562 246.146 48.8909 253.582 44.7891C255.214 43.8738 257.053 43.3911 258.924 43.3867C260.796 43.3824 262.637 43.8567 264.273 44.7645C265.909 45.6722 267.286 46.9834 268.273 48.5732C269.26 50.1631 269.824 51.9789 269.911 53.8481Z" fill="#FFC3BD"/>
<path d="M271.09 60.0109C265.005 56.1229 262.857 51.0005 262.391 48.4247C260.029 48.9787 248.306 54.3733 244.7 48.4247C241.094 42.476 245.672 38.9768 252.379 42.6413C249.395 37.373 252.107 34.7972 261.487 34.5639C270.867 34.3307 269.603 39.7739 269.603 39.7739C269.603 39.7739 276.699 36.6829 279.216 42.1261C282.122 48.3858 276.757 59.0681 271.09 60.0109Z" fill="#263238"/>
<path d="M267.999 38.3357C268.087 38.3357 271.547 39.1716 275.542 35.1572C274.832 38.5787 268.631 40.8629 268.631 40.8629L267.999 38.3357Z" fill="#263238"/>
<path d="M272.654 50.087C268.922 48.7942 264.392 54.3346 266.064 61.022C267.736 67.7094 277.699 51.8269 272.654 50.087Z" fill="#263238"/>
<path d="M274.773 60.5261C274.605 61.5135 274.244 62.458 273.711 63.3054C273.177 64.1528 272.481 64.8863 271.663 65.4639C269.466 66.9996 267.483 65.25 267.357 62.7131C267.24 60.4289 268.251 56.8811 270.807 56.3562C273.364 55.8313 275.172 58.0767 274.773 60.5261Z" fill="#FFC3BD"/>
<path d="M247.422 246.8C249.366 223.103 263.654 157.483 263.654 157.483L235.223 155.52C235.223 155.52 224.259 220.644 223.423 245.371C222.549 271.081 232.891 328.205 232.891 328.205L246.499 326.65C246.499 326.65 245.459 270.604 247.422 246.8Z" fill="#2E3192"/>
<path opacity="0.5" d="M247.422 246.8C249.366 223.103 263.654 157.483 263.654 157.483L235.223 155.52C235.223 155.52 224.259 220.644 223.423 245.371C222.549 271.081 232.891 328.205 232.891 328.205L246.499 326.65C246.499 326.65 245.459 270.604 247.422 246.8Z" fill="white"/>
<path opacity="0.2" d="M252.942 179.703C247.208 187.032 247.11 212.751 249.327 231.783C251.436 218.058 254.76 200.679 257.686 186.099L252.942 179.703Z" fill="black"/>
<path d="M250.56 156.569C250.56 156.569 253.631 225.951 257.053 249.444C260.795 275.173 270.311 331.452 270.311 331.452H285.153C285.153 331.452 282.714 278.487 280.75 253.206C278.524 224.415 278.466 158.552 278.466 158.552L250.56 156.569Z" fill="#2E3192"/>
<path opacity="0.5" d="M250.56 156.569C250.56 156.569 253.631 225.951 257.053 249.444C260.795 275.173 270.311 331.452 270.311 331.452H285.153C285.153 331.452 282.714 278.487 280.75 253.206C278.524 224.415 278.466 158.552 278.466 158.552L250.56 156.569Z" fill="white"/>
<path d="M268.532 331.734H286.008V326.514L266.471 326.174L268.532 331.734Z" fill="#2E3192"/>
<path d="M232.288 329.722L248.54 327.875L247.947 322.626L229.751 324.405L232.288 329.722Z" fill="#2E3192"/>
<path d="M258.095 57.5227C258.173 58.1739 257.891 58.7474 257.463 58.796C257.035 58.8446 256.637 58.3586 256.549 57.7074C256.462 57.0561 256.754 56.4924 257.181 56.4438C257.609 56.3952 258.017 56.8812 258.095 57.5227Z" fill="#263238"/>
<path d="M250.776 58.4075C250.854 59.0588 250.572 59.6225 250.144 59.6808C249.717 59.7392 249.318 59.2434 249.24 58.5922C249.163 57.941 249.445 57.3772 249.863 57.3286C250.28 57.28 250.679 57.7563 250.776 58.4075Z" fill="#263238"/>
<path d="M253.127 58.4561C252.589 60.5315 251.768 62.5233 250.688 64.3755C251.171 64.6387 251.705 64.7933 252.254 64.8286C252.803 64.8638 253.353 64.7789 253.866 64.5797L253.127 58.4561Z" fill="#ED847E"/>
<path d="M260.089 54.8784C260.021 54.9002 259.949 54.9026 259.88 54.8854C259.812 54.8682 259.749 54.8321 259.7 54.7812C259.374 54.4272 258.969 54.1547 258.518 53.9859C258.067 53.8171 257.583 53.7565 257.105 53.8092C257.049 53.8254 256.99 53.8287 256.932 53.819C256.875 53.8093 256.82 53.7869 256.773 53.7533C256.725 53.7197 256.686 53.6758 256.657 53.6249C256.629 53.5741 256.612 53.5174 256.609 53.4593C256.598 53.4093 256.597 53.3576 256.607 53.3073C256.617 53.257 256.637 53.2094 256.666 53.1673C256.695 53.1253 256.733 53.0898 256.777 53.0631C256.82 53.0363 256.869 53.019 256.92 53.0122C257.523 52.9323 258.137 52.9993 258.709 53.2074C259.281 53.4156 259.794 53.7587 260.205 54.2077C260.242 54.2431 260.271 54.2854 260.29 54.3321C260.31 54.3789 260.32 54.4291 260.32 54.4799C260.32 54.5307 260.31 54.5809 260.29 54.6277C260.271 54.6744 260.242 54.7167 260.205 54.7521C260.175 54.8013 260.135 54.8442 260.089 54.8784Z" fill="#263238"/>
<path d="M257.269 67.1747C258.194 66.979 259.059 66.5633 259.79 65.9627C260.521 65.362 261.096 64.5942 261.468 63.7241C261.487 63.6738 261.485 63.6181 261.463 63.5689C261.441 63.5198 261.401 63.4812 261.351 63.4617C261.298 63.4428 261.24 63.4455 261.189 63.4691C261.138 63.4927 261.099 63.5355 261.079 63.588C260.725 64.3853 260.189 65.0882 259.513 65.6403C258.838 66.1924 258.043 66.5781 257.191 66.7665C257.139 66.7823 257.094 66.8167 257.065 66.8633C257.036 66.9099 257.026 66.9653 257.035 67.0192C257.051 67.0678 257.082 67.1098 257.125 67.1381C257.167 67.1664 257.218 67.1793 257.269 67.1747Z" fill="#263238"/>
<path d="M247.304 56.2585C247.229 56.2878 247.146 56.2878 247.071 56.2585C246.975 56.2252 246.896 56.1558 246.851 56.065C246.805 55.9742 246.797 55.8692 246.828 55.7725C247.014 55.1919 247.336 54.6641 247.767 54.233C248.198 53.8018 248.726 53.4799 249.307 53.2939C249.356 53.2809 249.407 53.2779 249.458 53.2851C249.508 53.2923 249.556 53.3096 249.6 53.3359C249.643 53.3622 249.681 53.397 249.711 53.4382C249.741 53.4794 249.762 53.5262 249.773 53.5758C249.786 53.6237 249.79 53.6737 249.783 53.7229C249.776 53.772 249.76 53.8194 249.734 53.862C249.709 53.9046 249.675 53.9417 249.635 53.971C249.595 54.0004 249.549 54.0213 249.501 54.0326C249.048 54.182 248.635 54.4357 248.298 54.7733C247.96 55.111 247.706 55.5231 247.557 55.9766C247.546 56.0429 247.517 56.1047 247.472 56.1547C247.427 56.2047 247.369 56.2407 247.304 56.2585Z" fill="#263238"/>
<path d="M271.681 342.854C271.13 342.894 270.582 342.747 270.126 342.436C269.987 342.317 269.878 342.167 269.809 341.998C269.739 341.829 269.711 341.646 269.727 341.464C269.725 341.351 269.755 341.24 269.813 341.143C269.872 341.047 269.957 340.969 270.058 340.919C270.952 340.453 273.567 342.066 273.858 342.251C273.892 342.269 273.919 342.298 273.935 342.333C273.951 342.368 273.955 342.408 273.946 342.445C273.94 342.483 273.924 342.518 273.897 342.546C273.871 342.574 273.837 342.593 273.8 342.601C273.105 342.765 272.395 342.85 271.681 342.854ZM270.476 341.172C270.392 341.17 270.309 341.187 270.233 341.221C270.192 341.241 270.158 341.274 270.136 341.313C270.113 341.353 270.103 341.399 270.106 341.444C270.089 341.573 270.103 341.705 270.149 341.827C270.195 341.949 270.27 342.058 270.369 342.144C270.816 342.513 271.875 342.572 273.285 342.29C272.43 341.739 271.476 341.359 270.476 341.172Z" fill="#2E3192"/>
<path d="M273.765 342.562C273.733 342.571 273.699 342.571 273.667 342.562C272.831 342.105 271.208 340.326 271.383 339.432C271.412 339.29 271.489 339.163 271.6 339.071C271.711 338.979 271.851 338.928 271.996 338.927C272.141 338.907 272.289 338.918 272.43 338.96C272.571 339.002 272.701 339.073 272.812 339.17C273.784 339.938 273.949 342.28 273.949 342.377C273.955 342.412 273.95 342.448 273.934 342.479C273.918 342.511 273.893 342.536 273.862 342.552C273.831 342.565 273.797 342.569 273.765 342.562ZM272.161 339.277H272.083C271.83 339.277 271.811 339.422 271.801 339.471C271.694 340.006 272.773 341.347 273.56 341.979C273.502 341.054 273.163 340.169 272.588 339.442C272.47 339.338 272.318 339.28 272.161 339.277Z" fill="#2E3192"/>
<path d="M237.898 341.328C236.634 341.736 234.36 342.3 233.388 341.629C233.244 341.531 233.127 341.399 233.048 341.244C232.968 341.09 232.928 340.918 232.931 340.744C232.923 340.64 232.942 340.534 232.986 340.439C233.03 340.344 233.098 340.261 233.184 340.2C234.097 339.558 237.528 340.822 237.907 340.968C237.944 340.983 237.976 341.009 237.998 341.041C238.021 341.074 238.033 341.113 238.034 341.153C238.033 341.193 238.019 341.231 237.995 341.263C237.97 341.294 237.936 341.317 237.898 341.328ZM233.417 340.492C233.383 340.518 233.356 340.552 233.339 340.591C233.322 340.63 233.316 340.673 233.32 340.715C233.317 340.83 233.344 340.943 233.396 341.045C233.449 341.147 233.526 341.234 233.621 341.298C234.165 341.687 235.497 341.609 237.246 341.114C235.837 340.676 233.981 340.2 233.417 340.492Z" fill="#2E3192"/>
<path d="M237.898 341.327C237.848 341.347 237.793 341.347 237.743 341.327C236.722 341.006 234.603 339.48 234.652 338.557C234.652 338.333 234.778 338.051 235.293 337.944C235.48 337.9 235.675 337.895 235.864 337.93C236.053 337.966 236.233 338.04 236.392 338.149C237.509 338.878 237.976 341.065 237.995 341.065C238.001 341.098 237.998 341.132 237.988 341.164C237.978 341.196 237.961 341.225 237.937 341.249L237.898 341.327ZM235.167 338.411C235.04 338.479 235.031 338.557 235.031 338.596C235.031 339.15 236.469 340.365 237.529 340.851C237.334 339.943 236.862 339.117 236.178 338.489C236.064 338.407 235.934 338.351 235.796 338.324C235.659 338.297 235.517 338.3 235.381 338.333C235.306 338.344 235.234 338.367 235.167 338.401V338.411Z" fill="#2E3192"/>
<path d="M288.064 98.9491C287.859 102.118 287.49 105.063 287.092 108.105C286.693 111.148 286.188 114.132 285.614 117.145C284.486 123.3 282.817 129.343 280.628 135.205L279.656 137.469L279.413 138.033L279.354 138.179L279.257 138.393L278.966 138.995C278.598 139.695 278.148 140.348 277.624 140.939C276.788 141.894 275.803 142.708 274.708 143.35C273.82 143.883 272.887 144.335 271.919 144.701C268.709 145.861 265.352 146.564 261.946 146.791C255.758 147.25 249.537 147.018 243.4 146.101L243.624 140.016L247.91 139.53C249.349 139.365 250.778 139.141 252.197 138.947C255.035 138.529 257.844 138.062 260.527 137.44C263 136.937 265.405 136.141 267.69 135.069C268.304 134.808 268.843 134.397 269.255 133.873C269.255 133.727 268.973 134.34 269.333 133.368L269.975 131.492C271.547 126.118 272.748 120.642 273.571 115.104C274.038 112.285 274.426 109.437 274.815 106.579C275.204 103.722 275.505 100.815 275.787 98.084L288.064 98.9491Z" fill="#FFC3BD"/>
<path d="M288.782 93.0782C292.748 99.7267 289.365 120.644 289.365 120.644L268.564 116.756C268.564 116.756 267.437 104.781 271.402 95.5859C275.708 85.6132 283.98 85.0106 288.782 93.0782Z" fill="#2E3192"/>
<path d="M237.829 158.728L226.796 107.406C226.268 105.214 225.041 103.253 223.299 101.82C221.558 100.387 219.397 99.5605 217.144 99.4648H174.882C177.134 99.5637 179.293 100.392 181.034 101.824C182.775 103.256 184.003 105.215 184.534 107.406L195.556 158.728C196.087 160.919 197.315 162.878 199.056 164.31C200.797 165.742 202.956 166.57 205.208 166.669H247.481C245.228 166.572 243.068 165.744 241.327 164.312C239.586 162.879 238.358 160.919 237.829 158.728Z" fill="#263238"/>
<path opacity="0.7" d="M237.829 158.728L226.796 107.406C226.268 105.214 225.041 103.253 223.299 101.82C221.558 100.387 219.397 99.5605 217.144 99.4648H174.882C177.134 99.5637 179.293 100.392 181.034 101.824C182.775 103.256 184.003 105.215 184.534 107.406L195.556 158.728C196.087 160.919 197.315 162.878 199.056 164.31C200.797 165.742 202.956 166.57 205.208 166.669H247.481C245.228 166.572 243.068 165.744 241.327 164.312C239.586 162.879 238.358 160.919 237.829 158.728Z" fill="#2E3192"/>
<path d="M158.392 161.293L157.309 173.336L158.281 173.423L159.364 161.38L158.392 161.293Z" fill="#2E3192"/>
<path d="M156.211 179.156L155.746 184.198L156.714 184.288L157.179 179.245L156.211 179.156Z" fill="#2E3192"/>
<path d="M174.88 99.4648H217.142C214.979 99.505 212.904 100.334 211.31 101.797C209.715 103.259 208.709 105.254 208.482 107.406L197.518 226.651C197.288 228.804 196.281 230.799 194.684 232.261C193.088 233.723 191.012 234.552 188.847 234.592H162.467C161.451 234.611 160.443 234.413 159.509 234.011C158.576 233.608 157.74 233.011 157.056 232.259C156.372 231.507 155.857 230.618 155.544 229.651C155.232 228.684 155.13 227.661 155.245 226.651L166.21 107.406C166.439 105.253 167.447 103.258 169.043 101.796C170.64 100.334 172.715 99.5048 174.88 99.4648Z" fill="#2E3192"/>
<path d="M181.628 226.65C181.513 227.66 181.615 228.683 181.927 229.65C182.239 230.617 182.754 231.507 183.438 232.259C184.122 233.01 184.958 233.608 185.892 234.01C186.825 234.412 187.834 234.611 188.85 234.592H146.577C145.562 234.611 144.553 234.413 143.621 234.01C142.688 233.608 141.852 233.01 141.169 232.258C140.486 231.506 139.971 230.617 139.66 229.649C139.349 228.682 139.249 227.66 139.365 226.65H181.628Z" fill="#263238"/>
<path opacity="0.7" d="M181.628 226.65C181.513 227.66 181.615 228.683 181.927 229.65C182.239 230.617 182.754 231.507 183.438 232.259C184.122 233.01 184.958 233.608 185.892 234.01C186.825 234.412 187.834 234.611 188.85 234.592H146.577C145.562 234.611 144.553 234.413 143.621 234.01C142.688 233.608 141.852 233.01 141.169 232.258C140.486 231.506 139.971 230.617 139.66 229.649C139.349 228.682 139.249 227.66 139.365 226.65H181.628Z" fill="#2E3192"/>
<g opacity="0.5">
<path opacity="0.5" d="M201.203 112.83H172.549C172.328 112.832 172.11 112.788 171.907 112.7C171.705 112.612 171.524 112.481 171.376 112.318C171.228 112.154 171.116 111.961 171.049 111.751C170.981 111.541 170.959 111.319 170.984 111.099C171.036 110.632 171.255 110.198 171.602 109.88C171.949 109.562 172.399 109.381 172.87 109.369H201.476C201.696 109.366 201.915 109.411 202.117 109.499C202.319 109.587 202.501 109.717 202.649 109.881C202.797 110.045 202.908 110.238 202.976 110.448C203.043 110.658 203.065 110.88 203.041 111.099C202.99 111.559 202.778 111.986 202.441 112.303C202.104 112.62 201.665 112.807 201.203 112.83Z" fill="white"/>
<path opacity="0.5" d="M200.309 122.18H171.703C171.481 122.185 171.262 122.141 171.058 122.054C170.855 121.966 170.673 121.836 170.523 121.672C170.374 121.508 170.262 121.315 170.194 121.104C170.126 120.893 170.103 120.67 170.128 120.45C170.18 119.982 170.4 119.549 170.746 119.231C171.093 118.913 171.544 118.731 172.014 118.72H200.62C200.841 118.716 201.061 118.759 201.265 118.847C201.468 118.934 201.65 119.064 201.799 119.228C201.949 119.392 202.061 119.586 202.129 119.796C202.197 120.007 202.22 120.23 202.195 120.45C202.143 120.918 201.923 121.351 201.577 121.669C201.23 121.987 200.779 122.169 200.309 122.18Z" fill="white"/>
<path opacity="0.5" d="M192.454 131.541H170.846C170.626 131.543 170.407 131.499 170.205 131.411C170.002 131.323 169.821 131.192 169.673 131.029C169.525 130.865 169.414 130.672 169.346 130.462C169.279 130.252 169.257 130.03 169.281 129.811C169.333 129.343 169.553 128.91 169.899 128.591C170.246 128.273 170.697 128.092 171.167 128.08H192.755C192.977 128.076 193.196 128.119 193.4 128.207C193.603 128.295 193.786 128.425 193.935 128.588C194.084 128.752 194.196 128.946 194.264 129.157C194.332 129.368 194.355 129.59 194.33 129.811C194.278 130.277 194.06 130.709 193.715 131.027C193.371 131.344 192.923 131.527 192.454 131.541Z" fill="white"/>
<path opacity="0.5" d="M177.323 140.94H170.004C169.783 140.944 169.564 140.901 169.362 140.814C169.159 140.727 168.977 140.598 168.828 140.435C168.679 140.272 168.567 140.08 168.498 139.87C168.429 139.661 168.406 139.439 168.429 139.22C168.481 138.752 168.7 138.319 169.047 138C169.394 137.682 169.844 137.501 170.315 137.489H177.644C177.864 137.487 178.083 137.531 178.285 137.619C178.487 137.707 178.669 137.838 178.817 138.001C178.965 138.165 179.076 138.358 179.144 138.568C179.211 138.778 179.233 139 179.208 139.22C179.155 139.686 178.934 140.116 178.588 140.433C178.241 140.749 177.792 140.929 177.323 140.94Z" fill="white"/>
<path opacity="0.5" d="M197.752 150.252H169.127C168.906 150.254 168.687 150.21 168.485 150.122C168.283 150.034 168.102 149.903 167.954 149.74C167.806 149.576 167.694 149.383 167.626 149.173C167.559 148.963 167.537 148.741 167.562 148.521C167.613 148.054 167.833 147.62 168.18 147.302C168.526 146.984 168.977 146.803 169.447 146.791H198.044C198.265 146.787 198.485 146.83 198.688 146.918C198.892 147.006 199.074 147.136 199.223 147.299C199.372 147.463 199.485 147.657 199.553 147.868C199.621 148.078 199.643 148.301 199.618 148.521C199.567 148.986 199.35 149.417 199.008 149.734C198.665 150.052 198.219 150.236 197.752 150.252Z" fill="white"/>
<path opacity="0.5" d="M185.652 159.612H168.302C168.081 159.616 167.861 159.573 167.657 159.485C167.454 159.398 167.272 159.267 167.123 159.104C166.973 158.94 166.861 158.746 166.793 158.535C166.725 158.325 166.702 158.102 166.727 157.882C166.779 157.414 166.999 156.981 167.345 156.663C167.692 156.344 168.143 156.163 168.613 156.151H185.954C186.175 156.149 186.394 156.193 186.596 156.281C186.799 156.369 186.981 156.5 187.129 156.663C187.278 156.826 187.391 157.02 187.459 157.23C187.528 157.44 187.552 157.662 187.528 157.882C187.477 158.348 187.259 158.78 186.914 159.098C186.569 159.416 186.121 159.598 185.652 159.612Z" fill="white"/>
<path opacity="0.5" d="M196.053 168.962H167.447C167.227 168.965 167.008 168.921 166.806 168.833C166.604 168.744 166.422 168.614 166.274 168.451C166.126 168.287 166.015 168.094 165.947 167.884C165.88 167.674 165.858 167.451 165.882 167.232C165.934 166.764 166.154 166.331 166.5 166.013C166.847 165.695 167.298 165.513 167.768 165.502H196.345C196.566 165.499 196.785 165.544 196.988 165.632C197.19 165.72 197.372 165.85 197.521 166.014C197.67 166.177 197.782 166.37 197.851 166.58C197.919 166.79 197.943 167.012 197.92 167.232C197.868 167.697 197.652 168.127 197.309 168.445C196.966 168.763 196.52 168.946 196.053 168.962Z" fill="white"/>
<path opacity="0.5" d="M188.188 178.323H166.599C166.378 178.327 166.158 178.284 165.955 178.196C165.751 178.109 165.569 177.979 165.42 177.815C165.271 177.651 165.158 177.457 165.09 177.246C165.022 177.036 165 176.813 165.025 176.593C165.076 176.125 165.296 175.692 165.643 175.374C165.99 175.055 166.44 174.874 166.91 174.863H188.499C188.72 174.858 188.94 174.902 189.143 174.989C189.347 175.077 189.529 175.207 189.678 175.371C189.827 175.535 189.94 175.728 190.008 175.939C190.076 176.15 190.098 176.373 190.073 176.593C190.022 177.061 189.802 177.494 189.455 177.812C189.108 178.13 188.658 178.312 188.188 178.323Z" fill="white"/>
<path opacity="0.5" d="M173.074 187.683H165.745C165.524 187.686 165.305 187.642 165.102 187.553C164.899 187.465 164.718 187.335 164.569 187.172C164.42 187.008 164.308 186.815 164.239 186.605C164.17 186.395 164.147 186.173 164.17 185.953C164.222 185.484 164.443 185.049 164.792 184.731C165.141 184.412 165.593 184.232 166.066 184.223H173.385C173.606 184.219 173.826 184.262 174.029 184.35C174.233 184.437 174.415 184.567 174.564 184.731C174.713 184.895 174.826 185.089 174.894 185.299C174.962 185.51 174.984 185.733 174.959 185.953C174.908 186.421 174.688 186.854 174.341 187.172C173.995 187.49 173.544 187.672 173.074 187.683Z" fill="white"/>
<path opacity="0.5" d="M193.495 197.034H164.899C164.677 197.038 164.458 196.995 164.254 196.907C164.051 196.819 163.868 196.689 163.719 196.526C163.57 196.362 163.458 196.168 163.39 195.957C163.321 195.746 163.299 195.524 163.324 195.304C163.376 194.836 163.595 194.403 163.942 194.084C164.289 193.766 164.739 193.585 165.21 193.573H193.816C194.036 193.571 194.255 193.615 194.457 193.703C194.66 193.791 194.841 193.922 194.989 194.085C195.137 194.249 195.248 194.442 195.316 194.652C195.383 194.862 195.406 195.084 195.381 195.304C195.329 195.771 195.109 196.205 194.763 196.523C194.416 196.841 193.965 197.022 193.495 197.034Z" fill="white"/>
<path opacity="0.5" d="M181.386 206.394H164.045C163.824 206.398 163.604 206.355 163.401 206.268C163.197 206.18 163.015 206.05 162.866 205.886C162.717 205.722 162.605 205.528 162.536 205.318C162.468 205.107 162.446 204.884 162.471 204.664C162.522 204.196 162.742 203.763 163.089 203.445C163.436 203.127 163.886 202.945 164.357 202.934H181.697C181.918 202.93 182.138 202.973 182.342 203.061C182.545 203.148 182.727 203.278 182.877 203.442C183.026 203.606 183.138 203.8 183.206 204.01C183.274 204.221 183.297 204.444 183.272 204.664C183.22 205.132 183 205.565 182.654 205.883C182.307 206.201 181.856 206.383 181.386 206.394Z" fill="white"/>
<path opacity="0.5" d="M191.795 215.784H163.198C162.977 215.788 162.757 215.745 162.554 215.657C162.35 215.569 162.168 215.439 162.019 215.276C161.87 215.112 161.757 214.918 161.689 214.707C161.621 214.497 161.599 214.274 161.624 214.054C161.677 213.588 161.898 213.157 162.245 212.84C162.591 212.524 163.04 212.344 163.509 212.333H192.115C192.335 212.33 192.553 212.374 192.754 212.462C192.956 212.55 193.136 212.679 193.284 212.842C193.432 213.004 193.544 213.196 193.612 213.405C193.68 213.614 193.704 213.835 193.68 214.054C193.629 214.521 193.409 214.954 193.062 215.273C192.715 215.591 192.265 215.772 191.795 215.784Z" fill="white"/>
</g>
<path d="M246.138 140.57L239.927 135.176L237.011 145.11C237.011 145.11 243.319 148.531 245.497 145.391L246.138 140.57Z" fill="#FFC3BD"/>
<path d="M233.174 134.787L231.152 143.117L237.023 145.11L239.929 135.176L233.174 134.787Z" fill="#FFC3BD"/>
</svg>
