<svg width="335" height="150" viewBox="0 0 335 150" fill="none" xmlns="http://www.w3.org/2000/svg">
<path fill-rule="evenodd" clip-rule="evenodd" d="M47.7486 149.258H40.5352V48.2699C40.5352 47.0075 41.5571 45.9656 42.8395 45.9656H45.4644C46.7267 45.9656 47.7687 46.9875 47.7687 48.2699V149.258H47.7486Z" fill="#2E186A"/>
<path fill-rule="evenodd" clip-rule="evenodd" d="M178.934 149.258H171.721V48.2699C171.721 47.0075 172.743 45.9656 174.025 45.9656H176.65C177.912 45.9656 178.954 46.9875 178.954 48.2699V149.258H178.934Z" fill="#2E186A"/>
<rect x="27.8906" y="56.9263" width="155.571" height="17.5929" fill="#00ADEF"/>
<path fill-rule="evenodd" clip-rule="evenodd" d="M52.3363 56.9265H39.4923L27.8906 73.9984V74.5394H40.3539L52.3363 56.9265Z" fill="white"/>
<path fill-rule="evenodd" clip-rule="evenodd" d="M66.8435 74.5394L78.8058 56.9265H65.9819L54.0195 74.5394H66.8435Z" fill="white"/>
<path fill-rule="evenodd" clip-rule="evenodd" d="M93.3142 74.5394L105.297 56.9265H92.4526L80.4902 74.5394H93.3142Z" fill="white"/>
<path fill-rule="evenodd" clip-rule="evenodd" d="M119.802 74.5394L131.765 56.9265H118.941L106.979 74.5394H119.802Z" fill="white"/>
<path fill-rule="evenodd" clip-rule="evenodd" d="M146.271 74.5394L158.254 56.9265H145.41L133.447 74.5394H146.271Z" fill="white"/>
<path fill-rule="evenodd" clip-rule="evenodd" d="M172.761 74.5394L183.461 58.79V56.9265H171.9L159.938 74.5394H172.761Z" fill="white"/>
<rect x="27.8906" y="88.1245" width="155.571" height="17.5929" fill="#00ADEF"/>
<path fill-rule="evenodd" clip-rule="evenodd" d="M52.3363 88.1245H39.4923L27.8906 105.196V105.717H40.3539L52.3363 88.1245Z" fill="white"/>
<path fill-rule="evenodd" clip-rule="evenodd" d="M66.8435 105.717L78.8058 88.1245H65.9819L54.0195 105.717H66.8435Z" fill="white"/>
<path fill-rule="evenodd" clip-rule="evenodd" d="M93.3142 105.717L105.297 88.1245H92.4526L80.4902 105.717H93.3142Z" fill="white"/>
<path fill-rule="evenodd" clip-rule="evenodd" d="M119.802 105.717L131.765 88.1245H118.941L106.979 105.717H119.802Z" fill="white"/>
<path fill-rule="evenodd" clip-rule="evenodd" d="M146.271 105.717L158.254 88.1245H145.41L133.447 105.717H146.271Z" fill="white"/>
<path fill-rule="evenodd" clip-rule="evenodd" d="M172.761 105.717L183.461 89.968V88.1245H171.9L159.938 105.717H172.761Z" fill="white"/>
<path fill-rule="evenodd" clip-rule="evenodd" d="M291.647 1.28247H276.499H85.1614C79.5309 1.28247 74.9824 5.851 74.9824 11.4615V121.487C74.9824 127.117 79.551 131.666 85.1614 131.666H276.519H281.889H291.647C296.877 131.666 301.105 127.438 301.105 122.208V10.7401C301.105 5.51037 296.877 1.28247 291.647 1.28247Z" fill="#2E3192"/>
<path fill-rule="evenodd" clip-rule="evenodd" d="M87.5265 10.7601C89.1311 10.7601 90.4319 9.45927 90.4319 7.85464C90.4319 6.25002 89.1311 4.94922 87.5265 4.94922C85.9219 4.94922 84.6211 6.25002 84.6211 7.85464C84.6211 9.45927 85.9219 10.7601 87.5265 10.7601Z" fill="#00ADEF"/>
<path fill-rule="evenodd" clip-rule="evenodd" d="M98.8683 10.7601C100.473 10.7601 101.774 9.45927 101.774 7.85464C101.774 6.25002 100.473 4.94922 98.8683 4.94922C97.2637 4.94922 95.9629 6.25002 95.9629 7.85464C95.9629 9.45927 97.2637 10.7601 98.8683 10.7601Z" fill="#F0E6F5"/>
<path fill-rule="evenodd" clip-rule="evenodd" d="M110.189 10.7601C111.793 10.7601 113.094 9.45927 113.094 7.85464C113.094 6.25002 111.793 4.94922 110.189 4.94922C108.584 4.94922 107.283 6.25002 107.283 7.85464C107.283 9.45927 108.584 10.7601 110.189 10.7601Z" fill="white"/>
<path fill-rule="evenodd" clip-rule="evenodd" d="M222.857 14.4868L224.06 14.4876L223.98 131.927L222.777 131.926L222.857 14.4868Z" fill="white"/>
<path fill-rule="evenodd" clip-rule="evenodd" d="M292.067 13.9661C292.399 13.9661 292.668 14.2352 292.668 14.5672C292.668 14.8873 292.418 15.149 292.102 15.1673L292.067 15.1683H75.0015C74.6695 15.1683 74.4004 14.8992 74.4004 14.5672C74.4004 14.2471 74.6506 13.9854 74.9662 13.9671L75.0015 13.9661H292.067Z" fill="white"/>
<path fill-rule="evenodd" clip-rule="evenodd" d="M248.167 45.3846H247.706C247.205 45.3846 246.824 44.9838 246.824 44.5029V43.2005C246.824 42.6996 247.225 42.3188 247.706 42.3188H248.167C248.668 42.3188 249.048 42.7196 249.048 43.2005V44.5029C249.068 44.9838 248.668 45.3846 248.167 45.3846Z" fill="#00ADEF"/>
<path fill-rule="evenodd" clip-rule="evenodd" d="M244.961 45.3843H231.516C230.954 45.3843 230.514 44.9435 230.514 44.3825V43.3005C230.514 42.7394 230.954 42.2986 231.516 42.2986H244.961C245.522 42.2986 245.963 42.7394 245.963 43.3005V44.3825C245.963 44.9235 245.502 45.3843 244.961 45.3843Z" fill="#2E186A"/>
<path fill-rule="evenodd" clip-rule="evenodd" d="M246.344 59.671H231.496C230.935 59.671 230.494 59.2301 230.494 58.6691V57.5871C230.494 57.026 230.935 56.5852 231.496 56.5852H246.344C246.905 56.5852 247.346 57.026 247.346 57.5871V58.6691C247.346 59.2301 246.905 59.671 246.344 59.671Z" fill="#2E186A"/>
<path fill-rule="evenodd" clip-rule="evenodd" d="M259.909 54.9222H235.764C235.203 54.9222 234.762 54.4814 234.762 53.9203V52.8383C234.762 52.2772 235.203 51.8364 235.764 51.8364H259.909C260.47 51.8364 260.911 52.2772 260.911 52.8383V53.9203C260.911 54.4613 260.45 54.9222 259.909 54.9222Z" fill="#00ADEF"/>
<path fill-rule="evenodd" clip-rule="evenodd" d="M255.682 38.251H231.537C230.976 38.251 230.535 37.8102 230.535 37.2492V36.1672C230.535 35.6061 230.976 35.1653 231.537 35.1653H255.682C256.243 35.1653 256.684 35.6061 256.684 36.1672V37.2492C256.684 37.7902 256.243 38.251 255.682 38.251Z" fill="#F0E6F5"/>
<path fill-rule="evenodd" clip-rule="evenodd" d="M255.682 74.9195H231.537C230.976 74.9195 230.535 74.4787 230.535 73.9176V72.8356C230.535 72.2746 230.976 71.8337 231.537 71.8337H255.682C256.243 71.8337 256.684 72.2746 256.684 72.8356V73.9176C256.684 74.4787 256.243 74.9195 255.682 74.9195Z" fill="#F0E6F5"/>
<path fill-rule="evenodd" clip-rule="evenodd" d="M275.478 54.9222H263.355C262.794 54.9222 262.354 54.4814 262.354 53.9203V52.8383C262.354 52.2772 262.794 51.8364 263.355 51.8364H275.478C276.039 51.8364 276.48 52.2772 276.48 52.8383V53.9203C276.48 54.4613 276.039 54.9222 275.478 54.9222Z" fill="#F0E6F5"/>
<path fill-rule="evenodd" clip-rule="evenodd" d="M280.368 50.1531H279.907C279.406 50.1531 279.025 49.7524 279.025 49.2715V47.969C279.025 47.4681 279.426 47.0874 279.907 47.0874H280.368C280.869 47.0874 281.25 47.4882 281.25 47.969V49.2715C281.27 49.7524 280.869 50.1531 280.368 50.1531Z" fill="#2E186A"/>
<path fill-rule="evenodd" clip-rule="evenodd" d="M256.523 50.1531H231.496C230.935 50.1531 230.494 49.7123 230.494 49.1513V48.0693C230.494 47.5082 230.935 47.0674 231.496 47.0674H256.523C257.084 47.0674 257.525 47.5082 257.525 48.0693V49.1513C257.525 49.6923 257.084 50.1531 256.523 50.1531Z" fill="#2E186A"/>
<path fill-rule="evenodd" clip-rule="evenodd" d="M264.517 45.3843H251.072C250.511 45.3843 250.07 44.9435 250.07 44.3825V43.3005C250.07 42.7394 250.511 42.2986 251.072 42.2986H264.517C265.078 42.2986 265.519 42.7394 265.519 43.3005V44.3825C265.519 44.9235 265.058 45.3843 264.517 45.3843Z" fill="#2E186A"/>
<path fill-rule="evenodd" clip-rule="evenodd" d="M276.8 50.1532H259.728C259.167 50.1532 258.727 49.7123 258.727 49.1513V48.0492C258.727 47.4882 259.167 47.0474 259.728 47.0474H276.8C277.361 47.0474 277.802 47.4882 277.802 48.0492V49.1513C277.802 49.7123 277.361 50.1532 276.8 50.1532Z" fill="#00ADEF"/>
<path fill-rule="evenodd" clip-rule="evenodd" d="M244.961 87.0223H231.516C230.954 87.0223 230.514 86.5815 230.514 86.0204V84.9384C230.514 84.3773 230.954 83.9365 231.516 83.9365H244.961C245.522 83.9365 245.963 84.3773 245.963 84.9384V86.0204C245.963 86.5815 245.502 87.0223 244.961 87.0223Z" fill="#2E186A"/>
<path fill-rule="evenodd" clip-rule="evenodd" d="M246.344 101.329H231.496C230.935 101.329 230.494 100.888 230.494 100.327V99.2448C230.494 98.6837 230.935 98.2429 231.496 98.2429H246.344C246.905 98.2429 247.346 98.6837 247.346 99.2448V100.327C247.346 100.868 246.905 101.329 246.344 101.329Z" fill="#2E186A"/>
<path fill-rule="evenodd" clip-rule="evenodd" d="M259.909 96.5599H235.764C235.203 96.5599 234.762 96.1191 234.762 95.558V94.476C234.762 93.9149 235.203 93.4741 235.764 93.4741H259.909C260.47 93.4741 260.911 93.9149 260.911 94.476V95.558C260.911 96.1191 260.45 96.5599 259.909 96.5599Z" fill="#00ADEF"/>
<path fill-rule="evenodd" clip-rule="evenodd" d="M275.478 96.5599H263.355C262.794 96.5599 262.354 96.1191 262.354 95.558V94.476C262.354 93.9149 262.794 93.4741 263.355 93.4741H275.478C276.039 93.4741 276.48 93.9149 276.48 94.476V95.558C276.48 96.1191 276.039 96.5599 275.478 96.5599Z" fill="#F0E6F5"/>
<path fill-rule="evenodd" clip-rule="evenodd" d="M280.368 91.8111H279.907C279.406 91.8111 279.025 91.4103 279.025 90.9294V89.627C279.025 89.1261 279.426 88.7454 279.907 88.7454H280.368C280.869 88.7454 281.25 89.1461 281.25 89.627V90.9294C281.27 91.4103 280.869 91.8111 280.368 91.8111Z" fill="#2E186A"/>
<path fill-rule="evenodd" clip-rule="evenodd" d="M284.296 87.022H283.835C283.334 87.022 282.953 86.6213 282.953 86.1404V84.8379C282.953 84.337 283.354 83.9563 283.835 83.9563H284.296C284.797 83.9563 285.177 84.357 285.177 84.8379V86.1404C285.197 86.6213 284.797 87.022 284.296 87.022Z" fill="#2E186A"/>
<path fill-rule="evenodd" clip-rule="evenodd" d="M256.523 91.7911H231.496C230.935 91.7911 230.494 91.3503 230.494 90.7892V89.7072C230.494 89.1461 230.935 88.7053 231.496 88.7053H256.523C257.084 88.7053 257.525 89.1461 257.525 89.7072V90.7892C257.525 91.3503 257.084 91.7911 256.523 91.7911Z" fill="#2E186A"/>
<path fill-rule="evenodd" clip-rule="evenodd" d="M264.517 87.0223H247.826C247.265 87.0223 246.824 86.5815 246.824 86.0204V84.9384C246.824 84.3773 247.265 83.9365 247.826 83.9365H264.517C265.078 83.9365 265.519 84.3773 265.519 84.9384V86.0204C265.519 86.5815 265.058 87.0223 264.517 87.0223Z" fill="#00ADEF"/>
<path fill-rule="evenodd" clip-rule="evenodd" d="M281.148 87.0223H267.703C267.142 87.0223 266.701 86.5815 266.701 86.0204V84.9384C266.701 84.3773 267.142 83.9365 267.703 83.9365H281.148C281.709 83.9365 282.15 84.3773 282.15 84.9384V86.0204C282.15 86.5815 281.709 87.0223 281.148 87.0223Z" fill="#00ADEF"/>
<path fill-rule="evenodd" clip-rule="evenodd" d="M248.167 82.4134H247.706C247.205 82.4134 246.824 82.0126 246.824 81.5317V80.2293C246.824 79.7284 247.225 79.3477 247.706 79.3477H248.167C248.668 79.3477 249.048 79.7484 249.048 80.2293V81.5317C249.068 82.0126 248.668 82.4134 248.167 82.4134Z" fill="#00ADEF"/>
<path fill-rule="evenodd" clip-rule="evenodd" d="M244.961 82.4136H231.516C230.954 82.4136 230.514 81.9728 230.514 81.4118V80.3298C230.514 79.7687 230.954 79.3279 231.516 79.3279H244.961C245.522 79.3279 245.963 79.7687 245.963 80.3298V81.4118C245.963 81.9528 245.502 82.4136 244.961 82.4136Z" fill="#2E186A"/>
<path fill-rule="evenodd" clip-rule="evenodd" d="M264.517 82.4136H251.072C250.511 82.4136 250.07 81.9728 250.07 81.4118V80.3298C250.07 79.7687 250.511 79.3279 251.072 79.3279H264.517C265.078 79.3279 265.519 79.7687 265.519 80.3298V81.4118C265.519 81.9528 265.058 82.4136 264.517 82.4136Z" fill="#2E186A"/>
<path fill-rule="evenodd" clip-rule="evenodd" d="M276.8 91.8111H259.728C259.167 91.8111 258.727 91.3703 258.727 90.8093V89.7072C258.727 89.1461 259.167 88.7053 259.728 88.7053H276.8C277.361 88.7053 277.802 89.1461 277.802 89.7072V90.8093C277.802 91.3503 277.361 91.8111 276.8 91.8111Z" fill="#00ADEF"/>
<path fill-rule="evenodd" clip-rule="evenodd" d="M193.022 92.2925H169.578C167.87 92.2925 166.492 93.6775 166.492 95.3782V119.403C166.492 121.098 167.883 122.489 169.578 122.489H193.022C194.73 122.489 196.107 121.104 196.107 119.403V95.3782C196.107 93.6698 194.722 92.2925 193.022 92.2925ZM169.578 93.4947H193.021C194.06 93.4947 194.905 94.3353 194.905 95.3782V119.403C194.905 120.441 194.064 121.287 193.021 121.287H169.578C168.547 121.287 167.694 120.434 167.694 119.403V95.3782C167.694 94.34 168.535 93.4947 169.578 93.4947Z" fill="white"/>
<path fill-rule="evenodd" clip-rule="evenodd" d="M160.524 96.2598C160.856 96.2598 161.125 96.5289 161.125 96.8609C161.125 97.181 160.875 97.4427 160.559 97.461L160.524 97.462H142.169C141.837 97.462 141.568 97.1929 141.568 96.8609C141.568 96.5408 141.819 96.2791 142.134 96.2608L142.169 96.2598H160.524Z" fill="white"/>
<path fill-rule="evenodd" clip-rule="evenodd" d="M160.643 104.335C160.975 104.335 161.244 104.604 161.244 104.936C161.244 105.256 160.993 105.518 160.678 105.536L160.643 105.537H107.043C106.711 105.537 106.441 105.268 106.441 104.936C106.441 104.616 106.692 104.354 107.007 104.336L107.043 104.335H160.643Z" fill="white"/>
<path fill-rule="evenodd" clip-rule="evenodd" d="M160.643 109.144C160.975 109.144 161.244 109.413 161.244 109.745C161.244 110.065 160.993 110.327 160.678 110.345L160.643 110.346H107.043C106.711 110.346 106.441 110.077 106.441 109.745C106.441 109.425 106.692 109.163 107.007 109.145L107.043 109.144H160.643Z" fill="white"/>
<path fill-rule="evenodd" clip-rule="evenodd" d="M160.643 113.953C160.975 113.953 161.244 114.222 161.244 114.554C161.244 114.874 160.993 115.136 160.678 115.154L160.643 115.155H107.043C106.711 115.155 106.441 114.886 106.441 114.554C106.441 114.234 106.692 113.972 107.007 113.954L107.043 113.953H160.643Z" fill="white"/>
<path fill-rule="evenodd" clip-rule="evenodd" d="M160.643 118.882C160.975 118.882 161.244 119.151 161.244 119.483C161.244 119.803 160.993 120.065 160.678 120.083L160.643 120.084H107.043C106.711 120.084 106.441 119.815 106.441 119.483C106.441 119.163 106.692 118.901 107.007 118.883L107.043 118.882H160.643Z" fill="white"/>
<path fill-rule="evenodd" clip-rule="evenodd" d="M194.458 93.0917C194.692 92.8558 195.073 92.854 195.309 93.0876C195.535 93.3119 195.546 93.6716 195.34 93.9087L195.313 93.9377L168.202 121.309C167.968 121.545 167.588 121.547 167.352 121.313C167.125 121.089 167.115 120.729 167.321 120.492L167.348 120.463L194.458 93.0917Z" fill="white"/>
<path fill-rule="evenodd" clip-rule="evenodd" d="M132.969 54.2617H109.525C107.824 54.2617 106.439 55.6391 106.439 57.3475V81.3723C106.439 83.0731 107.817 84.4581 109.525 84.4581H132.969C134.664 84.4581 136.046 83.0974 136.055 81.4257L136.055 57.3475C136.055 55.6468 134.677 54.2617 132.969 54.2617ZM109.525 55.4639H132.969C134.012 55.4639 134.853 56.3093 134.853 57.3475V81.3723C134.867 82.4063 134.018 83.2558 132.969 83.2558H109.525C108.482 83.2558 107.641 82.4106 107.641 81.3723V57.3475C107.641 56.3045 108.487 55.4639 109.525 55.4639Z" fill="white"/>
<path fill-rule="evenodd" clip-rule="evenodd" d="M160.399 58.229C160.731 58.229 161 58.4981 161 58.8301C161 59.1503 160.75 59.4119 160.434 59.4302L160.399 59.4312H142.044C141.712 59.4312 141.443 59.1621 141.443 58.8301C141.443 58.51 141.694 58.2483 142.009 58.23L142.044 58.229H160.399Z" fill="white"/>
<path fill-rule="evenodd" clip-rule="evenodd" d="M195.526 66.3042C195.858 66.3042 196.127 66.5733 196.127 66.9053C196.127 67.2255 195.877 67.4871 195.561 67.5054L195.526 67.5064H141.906C141.574 67.5064 141.305 67.2373 141.305 66.9053C141.305 66.5852 141.555 66.3235 141.87 66.3052L141.906 66.3042H195.526Z" fill="white"/>
<path fill-rule="evenodd" clip-rule="evenodd" d="M195.526 71.113C195.858 71.113 196.127 71.3822 196.127 71.7142C196.127 72.0343 195.877 72.296 195.561 72.3143L195.526 72.3153H141.906C141.574 72.3153 141.305 72.0462 141.305 71.7142C141.305 71.394 141.555 71.1323 141.87 71.1141L141.906 71.113H195.526Z" fill="white"/>
<path fill-rule="evenodd" clip-rule="evenodd" d="M195.526 75.9221C195.858 75.9221 196.127 76.1913 196.127 76.5232C196.127 76.8434 195.877 77.1051 195.561 77.1233L195.526 77.1244H141.906C141.574 77.1244 141.305 76.8552 141.305 76.5232C141.305 76.2031 141.555 75.9414 141.87 75.9231L141.906 75.9221H195.526Z" fill="white"/>
<path fill-rule="evenodd" clip-rule="evenodd" d="M195.526 80.7312C195.858 80.7312 196.127 81.0003 196.127 81.3323C196.127 81.6525 195.877 81.9141 195.561 81.9324L195.526 81.9334H141.906C141.574 81.9334 141.305 81.6643 141.305 81.3323C141.305 81.0122 141.555 80.7505 141.87 80.7322L141.906 80.7312H195.526Z" fill="white"/>
<path fill-rule="evenodd" clip-rule="evenodd" d="M134.326 55.1011C134.559 54.8652 134.94 54.8632 135.176 55.0967C135.402 55.3209 135.413 55.6807 135.207 55.9178L135.18 55.9468L108.069 83.338C107.836 83.5739 107.455 83.5759 107.219 83.3424C106.993 83.1182 106.982 82.7584 107.188 82.5212L107.215 82.4923L134.326 55.1011Z" fill="white"/>
<path fill-rule="evenodd" clip-rule="evenodd" d="M212.557 23.3035H84.3176C82.6631 23.3035 81.332 24.6346 81.332 26.289V46.2864C81.332 47.9408 82.6631 49.272 84.3176 49.272H212.557C214.198 49.272 215.533 47.9652 215.543 46.3401L215.543 26.289C215.543 24.6346 214.212 23.3035 212.557 23.3035ZM84.3174 24.5057H212.557C213.547 24.5057 214.34 25.2986 214.34 26.289V46.2864C214.355 47.2727 213.553 48.0697 212.557 48.0697H84.3174C83.3269 48.0697 82.534 47.2768 82.534 46.2864V26.289C82.534 25.2985 83.3269 24.5057 84.3174 24.5057Z" fill="white"/>
<path fill-rule="evenodd" clip-rule="evenodd" d="M281.888 0C287.788 0 292.572 4.75745 292.667 10.661L292.668 10.8402V121.487C292.668 121.819 292.399 122.088 292.067 122.088C291.747 122.088 291.485 121.838 291.467 121.522L291.466 121.487V10.8402C291.466 5.51621 287.181 1.20225 281.888 1.20225C281.556 1.20225 281.287 0.933113 281.287 0.601123C281.287 0.269132 281.556 0 281.888 0Z" fill="white"/>
<path fill-rule="evenodd" clip-rule="evenodd" d="M235.139 139.32C235.98 139.4 236.942 139.48 237.964 139.581C238.024 139.36 238.084 139.14 238.144 138.919L238.244 121.106C238.244 119.864 239.266 118.862 240.509 118.862L252.571 118.922C258.562 114.774 265.796 112.33 273.57 112.37C293.648 112.49 310.079 129.061 310.038 149.139L234.718 149.078C232.393 149.078 230.49 147.175 230.51 144.851V143.488C230.57 141.023 232.674 139.1 235.139 139.32Z" fill="#00ADEF"/>
<path fill-rule="evenodd" clip-rule="evenodd" d="M245.616 125.008C245.84 124.763 246.221 124.747 246.465 124.971C246.71 125.195 246.727 125.575 246.503 125.82C243.408 129.2 241.453 132.405 240.41 135.351C240.033 136.416 239.799 137.384 239.682 138.245C239.635 138.59 239.61 138.887 239.601 139.135L239.598 139.24L239.621 139.249C245.422 141.39 252.819 142.992 261.44 144.116L261.742 144.155C268.472 145.021 275.655 145.564 282.961 145.841L283.538 145.862C288.401 146.037 292.734 146.078 296.236 146.039L297.111 146.028L297.359 146.023L297.424 145.486C297.442 145.336 297.46 145.186 297.479 145.039L297.535 144.605L297.6 144.119L297.649 143.776C297.718 143.31 297.776 142.971 297.827 142.768L297.835 142.737C298.546 139.981 299.957 138.143 301.86 137.101C303.365 136.278 304.925 136.055 306.243 136.158L306.355 136.168C306.398 136.173 306.432 136.177 306.457 136.18C306.786 136.227 307.014 136.532 306.967 136.861C306.922 137.178 306.637 137.401 306.322 137.374L306.228 137.364C306.206 137.362 306.18 137.359 306.149 137.357C305.044 137.27 303.707 137.461 302.438 138.156C300.855 139.022 299.668 140.548 299.03 142.919L298.998 143.041C298.956 143.202 298.892 143.578 298.817 144.102L298.775 144.399C298.759 144.515 298.743 144.636 298.727 144.761L298.672 145.19C298.644 145.408 298.617 145.631 298.59 145.856L298.494 146.681C298.462 146.967 298.231 147.188 297.948 147.213L297.903 147.215L297.396 147.225C297.228 147.228 297.042 147.231 296.839 147.234L296.05 147.244C292.566 147.279 288.286 147.236 283.495 147.063C275.956 146.792 268.536 146.242 261.588 145.348C252.551 144.185 244.821 142.503 238.794 140.223C238.58 140.142 238.43 139.947 238.408 139.72L238.402 139.641L238.401 139.614C238.382 139.241 238.403 138.726 238.491 138.082C238.619 137.141 238.872 136.093 239.277 134.95C240.374 131.849 242.414 128.505 245.616 125.008Z" fill="#2E186A"/>
<path fill-rule="evenodd" clip-rule="evenodd" d="M123.95 141.945H118.58L99.3242 91.2704C98.2622 88.4852 94.9961 88.5253 93.9943 91.3505L75.9405 141.945H70.6907C69.6087 141.945 68.707 143.027 68.707 144.37V147.576C68.707 148.918 69.5887 150 70.6907 150H123.93C125.012 150 125.914 148.918 125.914 147.576V144.37C125.934 143.027 125.052 141.945 123.95 141.945Z" fill="#00ADEF"/>
<path fill-rule="evenodd" clip-rule="evenodd" d="M117.68 141.344C118.012 141.344 118.281 141.613 118.281 141.945C118.281 142.265 118.031 142.527 117.715 142.545L117.68 142.546H76.7437C76.4117 142.546 76.1426 142.277 76.1426 141.945C76.1426 141.625 76.3928 141.363 76.7084 141.345L76.7437 141.344H117.68Z" fill="#2E186A"/>
<path fill-rule="evenodd" clip-rule="evenodd" d="M115.837 134.511H78.6074L81.613 126.035H112.611L115.837 134.511Z" fill="white"/>
<path fill-rule="evenodd" clip-rule="evenodd" d="M85.1406 116.197H108.825L105.599 107.721H88.1663L85.1406 116.197Z" fill="white"/>
<path fill-rule="evenodd" clip-rule="evenodd" d="M161.644 145.512H158.659L147.959 117.359C147.377 115.816 145.554 115.837 144.993 117.399L134.974 145.512H132.069C131.468 145.512 130.967 146.113 130.967 146.854V148.638C130.967 149.379 131.468 149.98 132.069 149.98H161.644C162.245 149.98 162.746 149.379 162.746 148.638V146.854C162.746 146.113 162.245 145.512 161.644 145.512Z" fill="#00ADEF"/>
<path fill-rule="evenodd" clip-rule="evenodd" d="M158.158 144.911C158.49 144.911 158.759 145.18 158.759 145.512C158.759 145.832 158.509 146.094 158.193 146.112L158.158 146.113H135.416C135.084 146.113 134.814 145.844 134.814 145.512C134.814 145.192 135.065 144.93 135.38 144.912L135.416 144.911H158.158Z" fill="#2E186A"/>
<path fill-rule="evenodd" clip-rule="evenodd" d="M157.136 141.384H136.457L138.12 136.675H155.332L157.136 141.384Z" fill="white"/>
<path fill-rule="evenodd" clip-rule="evenodd" d="M140.084 131.225H153.229L151.445 126.516H141.767L140.084 131.225Z" fill="white"/>
<path fill-rule="evenodd" clip-rule="evenodd" d="M334.344 148.738C334.676 148.738 334.945 149.007 334.945 149.339C334.945 149.659 334.695 149.921 334.38 149.939L334.344 149.94H0.601122C0.269132 149.94 0 149.671 0 149.339C0 149.019 0.250251 148.757 0.565802 148.739L0.601122 148.738H334.344Z" fill="#2E186A"/>
</svg>
