<svg width="64" height="17" viewBox="0 0 64 17" fill="none" xmlns="http://www.w3.org/2000/svg">
<path d="M44.6359 4.12109C44.5839 4.67953 44.4151 5.18603 44.1943 5.66654C43.8047 6.54966 43.2852 7.34186 42.7008 8.09511C41.6878 9.3938 41.6878 11.3159 42.6878 12.6276C43.9865 14.3418 46.3112 14.6795 48.0514 13.3938C49.6878 12.186 50.0514 9.74445 48.8177 8.13407C48.1293 7.22498 47.5579 6.26394 47.1943 5.18602C47.0774 4.84836 47.0125 4.49772 46.9086 4.14707C49.0904 4.44577 51.7787 6.47174 52.0774 9.80939C52.3891 13.3029 49.8306 16.3678 46.3501 16.6925C42.8696 17.0301 39.7787 14.4847 39.4281 11.0172C39.0644 7.49771 41.5839 4.62759 44.6359 4.12109Z" fill="#8BC34A"/>
<path d="M47.2599 11.8736C46.4807 12.6528 45.2339 12.7177 44.3897 12.0164C43.5456 11.3021 43.3508 10.0684 43.9872 9.18527C45.0001 7.75671 45.4677 6.15931 45.5716 4.44503C45.6105 3.75672 45.5456 3.06841 45.2469 2.41906C45.169 2.25023 45.0651 2.0814 44.9612 1.92556C44.6495 1.49699 44.6755 0.938547 45.0521 0.574912C45.4287 0.211277 45.9871 0.185303 46.4027 0.509977C46.7923 0.821664 46.8962 1.43205 46.5975 1.84763C46.1819 2.41906 45.9871 3.06841 45.9612 3.75672C45.8832 5.57489 46.3378 7.2632 47.2729 8.82164C47.3767 8.99047 47.5066 9.14631 47.6105 9.31514C48.078 10.1593 47.9352 11.1853 47.2599 11.8736Z" fill="#8BC34A"/>
<path d="M9.64932 11.199V14.121C9.64932 15.5626 8.48049 16.7314 7.03894 16.7314H6.03894V11.16L0 1.12109H2.36363C3.2857 1.12109 4.12986 1.60161 4.59739 2.38083L8.01296 8.05613L11.4285 2.38083C11.8961 1.60161 12.7532 1.12109 13.6623 1.12109H15.7272L9.64932 11.199Z" fill="black"/>
<path d="M25.1298 11.5373H16.0519C16.3896 13.0308 17.6623 13.9398 19.4805 13.9398C20.1038 13.9398 20.6363 13.8489 21.1168 13.6671C22.1038 13.2905 23.2207 13.5762 23.935 14.3424L24.3376 14.784C23.2207 16.0567 21.5454 16.7191 19.3895 16.7191C15.2467 16.7191 12.5454 14.1087 12.5454 10.5373C12.5454 6.95286 15.2857 4.35547 18.948 4.35547C22.4675 4.35547 25.1947 6.7191 25.1947 10.5762C25.1947 10.8749 25.1558 11.2515 25.1298 11.5373ZM16.0129 9.51129H21.922C21.6753 7.99182 20.5454 7.0178 18.974 7.0178C17.3895 7.00481 16.2467 7.96585 16.0129 9.51129Z" fill="black"/>
<path d="M38.9999 10.5623C38.9999 14.3285 36.3896 16.7441 33.0259 16.7441C31.4156 16.7441 30.1298 16.2376 29.2597 15.1857C29.2597 15.9519 28.6363 16.5623 27.8831 16.5623H25.9351V0.00390625H26.8052C28.2467 0.00390625 29.4156 1.17273 29.4156 2.61429V5.82207C30.3117 4.83506 31.5324 4.36753 33.0259 4.36753C36.3896 4.38052 38.9999 6.7831 38.9999 10.5623ZM35.4805 10.5623C35.4805 8.4844 34.1688 7.23765 32.4285 7.23765C30.6883 7.23765 29.3766 8.4844 29.3766 10.5623C29.3766 12.6402 30.6883 13.887 32.4285 13.887C34.1558 13.874 35.4805 12.6272 35.4805 10.5623Z" fill="black"/>
<path d="M59.2596 15.6409L57.4155 13.0565L55.4804 15.6799C54.9869 16.3422 54.2077 16.7448 53.3765 16.7448H50.896L55.5064 10.7058L51.0518 4.75781H53.6233C54.4544 4.75781 55.2466 5.16041 55.7401 5.83573L57.5064 8.26429L59.3375 5.80976C59.831 5.14742 60.6102 4.75781 61.4284 4.75781H63.818L59.3635 10.6279L63.9998 16.7578H61.3895C60.5453 16.7318 59.7531 16.3292 59.2596 15.6409Z" fill="black"/>
</svg>
