<svg width="350" height="327" viewBox="0 0 350 327" fill="none" xmlns="http://www.w3.org/2000/svg">
<path d="M175 326.782C271.65 326.782 350 281.546 350 225.744C350 169.943 271.65 124.707 175 124.707C78.3502 124.707 0 169.943 0 225.744C0 281.546 78.3502 326.782 175 326.782Z" fill="#F0F0F0"/>
<path d="M138.788 302.307C172.116 302.307 199.134 286.709 199.134 267.468C199.134 248.228 172.116 232.63 138.788 232.63C105.46 232.63 78.4417 248.228 78.4417 267.468C78.4417 286.709 105.46 302.307 138.788 302.307Z" fill="#E0E0E0"/>
<path d="M310.401 223.88L303.322 219.794C303.322 219.794 301.591 204.641 302.742 192.904C304.362 176.414 315.014 156.566 327.716 161.231C340.418 165.895 321.892 182.683 317.77 196.67C313.647 210.658 310.401 223.88 310.401 223.88Z" fill="#3855B3"/>
<path opacity="0.15" d="M310.401 223.88L303.322 219.794C303.322 219.794 301.591 204.641 302.742 192.904C304.362 176.414 315.014 156.566 327.716 161.231C340.418 165.895 321.892 182.683 317.77 196.67C313.647 210.658 310.401 223.88 310.401 223.88Z" fill="black"/>
<path d="M306.679 222.164C306.792 222.158 306.899 222.108 306.975 222.025C307.052 221.941 307.092 221.831 307.088 221.718C305.848 185.075 324.091 166.638 324.269 166.46C324.35 166.379 324.395 166.27 324.395 166.156C324.395 166.041 324.35 165.932 324.269 165.851C324.23 165.811 324.183 165.78 324.132 165.758C324.08 165.737 324.024 165.726 323.969 165.726C323.913 165.726 323.857 165.737 323.806 165.758C323.754 165.78 323.707 165.811 323.668 165.851C323.475 166.029 304.971 184.733 306.226 221.748C306.228 221.805 306.242 221.861 306.265 221.914C306.289 221.966 306.323 222.012 306.366 222.051C306.408 222.09 306.457 222.12 306.511 222.139C306.565 222.158 306.622 222.167 306.679 222.164Z" fill="white"/>
<path d="M314.85 226.428L309.814 223.523C309.814 223.523 308.953 213.124 314.056 200.496C318.513 189.502 329.506 180.373 335.048 182.289C340.589 184.206 340.448 188.135 337.744 192.258C335.04 196.381 318.617 206.193 314.85 226.428Z" fill="#3855B3"/>
<path d="M312.191 225.328C312.305 225.326 312.414 225.28 312.494 225.2C312.574 225.119 312.62 225.011 312.622 224.897C312.518 201.721 334.275 186.063 334.498 185.907C334.545 185.875 334.584 185.834 334.614 185.787C334.644 185.739 334.665 185.686 334.674 185.63C334.683 185.575 334.68 185.518 334.667 185.463C334.653 185.409 334.629 185.358 334.595 185.313C334.529 185.221 334.43 185.159 334.319 185.139C334.208 185.12 334.093 185.145 334 185.209C333.778 185.365 311.664 201.291 311.761 224.897C311.761 225.012 311.806 225.121 311.887 225.202C311.968 225.283 312.077 225.328 312.191 225.328Z" fill="white"/>
<path d="M48.4688 214.78L55.0056 210.368C55.0056 210.368 57.8803 193.283 55.2061 178.211C51.4475 157.071 36.8363 150.044 31.6366 152.272C26.4369 154.501 25.3226 160.792 35.0312 172.856C40.7881 179.95 48.2682 195.096 48.4688 214.78Z" fill="#3855B3"/>
<g opacity="0.15">
<path opacity="0.15" d="M48.4688 214.78L55.0056 210.368C55.0056 210.368 57.8803 193.283 55.2061 178.211C51.4475 157.071 36.8363 150.044 31.6366 152.272C26.4369 154.501 25.3226 160.792 35.0312 172.856C40.7881 179.95 48.2682 195.096 48.4688 214.78Z" fill="black"/>
</g>
<path d="M50.7124 206.312H50.6455C50.5787 206.308 50.5136 206.29 50.4544 206.259C50.3951 206.228 50.3431 206.184 50.3018 206.132C50.2604 206.079 50.2306 206.018 50.2143 205.953C50.198 205.889 50.1956 205.821 50.2072 205.755C52.5694 185.855 44.1681 164.254 35.0241 155.66C34.9361 155.571 34.8867 155.45 34.8867 155.325C34.8867 155.2 34.9361 155.08 35.0241 154.991C35.0677 154.947 35.1197 154.911 35.1771 154.887C35.2345 154.863 35.2961 154.851 35.3583 154.851C35.4206 154.851 35.4822 154.863 35.5396 154.887C35.597 154.911 35.649 154.947 35.6926 154.991C45.0075 163.741 53.5648 185.699 51.1729 205.889C51.1589 206.003 51.1048 206.108 51.0205 206.185C50.9361 206.263 50.8269 206.308 50.7124 206.312Z" fill="white"/>
<path d="M31.3544 226.323C30.3144 226.947 27.2837 224.696 26.4443 224.154C25.0058 223.215 23.834 221.92 23.0423 220.396C22.1541 218.666 21.8244 216.704 22.0989 214.78C22.251 213.776 22.4719 212.783 22.76 211.809C23.02 210.836 23.28 209.862 23.5028 208.882C23.8322 207.928 23.9587 206.916 23.8742 205.911C23.5845 203.927 21.7943 202.568 20.1601 201.402C18.3625 200.102 16.446 198.386 16.446 195.994C16.5377 194.115 17.2569 192.321 18.4888 190.898C19.603 189.413 20.9401 188.12 21.9429 186.568C22.727 185.492 23.1273 184.184 23.0794 182.854C22.9503 182.034 22.6572 181.248 22.2177 180.544C21.3412 178.998 20.2047 177.572 19.5882 175.931C18.9716 174.289 19.0162 172.179 20.331 170.954C21.3783 169.951 22.9754 169.788 24.4239 169.854C25.7888 169.99 27.1073 170.424 28.2865 171.125C32.1269 173.167 34.385 177.624 38.4483 179.177C40.0156 179.771 41.7241 179.875 43.3508 180.276C44.9776 180.677 46.6564 181.472 47.4363 182.95C48.974 185.884 46.2924 189.584 47.3918 192.696C48.3723 195.459 51.1058 196.469 52.6509 198.943C53.278 200.042 53.5382 201.311 53.3937 202.568C53.3066 204.689 52.8307 206.777 51.9898 208.726C51.0226 210.748 49.9311 212.708 48.7214 214.594C48.7214 214.594 31.5104 226.227 31.3544 226.323Z" fill="#3855B3"/>
<path d="M41.3972 220.166C41.3347 220.165 41.2731 220.151 41.2158 220.127C41.1585 220.102 41.1066 220.066 41.0632 220.021C41.0197 219.976 40.9855 219.923 40.9625 219.865C40.9396 219.807 40.9282 219.745 40.9292 219.683C41.3452 200.875 32.0897 180.314 25.5381 174.371C25.4449 174.287 25.3888 174.17 25.3818 174.044C25.3749 173.919 25.4177 173.796 25.5009 173.702C25.5445 173.658 25.5965 173.623 25.6539 173.599C25.7113 173.574 25.7729 173.562 25.8352 173.562C25.8974 173.562 25.9591 173.574 26.0165 173.599C26.0739 173.623 26.1259 173.658 26.1695 173.702C32.8548 179.719 42.296 200.637 41.8726 219.705C41.8716 219.767 41.8586 219.827 41.8341 219.884C41.8097 219.94 41.7744 219.991 41.7303 220.034C41.6861 220.077 41.634 220.11 41.5768 220.133C41.5197 220.155 41.4586 220.167 41.3972 220.166Z" fill="white"/>
<path d="M37.9283 197.25C37.8844 197.261 37.8385 197.261 37.7946 197.25C31.7183 195.497 24.1862 195.318 24.1119 195.311C24.0498 195.31 23.9885 195.297 23.9316 195.272C23.8747 195.247 23.8233 195.211 23.7805 195.166C23.7376 195.121 23.7041 195.068 23.6819 195.01C23.6598 194.952 23.6494 194.89 23.6514 194.828C23.6502 194.766 23.6621 194.703 23.6862 194.645C23.7104 194.587 23.7463 194.535 23.7917 194.492C23.837 194.449 23.8909 194.415 23.9499 194.394C24.0088 194.372 24.0716 194.364 24.1342 194.368C24.2085 194.368 31.8595 194.553 38.0546 196.336C38.1743 196.372 38.2749 196.454 38.3347 196.564C38.3945 196.674 38.4086 196.803 38.374 196.923C38.345 197.018 38.286 197.102 38.2056 197.161C38.1252 197.22 38.0279 197.251 37.9283 197.25Z" fill="white"/>
<path d="M213.002 201.848L210.187 200.221C209.718 199.916 209.328 199.505 209.047 199.021C208.767 198.537 208.606 197.994 208.575 197.435V80.4269C208.606 79.8694 208.767 79.3269 209.046 78.843C209.324 78.3592 209.713 77.9476 210.18 77.6413L288.435 32.4633C288.934 32.2107 289.485 32.0791 290.044 32.0791C290.602 32.0791 291.153 32.2107 291.652 32.4633L294.467 34.09C294.936 34.3946 295.327 34.8056 295.607 35.2897C295.887 35.7738 296.049 36.3172 296.079 36.8756V153.884C296.048 154.441 295.887 154.984 295.608 155.468C295.33 155.952 294.941 156.363 294.474 156.67L216.219 201.855C215.72 202.108 215.169 202.24 214.61 202.238C214.051 202.237 213.5 202.103 213.002 201.848Z" fill="#2E3192"/>
<path d="M296.079 36.6156C295.968 35.7837 295.292 35.4791 294.482 35.9471L216.219 81.1326C215.746 81.4295 215.355 81.8408 215.082 82.3285L209.043 78.8447C209.313 78.3533 209.705 77.9391 210.18 77.6413L288.435 32.4633C288.934 32.2107 289.485 32.0791 290.044 32.0791C290.602 32.0791 291.153 32.2107 291.652 32.4633L294.467 34.09C294.902 34.37 295.271 34.7406 295.549 35.1765C295.827 35.6124 296.008 36.1034 296.079 36.6156Z" fill="#2E3192"/>
<path d="M215.944 201.981C215.468 202.174 214.957 202.262 214.445 202.241C213.932 202.219 213.43 202.087 212.973 201.855L210.15 200.221C209.683 199.915 209.295 199.503 209.016 199.019C208.737 198.535 208.576 197.993 208.545 197.435V80.4269C208.565 79.8683 208.726 79.3238 209.013 78.8447L215.052 82.3285C214.759 82.8083 214.595 83.356 214.577 83.9182V200.927C214.607 201.848 215.186 202.271 215.944 201.981Z" fill="#2E3192"/>
<path d="M214.607 83.9334V200.927C214.607 201.952 215.35 202.368 216.219 201.855L294.474 156.67C294.941 156.364 295.33 155.952 295.608 155.468C295.887 154.984 296.048 154.442 296.079 153.884V36.876C296.079 35.8509 295.336 35.4349 294.474 35.9475L216.219 81.1329C215.748 81.439 215.356 81.8524 215.076 82.3392C214.796 82.826 214.635 83.3724 214.607 83.9334Z" fill="#0B0C2B"/>
<path d="M196.333 128.502C195.323 127.9 190.636 125.234 190.391 125.093C190.2 124.979 190.037 124.823 189.914 124.638C189.791 124.452 189.711 124.242 189.681 124.022C189.65 123.801 189.669 123.577 189.737 123.365C189.805 123.153 189.919 122.959 190.072 122.797L208.575 102.949L214.607 106.411L196.111 126.274C195.965 126.428 195.855 126.612 195.787 126.813C195.718 127.014 195.694 127.227 195.715 127.439C195.736 127.65 195.802 127.854 195.909 128.037C196.016 128.221 196.16 128.379 196.333 128.502Z" fill="#2E3192"/>
<path d="M214.607 106.433L196.111 126.274C195.905 126.493 195.771 126.769 195.726 127.067C195.681 127.364 195.727 127.667 195.858 127.938C195.989 128.208 196.199 128.432 196.461 128.581C196.722 128.729 197.022 128.795 197.321 128.77L214.607 127.343V106.433Z" fill="#0B0C2B"/>
<path d="M255.343 70.711C264.465 65.4444 271.856 69.7156 271.856 80.2488C271.856 90.7819 264.465 103.581 255.343 108.847C246.221 114.114 238.83 109.843 238.83 99.3169C238.83 88.7912 246.221 75.9776 255.343 70.711Z" fill="#3855B3"/>
<path d="M255.224 79.001C258.195 77.2925 260.58 78.6742 260.58 82.0911C260.478 83.9486 259.941 85.756 259.01 87.3667C258.08 88.9774 256.783 90.346 255.224 91.3615C252.253 93.07 249.861 91.6883 249.861 88.2714C249.963 86.4133 250.502 84.6055 251.434 82.9947C252.365 81.384 253.664 80.0157 255.224 79.001Z" fill="white"/>
<path d="M265.787 97.215C265.787 91.6067 261.843 89.3263 256.985 92.1341L253.946 93.8872C249.088 96.695 245.144 103.544 245.144 109.137V110.675C246.061 110.968 247.019 111.116 247.982 111.113C250.588 111.024 253.125 110.256 255.343 108.885C259.566 106.284 263.138 102.752 265.787 98.5595V97.215Z" fill="white"/>
<path d="M244.884 160.986L265.802 148.907C266.693 148.395 267.414 148.811 267.414 149.836V156.573C267.383 157.132 267.222 157.675 266.941 158.159C266.661 158.643 266.271 159.054 265.802 159.359L244.884 171.437C243.993 171.95 243.272 171.534 243.272 170.509V163.771C243.303 163.213 243.464 162.669 243.744 162.185C244.025 161.701 244.415 161.29 244.884 160.986Z" fill="#3855B3"/>
<path d="M234.641 145.936L276.023 122.032C277.085 121.416 277.954 121.913 277.954 123.146V125.65C277.918 126.319 277.724 126.971 277.388 127.552C277.053 128.133 276.585 128.626 276.023 128.992L234.618 152.896C233.556 153.513 232.694 153.015 232.694 151.782V149.301C232.728 148.626 232.922 147.968 233.261 147.383C233.599 146.798 234.072 146.302 234.641 145.936Z" fill="#FAFAFA"/>
<path d="M239.484 128.636C240.048 128.309 240.487 128.257 240.799 128.487C241.11 128.717 241.266 129.23 241.266 130.017C241.282 130.736 241.122 131.448 240.799 132.09C240.507 132.67 240.049 133.151 239.484 133.471L238.37 134.118V136.517C238.367 136.6 238.347 136.681 238.31 136.755C238.284 136.822 238.237 136.879 238.176 136.918L237.612 137.245C237.593 137.259 237.569 137.267 237.545 137.267C237.521 137.267 237.497 137.259 237.478 137.245C237.438 137.195 237.419 137.131 237.426 137.067V130.121C237.426 130.039 237.443 129.958 237.478 129.884C237.506 129.818 237.553 129.761 237.612 129.72L239.484 128.636ZM238.37 132.773L239.447 132.149C239.707 132.002 239.926 131.793 240.085 131.54C240.254 131.242 240.337 130.902 240.323 130.56C240.323 130.158 240.241 129.928 240.085 129.861C239.975 129.835 239.86 129.833 239.75 129.858C239.639 129.882 239.535 129.932 239.447 130.002L238.37 130.626V132.773Z" fill="#FAFAFA"/>
<path d="M244.379 125.806C244.453 125.761 244.513 125.761 244.55 125.806C244.597 125.873 244.63 125.948 244.646 126.029L246.362 131.838C246.362 131.838 246.362 131.882 246.362 131.904C246.361 131.987 246.341 132.069 246.303 132.142C246.277 132.209 246.23 132.267 246.169 132.306L245.664 132.595C245.575 132.647 245.508 132.655 245.471 132.595C245.435 132.558 245.409 132.512 245.396 132.462L245.092 131.444L242.863 132.722L242.566 134.088C242.545 134.162 242.518 134.234 242.485 134.304C242.448 134.394 242.379 134.468 242.292 134.512L241.786 134.801C241.768 134.817 241.744 134.826 241.72 134.826C241.695 134.826 241.671 134.817 241.653 134.801C241.614 134.753 241.595 134.692 241.601 134.631C241.597 134.603 241.597 134.576 241.601 134.549L243.309 126.764C243.33 126.65 243.362 126.538 243.406 126.43C243.442 126.352 243.502 126.287 243.577 126.244L244.379 125.806ZM244.765 130.307L244.022 127.685L243.279 131.191L244.765 130.307Z" fill="#FAFAFA"/>
<path d="M248.962 123.05C249.211 122.893 249.493 122.799 249.786 122.775C249.994 122.756 250.201 122.803 250.381 122.909C250.544 123.015 250.671 123.167 250.745 123.347C250.826 123.53 250.871 123.726 250.878 123.926C250.883 124.009 250.865 124.091 250.826 124.164C250.8 124.231 250.753 124.288 250.693 124.327L250.202 124.61C250.121 124.654 250.061 124.662 250.024 124.61C249.978 124.579 249.94 124.539 249.913 124.491C249.883 124.424 249.84 124.364 249.786 124.314C249.733 124.264 249.67 124.226 249.601 124.201C249.375 124.169 249.145 124.228 248.962 124.365C248.841 124.442 248.727 124.529 248.62 124.625C248.51 124.726 248.413 124.841 248.331 124.966C248.252 125.087 248.187 125.217 248.137 125.353C248.094 125.482 248.071 125.617 248.071 125.754C248.062 125.879 248.085 126.004 248.137 126.118C248.16 126.158 248.192 126.191 248.231 126.216C248.27 126.24 248.314 126.255 248.36 126.259C248.498 126.283 248.639 126.283 248.776 126.259L249.422 126.118C249.663 126.046 249.914 126.016 250.165 126.029C250.344 126.028 250.519 126.085 250.663 126.192C250.799 126.306 250.897 126.459 250.945 126.63C251.018 126.871 251.051 127.122 251.042 127.373C251.041 127.705 250.994 128.035 250.901 128.354C250.81 128.681 250.678 128.996 250.507 129.289C250.327 129.591 250.113 129.87 249.868 130.121C249.618 130.381 249.333 130.603 249.021 130.783C248.793 130.922 248.541 131.02 248.279 131.072C248.065 131.113 247.844 131.095 247.64 131.02C247.454 130.934 247.301 130.791 247.201 130.612C247.08 130.383 247.014 130.128 247.008 129.869C247.008 129.784 247.025 129.701 247.06 129.624C247.093 129.561 247.142 129.507 247.201 129.468L247.692 129.185C247.766 129.141 247.825 129.126 247.87 129.148C247.915 129.171 247.944 129.208 247.974 129.275C248.005 129.351 248.045 129.423 248.093 129.49C248.139 129.555 248.204 129.604 248.279 129.631C248.376 129.654 248.478 129.654 248.576 129.631C248.733 129.594 248.884 129.531 249.021 129.445C249.165 129.363 249.302 129.269 249.43 129.163C249.68 128.966 249.878 128.711 250.009 128.42C250.069 128.272 250.099 128.113 250.098 127.952C250.105 127.894 250.1 127.835 250.084 127.779C250.067 127.723 250.039 127.671 250.002 127.626C249.962 127.59 249.914 127.564 249.863 127.549C249.812 127.533 249.758 127.529 249.705 127.536C249.536 127.543 249.369 127.571 249.207 127.618C249.014 127.663 248.791 127.715 248.531 127.759C248.332 127.809 248.126 127.824 247.922 127.804C247.761 127.794 247.609 127.728 247.491 127.618C247.363 127.492 247.273 127.333 247.231 127.158C247.171 126.9 247.144 126.635 247.149 126.37C247.149 126.043 247.197 125.718 247.291 125.405C247.379 125.082 247.509 124.773 247.677 124.483C247.838 124.196 248.032 123.929 248.256 123.689C248.46 123.443 248.698 123.228 248.962 123.05Z" fill="#FAFAFA"/>
<path d="M253.842 120.242C254.089 120.08 254.373 119.983 254.667 119.96C254.874 119.942 255.082 119.989 255.261 120.093C255.42 120.202 255.544 120.354 255.618 120.532C255.699 120.714 255.744 120.911 255.751 121.111C255.76 121.194 255.742 121.277 255.699 121.349C255.673 121.416 255.626 121.473 255.566 121.512L255.075 121.794C255.001 121.839 254.942 121.854 254.897 121.794C254.85 121.765 254.813 121.72 254.793 121.668C254.725 121.538 254.611 121.437 254.474 121.386C254.363 121.37 254.25 121.376 254.142 121.404C254.033 121.432 253.931 121.481 253.842 121.549C253.718 121.625 253.601 121.712 253.493 121.809C253.385 121.911 253.29 122.026 253.211 122.151C253.129 122.27 253.064 122.4 253.018 122.537C252.972 122.666 252.947 122.802 252.944 122.938C252.935 123.063 252.958 123.189 253.01 123.302C253.033 123.342 253.066 123.376 253.104 123.401C253.143 123.425 253.187 123.44 253.233 123.444C253.371 123.468 253.512 123.468 253.649 123.444L254.295 123.302C254.537 123.235 254.788 123.205 255.038 123.213C255.218 123.212 255.393 123.269 255.536 123.377C255.672 123.493 255.772 123.645 255.826 123.815C255.891 124.057 255.921 124.307 255.915 124.558C255.914 124.89 255.867 125.22 255.774 125.538C255.683 125.866 255.551 126.18 255.38 126.474C255.201 126.778 254.987 127.06 254.741 127.314C254.49 127.566 254.208 127.786 253.902 127.967C253.673 128.106 253.421 128.204 253.159 128.257C252.948 128.297 252.729 128.279 252.528 128.205C252.338 128.121 252.182 127.978 252.082 127.796C251.96 127.568 251.896 127.313 251.896 127.054C251.887 126.971 251.906 126.887 251.948 126.816C251.974 126.749 252.021 126.691 252.082 126.652L252.572 126.37C252.646 126.326 252.713 126.311 252.75 126.333C252.776 126.345 252.799 126.362 252.817 126.384C252.835 126.406 252.848 126.432 252.854 126.459C252.888 126.534 252.928 126.606 252.973 126.675C253.022 126.74 253.089 126.789 253.166 126.816C253.264 126.838 253.366 126.838 253.464 126.816C253.621 126.779 253.772 126.716 253.909 126.63C254.05 126.546 254.184 126.452 254.31 126.348C254.441 126.246 254.556 126.126 254.652 125.991C254.748 125.863 254.828 125.723 254.89 125.575C254.949 125.427 254.979 125.268 254.979 125.107C254.986 125.049 254.981 124.99 254.964 124.934C254.948 124.878 254.92 124.826 254.882 124.781C254.842 124.745 254.795 124.719 254.743 124.704C254.692 124.688 254.638 124.684 254.585 124.691C254.419 124.702 254.255 124.729 254.095 124.773C253.902 124.818 253.672 124.87 253.419 124.914C253.217 124.964 253.009 124.979 252.802 124.959C252.641 124.95 252.488 124.884 252.372 124.773C252.245 124.647 252.158 124.487 252.119 124.313C252.053 124.058 252.023 123.796 252.03 123.533C252.033 123.203 252.08 122.876 252.171 122.56C252.263 122.238 252.393 121.929 252.557 121.638C252.718 121.349 252.915 121.082 253.144 120.844C253.344 120.608 253.58 120.405 253.842 120.242Z" fill="#FAFAFA"/>
<path d="M259.257 121.17L258.656 124.729C258.638 124.836 258.608 124.94 258.567 125.041C258.538 125.121 258.483 125.189 258.411 125.234L257.846 125.56C257.772 125.605 257.72 125.605 257.683 125.56C257.633 125.499 257.604 125.424 257.601 125.345L256.709 119.068C256.709 119.068 256.709 119.009 256.709 118.987C256.712 118.904 256.732 118.823 256.769 118.749C256.797 118.683 256.843 118.626 256.903 118.585L257.415 118.288C257.458 118.271 257.506 118.271 257.549 118.288C257.593 118.288 257.623 118.348 257.638 118.467L258.225 122.693L258.737 119.521C258.751 119.442 258.773 119.365 258.804 119.291C258.834 119.197 258.897 119.118 258.982 119.068L259.554 118.734C259.636 118.689 259.696 118.697 259.733 118.734C259.765 118.781 259.788 118.834 259.8 118.89L260.32 121.468L260.906 116.565C260.913 116.469 260.941 116.375 260.988 116.29C261.023 116.235 261.068 116.187 261.122 116.149L261.634 115.852C261.654 115.837 261.677 115.83 261.701 115.83C261.725 115.83 261.749 115.837 261.768 115.852C261.789 115.876 261.805 115.904 261.816 115.935C261.826 115.966 261.83 115.998 261.827 116.03C261.83 116.06 261.83 116.09 261.827 116.119L260.936 123.421C260.921 123.528 260.894 123.633 260.854 123.733C260.82 123.812 260.764 123.88 260.691 123.926L260.119 124.253C260.052 124.29 260 124.29 259.963 124.253C259.925 124.185 259.895 124.113 259.874 124.038L259.257 121.17Z" fill="#FAFAFA"/>
<path d="M262.734 118.021C262.75 117.609 262.8 117.199 262.882 116.795C262.967 116.401 263.097 116.017 263.269 115.651C263.432 115.296 263.642 114.964 263.893 114.663C264.147 114.365 264.451 114.114 264.791 113.921C265.053 113.743 265.359 113.643 265.675 113.631C265.911 113.633 266.137 113.726 266.307 113.891C266.487 114.093 266.616 114.335 266.686 114.597C266.781 114.938 266.834 115.29 266.842 115.644C266.842 115.778 266.842 115.926 266.842 116.09C266.842 116.253 266.842 116.424 266.842 116.602C266.842 116.78 266.842 116.951 266.842 117.115C266.842 117.278 266.842 117.434 266.842 117.575C266.825 117.985 266.776 118.392 266.693 118.793C266.607 119.187 266.48 119.57 266.314 119.937C266.145 120.292 265.933 120.623 265.683 120.925C265.429 121.221 265.128 121.472 264.791 121.668C264.524 121.844 264.213 121.945 263.893 121.958C263.777 121.96 263.662 121.939 263.555 121.896C263.447 121.852 263.35 121.787 263.269 121.705C263.075 121.497 262.941 121.241 262.882 120.962C262.794 120.62 262.744 120.269 262.734 119.915C262.734 119.781 262.734 119.633 262.734 119.469C262.734 119.306 262.734 119.135 262.734 118.957C262.734 118.779 262.734 118.615 262.734 118.444C262.734 118.273 262.726 118.155 262.734 118.021ZM265.898 116.246C265.915 116.064 265.894 115.881 265.838 115.707C265.782 115.533 265.691 115.373 265.571 115.235C265.378 115.064 265.111 115.072 264.791 115.235C264.445 115.439 264.17 115.745 264.004 116.112C263.793 116.545 263.682 117.019 263.677 117.501C263.677 117.776 263.677 118.08 263.677 118.415C263.677 118.749 263.677 119.046 263.677 119.313C263.661 119.495 263.681 119.678 263.737 119.852C263.793 120.026 263.884 120.186 264.004 120.324C264.197 120.487 264.465 120.472 264.791 120.286C265.132 120.081 265.404 119.779 265.571 119.417C265.782 118.987 265.894 118.515 265.898 118.036C265.898 117.753 265.898 117.449 265.898 117.115C265.898 116.78 265.906 116.513 265.898 116.246Z" fill="#FAFAFA"/>
<path d="M270.08 110.957C270.667 110.623 271.105 110.571 271.41 110.816C271.59 111.015 271.725 111.251 271.803 111.508C271.881 111.765 271.902 112.036 271.863 112.301C271.869 112.806 271.791 113.308 271.633 113.787C271.482 114.233 271.247 114.647 270.942 115.005L271.908 117.107C271.911 117.142 271.911 117.177 271.908 117.211C271.908 117.278 271.893 117.345 271.863 117.405C271.843 117.459 271.806 117.505 271.759 117.538L271.165 117.88C271.068 117.932 271.001 117.939 270.957 117.88C270.918 117.841 270.885 117.796 270.86 117.746L269.947 115.763L269.018 116.298V118.809C269.019 118.891 269.001 118.972 268.966 119.046C268.936 119.111 268.89 119.167 268.832 119.21L268.268 119.536C268.249 119.552 268.225 119.561 268.201 119.561C268.177 119.561 268.153 119.552 268.134 119.536C268.113 119.514 268.097 119.487 268.086 119.457C268.076 119.428 268.072 119.397 268.075 119.366V112.42C268.077 112.338 268.097 112.257 268.134 112.183C268.16 112.115 268.207 112.058 268.268 112.019L270.08 110.957ZM269.033 114.953L270.08 114.389C270.336 114.246 270.555 114.045 270.719 113.802C270.891 113.516 270.974 113.185 270.957 112.851C270.957 112.45 270.875 112.227 270.719 112.183C270.493 112.152 270.264 112.21 270.08 112.346L269.07 112.925L269.033 114.953Z" fill="#FAFAFA"/>
<path d="M275.057 108.097C275.327 107.921 275.635 107.814 275.956 107.785C276.188 107.776 276.415 107.859 276.587 108.015C276.784 108.222 276.92 108.479 276.981 108.758C277.081 109.126 277.136 109.505 277.144 109.887C277.144 110.407 277.144 110.942 277.144 111.484C277.129 111.926 277.075 112.366 276.981 112.799C276.896 113.201 276.767 113.592 276.595 113.965C276.429 114.308 276.219 114.627 275.971 114.916C275.723 115.211 275.426 115.462 275.094 115.659L273.334 116.617C273.315 116.633 273.291 116.641 273.267 116.641C273.243 116.641 273.219 116.633 273.2 116.617C273.178 116.594 273.162 116.567 273.152 116.538C273.141 116.508 273.138 116.477 273.141 116.446V109.501C273.143 109.418 273.163 109.337 273.2 109.263C273.226 109.196 273.273 109.139 273.334 109.1L275.057 108.097ZM276.201 110.407C276.198 110.206 276.168 110.006 276.112 109.813C276.077 109.666 276.003 109.533 275.897 109.426C275.85 109.38 275.794 109.343 275.733 109.319C275.672 109.295 275.606 109.283 275.54 109.285C275.354 109.298 275.175 109.359 275.02 109.464L274.084 109.998V114.842L275.057 114.284C275.245 114.175 275.414 114.034 275.555 113.868C275.693 113.706 275.81 113.526 275.904 113.334C275.997 113.129 276.066 112.915 276.112 112.695C276.164 112.465 276.194 112.232 276.201 111.997C276.223 111.454 276.223 110.927 276.201 110.407Z" fill="#FAFAFA"/>
<path d="M173.054 0.284709C174.336 0.57001 175.571 1.03516 176.723 1.66635C177.826 2.25932 178.815 3.04412 179.643 3.98393C180.435 4.88798 181.022 5.95208 181.366 7.10376C181.717 8.33656 181.742 9.63908 181.44 10.8847C181.241 11.8723 180.85 12.8111 180.289 13.648C179.777 14.3636 179.167 15.0037 178.476 15.5496C177.799 16.0759 177.075 16.5407 176.315 16.9386L174.176 18.0752C173.531 18.4113 172.919 18.8067 172.348 19.2562C171.831 19.6526 171.435 20.185 171.204 20.7939C171.091 21.072 170.903 21.3136 170.662 21.4921C170.548 21.5809 170.415 21.6424 170.273 21.672C170.132 21.7016 169.985 21.6985 169.845 21.663L166.695 20.9647C166.544 20.9329 166.4 20.8712 166.272 20.7832C166.145 20.6952 166.036 20.5827 165.953 20.4522C165.864 20.3308 165.805 20.1903 165.78 20.0419C165.755 19.8935 165.766 19.7414 165.811 19.5979C166.065 18.6225 166.512 17.7081 167.126 16.9089C167.686 16.202 168.336 15.5704 169.058 15.0296C169.761 14.5148 170.506 14.06 171.286 13.6703C172.029 13.2914 172.772 12.9274 173.418 12.5635C174.019 12.2403 174.584 11.8544 175.104 11.4121C175.56 11.0303 175.876 10.5076 176.003 9.92646C176.121 9.42178 176.115 8.89599 175.986 8.39407C175.856 7.89215 175.607 7.42903 175.26 7.04434C174.391 6.09598 173.23 5.46575 171.962 5.25415C169.615 4.73418 167.634 5.52404 166.019 7.62373C165.864 7.85292 165.667 8.05178 165.44 8.21056C165.184 8.33766 164.887 8.35899 164.615 8.26998L161.265 7.52716C161.026 7.48099 160.815 7.34213 160.679 7.1409C160.605 7.03339 160.556 6.91141 160.535 6.78324C160.513 6.65507 160.519 6.52371 160.552 6.39808C160.837 5.3659 161.367 4.41787 162.097 3.63481C162.921 2.72668 163.899 1.97214 164.987 1.40636C166.176 0.784178 167.458 0.357778 168.783 0.143575C170.202 -0.0872995 171.653 -0.0393621 173.054 0.284709ZM169.496 24.1885C169.79 24.2577 170.046 24.4394 170.209 24.6949C170.371 24.9503 170.427 25.2591 170.365 25.5553L169.563 29.1951C169.535 29.3475 169.476 29.4925 169.389 29.6205C169.302 29.7485 169.189 29.8566 169.058 29.9379C168.933 30.0237 168.792 30.0825 168.644 30.1106C168.496 30.1388 168.343 30.1356 168.196 30.1013L164.601 29.2768C164.448 29.251 164.302 29.1926 164.174 29.1054C164.046 29.0182 163.938 28.9044 163.858 28.7717C163.775 28.6462 163.718 28.5051 163.691 28.3569C163.664 28.2088 163.668 28.0567 163.702 27.91L164.511 24.2702C164.581 23.9752 164.762 23.7187 165.017 23.555C165.272 23.3914 165.581 23.3336 165.878 23.3937L169.496 24.1885Z" fill="#3855B3"/>
<path d="M177.021 35.1303C177.915 34.9868 178.826 34.9693 179.725 35.0783C180.584 35.1804 181.418 35.4318 182.191 35.8211C182.927 36.2028 183.574 36.7341 184.093 37.381C184.558 38.0141 184.886 38.7378 185.055 39.5055C185.224 40.2732 185.23 41.0677 185.073 41.8379C184.932 42.43 184.704 42.9982 184.397 43.5241C184.102 44.0357 183.758 44.5182 183.372 44.9652C182.993 45.4109 182.629 45.8343 182.295 46.2428C181.968 46.6234 181.677 47.0338 181.426 47.4685C181.19 47.8495 181.072 48.291 181.084 48.7387C181.078 48.9479 181.019 49.1522 180.913 49.3329C180.86 49.4162 180.789 49.4871 180.705 49.5409C180.622 49.5947 180.528 49.6301 180.43 49.6449L178.202 50.0015C178.098 50.0204 177.991 50.0183 177.888 49.9953C177.784 49.9723 177.687 49.929 177.6 49.8677C177.513 49.8126 177.439 49.7373 177.386 49.6482C177.333 49.5591 177.302 49.4587 177.296 49.3552C177.202 48.664 177.253 47.9609 177.444 47.2902C177.619 46.6964 177.869 46.1273 178.187 45.5966C178.5 45.0872 178.858 44.6074 179.257 44.1629C179.651 43.7172 180 43.3013 180.341 42.9001C180.646 42.5419 180.91 42.1507 181.129 41.7339C181.322 41.3751 181.392 40.9629 181.329 40.5603C181.273 40.2059 181.133 39.8702 180.919 39.5819C180.706 39.2935 180.426 39.0608 180.104 38.9038C179.305 38.518 178.401 38.4083 177.533 38.5918C176.748 38.7067 176.017 39.0617 175.441 39.6083C174.865 40.1549 174.473 40.8662 174.317 41.6448C174.274 41.832 174.198 42.0104 174.094 42.1722C173.962 42.3132 173.782 42.4004 173.589 42.4173L171.242 42.7961C171.077 42.8277 170.906 42.793 170.766 42.6996C170.695 42.6504 170.635 42.5866 170.59 42.5123C170.545 42.438 170.517 42.3549 170.506 42.2687C170.437 41.5316 170.551 40.7887 170.841 40.1071C171.134 39.314 171.567 38.5796 172.118 37.9381C172.723 37.2358 173.435 36.634 174.228 36.1554C175.084 35.6363 176.032 35.2882 177.021 35.1303ZM180.854 51.3608C180.956 51.3446 181.061 51.3487 181.161 51.3729C181.262 51.3971 181.357 51.441 181.441 51.5019C181.528 51.5595 181.603 51.6349 181.659 51.7233C181.715 51.8116 181.752 51.9108 181.768 52.0145L182.184 54.5623C182.216 54.769 182.165 54.9801 182.043 55.1497C181.92 55.3194 181.736 55.4339 181.53 55.4686L179.041 55.8771C178.835 55.9091 178.624 55.8584 178.455 55.736C178.368 55.6777 178.295 55.6019 178.24 55.5136C178.185 55.4254 178.15 55.3265 178.135 55.2235L177.719 52.6756C177.7 52.5733 177.703 52.4683 177.727 52.3672C177.752 52.2661 177.797 52.1713 177.86 52.0888C177.919 52.0026 177.994 51.9296 178.083 51.8746C178.171 51.8196 178.27 51.7837 178.373 51.7694L180.854 51.3608Z" fill="#3855B3"/>
<g opacity="0.2">
<path opacity="0.2" d="M177.021 35.1303C177.915 34.9868 178.826 34.9693 179.725 35.0783C180.584 35.1804 181.418 35.4318 182.191 35.8211C182.927 36.2028 183.574 36.7341 184.093 37.381C184.558 38.0141 184.886 38.7378 185.055 39.5055C185.224 40.2732 185.23 41.0677 185.073 41.8379C184.932 42.43 184.704 42.9982 184.397 43.5241C184.102 44.0357 183.758 44.5182 183.372 44.9652C182.993 45.4109 182.629 45.8343 182.295 46.2428C181.968 46.6234 181.677 47.0338 181.426 47.4685C181.19 47.8495 181.072 48.291 181.084 48.7387C181.078 48.9479 181.019 49.1522 180.913 49.3329C180.86 49.4162 180.789 49.4871 180.705 49.5409C180.622 49.5947 180.528 49.6301 180.43 49.6449L178.202 50.0015C178.098 50.0204 177.991 50.0183 177.888 49.9953C177.784 49.9723 177.687 49.929 177.6 49.8677C177.513 49.8126 177.439 49.7373 177.386 49.6482C177.333 49.5591 177.302 49.4587 177.296 49.3552C177.202 48.664 177.253 47.9609 177.444 47.2902C177.619 46.6964 177.869 46.1273 178.187 45.5966C178.5 45.0872 178.858 44.6074 179.257 44.1629C179.651 43.7172 180 43.3013 180.341 42.9001C180.646 42.5419 180.91 42.1507 181.129 41.7339C181.322 41.3751 181.392 40.9629 181.329 40.5603C181.273 40.2059 181.133 39.8702 180.919 39.5819C180.706 39.2935 180.426 39.0608 180.104 38.9038C179.305 38.518 178.401 38.4083 177.533 38.5918C176.748 38.7067 176.017 39.0617 175.441 39.6083C174.865 40.1549 174.473 40.8662 174.317 41.6448C174.274 41.832 174.198 42.0104 174.094 42.1722C173.962 42.3132 173.782 42.4004 173.589 42.4173L171.242 42.7961C171.077 42.8277 170.906 42.793 170.766 42.6996C170.695 42.6504 170.635 42.5866 170.59 42.5123C170.545 42.438 170.517 42.3549 170.506 42.2687C170.437 41.5316 170.551 40.7887 170.841 40.1071C171.134 39.314 171.567 38.5796 172.118 37.9381C172.723 37.2358 173.435 36.634 174.228 36.1554C175.084 35.6363 176.032 35.2882 177.021 35.1303ZM180.854 51.3608C180.956 51.3446 181.061 51.3487 181.161 51.3729C181.262 51.3971 181.357 51.441 181.441 51.5019C181.528 51.5595 181.603 51.6349 181.659 51.7233C181.715 51.8116 181.752 51.9108 181.768 52.0145L182.184 54.5623C182.216 54.769 182.165 54.9801 182.043 55.1497C181.92 55.3194 181.736 55.4339 181.53 55.4686L179.041 55.8771C178.835 55.9091 178.624 55.8584 178.455 55.736C178.368 55.6777 178.295 55.6019 178.24 55.5136C178.185 55.4254 178.15 55.3265 178.135 55.2235L177.719 52.6756C177.7 52.5733 177.703 52.4683 177.727 52.3672C177.752 52.2661 177.797 52.1713 177.86 52.0888C177.919 52.0026 177.994 51.9296 178.083 51.8746C178.171 51.8196 178.27 51.7837 178.373 51.7694L180.854 51.3608Z" fill="black"/>
</g>
<path d="M198.028 39.1338C198.129 39.2042 198.215 39.2945 198.28 39.3993C198.345 39.504 198.388 39.6209 198.407 39.7429C198.43 39.8637 198.428 39.9882 198.402 40.1084C198.375 40.2285 198.323 40.3418 198.25 40.4411L196.483 42.9296C196.412 43.0309 196.322 43.1167 196.217 43.1818C196.112 43.247 195.995 43.29 195.873 43.3084C195.753 43.3321 195.628 43.3304 195.508 43.3036C195.388 43.2767 195.275 43.2252 195.175 43.1524L192.739 41.4217C192.637 41.3522 192.552 41.262 192.488 41.157C192.424 41.052 192.383 40.9346 192.367 40.8126C192.344 40.6917 192.345 40.5673 192.372 40.4471C192.399 40.3269 192.451 40.2136 192.523 40.1143L194.314 37.6259C194.458 37.4242 194.677 37.2877 194.921 37.246C195.166 37.2042 195.418 37.2607 195.621 37.403L198.028 39.1338ZM208.308 22.2793C209.197 22.9019 209.988 23.6529 210.656 24.5077C211.307 25.3029 211.81 26.2087 212.141 27.1819C212.449 28.1145 212.553 29.1025 212.446 30.0789C212.32 31.12 211.926 32.1106 211.302 32.9536C210.838 33.6352 210.242 34.2162 209.549 34.662C208.939 35.0446 208.275 35.3349 207.58 35.5237C206.903 35.7007 206.212 35.8199 205.515 35.8803L203.539 36.0585C202.947 36.1059 202.36 36.2078 201.786 36.3631C201.257 36.4832 200.773 36.7511 200.39 37.1356C200.217 37.3113 199.998 37.4349 199.758 37.4922C199.644 37.5249 199.524 37.5298 199.408 37.5065C199.292 37.4833 199.183 37.4325 199.09 37.3585L196.936 35.8283C196.73 35.6812 196.589 35.4603 196.542 35.2117C196.514 35.0912 196.515 34.9659 196.545 34.8459C196.575 34.7259 196.632 34.6146 196.713 34.5209C197.216 33.8679 197.845 33.3224 198.562 32.9164C199.209 32.5637 199.898 32.2965 200.613 32.1216C201.303 31.9542 202.006 31.8473 202.715 31.8022C203.413 31.7576 204.067 31.7056 204.676 31.6462C205.233 31.597 205.784 31.4874 206.317 31.3194C206.784 31.1639 207.187 30.8583 207.461 30.4503C207.71 30.1057 207.871 29.7063 207.932 29.286C207.993 28.8657 207.951 28.4369 207.811 28.0361C207.459 27.0461 206.787 26.2017 205.902 25.6368C204.297 24.4929 202.546 24.4557 200.65 25.5254C200.459 25.6469 200.247 25.7325 200.026 25.778C199.91 25.786 199.795 25.7711 199.685 25.7341C199.575 25.6972 199.474 25.6388 199.387 25.5625L197.099 23.9358C197.016 23.8808 196.945 23.8097 196.89 23.7268C196.836 23.6438 196.798 23.5507 196.78 23.4529C196.762 23.3519 196.765 23.2482 196.79 23.1485C196.814 23.0487 196.859 22.9551 196.921 22.8736C197.461 22.1819 198.162 21.6335 198.964 21.2765C199.874 20.864 200.849 20.6127 201.846 20.5337C202.942 20.4421 204.046 20.5299 205.114 20.7937C206.267 21.0715 207.353 21.5765 208.308 22.2793Z" fill="#3855B3"/>
<g opacity="0.6">
<path opacity="0.6" d="M198.028 39.1338C198.129 39.2042 198.215 39.2945 198.28 39.3993C198.345 39.504 198.388 39.6209 198.407 39.7429C198.43 39.8637 198.428 39.9882 198.402 40.1084C198.375 40.2285 198.323 40.3418 198.25 40.4411L196.483 42.9296C196.412 43.0309 196.322 43.1167 196.217 43.1818C196.112 43.247 195.995 43.29 195.873 43.3084C195.753 43.3321 195.628 43.3304 195.508 43.3036C195.388 43.2767 195.275 43.2252 195.175 43.1524L192.739 41.4217C192.637 41.3522 192.552 41.262 192.488 41.157C192.424 41.052 192.383 40.9346 192.367 40.8126C192.344 40.6917 192.345 40.5673 192.372 40.4471C192.399 40.3269 192.451 40.2136 192.523 40.1143L194.314 37.6259C194.458 37.4242 194.677 37.2877 194.921 37.246C195.166 37.2042 195.418 37.2607 195.621 37.403L198.028 39.1338ZM208.308 22.2793C209.197 22.9019 209.988 23.6529 210.656 24.5077C211.307 25.3029 211.81 26.2087 212.141 27.1819C212.449 28.1145 212.553 29.1025 212.446 30.0789C212.32 31.12 211.926 32.1106 211.302 32.9536C210.838 33.6352 210.242 34.2162 209.549 34.662C208.939 35.0446 208.275 35.3349 207.58 35.5237C206.903 35.7007 206.212 35.8199 205.515 35.8803L203.539 36.0585C202.947 36.1059 202.36 36.2078 201.786 36.3631C201.257 36.4832 200.773 36.7511 200.39 37.1356C200.217 37.3113 199.998 37.4349 199.758 37.4922C199.644 37.5249 199.524 37.5298 199.408 37.5065C199.292 37.4833 199.183 37.4325 199.09 37.3585L196.936 35.8283C196.73 35.6812 196.589 35.4603 196.542 35.2117C196.514 35.0912 196.515 34.9659 196.545 34.8459C196.575 34.7259 196.632 34.6146 196.713 34.5209C197.216 33.8679 197.845 33.3224 198.562 32.9164C199.209 32.5637 199.898 32.2965 200.613 32.1216C201.303 31.9542 202.006 31.8473 202.715 31.8022C203.413 31.7576 204.067 31.7056 204.676 31.6462C205.233 31.597 205.784 31.4874 206.317 31.3194C206.784 31.1639 207.187 30.8583 207.461 30.4503C207.71 30.1057 207.871 29.7063 207.932 29.286C207.993 28.8657 207.951 28.4369 207.811 28.0361C207.459 27.0461 206.787 26.2017 205.902 25.6368C204.297 24.4929 202.546 24.4557 200.65 25.5254C200.459 25.6469 200.247 25.7325 200.026 25.778C199.91 25.786 199.795 25.7711 199.685 25.7341C199.575 25.6972 199.474 25.6388 199.387 25.5625L197.099 23.9358C197.016 23.8808 196.945 23.8097 196.89 23.7268C196.836 23.6438 196.798 23.5507 196.78 23.4529C196.762 23.3519 196.765 23.2482 196.79 23.1485C196.814 23.0487 196.859 22.9551 196.921 22.8736C197.461 22.1819 198.162 21.6335 198.964 21.2765C199.874 20.864 200.849 20.6127 201.846 20.5337C202.942 20.4421 204.046 20.5299 205.114 20.7937C206.267 21.0715 207.353 21.5765 208.308 22.2793Z" fill="white"/>
</g>
<path d="M142.71 104.888H116.318V40.9463C116.318 35.3927 118.524 30.0665 122.451 26.1395C126.378 22.2125 131.704 20.0063 137.258 20.0063H139.694C145.248 20.0063 150.574 22.2125 154.501 26.1395C158.428 30.0665 160.634 35.3927 160.634 40.9463V87.0009C160.624 91.7483 158.731 96.2978 155.371 99.6512C152.011 103.005 147.457 104.888 142.71 104.888Z" fill="#2E3192"/>
<path d="M113.748 258.822C113.281 261.471 113.032 264.154 113.005 266.844C112.908 271.717 112.017 273.448 111.898 277.444C111.757 282.012 112.552 283.721 114.401 286.291C116.251 288.861 121.087 291.186 123.181 286.848C125.276 282.51 124.972 279.665 124.31 275.186C123.634 270.551 123.568 267.988 123.152 264.46C122.81 261.347 122.409 258.978 122.409 258.978L113.748 258.822Z" fill="#2E3192"/>
<path d="M127.579 226.457L111.534 226.167C111.772 236.879 113.473 248.771 113.762 258.851C113.822 260.746 113.718 273.552 114.431 277.422C115.508 283.275 122.446 282.48 122.817 278.982C123.189 275.483 122.372 260.53 122.394 258.985C122.327 252.537 125.365 241.655 126.933 230.082C126.999 229.525 127.504 227.014 127.579 226.457Z" fill="#FFA8A7"/>
<path d="M148.192 250.487C148.192 250.487 147.56 250.146 147.449 250.822C147.293 251.624 147.055 253.28 146.706 254.602C146.246 256.437 145.859 259.46 146.134 260.961C146.409 262.461 149.9 264.378 152.166 265.076C154.958 265.938 157.504 267.453 159.594 269.496C161.822 271.605 166.673 273.596 169.993 273.574C173.893 273.574 176.612 272.274 177.897 270.187C179.182 268.099 176.723 267.847 172.266 264.987L168.812 262.759C161.748 258.146 159.156 255.68 157.172 251.067L148.192 250.487Z" fill="#2E3192"/>
<path d="M157.232 247.627C157.113 244.314 159.401 216.154 159.401 216.154L144.166 223.1C147.427 242.576 148.125 247.174 148.177 250.361C148.11 250.628 148.083 250.903 148.095 251.178C148.095 254.959 152.381 257.002 155.709 259.527C158.538 261.743 161.553 263.712 164.719 265.41C167.141 266.621 172.059 266.733 172.668 265.18C168.612 262.083 162.714 257.447 159.49 253.912C157.915 252.248 157.351 250.948 157.232 247.627Z" fill="#FFA8A7"/>
<path d="M118.108 121.936C112.254 134.779 112.254 144.718 113.228 161.112C114.089 176.154 115.523 189.413 115.523 189.413C115.3 192.08 111.593 197.287 111.111 209.083C110.665 220.106 111.853 234.123 111.853 234.123C111.853 234.123 120.18 238.736 126.338 234.078C126.338 234.078 132.281 205.71 134.019 191.909C135.505 179.868 138.179 164.484 138.179 164.484L143.802 191.827C142.588 195.707 141.708 199.683 141.172 203.712C140.385 211.831 144.931 227.772 144.931 227.772C144.931 227.772 153.533 230.335 158.784 225.677C158.784 225.677 160.745 199.76 161.481 189.985C162.461 176.889 160.396 141.442 158.784 122.671L118.108 121.936Z" fill="#2E3192"/>
<path d="M138.193 164.462L140.504 143.856C140.504 143.856 150.858 142.474 155.553 138.062C154.209 140.164 152.419 141.945 150.31 143.277C148.201 144.61 145.824 145.462 143.349 145.772L140.006 164.945L143.802 191.827L138.193 164.462Z" fill="#2E3192"/>
<path d="M180.126 116.869C180.553 113.109 180.742 109.326 180.69 105.542C180.46 102.273 179.873 101.738 175.305 95.9518C169.139 88.1299 163.873 81.0955 158.302 74.1056C154.32 69.1139 150.131 68.3488 146.06 68.5716C143.208 68.7276 148.779 82.4474 151.579 90.5664L167.572 107.785C168.067 108.464 168.295 109.303 168.211 110.14L167.245 124.788L172.036 131.206C172.036 131.206 179.294 124.951 180.126 116.869Z" fill="#FFA8A7"/>
<path d="M130.639 69.0172C127.542 69.2326 121.911 69.76 121.911 69.76C118.665 71.5725 117.84 73.0655 117.239 77.3739C116.979 79.216 118.479 84.1112 119.764 91.0714L122.201 103.974L121.933 110.377C120.671 114.284 117.811 119.135 115.285 126.288C127.69 133.211 138.09 133.471 147.523 132.231C154.714 131.302 158.524 129.564 159.795 127.841C159.527 120.777 159.052 116.409 158.903 109.025C158.851 105.928 159.037 102.793 159.163 99.2275C163.984 95.2609 164.044 88.6647 161.392 84.3712C155.278 74.4695 149.328 68.2372 145.391 68.5566L130.639 69.0172Z" fill="#3855B3"/>
<path opacity="0.6" d="M130.639 69.0172C127.542 69.2326 121.911 69.76 121.911 69.76C118.665 71.5725 117.84 73.0655 117.239 77.3739C116.979 79.216 118.479 84.1112 119.764 91.0714L122.201 103.974L121.933 110.377C120.671 114.284 117.811 119.135 115.285 126.288C127.69 133.211 138.09 133.471 147.523 132.231C154.714 131.302 158.524 129.564 159.795 127.841C159.527 120.777 159.052 116.409 158.903 109.025C158.851 105.928 159.037 102.793 159.163 99.2275C163.984 95.2609 164.044 88.6647 161.392 84.3712C155.278 74.4695 149.328 68.2372 145.391 68.5566L130.639 69.0172Z" fill="white"/>
<path opacity="0.1" d="M149.559 99.3244C149.559 99.3244 143.898 103.722 137.428 101.427C135.612 100.854 133.973 99.8224 132.672 98.4313C131.371 97.0402 130.45 95.3368 130 93.4858C130 93.4858 129.317 100.877 137.465 103.395C145.362 105.824 149.559 99.3244 149.559 99.3244Z" fill="black"/>
<path d="M157.239 48.7312C156.994 59.4574 153.525 62.1018 151.772 62.8447C150.019 63.5875 146.662 63.1418 143.393 62.5995V69.0769C143.393 69.0769 147.167 73.0287 146.884 75.9776C146.602 78.9266 140.942 79.2609 136.723 76.3713C134.395 74.7722 132.289 72.8714 130.461 70.7185C130.11 70.3032 129.918 69.7767 129.918 69.2329V54.0794C129.918 54.0794 128.128 55.9736 124.964 53.8046C124.281 53.3688 123.696 52.7958 123.247 52.1219C122.798 51.448 122.494 50.6879 122.354 49.8901C122.214 49.0923 122.242 48.2741 122.436 47.4876C122.629 46.7011 122.984 45.9635 123.478 45.3216C124.86 43.6949 128.366 43.5834 130.045 46.0644C130.996 47.9141 131.122 49.7785 132.184 49.0357C135.007 47.0004 133.491 42.3504 136.901 40.1219C138.02 39.538 139.182 39.0413 140.377 38.6363C146.461 36.5341 151.735 34.7662 153.005 30.6064C155.397 31.9732 157.536 36.081 157.239 48.7312Z" fill="#FFA8A7"/>
<path d="M145.243 58.3134C146.022 58.3134 146.654 57.6815 146.654 56.9021C146.654 56.1226 146.022 55.4907 145.243 55.4907C144.463 55.4907 143.832 56.1226 143.832 56.9021C143.832 57.6815 144.463 58.3134 145.243 58.3134Z" fill="#B16668"/>
<path d="M144.307 47.1042C144.307 47.3948 144.221 47.6789 144.061 47.9213C143.901 48.1638 143.673 48.3539 143.406 48.4682C143.139 48.5825 142.844 48.616 142.558 48.5644C142.272 48.5128 142.007 48.3785 141.797 48.1781C141.586 47.9777 141.439 47.72 141.374 47.4369C141.308 47.1538 141.327 46.8577 141.429 46.5853C141.53 46.3128 141.709 46.0761 141.943 45.9042C142.177 45.7324 142.457 45.6331 142.747 45.6186C142.948 45.6085 143.15 45.6395 143.338 45.7096C143.527 45.7797 143.7 45.8876 143.846 46.0265C143.992 46.1655 144.108 46.3327 144.187 46.518C144.266 46.7032 144.307 46.9027 144.307 47.1042Z" fill="#2E3192"/>
<path d="M155.561 47.2528C155.576 47.4346 155.555 47.6175 155.499 47.791C155.442 47.9645 155.352 48.1251 155.233 48.2634C155.114 48.4016 154.969 48.5149 154.806 48.5964C154.643 48.678 154.465 48.7263 154.283 48.7385C154.099 48.7554 153.914 48.7331 153.74 48.6731C153.566 48.613 153.406 48.5165 153.272 48.3901C153.138 48.2636 153.032 48.1101 152.962 47.9396C152.891 47.7691 152.858 47.5857 152.864 47.4014C152.845 47.2183 152.864 47.0333 152.918 46.8575C152.973 46.6818 153.064 46.5192 153.183 46.3796C153.303 46.2399 153.451 46.1263 153.616 46.0456C153.782 45.9649 153.962 45.9188 154.146 45.9102C154.329 45.9016 154.513 45.9306 154.685 45.9955C154.858 46.0604 155.015 46.1598 155.147 46.2876C155.28 46.4154 155.385 46.5689 155.456 46.7387C155.527 46.9085 155.563 47.0911 155.561 47.2751V47.2528Z" fill="#2E3192"/>
<path d="M142.398 50.9226C141.117 50.9226 139.888 50.4141 138.981 49.5089C138.074 48.6036 137.564 47.3755 137.562 46.0943C137.562 42.811 140.949 42.811 142.398 42.811C143.846 42.811 147.226 42.811 147.226 46.0943C147.224 47.3742 146.715 48.6012 145.81 49.5062C144.905 50.4113 143.678 50.9206 142.398 50.9226ZM142.398 43.5687C139.426 43.5687 138.327 44.3115 138.327 46.0943C138.327 47.1778 138.758 48.217 139.524 48.9832C140.29 49.7493 141.329 50.1798 142.413 50.1798C143.496 50.1798 144.535 49.7493 145.301 48.9832C146.068 48.217 146.498 47.1778 146.498 46.0943C146.468 44.2744 145.324 43.5687 142.398 43.5687Z" fill="#2E3192"/>
<path d="M154.662 50.9226C153.38 50.9226 152.152 50.4141 151.245 49.5089C150.338 48.6036 149.828 47.3755 149.826 46.0943C149.826 42.811 153.213 42.811 154.662 42.811C156.11 42.811 159.49 42.811 159.49 46.0943C159.488 47.3742 158.979 48.6012 158.074 49.5062C157.169 50.4113 155.942 50.9206 154.662 50.9226ZM154.662 43.5687C151.735 43.5687 150.591 44.3115 150.591 46.0943C150.591 47.1778 151.021 48.217 151.788 48.9832C152.554 49.7493 153.593 50.1798 154.677 50.1798C155.76 50.1798 156.799 49.7493 157.565 48.9832C158.332 48.217 158.762 47.1778 158.762 46.0943C158.732 44.2744 157.588 43.5687 154.662 43.5687Z" fill="#2E3192"/>
<path d="M147.977 44.5342L148.214 53.5594L152.961 52.0886L147.977 44.5342Z" fill="#F28F8F"/>
<path d="M143.386 62.622C139.939 62.1688 132.845 60.1335 131.738 57.3257C132.184 58.7447 133.052 59.9939 134.227 60.9061C136.344 62.726 143.386 64.7687 143.386 64.7687V62.622Z" fill="#F28F8F"/>
<path d="M143.557 40.1516L140.407 42.0755C140.159 41.6432 140.087 41.1318 140.206 40.6477C140.325 40.1635 140.626 39.7438 141.046 39.4757C141.254 39.3496 141.485 39.267 141.726 39.2327C141.966 39.1985 142.211 39.2135 142.446 39.2767C142.681 39.3398 142.9 39.45 143.091 39.6003C143.282 39.7507 143.44 39.9383 143.557 40.1516Z" fill="#2E3192"/>
<path d="M156.37 42.2909L152.864 41.0652C152.932 40.8328 153.047 40.6168 153.201 40.4304C153.356 40.244 153.547 40.0911 153.762 39.9812C153.978 39.8713 154.214 39.8066 154.455 39.7912C154.697 39.7758 154.939 39.8099 155.167 39.8916C155.637 40.0605 156.024 40.4039 156.248 40.8506C156.472 41.2972 156.516 41.8129 156.37 42.2909Z" fill="#2E3192"/>
<path d="M146.847 46.4806C146.797 46.4806 146.747 46.4706 146.7 46.451C146.654 46.4315 146.612 46.403 146.577 46.367C146.541 46.331 146.514 46.2884 146.495 46.2416C146.476 46.1947 146.467 46.1447 146.468 46.0943C146.468 45.4778 147.687 45.0767 148.786 45.0767C149.885 45.0767 150.591 45.4778 150.591 46.0943C150.568 46.175 150.519 46.246 150.452 46.2966C150.385 46.3471 150.303 46.3745 150.22 46.3745C150.136 46.3745 150.054 46.3471 149.987 46.2966C149.92 46.246 149.871 46.175 149.848 46.0943C149.848 46.02 149.469 45.8343 148.808 45.8343C148.276 45.823 147.746 45.9138 147.248 46.1017C147.248 46.1534 147.238 46.2046 147.217 46.2521C147.197 46.2995 147.167 46.3423 147.13 46.3778C147.092 46.4133 147.048 46.4407 146.999 46.4584C146.95 46.4761 146.899 46.4836 146.847 46.4806Z" fill="#2E3192"/>
<path d="M137.956 46.1534H137.911L129.421 45.4106C129.024 45.0174 128.551 44.7091 128.032 44.5044L138 45.4255C138.1 45.4385 138.191 45.4901 138.254 45.5692C138.316 45.6483 138.345 45.7487 138.335 45.8489C138.317 45.936 138.27 46.0143 138.2 46.0699C138.131 46.1256 138.045 46.1552 137.956 46.1534Z" fill="#2E3192"/>
<path d="M103.096 55.0081C105.874 51.294 107.768 48.4936 110.301 45.3515C111.742 43.5464 112.663 42.2539 114.015 40.4043C114.966 39.1267 115.501 38.0496 116.585 37.6559C117.757 37.1758 118.813 36.4516 119.683 35.5314C120.217 34.9399 120.714 34.3146 121.168 33.6596C122.761 31.5166 124.652 29.6129 126.784 28.0067C129.013 26.328 131.501 25.0355 133.796 23.4384C135.163 22.4802 136.626 20.8905 134.963 19.4049C134.452 18.9751 133.841 18.6813 133.187 18.5507C129.139 17.6742 125.618 19.0632 121.659 20.0734C119.939 20.5027 118.257 21.0716 116.63 21.7745C115.829 22.091 115.079 22.5213 114.401 23.0521C113.454 24.0072 112.678 25.1177 112.106 26.3354C110.375 29.4255 106.661 32.1888 104.061 34.6326C101.023 37.4925 98.3045 40.1146 94.8356 43.2642C91.7158 46.1091 88.6628 48.7239 85.8029 51.8288C83.4334 54.3915 84.3173 56.3971 84.6293 57.0954C86.5606 61.062 88.7222 62.4882 91.3146 64.947C95.7715 69.2033 111.185 81.4523 116.288 85.5007C117.385 86.3619 118.246 87.4861 118.791 88.7691L119.772 91.0347C125.596 92.1043 129.481 83.3614 124.66 72.8357C123.861 71.1336 122.642 69.6635 121.116 68.5645C115.025 64.1299 103.096 55.0081 103.096 55.0081Z" fill="#FFA8A7"/>
<path d="M103.095 55.0083C101.242 57.2886 98.7716 58.9878 95.9792 59.9035C95.9792 59.9035 99.6933 60.8543 104.782 56.2859L103.095 55.0083Z" fill="#F28F8F"/>
<path d="M178.61 109.122L177.659 108.305C177.517 108.211 177.355 108.152 177.186 108.133C177.017 108.114 176.846 108.134 176.686 108.193L166.368 111.001C165.849 111.175 165.372 111.458 164.972 111.832C164.572 112.207 164.258 112.663 164.051 113.17L156.623 134.586C156.533 134.76 156.498 134.957 156.522 135.152C156.546 135.347 156.627 135.53 156.756 135.678L157.737 136.524C157.88 136.623 158.044 136.685 158.216 136.706C158.388 136.726 158.563 136.705 158.725 136.643L169.057 133.835C169.577 133.662 170.053 133.379 170.453 133.004C170.853 132.63 171.168 132.174 171.375 131.666C172.861 127.455 177.317 114.463 178.803 110.251C178.981 109.724 178.892 109.322 178.61 109.122Z" fill="#2E3192"/>
<path d="M157.596 135.41L165.024 113.995C165.23 113.488 165.545 113.032 165.945 112.659C166.345 112.286 166.822 112.004 167.341 111.833L177.652 109.025C178.61 108.765 179.137 109.315 178.796 110.251C177.31 114.463 172.853 127.455 171.368 131.666C171.16 132.174 170.846 132.63 170.446 133.004C170.046 133.379 169.57 133.662 169.05 133.835L158.74 136.673C157.789 136.896 157.276 136.346 157.596 135.41Z" fill="#3855B3"/>
<path d="M166.22 112.428C165.684 112.834 165.268 113.378 165.017 114.002L157.588 135.41C157.503 135.58 157.468 135.771 157.486 135.96C157.505 136.149 157.576 136.33 157.692 136.48L156.771 135.693C156.639 135.547 156.555 135.364 156.53 135.169C156.505 134.974 156.54 134.775 156.63 134.601L164.058 113.185C164.293 112.603 164.675 112.091 165.165 111.7L166.22 112.428Z" fill="#0B0C2B"/>
<path d="M175.78 118.883C175.037 121.059 172.46 122.515 168.196 123.525C163.932 124.536 161.577 129.059 162.253 130.433C162.929 131.808 169.823 133.093 172.579 132.699C175.334 132.305 178.098 128.324 178.937 127.091C179.776 125.858 180.742 117.256 179.858 116.075C178.974 114.894 177.11 115.079 177.11 115.079L175.78 118.883Z" fill="#F28F8F"/>
</svg>
