<svg width="246" height="246" viewBox="0 0 246 246" fill="none" xmlns="http://www.w3.org/2000/svg">
<path d="M0 8.00001C0 3.58173 3.58172 0 8 0H238C242.418 0 246 3.58172 246 8V246H0V8.00001Z" fill="#F9F9FC"/>
<path fill-rule="evenodd" clip-rule="evenodd" d="M112.333 107C110.861 107 109.667 108.194 109.667 109.667V136.333C109.667 137.806 110.861 139 112.333 139H133.667C135.139 139 136.333 137.806 136.333 136.333V123V115.096C136.333 114.82 136.222 114.556 136.024 114.357L128.995 107.328C128.785 107.118 128.496 107 128.193 107H123H112.333ZM117.444 120.067C116.984 120.067 116.611 120.425 116.611 120.867C116.611 121.308 116.984 121.667 117.444 121.667H126.535C126.996 121.667 127.369 121.308 127.369 120.867C127.369 120.425 126.996 120.067 126.535 120.067H117.444ZM117.444 124.333C116.984 124.333 116.611 124.692 116.611 125.133C116.611 125.575 116.984 125.933 117.444 125.933H128.556C129.016 125.933 129.389 125.575 129.389 125.133C129.389 124.692 129.016 124.333 128.556 124.333H117.444ZM117.444 128.6C116.984 128.6 116.611 128.958 116.611 129.4C116.611 129.842 116.984 130.2 117.444 130.2H128.556C129.016 130.2 129.389 129.842 129.389 129.4C129.389 128.958 129.016 128.6 128.556 128.6H117.444Z" fill="#E83274"/>
<path d="M136.333 115C136.333 115 136.333 114.333 135.667 113.667L129.667 107.667C129 107 128.333 107 128.333 107V113.667C128.333 114.333 129 115 129.667 115H136.333Z" fill="#F194BA"/>
</svg>
