<svg width="403" height="41" viewBox="0 0 403 41" fill="none" xmlns="http://www.w3.org/2000/svg">
<rect x="22" y="8" width="357" height="2" fill="#D8D8D8"/>
<rect x="30" y="8" width="171" height="2" fill="#D8D8D8"/>
<rect x="201" y="8" width="171" height="2" fill="#D8D8D8"/>
<circle cx="26" cy="9" r="4" fill="#36B37E"/>
<circle cx="200.5" cy="9" r="4" fill="#D8D8D8"/>
<circle cx="375" cy="9" r="4" fill="#D8D8D8"/>
<path d="M0.364 34L3.976 24.2H5.6L9.184 34H7.616L6.776 31.606H2.772L1.932 34H0.364ZM3.192 30.43H6.356L4.774 25.964L3.192 30.43ZM10.4946 37.08V27.056H11.8246L11.9786 28.134C12.2026 27.8073 12.5106 27.518 12.9026 27.266C13.2946 27.014 13.7986 26.888 14.4146 26.888C15.0866 26.888 15.6793 27.0467 16.1926 27.364C16.706 27.6813 17.1073 28.1153 17.3966 28.666C17.6953 29.2167 17.8446 29.842 17.8446 30.542C17.8446 31.242 17.6953 31.8673 17.3966 32.418C17.1073 32.9593 16.706 33.3887 16.1926 33.706C15.6793 34.014 15.082 34.168 14.4006 34.168C13.8593 34.168 13.3786 34.0607 12.9586 33.846C12.548 33.6313 12.2213 33.328 11.9786 32.936V37.08H10.4946ZM14.1486 32.88C14.7833 32.88 15.306 32.6653 15.7166 32.236C16.1273 31.7973 16.3326 31.228 16.3326 30.528C16.3326 30.0707 16.2393 29.6647 16.0526 29.31C15.866 28.9553 15.6093 28.68 15.2826 28.484C14.956 28.2787 14.578 28.176 14.1486 28.176C13.514 28.176 12.9913 28.3953 12.5806 28.834C12.1793 29.2727 11.9786 29.8373 11.9786 30.528C11.9786 31.228 12.1793 31.7973 12.5806 32.236C12.9913 32.6653 13.514 32.88 14.1486 32.88ZM19.4497 37.08V27.056H20.7797L20.9337 28.134C21.1577 27.8073 21.4657 27.518 21.8577 27.266C22.2497 27.014 22.7537 26.888 23.3697 26.888C24.0417 26.888 24.6344 27.0467 25.1477 27.364C25.6611 27.6813 26.0624 28.1153 26.3517 28.666C26.6504 29.2167 26.7997 29.842 26.7997 30.542C26.7997 31.242 26.6504 31.8673 26.3517 32.418C26.0624 32.9593 25.6611 33.3887 25.1477 33.706C24.6344 34.014 24.0371 34.168 23.3557 34.168C22.8144 34.168 22.3337 34.0607 21.9137 33.846C21.5031 33.6313 21.1764 33.328 20.9337 32.936V37.08H19.4497ZM23.1037 32.88C23.7384 32.88 24.2611 32.6653 24.6717 32.236C25.0824 31.7973 25.2877 31.228 25.2877 30.528C25.2877 30.0707 25.1944 29.6647 25.0077 29.31C24.8211 28.9553 24.5644 28.68 24.2377 28.484C23.9111 28.2787 23.5331 28.176 23.1037 28.176C22.4691 28.176 21.9464 28.3953 21.5357 28.834C21.1344 29.2727 20.9337 29.8373 20.9337 30.528C20.9337 31.228 21.1344 31.7973 21.5357 32.236C21.9464 32.6653 22.4691 32.88 23.1037 32.88ZM28.4048 34V23.92H29.8888V34H28.4048ZM32.6081 25.74C32.3281 25.74 32.0947 25.656 31.9081 25.488C31.7307 25.3107 31.6421 25.0913 31.6421 24.83C31.6421 24.5687 31.7307 24.354 31.9081 24.186C32.0947 24.0087 32.3281 23.92 32.6081 23.92C32.8881 23.92 33.1167 24.0087 33.2941 24.186C33.4807 24.354 33.5741 24.5687 33.5741 24.83C33.5741 25.0913 33.4807 25.3107 33.2941 25.488C33.1167 25.656 32.8881 25.74 32.6081 25.74ZM31.8661 34V27.056H33.3501V34H31.8661ZM38.5571 34.168C37.8758 34.168 37.2691 34.0187 36.7371 33.72C36.2144 33.412 35.8038 32.9873 35.5051 32.446C35.2064 31.9047 35.0571 31.2747 35.0571 30.556C35.0571 29.828 35.2018 29.1887 35.4911 28.638C35.7898 28.0873 36.2004 27.658 36.7231 27.35C37.2551 27.042 37.8711 26.888 38.5711 26.888C39.2524 26.888 39.8451 27.042 40.3491 27.35C40.8531 27.6487 41.2451 28.05 41.5251 28.554C41.8051 29.058 41.9451 29.6133 41.9451 30.22C41.9451 30.3133 41.9404 30.416 41.9311 30.528C41.9311 30.6307 41.9264 30.7473 41.9171 30.878H36.5131C36.5598 31.55 36.7791 32.0633 37.1711 32.418C37.5724 32.7633 38.0344 32.936 38.5571 32.936C38.9771 32.936 39.3271 32.8427 39.6071 32.656C39.8964 32.46 40.1111 32.1987 40.2511 31.872H41.7351C41.5484 32.5253 41.1751 33.0713 40.6151 33.51C40.0644 33.9487 39.3784 34.168 38.5571 34.168ZM38.5571 28.106C38.0624 28.106 37.6238 28.2553 37.2411 28.554C36.8584 28.8433 36.6251 29.282 36.5411 29.87H40.4611C40.4331 29.3287 40.2418 28.8993 39.8871 28.582C39.5324 28.2647 39.0891 28.106 38.5571 28.106ZM46.6489 34.168C45.9769 34.168 45.3842 34.0093 44.8709 33.692C44.3575 33.3747 43.9562 32.9407 43.6669 32.39C43.3775 31.8393 43.2329 31.214 43.2329 30.514C43.2329 29.814 43.3775 29.1933 43.6669 28.652C43.9562 28.1013 44.3575 27.672 44.8709 27.364C45.3935 27.0467 45.9909 26.888 46.6629 26.888C47.2135 26.888 47.6942 26.9953 48.1049 27.21C48.5249 27.4247 48.8515 27.728 49.0849 28.12V23.92H50.5689V34H49.2389L49.0849 32.922C48.8609 33.2487 48.5529 33.538 48.1609 33.79C47.7689 34.042 47.2649 34.168 46.6489 34.168ZM46.9149 32.88C47.5495 32.88 48.0675 32.6607 48.4689 32.222C48.8795 31.7833 49.0849 31.2187 49.0849 30.528C49.0849 29.828 48.8795 29.2633 48.4689 28.834C48.0675 28.3953 47.5495 28.176 46.9149 28.176C46.2802 28.176 45.7575 28.3953 45.3469 28.834C44.9362 29.2633 44.7309 29.828 44.7309 30.528C44.7309 30.9853 44.8242 31.3913 45.0109 31.746C45.1975 32.1007 45.4542 32.3807 45.7809 32.586C46.1169 32.782 46.4949 32.88 46.9149 32.88Z" fill="#5D5D5E"/>
<path d="M168.364 34L171.976 24.2H173.6L177.184 34H175.616L174.776 31.606H170.772L169.932 34H168.364ZM171.192 30.43H174.356L172.774 25.964L171.192 30.43ZM178.495 37.08V27.056H179.825L179.979 28.134C180.203 27.8073 180.511 27.518 180.903 27.266C181.295 27.014 181.799 26.888 182.415 26.888C183.087 26.888 183.679 27.0467 184.193 27.364C184.706 27.6813 185.107 28.1153 185.397 28.666C185.695 29.2167 185.845 29.842 185.845 30.542C185.845 31.242 185.695 31.8673 185.397 32.418C185.107 32.9593 184.706 33.3887 184.193 33.706C183.679 34.014 183.082 34.168 182.401 34.168C181.859 34.168 181.379 34.0607 180.959 33.846C180.548 33.6313 180.221 33.328 179.979 32.936V37.08H178.495ZM182.149 32.88C182.783 32.88 183.306 32.6653 183.717 32.236C184.127 31.7973 184.333 31.228 184.333 30.528C184.333 30.0707 184.239 29.6647 184.053 29.31C183.866 28.9553 183.609 28.68 183.283 28.484C182.956 28.2787 182.578 28.176 182.149 28.176C181.514 28.176 180.991 28.3953 180.581 28.834C180.179 29.2727 179.979 29.8373 179.979 30.528C179.979 31.228 180.179 31.7973 180.581 32.236C180.991 32.6653 181.514 32.88 182.149 32.88ZM187.45 37.08V27.056H188.78L188.934 28.134C189.158 27.8073 189.466 27.518 189.858 27.266C190.25 27.014 190.754 26.888 191.37 26.888C192.042 26.888 192.634 27.0467 193.148 27.364C193.661 27.6813 194.062 28.1153 194.352 28.666C194.65 29.2167 194.8 29.842 194.8 30.542C194.8 31.242 194.65 31.8673 194.352 32.418C194.062 32.9593 193.661 33.3887 193.148 33.706C192.634 34.014 192.037 34.168 191.356 34.168C190.814 34.168 190.334 34.0607 189.914 33.846C189.503 33.6313 189.176 33.328 188.934 32.936V37.08H187.45ZM191.104 32.88C191.738 32.88 192.261 32.6653 192.672 32.236C193.082 31.7973 193.288 31.228 193.288 30.528C193.288 30.0707 193.194 29.6647 193.008 29.31C192.821 28.9553 192.564 28.68 192.238 28.484C191.911 28.2787 191.533 28.176 191.104 28.176C190.469 28.176 189.946 28.3953 189.536 28.834C189.134 29.2727 188.934 29.8373 188.934 30.528C188.934 31.228 189.134 31.7973 189.536 32.236C189.946 32.6653 190.469 32.88 191.104 32.88ZM196.405 34V27.056H197.735L197.861 28.372C198.103 27.9147 198.439 27.5553 198.869 27.294C199.307 27.0233 199.835 26.888 200.451 26.888V28.442H200.045C199.634 28.442 199.265 28.512 198.939 28.652C198.621 28.7827 198.365 29.0113 198.169 29.338C197.982 29.6553 197.889 30.0987 197.889 30.668V34H196.405ZM204.78 34.168C204.117 34.168 203.52 34.0187 202.988 33.72C202.465 33.412 202.05 32.9873 201.742 32.446C201.434 31.8953 201.28 31.256 201.28 30.528C201.28 29.8 201.434 29.1653 201.742 28.624C202.059 28.0733 202.484 27.6487 203.016 27.35C203.548 27.042 204.14 26.888 204.794 26.888C205.456 26.888 206.049 27.042 206.572 27.35C207.104 27.6487 207.524 28.0733 207.832 28.624C208.149 29.1653 208.308 29.8 208.308 30.528C208.308 31.256 208.149 31.8953 207.832 32.446C207.524 32.9873 207.104 33.412 206.572 33.72C206.04 34.0187 205.442 34.168 204.78 34.168ZM204.78 32.894C205.134 32.894 205.461 32.8053 205.76 32.628C206.068 32.4507 206.315 32.1893 206.502 31.844C206.688 31.4893 206.782 31.0507 206.782 30.528C206.782 30.0053 206.688 29.5713 206.502 29.226C206.324 28.8713 206.082 28.6053 205.774 28.428C205.475 28.2507 205.148 28.162 204.794 28.162C204.439 28.162 204.108 28.2507 203.8 28.428C203.501 28.6053 203.258 28.8713 203.072 29.226C202.885 29.5713 202.792 30.0053 202.792 30.528C202.792 31.0507 202.885 31.4893 203.072 31.844C203.258 32.1893 203.501 32.4507 203.8 32.628C204.098 32.8053 204.425 32.894 204.78 32.894ZM211.503 34L208.899 27.056H210.453L212.385 32.586L214.317 27.056H215.857L213.267 34H211.503ZM219.969 34.168C219.288 34.168 218.681 34.0187 218.149 33.72C217.627 33.412 217.216 32.9873 216.917 32.446C216.619 31.9047 216.469 31.2747 216.469 30.556C216.469 29.828 216.614 29.1887 216.903 28.638C217.202 28.0873 217.613 27.658 218.135 27.35C218.667 27.042 219.283 26.888 219.983 26.888C220.665 26.888 221.257 27.042 221.761 27.35C222.265 27.6487 222.657 28.05 222.937 28.554C223.217 29.058 223.357 29.6133 223.357 30.22C223.357 30.3133 223.353 30.416 223.343 30.528C223.343 30.6307 223.339 30.7473 223.329 30.878H217.925C217.972 31.55 218.191 32.0633 218.583 32.418C218.985 32.7633 219.447 32.936 219.969 32.936C220.389 32.936 220.739 32.8427 221.019 32.656C221.309 32.46 221.523 32.1987 221.663 31.872H223.147C222.961 32.5253 222.587 33.0713 222.027 33.51C221.477 33.9487 220.791 34.168 219.969 34.168ZM219.969 28.106C219.475 28.106 219.036 28.2553 218.653 28.554C218.271 28.8433 218.037 29.282 217.953 29.87H221.873C221.845 29.3287 221.654 28.8993 221.299 28.582C220.945 28.2647 220.501 28.106 219.969 28.106ZM228.061 34.168C227.389 34.168 226.796 34.0093 226.283 33.692C225.77 33.3747 225.368 32.9407 225.079 32.39C224.79 31.8393 224.645 31.214 224.645 30.514C224.645 29.814 224.79 29.1933 225.079 28.652C225.368 28.1013 225.77 27.672 226.283 27.364C226.806 27.0467 227.403 26.888 228.075 26.888C228.626 26.888 229.106 26.9953 229.517 27.21C229.937 27.4247 230.264 27.728 230.497 28.12V23.92H231.981V34H230.651L230.497 32.922C230.273 33.2487 229.965 33.538 229.573 33.79C229.181 34.042 228.677 34.168 228.061 34.168ZM228.327 32.88C228.962 32.88 229.48 32.6607 229.881 32.222C230.292 31.7833 230.497 31.2187 230.497 30.528C230.497 29.828 230.292 29.2633 229.881 28.834C229.48 28.3953 228.962 28.176 228.327 28.176C227.692 28.176 227.17 28.3953 226.759 28.834C226.348 29.2633 226.143 29.828 226.143 30.528C226.143 30.9853 226.236 31.3913 226.423 31.746C226.61 32.1007 226.866 32.3807 227.193 32.586C227.529 32.782 227.907 32.88 228.327 32.88Z" fill="#D8D8D8"/>
<path d="M351.228 34.168C350.509 34.168 349.879 34.042 349.338 33.79C348.797 33.538 348.372 33.1787 348.064 32.712C347.765 32.2453 347.611 31.69 347.602 31.046H349.17C349.179 31.5687 349.361 32.012 349.716 32.376C350.071 32.74 350.57 32.922 351.214 32.922C351.783 32.922 352.227 32.7867 352.544 32.516C352.871 32.236 353.034 31.8813 353.034 31.452C353.034 31.1067 352.955 30.8267 352.796 30.612C352.647 30.3973 352.437 30.22 352.166 30.08C351.905 29.94 351.601 29.814 351.256 29.702C350.911 29.59 350.547 29.4687 350.164 29.338C349.408 29.086 348.839 28.7593 348.456 28.358C348.083 27.9567 347.896 27.4293 347.896 26.776C347.887 26.2253 348.013 25.7447 348.274 25.334C348.545 24.9233 348.918 24.606 349.394 24.382C349.879 24.1487 350.444 24.032 351.088 24.032C351.723 24.032 352.278 24.1487 352.754 24.382C353.239 24.6153 353.617 24.942 353.888 25.362C354.159 25.7727 354.299 26.2533 354.308 26.804H352.74C352.74 26.552 352.675 26.314 352.544 26.09C352.413 25.8567 352.222 25.6653 351.97 25.516C351.718 25.3667 351.41 25.292 351.046 25.292C350.579 25.2827 350.192 25.3993 349.884 25.642C349.585 25.8847 349.436 26.2207 349.436 26.65C349.436 27.0327 349.548 27.3267 349.772 27.532C349.996 27.7373 350.304 27.91 350.696 28.05C351.088 28.1807 351.536 28.3347 352.04 28.512C352.525 28.6707 352.959 28.862 353.342 29.086C353.725 29.31 354.028 29.604 354.252 29.968C354.485 30.332 354.602 30.794 354.602 31.354C354.602 31.8487 354.476 32.3107 354.224 32.74C353.972 33.16 353.594 33.5053 353.09 33.776C352.586 34.0373 351.965 34.168 351.228 34.168ZM358.73 34.168C357.89 34.168 357.228 33.9067 356.742 33.384C356.266 32.8613 356.028 32.082 356.028 31.046V27.056H357.512V30.892C357.512 32.236 358.063 32.908 359.164 32.908C359.715 32.908 360.168 32.712 360.522 32.32C360.877 31.928 361.054 31.368 361.054 30.64V27.056H362.538V34H361.222L361.11 32.782C360.896 33.2113 360.578 33.552 360.158 33.804C359.748 34.0467 359.272 34.168 358.73 34.168ZM367.716 34.168C367.035 34.168 366.424 34.014 365.882 33.706C365.35 33.398 364.93 32.9733 364.622 32.432C364.324 31.8813 364.174 31.2467 364.174 30.528C364.174 29.8093 364.324 29.1793 364.622 28.638C364.93 28.0873 365.35 27.658 365.882 27.35C366.424 27.042 367.035 26.888 367.716 26.888C368.575 26.888 369.294 27.112 369.872 27.56C370.46 28.008 370.838 28.6147 371.006 29.38H369.452C369.359 28.9973 369.154 28.6987 368.836 28.484C368.519 28.2693 368.146 28.162 367.716 28.162C367.352 28.162 367.016 28.2553 366.708 28.442C366.4 28.6193 366.153 28.8853 365.966 29.24C365.78 29.5853 365.686 30.0147 365.686 30.528C365.686 31.0413 365.78 31.4753 365.966 31.83C366.153 32.1753 366.4 32.4413 366.708 32.628C367.016 32.8147 367.352 32.908 367.716 32.908C368.146 32.908 368.519 32.8007 368.836 32.586C369.154 32.3713 369.359 32.068 369.452 31.676H371.006C370.848 32.4227 370.474 33.0247 369.886 33.482C369.298 33.9393 368.575 34.168 367.716 34.168ZM375.906 34.168C375.224 34.168 374.613 34.014 374.072 33.706C373.54 33.398 373.12 32.9733 372.812 32.432C372.513 31.8813 372.364 31.2467 372.364 30.528C372.364 29.8093 372.513 29.1793 372.812 28.638C373.12 28.0873 373.54 27.658 374.072 27.35C374.613 27.042 375.224 26.888 375.906 26.888C376.764 26.888 377.483 27.112 378.062 27.56C378.65 28.008 379.028 28.6147 379.196 29.38H377.642C377.548 28.9973 377.343 28.6987 377.026 28.484C376.708 28.2693 376.335 28.162 375.906 28.162C375.542 28.162 375.206 28.2553 374.898 28.442C374.59 28.6193 374.342 28.8853 374.156 29.24C373.969 29.5853 373.876 30.0147 373.876 30.528C373.876 31.0413 373.969 31.4753 374.156 31.83C374.342 32.1753 374.59 32.4413 374.898 32.628C375.206 32.8147 375.542 32.908 375.906 32.908C376.335 32.908 376.708 32.8007 377.026 32.586C377.343 32.3713 377.548 32.068 377.642 31.676H379.196C379.037 32.4227 378.664 33.0247 378.076 33.482C377.488 33.9393 376.764 34.168 375.906 34.168ZM384.053 34.168C383.372 34.168 382.765 34.0187 382.233 33.72C381.711 33.412 381.3 32.9873 381.001 32.446C380.703 31.9047 380.553 31.2747 380.553 30.556C380.553 29.828 380.698 29.1887 380.987 28.638C381.286 28.0873 381.697 27.658 382.219 27.35C382.751 27.042 383.367 26.888 384.067 26.888C384.749 26.888 385.341 27.042 385.845 27.35C386.349 27.6487 386.741 28.05 387.021 28.554C387.301 29.058 387.441 29.6133 387.441 30.22C387.441 30.3133 387.437 30.416 387.427 30.528C387.427 30.6307 387.423 30.7473 387.413 30.878H382.009C382.056 31.55 382.275 32.0633 382.667 32.418C383.069 32.7633 383.531 32.936 384.053 32.936C384.473 32.936 384.823 32.8427 385.103 32.656C385.393 32.46 385.607 32.1987 385.747 31.872H387.231C387.045 32.5253 386.671 33.0713 386.111 33.51C385.561 33.9487 384.875 34.168 384.053 34.168ZM384.053 28.106C383.559 28.106 383.12 28.2553 382.737 28.554C382.355 28.8433 382.121 29.282 382.037 29.87H385.957C385.929 29.3287 385.738 28.8993 385.383 28.582C385.029 28.2647 384.585 28.106 384.053 28.106ZM391.753 34.168C390.876 34.168 390.152 33.9533 389.583 33.524C389.014 33.0947 388.687 32.5253 388.603 31.816H390.101C390.176 32.1333 390.353 32.4087 390.633 32.642C390.913 32.866 391.282 32.978 391.739 32.978C392.187 32.978 392.514 32.8847 392.719 32.698C392.924 32.5113 393.027 32.2967 393.027 32.054C393.027 31.6993 392.882 31.4613 392.593 31.34C392.313 31.2093 391.921 31.0927 391.417 30.99C391.025 30.906 390.633 30.794 390.241 30.654C389.858 30.514 389.536 30.318 389.275 30.066C389.023 29.8047 388.897 29.4547 388.897 29.016C388.897 28.4093 389.13 27.9053 389.597 27.504C390.064 27.0933 390.717 26.888 391.557 26.888C392.332 26.888 392.957 27.0747 393.433 27.448C393.918 27.8213 394.203 28.3487 394.287 29.03H392.859C392.812 28.7313 392.672 28.498 392.439 28.33C392.215 28.162 391.912 28.078 391.529 28.078C391.156 28.078 390.866 28.1573 390.661 28.316C390.456 28.4653 390.353 28.6613 390.353 28.904C390.353 29.1467 390.493 29.338 390.773 29.478C391.062 29.618 391.44 29.744 391.907 29.856C392.374 29.9587 392.803 30.08 393.195 30.22C393.596 30.3507 393.918 30.5467 394.161 30.808C394.404 31.0693 394.525 31.452 394.525 31.956C394.534 32.5907 394.287 33.118 393.783 33.538C393.288 33.958 392.612 34.168 391.753 34.168ZM398.917 34.168C398.04 34.168 397.316 33.9533 396.747 33.524C396.178 33.0947 395.851 32.5253 395.767 31.816H397.265C397.34 32.1333 397.517 32.4087 397.797 32.642C398.077 32.866 398.446 32.978 398.903 32.978C399.351 32.978 399.678 32.8847 399.883 32.698C400.088 32.5113 400.191 32.2967 400.191 32.054C400.191 31.6993 400.046 31.4613 399.757 31.34C399.477 31.2093 399.085 31.0927 398.581 30.99C398.189 30.906 397.797 30.794 397.405 30.654C397.022 30.514 396.7 30.318 396.439 30.066C396.187 29.8047 396.061 29.4547 396.061 29.016C396.061 28.4093 396.294 27.9053 396.761 27.504C397.228 27.0933 397.881 26.888 398.721 26.888C399.496 26.888 400.121 27.0747 400.597 27.448C401.082 27.8213 401.367 28.3487 401.451 29.03H400.023C399.976 28.7313 399.836 28.498 399.603 28.33C399.379 28.162 399.076 28.078 398.693 28.078C398.32 28.078 398.03 28.1573 397.825 28.316C397.62 28.4653 397.517 28.6613 397.517 28.904C397.517 29.1467 397.657 29.338 397.937 29.478C398.226 29.618 398.604 29.744 399.071 29.856C399.538 29.9587 399.967 30.08 400.359 30.22C400.76 30.3507 401.082 30.5467 401.325 30.808C401.568 31.0693 401.689 31.452 401.689 31.956C401.698 32.5907 401.451 33.118 400.947 33.538C400.452 33.958 399.776 34.168 398.917 34.168Z" fill="#D8D8D8"/>
</svg>
