<svg width="18" height="19" viewBox="0 0 18 19" fill="none" xmlns="http://www.w3.org/2000/svg">
<path d="M9 2C7.4087 2 5.88258 2.63214 4.75736 3.75736C3.63214 4.88258 3 6.4087 3 8C3 12.05 8.2875 16.625 8.5125 16.82C8.64835 16.9362 8.82124 17 9 17C9.17876 17 9.35165 16.9362 9.4875 16.82C9.75 16.625 15 12.05 15 8C15 6.4087 14.3679 4.88258 13.2426 3.75736C12.1174 2.63214 10.5913 2 9 2ZM9 15.2375C7.4025 13.7375 4.5 10.505 4.5 8C4.5 6.80653 4.97411 5.66193 5.81802 4.81802C6.66193 3.97411 7.80653 3.5 9 3.5C10.1935 3.5 11.3381 3.97411 12.182 4.81802C13.0259 5.66193 13.5 6.80653 13.5 8C13.5 10.505 10.5975 13.745 9 15.2375ZM9 5C8.40666 5 7.82664 5.17595 7.33329 5.50559C6.83994 5.83524 6.45542 6.30377 6.22836 6.85195C6.0013 7.40013 5.94189 8.00333 6.05764 8.58527C6.1734 9.16721 6.45912 9.70176 6.87868 10.1213C7.29824 10.5409 7.83279 10.8266 8.41473 10.9424C8.99667 11.0581 9.59987 10.9987 10.1481 10.7716C10.6962 10.5446 11.1648 10.1601 11.4944 9.66671C11.8241 9.17336 12 8.59334 12 8C12 7.20435 11.6839 6.44129 11.1213 5.87868C10.5587 5.31607 9.79565 5 9 5ZM9 9.5C8.70333 9.5 8.41332 9.41203 8.16665 9.2472C7.91997 9.08238 7.72771 8.84811 7.61418 8.57403C7.50065 8.29994 7.47094 7.99834 7.52882 7.70737C7.5867 7.41639 7.72956 7.14912 7.93934 6.93934C8.14912 6.72956 8.41639 6.5867 8.70736 6.52882C8.99834 6.47094 9.29994 6.50065 9.57403 6.61418C9.84811 6.72771 10.0824 6.91997 10.2472 7.16665C10.412 7.41332 10.5 7.70333 10.5 8C10.5 8.39783 10.342 8.77936 10.0607 9.06066C9.77936 9.34197 9.39782 9.5 9 9.5Z" fill="#2e3192"/>
</svg>
