<svg width="100" height="87" viewBox="0 0 100 87" fill="none" xmlns="http://www.w3.org/2000/svg">
<path fill-rule="evenodd" clip-rule="evenodd" d="M96.6277 11.218C97.2938 11.2185 97.9323 11.482 98.4031 11.9505C98.8739 12.4191 99.1384 13.0544 99.1384 13.7168C99.1384 14.3793 98.8739 15.0146 98.4031 15.4832C97.9323 15.9518 97.2938 16.2152 96.6277 16.2157H93.9128C93.5827 16.216 93.2558 16.1516 92.9508 16.0261C92.6457 15.9006 92.3685 15.7166 92.135 15.4845C91.9015 15.2524 91.7163 14.9768 91.5899 14.6735C91.4635 14.3702 91.3984 14.0451 91.3984 13.7168C91.3984 13.3885 91.4635 13.0634 91.5899 12.7601C91.7163 12.4568 91.9015 12.1813 92.135 11.9492C92.3685 11.7172 92.6457 11.5331 92.9508 11.4077C93.2558 11.2822 93.5827 11.2178 93.9128 11.218H96.6277Z" fill="#00ADEF"/>
<path fill-rule="evenodd" clip-rule="evenodd" d="M86.525 11.218C87.191 11.2185 87.8296 11.482 88.3004 11.9505C88.7712 12.4191 89.0356 13.0544 89.0356 13.7168C89.0356 14.3793 88.7712 15.0146 88.3004 15.4832C87.8296 15.9518 87.191 16.2152 86.525 16.2157H66.7195C66.3894 16.216 66.0624 16.1516 65.7574 16.0261C65.4523 15.9006 65.1751 15.7166 64.9416 15.4845C64.7081 15.2524 64.5229 14.9768 64.3965 14.6735C64.2701 14.3702 64.2051 14.0451 64.2051 13.7168C64.2051 13.3885 64.2701 13.0634 64.3965 12.7601C64.5229 12.4568 64.7081 12.1813 64.9416 11.9492C65.1751 11.7172 65.4523 11.5331 65.7574 11.4077C66.0624 11.2822 66.3894 11.2178 66.7195 11.218H86.525Z" fill="#00ADEF"/>
<path fill-rule="evenodd" clip-rule="evenodd" d="M96.6277 2.14356C97.2938 2.144 97.9324 2.40743 98.4033 2.87601C98.8741 3.34459 99.1386 3.97999 99.1386 4.64244C99.1386 5.30489 98.8741 5.94021 98.4033 6.4088C97.9324 6.87738 97.2938 7.14087 96.6277 7.14132H53.6344C53.3043 7.14154 52.9774 7.07703 52.6723 6.95155C52.3673 6.82607 52.0901 6.64204 51.8566 6.40997C51.6231 6.17791 51.4379 5.90236 51.3115 5.59907C51.1852 5.29578 51.1201 4.97074 51.1201 4.64244C51.1201 4.31414 51.1852 3.98902 51.3115 3.68574C51.4379 3.38245 51.6231 3.1069 51.8566 2.87483C52.0901 2.64277 52.3673 2.45874 52.6723 2.33326C52.9774 2.20778 53.3043 2.14333 53.6344 2.14356H96.6277Z" fill="#00ADEF"/>
<path fill-rule="evenodd" clip-rule="evenodd" d="M27.3446 0.000112754C28.6074 0.00693126 29.8876 0.306286 31.1446 0.958965L96.0624 37.1823C99.7403 39.2725 101.089 43.9874 99.0455 47.6585C92.1626 59.8039 85.1055 71.9951 79.4069 82.4614C77.3051 86.1194 72.5505 87.4412 68.8594 85.4089L3.9416 49.1146C0.239076 47.0667 -1.08236 42.376 0.958521 38.7093C7.3826 27.0417 14.2513 15.568 20.5973 3.87103C21.9826 1.40755 24.5667 -0.0145811 27.3446 0.000112754V0.000112754ZM24.7168 6.81861L5.36213 41.1242C4.63109 42.5473 5.25587 44.0264 6.39208 44.782C28.1087 56.7403 49.5962 69.1235 71.3453 81.0053C72.6317 81.7046 74.2896 81.2935 75.0387 80.011C81.4949 68.5147 88.0057 57.013 94.4998 45.5278L54.2636 56.7499C46.4005 58.9777 38.1819 54.348 35.9389 46.5931L24.7168 6.81861V6.81861Z" fill="#00ADEF"/>
</svg>
