<svg width="466" height="358" viewBox="0 0 466 358" fill="none" xmlns="http://www.w3.org/2000/svg">
<path d="M232.849 357.525C332.585 357.525 413.437 352.804 413.437 346.982C413.437 341.159 332.585 336.438 232.849 336.438C133.113 336.438 52.2607 341.159 52.2607 346.982C52.2607 352.804 133.113 357.525 232.849 357.525Z" fill="#F5F5F5"/>
<path d="M222.044 263.398H42.2011C40.7913 263.396 39.4401 262.835 38.4432 261.838C37.4464 260.841 36.8853 259.49 36.8828 258.08V5.27169C36.8975 3.87005 37.464 2.53067 38.4595 1.54387C39.455 0.557075 40.7994 0.00237346 42.2011 0H222.044C223.453 0.00246739 224.803 0.563873 225.799 1.56097C226.794 2.55807 227.353 3.90938 227.353 5.31826V5.31826V258.08C227.353 259.489 226.794 260.84 225.799 261.837C224.803 262.834 223.453 263.396 222.044 263.398V263.398ZM42.2011 0.18628C40.8531 0.188742 39.561 0.725314 38.6079 1.67848C37.6547 2.63165 37.1181 3.92371 37.1157 5.27169V258.08C37.1181 259.428 37.6547 260.72 38.6079 261.673C39.561 262.626 40.8531 263.163 42.2011 263.165H222.044C223.391 263.163 224.682 262.626 225.634 261.673C226.586 260.719 227.12 259.427 227.12 258.08V5.27169C227.12 3.92457 226.586 2.63248 225.634 1.67905C224.682 0.72562 223.391 0.188747 222.044 0.18628H42.2011Z" fill="#E6E6E6"/>
<path d="M423.505 263.398H243.653C242.244 263.396 240.893 262.834 239.898 261.837C238.903 260.84 238.344 259.489 238.344 258.08V5.27169C238.356 3.8709 238.92 2.53151 239.915 1.54446C240.909 0.557404 242.252 0.00239963 243.653 0H423.505C424.906 0.00239963 426.249 0.557404 427.243 1.54446C428.237 2.53151 428.802 3.8709 428.814 5.27169V258.08C428.814 259.489 428.255 260.84 427.259 261.837C426.264 262.834 424.914 263.396 423.505 263.398V263.398ZM243.653 0.18628C242.306 0.188747 241.014 0.72562 240.063 1.67905C239.111 2.63248 238.577 3.92457 238.577 5.27169V258.08C238.577 259.427 239.111 260.719 240.063 261.673C241.014 262.626 242.306 263.163 243.653 263.165H423.505C424.854 263.163 426.147 262.627 427.101 261.674C428.056 260.721 428.595 259.429 428.6 258.08V5.27169C428.595 3.92286 428.056 2.63081 427.101 1.67791C426.147 0.725006 424.854 0.188732 423.505 0.18628H243.653Z" fill="#E6E6E6"/>
<path d="M80.0439 310.601H41.6611V310.834H80.0439V310.601Z" fill="#E0E0E0"/>
<path d="M158.281 308.739H119.786V308.971H158.281V308.739Z" fill="#E0E0E0"/>
<path d="M208.372 308.739H199.058V308.971H208.372V308.739Z" fill="#E0E0E0"/>
<path d="M115.279 316.693H72.2021V316.925H115.279V316.693Z" fill="#E0E0E0"/>
<path d="M264.273 310.48H244.155V310.713H264.273V310.48Z" fill="#E0E0E0"/>
<path d="M298.577 310.48H272.563V310.713H298.577V310.48Z" fill="#E0E0E0"/>
<path d="M424.036 314.42H365.88V314.653H424.036V314.42Z" fill="#E0E0E0"/>
<path d="M465.697 301.464H0V301.697H465.697V301.464Z" fill="#EBEBEB"/>
<path opacity="0.8" d="M311.859 19.3264L309.54 51.2546C309.461 52.3366 309.002 53.3559 308.245 54.1326C307.814 54.5929 307.293 54.9607 306.715 55.2136C306.137 55.4666 305.514 55.5995 304.883 55.6042H279.279C278.719 55.6099 278.165 55.499 277.651 55.2784C277.137 55.0579 276.675 54.7326 276.293 54.3233C275.912 53.914 275.62 53.4297 275.437 52.9013C275.253 52.373 275.182 51.8121 275.227 51.2546L277.556 19.3264C277.651 18.1516 278.181 17.0546 279.042 16.2501C279.903 15.4456 281.034 14.9915 282.213 14.9768H307.817C308.376 14.9681 308.932 15.0771 309.447 15.2967C309.962 15.5164 310.425 15.8418 310.806 16.2519C311.187 16.662 311.478 17.1476 311.659 17.6773C311.84 18.2069 311.908 18.7688 311.859 19.3264V19.3264Z" fill="#E0E0E0"/>
<path d="M300.571 35.2041C301.543 30.562 299.281 26.1607 295.52 25.3736C291.759 24.5865 287.923 27.7116 286.951 32.3538C285.98 36.9959 288.241 41.3972 292.002 42.1843C295.763 42.9714 299.6 39.8463 300.571 35.2041Z" fill="white"/>
<path d="M303.988 53.4062H280.554C279.064 53.4062 278.04 52.689 278.002 51.6924C277.946 50.2395 285.547 43.9525 292.756 44.5021H292.923C297.352 44.6589 301.6 46.299 304.985 49.159C308.468 51.8973 305.18 53.4062 303.988 53.4062Z" fill="white"/>
<path d="M179.759 54.44C177.31 54.4304 174.952 53.5109 173.143 51.8603C171.334 50.2097 170.204 47.9457 169.97 45.5079C169.862 44.3502 169.995 43.1825 170.362 42.0792C170.729 40.9759 171.322 39.9609 172.102 39.099C172.883 38.237 173.834 37.5469 174.896 37.0724C175.957 36.598 177.106 36.3496 178.269 36.343C180.718 36.3527 183.076 37.2721 184.885 38.9227C186.694 40.5733 187.825 42.8374 188.058 45.2751C188.166 46.4328 188.033 47.6005 187.666 48.7038C187.299 49.8072 186.706 50.8221 185.926 51.684C185.145 52.546 184.194 53.2361 183.132 53.7106C182.071 54.1851 180.922 54.4335 179.759 54.44V54.44ZM178.669 41.149C178.123 41.149 177.584 41.2633 177.085 41.4844C176.585 41.7056 176.138 42.0288 175.771 42.4332C175.405 42.8377 175.127 43.3143 174.955 43.8327C174.784 44.351 174.723 44.8994 174.776 45.4427C174.891 46.5843 175.423 47.6433 176.27 48.4168C177.118 49.1903 178.221 49.6237 179.368 49.634C179.913 49.6327 180.452 49.5175 180.95 49.2958C181.448 49.074 181.894 48.7506 182.26 48.3464C182.625 47.9421 182.903 47.4658 183.073 46.9482C183.244 46.4305 183.305 45.8828 183.252 45.3403C183.138 44.2035 182.61 43.1483 181.768 42.3755C180.927 41.6026 179.83 41.1662 178.688 41.149H178.669Z" fill="#E0E0E0"/>
<path d="M180.225 40.4504L176.797 40.497L174.972 18.4043L178.409 18.3671L180.225 40.4504Z" fill="#E0E0E0"/>
<path d="M181.659 19.3543L175.214 19.4381L174.935 16.0013L181.38 15.9175L181.659 19.3543Z" fill="#E0E0E0"/>
<path d="M182.031 23.7691L175.968 23.8436L175.688 20.4068L181.743 20.3323L182.031 23.7691Z" fill="#E0E0E0"/>
<path d="M182.554 29.9909L177.263 30.0561L176.975 26.6286L182.265 26.5634L182.554 29.9909Z" fill="#E0E0E0"/>
<path d="M73.8691 242.2C73.8889 242.478 73.9231 242.754 73.9715 243.029C74.2925 244.815 75.1848 246.45 76.5142 247.686C78.0244 249.119 80.0208 249.927 82.1026 249.949H160.796C162.661 249.979 164.462 249.272 165.809 247.981C167.155 246.691 167.938 244.921 167.986 243.057C168.007 241.952 167.81 240.854 167.405 239.826C167 238.798 166.396 237.86 165.627 237.066C164.859 236.272 163.941 235.638 162.926 235.201C161.912 234.763 160.82 234.53 159.716 234.516H81.0315C80.0425 234.503 79.0618 234.698 78.1524 235.086C77.2429 235.475 76.4247 236.05 75.7504 236.773C75.076 237.497 74.5602 238.353 74.2363 239.288C73.9123 240.222 73.7872 241.214 73.8691 242.2V242.2Z" fill="#F0F0F0"/>
<path d="M168.014 243.029C168.008 243.279 167.983 243.528 167.94 243.774C167.713 241.741 166.75 239.862 165.234 238.489C163.717 237.117 161.751 236.346 159.706 236.323L76.0205 236.453C77.3725 235.157 79.1776 234.442 81.05 234.46H159.744C160.855 234.451 161.957 234.669 162.982 235.098C164.007 235.528 164.934 236.161 165.707 236.96C166.48 237.758 167.084 238.705 167.48 239.744C167.877 240.782 168.058 241.89 168.014 243.001V243.029Z" fill="#E0E0E0"/>
<path d="M154.547 238.204L154.807 241.93L158.337 240.616L159.138 242.479L155.543 243.709L158.058 246.866L156.475 248.058L154.025 244.78L152.069 248.058L150.327 246.866L152.367 243.709L148.642 242.526L149.173 240.663L152.898 241.93L152.637 238.204H154.547Z" fill="white"/>
<path d="M133.022 238.204L133.292 241.93L136.813 240.616L137.614 242.479L134.009 243.662L136.533 246.819L134.903 248.012L132.454 244.733L130.498 248.012L128.756 246.819L130.796 243.662L127.07 242.479L127.611 240.616L131.336 241.883L131.075 238.157L133.022 238.204Z" fill="white"/>
<path d="M111.507 238.204L111.768 241.93L115.298 240.616L116.099 242.479L112.494 243.662L115.009 246.819L113.379 248.012L110.929 244.733L108.973 248.012L107.232 246.819L109.271 243.662L105.546 242.479L106.086 240.616L109.812 241.883L109.551 238.157L111.507 238.204Z" fill="white"/>
<path d="M89.982 238.204L90.2427 241.93L93.7727 240.616L94.5737 242.479L90.9692 243.662L93.484 246.819L91.8634 248.012L89.4138 244.78L87.4486 248.058L85.6882 246.866L87.7373 243.709L84.0117 242.526L84.5519 240.663L88.2775 241.93L88.0167 238.204H89.982Z" fill="white"/>
<path d="M142.261 231.768H138.592L138.601 230.837H142.271L142.261 231.768Z" fill="#E0E0E0"/>
<path d="M158.03 231.768H146.062L146.08 230.837H158.049L158.03 231.768Z" fill="#E0E0E0"/>
<g opacity="0.8">
<path opacity="0.8" d="M250.899 227.074L265.746 249.921L314.7 200.967C314.748 200.925 314.787 200.873 314.814 200.816C314.842 200.759 314.859 200.697 314.863 200.633C314.867 200.57 314.858 200.506 314.837 200.446C314.816 200.386 314.784 200.33 314.742 200.282C314.7 200.235 314.648 200.196 314.591 200.168C314.534 200.14 314.472 200.123 314.408 200.12C314.345 200.116 314.281 200.124 314.221 200.145C314.16 200.166 314.105 200.198 314.057 200.24L267.404 236.826L258.593 222.622L250.899 227.074Z" fill="#E0E0E0"/>
</g>
<path opacity="0.1" d="M242.032 64.4711L206.881 195.947H218.7L253.46 64.4711H242.032Z" fill="white"/>
<path opacity="0.1" d="M260.278 64.4711L225.127 195.947H248.579L283.339 64.4711H260.278Z" fill="white"/>
<path d="M386.817 183.093L394.268 77.5665C394.337 76.7557 394.235 75.9394 393.969 75.1704C393.703 74.4014 393.278 73.6969 392.722 73.1025C392.166 72.5081 391.492 72.0371 390.743 71.7198C389.993 71.4026 389.186 71.2463 388.372 71.261L204.198 71.4193C202.485 71.4429 200.842 72.1021 199.587 73.269C198.332 74.4358 197.556 76.0271 197.408 77.7341L190.004 183.27C189.936 184.082 190.039 184.898 190.306 185.667C190.574 186.436 190.999 187.14 191.556 187.735C192.112 188.329 192.787 188.8 193.537 189.117C194.287 189.434 195.095 189.59 195.909 189.576L380.008 189.418C381.727 189.4 383.377 188.743 384.636 187.573C385.895 186.403 386.673 184.806 386.817 183.093V183.093Z" fill="#263238"/>
<path d="M384.451 180.793L391.902 75.2659C391.973 74.4548 391.872 73.6379 391.607 72.8682C391.341 72.0986 390.916 71.3935 390.36 70.7988C389.804 70.2041 389.129 69.733 388.379 69.4163C387.629 69.0996 386.821 68.9442 386.007 68.9604L201.833 69.1187C200.12 69.1405 198.477 69.7993 197.223 70.9667C195.97 72.1342 195.196 73.7266 195.052 75.4336L187.601 180.97C187.532 181.781 187.634 182.597 187.9 183.366C188.166 184.135 188.591 184.839 189.147 185.434C189.702 186.028 190.377 186.499 191.126 186.816C191.876 187.134 192.683 187.29 193.497 187.275L377.661 187.117C379.377 187.095 381.022 186.435 382.278 185.266C383.533 184.097 384.308 182.502 384.451 180.793V180.793Z" fill="#2E3192"/>
<path opacity="0.6" d="M379.571 182.358C379.192 182.705 378.697 182.898 378.183 182.898L194.009 183.056C193.713 183.053 193.422 182.99 193.151 182.87C192.881 182.751 192.637 182.579 192.435 182.363C192.233 182.147 192.077 181.892 191.976 181.615C191.875 181.337 191.832 181.041 191.848 180.746L199.299 75.2193C199.328 74.7069 199.555 74.2259 199.933 73.8781C200.309 73.5263 200.806 73.3329 201.32 73.3379L385.494 73.1796C385.79 73.1829 386.082 73.246 386.352 73.3652C386.623 73.4844 386.866 73.6571 387.068 73.8729C387.27 74.0888 387.426 74.3433 387.527 74.6211C387.628 74.8989 387.671 75.1943 387.655 75.4894L380.204 181.016C380.17 181.528 379.944 182.007 379.571 182.358V182.358Z" fill="white"/>
<path d="M318.313 124.341H253.665C253.095 124.351 252.548 124.566 252.125 124.948C251.702 125.33 251.432 125.852 251.365 126.418L250.368 135.872C250.336 136.134 250.361 136.401 250.44 136.653C250.519 136.906 250.652 137.139 250.828 137.336C251.004 137.533 251.22 137.691 251.462 137.798C251.704 137.906 251.966 137.96 252.231 137.958H316.879C317.45 137.947 317.999 137.729 318.423 137.346C318.847 136.963 319.119 136.439 319.189 135.872L320.176 126.418C320.206 126.156 320.181 125.891 320.101 125.639C320.021 125.388 319.888 125.156 319.712 124.96C319.536 124.764 319.32 124.607 319.079 124.5C318.838 124.394 318.577 124.339 318.313 124.341Z" fill="white"/>
<path d="M261.358 162.947H251.271C250.7 162.959 250.151 163.176 249.727 163.559C249.303 163.943 249.031 164.466 248.962 165.034L247.974 174.487C247.944 174.749 247.97 175.015 248.05 175.266C248.129 175.517 248.262 175.749 248.438 175.945C248.614 176.142 248.83 176.298 249.071 176.405C249.312 176.512 249.573 176.566 249.837 176.564H259.924C260.494 176.553 261.042 176.337 261.466 175.956C261.89 175.574 262.162 175.053 262.234 174.487L263.221 165.034C263.253 164.771 263.228 164.504 263.149 164.252C263.07 163.999 262.938 163.767 262.761 163.569C262.585 163.372 262.369 163.214 262.127 163.107C261.885 163 261.623 162.945 261.358 162.947Z" fill="white"/>
<path d="M278.775 162.947H268.688C268.117 162.959 267.568 163.176 267.144 163.559C266.72 163.943 266.448 164.466 266.379 165.034L265.391 174.487C265.361 174.749 265.387 175.015 265.467 175.266C265.546 175.517 265.679 175.749 265.855 175.945C266.031 176.142 266.247 176.298 266.488 176.405C266.729 176.512 266.99 176.566 267.254 176.564H277.341C277.911 176.553 278.458 176.337 278.883 175.956C279.307 175.574 279.579 175.053 279.651 174.487L280.638 165.034C280.67 164.771 280.645 164.504 280.566 164.252C280.487 163.999 280.355 163.767 280.178 163.569C280.002 163.372 279.786 163.214 279.544 163.107C279.302 163 279.04 162.945 278.775 162.947Z" fill="white"/>
<path d="M296.183 162.947H286.105C285.534 162.959 284.985 163.176 284.561 163.559C284.137 163.943 283.865 164.466 283.796 165.034L282.808 174.487C282.778 174.749 282.804 175.015 282.884 175.266C282.963 175.517 283.096 175.749 283.272 175.945C283.448 176.142 283.664 176.298 283.905 176.405C284.146 176.512 284.407 176.566 284.671 176.564H294.758C295.328 176.553 295.875 176.337 296.3 175.956C296.724 175.574 296.996 175.053 297.068 174.487L298.046 165.034C298.078 164.771 298.053 164.504 297.974 164.252C297.894 163.999 297.762 163.767 297.586 163.569C297.41 163.372 297.194 163.214 296.952 163.107C296.71 163 296.448 162.945 296.183 162.947Z" fill="white"/>
<path d="M313.609 162.947H303.522C302.951 162.959 302.402 163.176 301.978 163.559C301.554 163.943 301.282 164.466 301.213 165.034L300.225 174.487C300.195 174.749 300.221 175.015 300.3 175.266C300.38 175.517 300.513 175.749 300.689 175.945C300.865 176.142 301.081 176.298 301.322 176.405C301.563 176.512 301.824 176.566 302.088 176.564H312.175C312.745 176.553 313.292 176.337 313.717 175.956C314.141 175.574 314.413 175.053 314.485 174.487L315.472 165.034C315.504 164.771 315.479 164.504 315.4 164.252C315.321 163.999 315.189 163.767 315.012 163.569C314.836 163.372 314.62 163.214 314.378 163.107C314.136 163 313.874 162.945 313.609 162.947Z" fill="white"/>
<path d="M302.209 156.977H261.777C261.259 156.989 260.745 156.89 260.269 156.685C259.794 156.48 259.368 156.174 259.021 155.79C258.674 155.405 258.415 154.95 258.26 154.455C258.106 153.961 258.06 153.439 258.126 152.926L258.61 148.269C258.744 147.19 259.263 146.197 260.07 145.47C260.878 144.743 261.92 144.331 263.006 144.31H303.438C303.956 144.299 304.471 144.4 304.947 144.606C305.422 144.812 305.848 145.118 306.194 145.504C306.541 145.889 306.8 146.345 306.955 146.84C307.109 147.335 307.155 147.857 307.089 148.371L306.605 153.028C306.469 154.104 305.949 155.096 305.142 155.821C304.335 156.546 303.294 156.957 302.209 156.977V156.977ZM263.006 145.251C262.149 145.271 261.327 145.597 260.689 146.171C260.052 146.746 259.641 147.529 259.532 148.38L259.048 153.037C258.996 153.422 259.029 153.812 259.144 154.183C259.259 154.553 259.452 154.894 259.712 155.182C259.972 155.47 260.291 155.698 260.647 155.851C261.004 156.003 261.389 156.076 261.777 156.064H302.209C303.066 156.047 303.888 155.722 304.525 155.149C305.163 154.577 305.574 153.794 305.683 152.944L306.167 148.287C306.219 147.903 306.186 147.512 306.071 147.142C305.957 146.771 305.763 146.43 305.503 146.142C305.244 145.854 304.924 145.626 304.568 145.474C304.211 145.322 303.826 145.249 303.438 145.26L263.006 145.251Z" fill="#2E3192"/>
<path d="M320.641 104.651H255.993C255.423 104.665 254.877 104.883 254.455 105.266C254.032 105.649 253.762 106.172 253.693 106.738L252.696 116.191C252.666 116.453 252.691 116.719 252.771 116.97C252.851 117.221 252.984 117.453 253.16 117.649C253.336 117.846 253.551 118.002 253.793 118.109C254.034 118.216 254.295 118.27 254.559 118.268H319.197C319.768 118.257 320.315 118.041 320.739 117.66C321.163 117.278 321.436 116.757 321.507 116.191L322.495 106.738C322.526 106.476 322.502 106.21 322.423 105.958C322.344 105.706 322.213 105.474 322.038 105.277C321.863 105.08 321.648 104.922 321.407 104.814C321.166 104.706 320.905 104.651 320.641 104.651Z" fill="white"/>
<path d="M261.525 131.15C261.565 130.858 261.54 130.561 261.453 130.279C261.367 129.997 261.22 129.738 261.023 129.519C260.827 129.299 260.585 129.125 260.315 129.008C260.045 128.89 259.752 128.833 259.458 128.84C258.825 128.855 258.219 129.096 257.749 129.52C257.279 129.944 256.976 130.522 256.896 131.15C256.86 131.441 256.887 131.738 256.976 132.018C257.064 132.298 257.212 132.556 257.409 132.775C257.606 132.993 257.848 133.166 258.118 133.283C258.388 133.399 258.679 133.456 258.973 133.45C259.604 133.437 260.209 133.197 260.678 132.775C261.146 132.353 261.447 131.776 261.525 131.15V131.15Z" fill="#263238"/>
<path d="M268.642 131.15C268.68 130.857 268.654 130.56 268.566 130.278C268.478 129.997 268.33 129.738 268.133 129.518C267.936 129.299 267.694 129.125 267.423 129.008C267.153 128.891 266.86 128.833 266.565 128.84C265.933 128.853 265.327 129.094 264.858 129.518C264.389 129.943 264.089 130.522 264.013 131.15C263.975 131.441 264.001 131.737 264.088 132.017C264.176 132.298 264.322 132.556 264.519 132.774C264.715 132.993 264.956 133.166 265.226 133.283C265.495 133.4 265.787 133.457 266.081 133.45C266.712 133.437 267.319 133.198 267.789 132.776C268.259 132.354 268.562 131.776 268.642 131.15V131.15Z" fill="#263238"/>
<path d="M275.748 131.15C275.786 130.857 275.76 130.56 275.672 130.278C275.584 129.997 275.437 129.738 275.239 129.518C275.042 129.299 274.8 129.125 274.529 129.008C274.259 128.891 273.966 128.833 273.671 128.84C273.039 128.853 272.433 129.094 271.964 129.518C271.495 129.943 271.195 130.522 271.119 131.15C271.083 131.441 271.11 131.738 271.198 132.018C271.287 132.298 271.435 132.556 271.632 132.775C271.829 132.993 272.07 133.166 272.34 133.283C272.61 133.399 272.902 133.456 273.196 133.45C273.827 133.437 274.432 133.197 274.9 132.775C275.369 132.353 275.67 131.776 275.748 131.15V131.15Z" fill="#263238"/>
<path d="M282.855 131.15C282.894 130.858 282.869 130.561 282.782 130.279C282.696 129.997 282.549 129.738 282.353 129.519C282.156 129.299 281.914 129.125 281.644 129.008C281.374 128.89 281.081 128.833 280.787 128.84C280.155 128.853 279.549 129.094 279.08 129.518C278.611 129.943 278.311 130.522 278.235 131.15C278.196 131.444 278.223 131.744 278.313 132.028C278.403 132.311 278.554 132.571 278.756 132.79C278.958 133.008 279.205 133.18 279.48 133.292C279.756 133.405 280.052 133.456 280.349 133.441C280.97 133.417 281.563 133.174 282.022 132.754C282.481 132.335 282.776 131.766 282.855 131.15V131.15Z" fill="#263238"/>
<path d="M290.111 131.15C290.148 130.857 290.122 130.56 290.035 130.278C289.947 129.997 289.799 129.738 289.602 129.518C289.405 129.299 289.163 129.125 288.892 129.008C288.621 128.891 288.329 128.833 288.034 128.84C287.401 128.853 286.795 129.094 286.327 129.518C285.858 129.943 285.558 130.522 285.482 131.15C285.444 131.441 285.47 131.737 285.557 132.017C285.644 132.298 285.791 132.556 285.988 132.774C286.184 132.993 286.425 133.166 286.695 133.283C286.964 133.4 287.256 133.457 287.549 133.45C288.181 133.437 288.787 133.198 289.257 132.776C289.728 132.354 290.03 131.776 290.111 131.15V131.15Z" fill="#263238"/>
<path d="M263.855 111.46C263.894 111.168 263.869 110.872 263.783 110.591C263.696 110.309 263.549 110.051 263.353 109.832C263.156 109.613 262.914 109.439 262.644 109.323C262.373 109.207 262.081 109.151 261.787 109.159C261.156 109.172 260.551 109.412 260.083 109.834C259.614 110.257 259.313 110.834 259.235 111.46C259.196 111.751 259.22 112.048 259.307 112.329C259.394 112.61 259.54 112.869 259.737 113.088C259.934 113.307 260.176 113.48 260.446 113.596C260.716 113.712 261.009 113.768 261.303 113.76C261.934 113.749 262.54 113.51 263.009 113.088C263.478 112.665 263.778 112.087 263.855 111.46V111.46Z" fill="#263238"/>
<path d="M270.97 111.46C271.006 111.168 270.979 110.872 270.891 110.592C270.802 110.311 270.654 110.053 270.457 109.835C270.26 109.617 270.019 109.443 269.749 109.327C269.479 109.21 269.187 109.153 268.893 109.159C268.269 109.181 267.673 109.425 267.212 109.846C266.751 110.268 266.455 110.84 266.378 111.46C266.341 111.751 266.366 112.047 266.454 112.328C266.541 112.608 266.688 112.866 266.884 113.085C267.08 113.303 267.322 113.477 267.591 113.593C267.861 113.71 268.152 113.767 268.446 113.76C269.072 113.741 269.67 113.498 270.133 113.076C270.596 112.655 270.892 112.081 270.97 111.46V111.46Z" fill="#263238"/>
<path d="M278.077 111.46C278.114 111.169 278.088 110.873 278.001 110.592C277.914 110.312 277.767 110.054 277.571 109.835C277.374 109.617 277.133 109.443 276.864 109.327C276.594 109.21 276.302 109.153 276.009 109.159C275.377 109.172 274.771 109.411 274.301 109.834C273.831 110.256 273.528 110.833 273.447 111.46C273.41 111.752 273.436 112.049 273.524 112.33C273.611 112.611 273.759 112.87 273.956 113.088C274.154 113.307 274.396 113.48 274.667 113.596C274.938 113.712 275.23 113.768 275.525 113.76C276.156 113.749 276.762 113.51 277.231 113.088C277.7 112.665 278 112.087 278.077 111.46V111.46Z" fill="#263238"/>
<path d="M285.184 111.46C285.223 111.168 285.198 110.872 285.112 110.591C285.025 110.309 284.878 110.051 284.682 109.832C284.485 109.613 284.243 109.439 283.973 109.323C283.702 109.207 283.41 109.151 283.116 109.159C282.485 109.172 281.88 109.412 281.412 109.834C280.943 110.257 280.642 110.834 280.564 111.46C280.525 111.751 280.549 112.048 280.636 112.329C280.723 112.61 280.87 112.869 281.066 113.088C281.263 113.307 281.505 113.48 281.775 113.596C282.045 113.712 282.338 113.768 282.632 113.76C283.263 113.749 283.869 113.51 284.338 113.088C284.807 112.665 285.107 112.087 285.184 111.46Z" fill="#263238"/>
<path d="M292.299 111.46C292.335 111.168 292.308 110.872 292.22 110.592C292.131 110.311 291.984 110.053 291.787 109.835C291.59 109.617 291.348 109.443 291.078 109.327C290.808 109.21 290.516 109.153 290.222 109.159C289.591 109.172 288.986 109.412 288.518 109.835C288.049 110.257 287.748 110.834 287.67 111.46C287.632 111.752 287.658 112.049 287.746 112.33C287.834 112.611 287.982 112.87 288.179 113.088C288.376 113.307 288.619 113.48 288.889 113.596C289.16 113.712 289.453 113.768 289.747 113.76C290.379 113.749 290.985 113.51 291.454 113.088C291.923 112.665 292.223 112.087 292.299 111.46V111.46Z" fill="#263238"/>
<path d="M299.406 111.46C299.443 111.169 299.418 110.873 299.33 110.592C299.243 110.312 299.096 110.054 298.9 109.835C298.703 109.617 298.462 109.443 298.193 109.327C297.923 109.21 297.632 109.153 297.338 109.159C296.706 109.172 296.1 109.411 295.63 109.834C295.16 110.256 294.857 110.833 294.777 111.46C294.739 111.752 294.765 112.049 294.853 112.33C294.94 112.611 295.088 112.87 295.286 113.088C295.483 113.307 295.725 113.48 295.996 113.596C296.267 113.712 296.559 113.768 296.854 113.76C297.485 113.749 298.091 113.51 298.56 113.088C299.029 112.665 299.329 112.087 299.406 111.46V111.46Z" fill="#263238"/>
<path d="M293.389 83.8068L292.886 88.5848C292.851 88.7927 292.746 88.9824 292.588 89.1228C292.431 89.2633 292.23 89.3461 292.02 89.3579C291.921 89.3615 291.822 89.3434 291.73 89.3048C291.639 89.2662 291.557 89.208 291.49 89.1343C291.424 89.0606 291.374 88.9732 291.345 88.8783C291.316 88.7834 291.308 88.6832 291.321 88.5848L291.824 83.8068C291.868 83.453 291.836 83.0938 291.729 82.7537C291.622 82.4136 291.444 82.1004 291.205 81.8354C290.967 81.5704 290.674 81.3597 290.347 81.2178C290.02 81.0758 289.666 81.0058 289.31 81.0126H287.586C286.821 81.0308 286.087 81.3227 285.518 81.8352C284.949 82.3478 284.583 83.0472 284.485 83.8068L284.047 88.2402H282.482L282.92 83.8068C283.068 82.6215 283.638 81.5292 284.526 80.7303C285.414 79.9314 286.56 79.4794 287.754 79.4572H289.468C290.024 79.4431 290.577 79.5497 291.088 79.7694C291.599 79.9891 292.056 80.3168 292.429 80.73C292.801 81.1433 293.08 81.6322 293.246 82.1633C293.412 82.6944 293.46 83.255 293.389 83.8068Z" fill="#2E3192"/>
<path d="M293.389 88.4079L292.411 97.7218C292.373 98.011 292.233 98.277 292.016 98.4718C291.799 98.6666 291.52 98.7772 291.228 98.7836H281.914C281.78 98.7849 281.647 98.7573 281.525 98.7026C281.402 98.6478 281.293 98.5673 281.205 98.4665C281.116 98.3657 281.051 98.2469 281.012 98.1184C280.974 97.9899 280.964 97.8546 280.983 97.7218L281.961 88.4079C281.979 88.2165 282.043 88.0322 282.146 87.8702C282.25 87.7082 282.391 87.5733 282.557 87.4765C282.735 87.3723 282.937 87.3176 283.144 87.3182H292.458C292.648 87.3162 292.835 87.3678 292.998 87.4672C293.147 87.5691 293.264 87.7123 293.333 87.8793C293.403 88.0464 293.422 88.23 293.389 88.4079V88.4079Z" fill="#2E3192"/>
<path d="M343.563 68.9418C343.44 68.9418 343.321 68.8927 343.234 68.8054C343.147 68.7181 343.098 68.5996 343.098 68.4761C343.098 68.3526 343.147 68.2341 343.234 68.1468C343.321 68.0595 343.44 68.0104 343.563 68.0104L366.327 67.88C366.45 67.88 366.569 67.9291 366.656 68.0164C366.743 68.1037 366.792 68.2222 366.792 68.3457C366.792 68.4692 366.743 68.5877 366.656 68.675C366.569 68.7623 366.45 68.8114 366.327 68.8114L343.573 68.9418H343.563Z" fill="#263238"/>
<path d="M370.694 68.7834C370.571 68.7834 370.452 68.7344 370.365 68.647C370.278 68.5597 370.229 68.4413 370.229 68.3177C370.229 68.1942 370.278 68.0758 370.365 67.9884C370.452 67.9011 370.571 67.8521 370.694 67.8521H378.741C378.865 67.8521 378.983 67.9011 379.071 67.9884C379.158 68.0758 379.207 68.1942 379.207 68.3177C379.207 68.4413 379.158 68.5597 379.071 68.647C378.983 68.7344 378.865 68.7834 378.741 68.7834H370.694Z" fill="#263238"/>
<g opacity="0.3">
<path opacity="0.3" d="M218.97 73.3099H245.049L218.532 183.056H197.511C196.904 183.044 196.308 182.895 195.767 182.62C195.227 182.346 194.755 181.952 194.388 181.469C194.02 180.986 193.767 180.427 193.647 179.832C193.526 179.238 193.542 178.624 193.692 178.036L218.97 73.3099Z" fill="white"/>
<path opacity="0.3" d="M256.598 73.3099H267.654L241.165 183.056H230.109L256.598 73.3099Z" fill="white"/>
</g>
<path d="M80.7056 39.0533H85.9959C84.7565 39.0357 83.5272 39.2781 82.3873 39.7649C81.2474 40.2517 80.2223 40.9721 79.378 41.8796C78.5337 42.7871 77.889 43.8615 77.4856 45.0335C77.0822 46.2055 76.929 47.4491 77.0359 48.684L88.2592 209.163C88.472 211.762 89.645 214.188 91.5495 215.968C93.454 217.749 95.9535 218.756 98.5604 218.794H93.2794C90.6715 218.756 88.1709 217.749 86.2649 215.969C84.3588 214.189 83.1838 211.762 82.9689 209.163L71.7176 48.684C71.6105 47.4467 71.7644 46.2007 72.1695 45.0268C72.5746 43.8528 73.2217 42.777 74.0691 41.8691C74.9164 40.9611 75.945 40.2413 77.0882 39.7563C78.2315 39.2712 79.4639 39.0318 80.7056 39.0533Z" fill="#2E3192"/>
<path d="M80.7051 39.0534H85.9954C84.7561 39.0358 83.5268 39.2782 82.3869 39.765C81.247 40.2518 80.2218 40.9721 79.3775 41.8796C78.5332 42.7871 77.8886 43.8615 77.4852 45.0335C77.0817 46.2055 76.9285 47.4491 77.0354 48.684L88.2587 209.163C88.4715 211.762 89.6445 214.188 91.549 215.968C93.4535 217.749 95.953 218.756 98.5599 218.794H93.2789C87.9607 218.794 82.5959 214.481 82.2233 209.163L71 48.684C70.6274 43.3657 75.3869 39.0534 80.7051 39.0534Z" fill="#263238"/>
<path d="M94.8533 218.803H159.585C160.828 218.826 162.061 218.587 163.205 218.103C164.35 217.619 165.38 216.899 166.228 215.991C167.076 215.083 167.724 214.007 168.13 212.832C168.535 211.657 168.69 210.41 168.582 209.172L157.322 48.6839C157.111 46.0822 155.938 43.6525 154.031 41.8698C152.124 40.0871 149.621 39.0795 147.011 39.044H82.2888C81.0485 39.0262 79.8184 39.2689 78.6778 39.7562C77.5372 40.2436 76.5116 40.9648 75.6671 41.8734C74.8227 42.7819 74.1782 43.8575 73.7755 45.0306C73.3727 46.2037 73.2205 47.4483 73.3288 48.6839L84.5055 209.163C84.7189 211.77 85.8982 214.204 87.8123 215.987C89.7264 217.77 92.2374 218.775 94.8533 218.803Z" fill="#2E3192"/>
<g opacity="0.6">
<path opacity="0.6" d="M146.844 42.1643C148.657 42.1929 150.395 42.8954 151.719 44.1351C153.043 45.3747 153.858 47.0626 154.006 48.8703L165.229 209.349C165.306 210.168 165.208 210.994 164.943 211.773C164.678 212.552 164.251 213.265 163.691 213.868C163.131 214.47 162.45 214.947 161.693 215.268C160.935 215.589 160.119 215.746 159.296 215.73H94.5737C92.7593 215.701 91.0202 214.999 89.6947 213.759C88.3693 212.52 87.552 210.832 87.402 209.023L76.2253 48.5443C76.1495 47.7293 76.2459 46.9075 76.5082 46.1321C76.7705 45.3568 77.1929 44.6452 77.7479 44.0437C78.303 43.4421 78.9783 42.9639 79.73 42.6401C80.4818 42.3163 81.2932 42.1542 82.1117 42.1643H146.844Z" fill="white"/>
</g>
<g opacity="0.3">
<path opacity="0.3" d="M128.532 215.711H102.742L124.034 42.1642H144.813C145.711 42.1609 146.599 42.3428 147.423 42.6986C148.246 43.0544 148.988 43.5764 149.601 44.2319L128.532 215.711Z" fill="white"/>
<path opacity="0.3" d="M98.1127 215.711H92.3008L113.592 42.1456H119.404L98.1127 215.711Z" fill="white"/>
</g>
<path d="M142.988 118.445H96.1014C95.9779 118.445 95.8595 118.396 95.7721 118.309C95.6848 118.222 95.6357 118.103 95.6357 117.98C95.6357 117.856 95.6848 117.738 95.7721 117.65C95.8595 117.563 95.9779 117.514 96.1014 117.514H142.988C143.111 117.516 143.228 117.566 143.314 117.653C143.401 117.74 143.451 117.857 143.454 117.98C143.454 118.103 143.404 118.222 143.317 118.309C143.23 118.396 143.111 118.445 142.988 118.445Z" fill="white"/>
<path d="M138.871 125.384H102.146C102.023 125.384 101.904 125.335 101.817 125.248C101.73 125.161 101.681 125.042 101.681 124.919C101.681 124.795 101.73 124.677 101.817 124.589C101.904 124.502 102.023 124.453 102.146 124.453H138.871C138.995 124.453 139.113 124.502 139.201 124.589C139.288 124.677 139.337 124.795 139.337 124.919C139.337 125.042 139.288 125.161 139.201 125.248C139.113 125.335 138.995 125.384 138.871 125.384Z" fill="white"/>
<path d="M97.4985 86.0142L97.5637 87.877H96.3622L96.297 86.0142L94.1641 82.6705H95.4401L96.9117 84.9804L98.2156 82.6705H99.3985L97.4985 86.0142Z" fill="#2E3192"/>
<path d="M99.4448 85.2505C99.4289 84.8844 99.4913 84.5191 99.6276 84.1789C99.764 83.8388 99.9713 83.5315 100.236 83.2778C100.5 83.024 100.815 82.8294 101.161 82.7071C101.506 82.5847 101.874 82.5373 102.239 82.5681C102.608 82.5493 102.978 82.604 103.326 82.7291C103.674 82.8541 103.993 83.047 104.266 83.2965C104.539 83.546 104.76 83.8472 104.915 84.1826C105.071 84.518 105.159 84.881 105.173 85.2505C105.19 85.6174 105.129 85.9837 104.993 86.325C104.857 86.6663 104.65 86.9746 104.386 87.2294C104.121 87.4843 103.805 87.6797 103.459 87.8026C103.113 87.9255 102.745 87.9731 102.379 87.9422C102.009 87.961 101.639 87.9059 101.29 87.7803C100.941 87.6547 100.621 87.461 100.348 87.2105C100.075 86.9601 99.8547 86.6578 99.6996 86.3213C99.5445 85.9848 99.4579 85.6208 99.4448 85.2505V85.2505ZM103.915 85.2505C103.917 85.03 103.874 84.8116 103.789 84.608C103.705 84.4044 103.58 84.2199 103.423 84.0653C103.266 83.9108 103.079 83.7893 102.874 83.7081C102.669 83.6269 102.45 83.5876 102.23 83.5926C102.014 83.5835 101.798 83.6209 101.598 83.7024C101.398 83.7838 101.217 83.9073 101.069 84.0645C100.921 84.2217 100.808 84.4089 100.738 84.6136C100.668 84.8182 100.643 85.0354 100.665 85.2505C100.662 85.4717 100.704 85.6912 100.788 85.8958C100.872 86.1005 100.997 86.2861 101.154 86.4417C101.311 86.5973 101.498 86.7196 101.704 86.8014C101.91 86.8831 102.13 86.9227 102.351 86.9177C102.567 86.9239 102.782 86.8841 102.981 86.8011C103.181 86.7181 103.36 86.5937 103.508 86.4362C103.656 86.2786 103.769 86.0914 103.839 85.887C103.909 85.6826 103.935 85.4657 103.915 85.2505Z" fill="#2E3192"/>
<path d="M106.002 85.5672L105.909 82.652H107.111L107.204 85.5207C107.204 86.508 107.688 86.9178 108.415 86.9178C109.141 86.9178 109.551 86.508 109.523 85.5207L109.421 82.652H110.603L110.706 85.5672C110.755 85.8806 110.731 86.201 110.636 86.5037C110.542 86.8064 110.379 87.0832 110.16 87.3128C109.941 87.5424 109.672 87.7186 109.375 87.8278C109.077 87.9369 108.758 87.9761 108.443 87.9423C108.12 87.9711 107.796 87.93 107.491 87.8217C107.187 87.7135 106.909 87.5407 106.677 87.3151C106.445 87.0896 106.265 86.8166 106.149 86.5149C106.032 86.2133 105.982 85.89 106.002 85.5672V85.5672Z" fill="#2E3192"/>
<path d="M115.288 87.8585L114.235 86.4055H113.127L113.183 87.8585H111.981L111.795 82.652H114.049C115.437 82.652 116.331 83.3785 116.368 84.5148C116.398 84.8609 116.316 85.2076 116.133 85.503C115.95 85.7984 115.676 86.0268 115.353 86.154L116.582 87.8305L115.288 87.8585ZM114.012 83.6393H113.08L113.145 85.4462H114.077C114.813 85.4462 115.167 85.1109 115.148 84.5148C115.129 83.9187 114.747 83.6393 114.012 83.6393Z" fill="#2E3192"/>
<path d="M119.126 85.2505C119.106 84.89 119.164 84.5295 119.294 84.1928C119.425 83.8562 119.625 83.551 119.882 83.2974C120.139 83.0439 120.447 82.8478 120.785 82.7221C121.124 82.5964 121.485 82.5439 121.845 82.5681C122.253 82.5555 122.659 82.6324 123.034 82.7933C123.409 82.9542 123.744 83.1953 124.016 83.4995L123.27 84.2074C123.106 84.0159 122.901 83.8626 122.671 83.7581C122.441 83.6535 122.191 83.6003 121.939 83.602C121.72 83.5905 121.502 83.626 121.299 83.706C121.095 83.786 120.912 83.9088 120.76 84.0659C120.608 84.2231 120.492 84.411 120.419 84.6169C120.346 84.8229 120.318 85.0422 120.337 85.2599C120.335 85.484 120.379 85.706 120.466 85.9126C120.553 86.1192 120.68 86.3061 120.842 86.4619C121.003 86.6178 121.194 86.7393 121.403 86.8193C121.612 86.8992 121.836 86.9359 122.06 86.9271C122.307 86.9321 122.552 86.8792 122.775 86.7724C122.999 86.6657 123.194 86.5081 123.345 86.3123L124.137 87.0202C123.883 87.3295 123.561 87.5749 123.195 87.7367C122.829 87.8985 122.431 87.9721 122.032 87.9516C121.663 87.9665 121.295 87.9084 120.949 87.7805C120.603 87.6526 120.286 87.4574 120.016 87.2063C119.746 86.9552 119.528 86.6531 119.375 86.3175C119.223 85.9818 119.138 85.6192 119.126 85.2505V85.2505Z" fill="#2E3192"/>
<path d="M124.452 85.2505C124.437 84.8886 124.498 84.5276 124.632 84.1909C124.766 83.8542 124.969 83.5494 125.228 83.2964C125.487 83.0433 125.797 82.8477 126.136 82.7222C126.476 82.5968 126.839 82.5442 127.2 82.5681C127.569 82.5493 127.939 82.604 128.287 82.7291C128.635 82.8541 128.954 83.047 129.227 83.2965C129.5 83.546 129.721 83.8472 129.877 84.1826C130.032 84.518 130.12 84.881 130.134 85.2505C130.15 85.6132 130.09 85.9753 129.957 86.3131C129.824 86.6509 129.621 86.9568 129.362 87.2109C129.103 87.4649 128.793 87.6614 128.452 87.7874C128.112 87.9135 127.749 87.9662 127.386 87.9422C127.016 87.961 126.646 87.906 126.298 87.7804C125.949 87.6547 125.629 87.4611 125.356 87.2106C125.083 86.9601 124.862 86.6578 124.707 86.3213C124.552 85.9848 124.466 85.6208 124.452 85.2505V85.2505ZM128.914 85.2505C128.916 85.0305 128.875 84.8122 128.791 84.6087C128.707 84.4052 128.584 84.2206 128.427 84.0659C128.271 83.9112 128.085 83.7895 127.88 83.7082C127.676 83.6269 127.457 83.5876 127.237 83.5926C127.021 83.5835 126.806 83.621 126.606 83.7024C126.405 83.7838 126.225 83.9073 126.077 84.0645C125.928 84.2217 125.815 84.409 125.746 84.6136C125.676 84.8182 125.651 85.0354 125.673 85.2505C125.669 85.4713 125.71 85.6906 125.793 85.8952C125.876 86.0998 125.999 86.2855 126.156 86.4412C126.312 86.5969 126.499 86.7194 126.704 86.8013C126.909 86.8832 127.128 86.9228 127.349 86.9177C127.566 86.9254 127.781 86.8867 127.981 86.8042C128.182 86.7217 128.362 86.5974 128.51 86.4394C128.658 86.2815 128.771 86.0937 128.841 85.8887C128.91 85.6836 128.935 85.466 128.914 85.2505V85.2505Z" fill="#2E3192"/>
<path d="M130.954 82.6519H133.311C133.678 82.616 134.048 82.656 134.399 82.7692C134.75 82.8825 135.074 83.0666 135.351 83.3103C135.628 83.554 135.852 83.8519 136.008 84.1857C136.165 84.5194 136.252 84.8819 136.263 85.2505C136.284 85.6147 136.224 85.9789 136.088 86.3174C135.952 86.6559 135.744 86.9603 135.477 87.2092C135.21 87.458 134.892 87.6452 134.545 87.7574C134.198 87.8696 133.831 87.9041 133.469 87.8584H131.103L130.954 82.6519ZM133.404 86.8712C133.623 86.8939 133.845 86.8679 134.054 86.7949C134.262 86.7219 134.452 86.6038 134.609 86.449C134.767 86.2941 134.888 86.1064 134.965 85.8993C135.041 85.6921 135.071 85.4706 135.052 85.2505C135.052 85.0262 135.005 84.8044 134.914 84.5992C134.824 84.394 134.691 84.2098 134.526 84.0584C134.36 83.9069 134.165 83.7915 133.953 83.7193C133.74 83.6471 133.515 83.6199 133.292 83.6392H132.193L132.305 86.8712H133.404Z" fill="#2E3192"/>
<path d="M141.255 86.8712V87.8026H137.231L137.045 82.5961H140.975V83.5275H138.312V84.6544H140.724V85.5858H138.312V86.7873L141.255 86.8712Z" fill="#2E3192"/>
<path d="M106.533 107.185V109.271H96.7629V107.623L101.96 102.602C103.227 101.364 103.441 100.591 103.432 99.8082C103.432 98.5974 102.556 97.8895 100.926 97.8895C100.338 97.8598 99.7507 97.9701 99.2132 98.2114C98.6757 98.4526 98.203 98.8179 97.834 99.2773L96.083 97.9454C96.685 97.209 97.4531 96.6258 98.3241 96.2438C99.1952 95.8617 100.144 95.6915 101.094 95.7473C103.981 95.7473 105.872 97.2096 105.909 99.566C105.909 100.851 105.593 102.034 103.786 103.767L100.293 107.148L106.533 107.185Z" fill="#263238"/>
<path d="M117.356 105.285C117.356 107.52 115.735 109.457 112.168 109.457C110.371 109.489 108.611 108.951 107.139 107.921L108.173 106.002C109.295 106.868 110.676 107.331 112.094 107.315C113.854 107.315 114.888 106.533 114.888 105.303C114.888 104.074 113.956 103.319 111.963 103.319H110.752V101.634L113.63 98.0478H107.586V95.9801H116.658V97.638L113.491 101.475C116.033 101.773 117.356 103.282 117.356 105.285Z" fill="#263238"/>
<path d="M129.78 105.499C129.78 107.967 127.703 109.504 124.397 109.504C121.09 109.504 118.948 107.967 118.911 105.499C118.883 104.82 119.067 104.15 119.438 103.581C119.808 103.012 120.347 102.572 120.979 102.323C120.463 102.062 120.03 101.662 119.729 101.168C119.428 100.675 119.271 100.107 119.274 99.5288C119.274 97.2469 121.212 95.8032 124.155 95.8032C127.098 95.8032 129.156 97.2283 129.194 99.5288C129.222 100.104 129.083 100.674 128.791 101.171C128.5 101.667 128.07 102.068 127.554 102.323C128.202 102.567 128.761 103 129.158 103.567C129.555 104.134 129.772 104.807 129.78 105.499V105.499ZM127.284 105.425C127.284 104.111 126.111 103.292 124.285 103.292C122.46 103.292 121.37 104.111 121.398 105.425C121.426 106.738 122.534 107.567 124.36 107.567C126.185 107.567 127.312 106.728 127.284 105.378V105.425ZM121.696 99.6499C121.696 100.786 122.627 101.513 124.239 101.513C125.85 101.513 126.772 100.786 126.744 99.6499C126.716 98.5136 125.692 97.7871 124.164 97.7871C122.637 97.7871 121.696 98.4018 121.714 99.6033L121.696 99.6499Z" fill="#263238"/>
<path d="M142.168 105.499C142.168 107.967 140.091 109.504 136.785 109.504C133.478 109.504 131.327 107.921 131.327 105.499C131.3 104.821 131.485 104.151 131.855 103.582C132.226 103.013 132.763 102.573 133.394 102.323C132.878 102.063 132.446 101.663 132.146 101.169C131.846 100.675 131.692 100.107 131.699 99.5288C131.653 97.2469 133.627 95.8032 136.57 95.8032C139.514 95.8032 141.572 97.2283 141.609 99.5288C141.638 100.104 141.498 100.674 141.207 101.171C140.916 101.667 140.486 102.068 139.97 102.323C140.613 102.571 141.166 103.007 141.557 103.573C141.949 104.139 142.162 104.81 142.168 105.499V105.499ZM139.672 105.425C139.672 104.111 138.498 103.292 136.673 103.292C134.847 103.292 133.758 104.111 133.786 105.425C133.814 106.738 134.922 107.567 136.747 107.567C138.573 107.567 139.709 106.728 139.709 105.378L139.672 105.425ZM134.084 99.6499C134.084 100.786 135.062 101.513 136.626 101.513C138.191 101.513 139.16 100.786 139.141 99.6499C139.123 98.5136 138.079 97.7871 136.561 97.7871C135.043 97.7871 134.121 98.4018 134.121 99.6033L134.084 99.6499Z" fill="#263238"/>
<path d="M73.1054 85.297C72.9866 85.2973 72.8722 85.2521 72.7856 85.1707C72.6991 85.0893 72.6469 84.9779 72.6397 84.8593L70.9912 62.3475C70.9835 62.2254 71.0241 62.1053 71.1042 62.0129C71.1844 61.9205 71.2977 61.8634 71.4196 61.8539C71.5426 61.846 71.6639 61.8864 71.7578 61.9663C71.8516 62.0463 71.9107 62.1596 71.9226 62.2823L73.5804 84.7941C73.5855 84.8553 73.5785 84.9169 73.5597 84.9753C73.5409 85.0338 73.5107 85.088 73.4709 85.1347C73.431 85.1815 73.3824 85.2199 73.3276 85.2477C73.2729 85.2756 73.2132 85.2923 73.152 85.297H73.1054Z" fill="#2E3192"/>
<path d="M71.1399 58.4636C71.0226 58.4639 70.9095 58.42 70.8231 58.3406C70.7368 58.2611 70.6836 58.1521 70.6742 58.0351L70.2365 52.0928C70.2322 52.0317 70.24 51.9703 70.2595 51.9121C70.2789 51.854 70.3096 51.8002 70.3498 51.754C70.4311 51.6605 70.5461 51.6032 70.6696 51.5945C70.7931 51.5859 70.915 51.6267 71.0084 51.7079C71.1019 51.7891 71.1592 51.9041 71.1679 52.0276L71.6056 57.9699C71.6133 58.092 71.5727 58.2122 71.4926 58.3045C71.4124 58.3969 71.2991 58.454 71.1772 58.4636H71.1399Z" fill="#2E3192"/>
<path d="M114.906 30.1399C114.783 30.1399 114.664 30.0908 114.577 30.0035C114.489 29.9162 114.44 29.7977 114.44 29.6742V15.9734C114.44 15.8499 114.489 15.7314 114.577 15.6441C114.664 15.5568 114.783 15.5077 114.906 15.5077C115.03 15.5077 115.148 15.5568 115.235 15.6441C115.323 15.7314 115.372 15.8499 115.372 15.9734V29.6742C115.372 29.7977 115.323 29.9162 115.235 30.0035C115.148 30.0908 115.03 30.1399 114.906 30.1399Z" fill="#2E3192"/>
<path d="M104.055 33.0459C103.974 33.0454 103.894 33.0237 103.824 32.9828C103.753 32.942 103.695 32.8834 103.655 32.8131L96.7995 20.9471C96.7377 20.8396 96.7212 20.7121 96.7535 20.5924C96.7858 20.4728 96.8643 20.3709 96.9718 20.3091C97.0792 20.2473 97.2068 20.2308 97.3264 20.2631C97.4461 20.2954 97.548 20.3739 97.6098 20.4814L104.456 32.3474C104.487 32.3997 104.508 32.4579 104.516 32.5183C104.525 32.5788 104.521 32.6404 104.506 32.6995C104.49 32.7586 104.463 32.8139 104.425 32.8622C104.388 32.9105 104.341 32.9508 104.288 32.9807C104.217 33.0207 104.137 33.0431 104.055 33.0459V33.0459Z" fill="#2E3192"/>
<path d="M125.738 33.0459C125.657 33.0463 125.578 33.0271 125.506 32.99C125.399 32.926 125.322 32.823 125.291 32.7029C125.259 32.5828 125.276 32.4551 125.338 32.3474L132.184 20.4814C132.245 20.3739 132.347 20.2954 132.467 20.2631C132.587 20.2308 132.714 20.2473 132.822 20.3091C132.929 20.3709 133.008 20.4728 133.04 20.5924C133.072 20.7121 133.056 20.8396 132.994 20.9471L126.158 32.8503C126.111 32.9166 126.048 32.9695 125.974 33.0038C125.9 33.0381 125.819 33.0526 125.738 33.0459Z" fill="#2E3192"/>
<path d="M286.245 330.775C285.269 311.282 287.177 291.751 291.908 272.815L292.84 273.038C288.132 291.886 286.23 311.326 287.196 330.729L286.245 330.775Z" fill="#2E3192"/>
<path d="M288.006 272.125C288.006 273.858 289.608 280.014 291.35 279.968C293.091 279.921 294.349 273.709 294.302 271.967C294.292 271.554 294.2 271.146 294.032 270.768C293.864 270.39 293.624 270.049 293.324 269.764C293.024 269.479 292.672 269.256 292.286 269.107C291.9 268.959 291.488 268.888 291.075 268.898C290.661 268.908 290.254 269 289.876 269.168C289.498 269.336 289.157 269.576 288.872 269.876C288.587 270.176 288.364 270.529 288.215 270.915C288.067 271.301 287.995 271.712 288.006 272.125V272.125Z" fill="#2E3192"/>
<path d="M294.776 291.675C294.776 289.934 293.175 283.786 291.442 283.824C289.71 283.861 288.443 290.083 288.48 291.824C288.49 292.238 288.581 292.645 288.748 293.023C288.916 293.402 289.156 293.743 289.455 294.029C289.754 294.314 290.107 294.538 290.493 294.687C290.878 294.836 291.289 294.908 291.703 294.898C292.116 294.888 292.524 294.797 292.902 294.63C293.28 294.463 293.622 294.223 293.907 293.923C294.193 293.624 294.416 293.271 294.565 292.886C294.715 292.5 294.786 292.089 294.776 291.675V291.675Z" fill="#2E3192"/>
<path d="M281.616 285.258C283.358 285.258 289.505 283.656 289.458 281.914C289.412 280.173 283.209 278.915 281.467 278.962C281.054 278.972 280.646 279.063 280.268 279.23C279.89 279.397 279.548 279.637 279.263 279.937C278.977 280.236 278.754 280.588 278.605 280.974C278.455 281.36 278.384 281.771 278.393 282.184C278.403 282.598 278.494 283.005 278.662 283.384C278.829 283.762 279.069 284.103 279.368 284.389C279.667 284.674 280.02 284.898 280.406 285.047C280.791 285.196 281.203 285.268 281.616 285.258V285.258Z" fill="#2E3192"/>
<path d="M301.166 278.515C299.433 278.515 293.277 280.117 293.324 281.849C293.37 283.582 299.582 284.848 301.324 284.811C301.738 284.801 302.145 284.709 302.523 284.541C302.901 284.373 303.242 284.133 303.527 283.833C303.812 283.533 304.035 283.18 304.184 282.794C304.332 282.409 304.404 281.997 304.393 281.584C304.383 281.17 304.291 280.763 304.123 280.385C303.955 280.007 303.715 279.666 303.415 279.381C303.115 279.096 302.763 278.873 302.377 278.724C301.991 278.576 301.579 278.504 301.166 278.515V278.515Z" fill="#2E3192"/>
<path d="M282.082 277.379C283.348 278.58 288.797 281.831 289.998 280.564C291.2 279.297 287.689 274.044 286.431 272.824C285.827 272.247 285.019 271.934 284.184 271.953C283.349 271.972 282.556 272.322 281.979 272.926C281.402 273.53 281.089 274.339 281.108 275.174C281.127 276.009 281.478 276.802 282.082 277.379V277.379Z" fill="#2E3192"/>
<path d="M300.701 286.413C299.443 285.211 293.995 281.97 292.793 283.228C291.592 284.485 295.094 289.747 296.351 290.977C296.651 291.262 297.004 291.486 297.39 291.635C297.776 291.785 298.188 291.856 298.602 291.846C299.015 291.836 299.423 291.745 299.802 291.577C300.18 291.41 300.522 291.169 300.808 290.87C301.093 290.57 301.317 290.217 301.466 289.831C301.616 289.445 301.687 289.033 301.677 288.619C301.667 288.205 301.576 287.797 301.408 287.419C301.241 287.04 301 286.699 300.701 286.413V286.413Z" fill="#2E3192"/>
<path d="M286.87 291.21C288.071 289.943 291.313 284.494 290.055 283.293C288.798 282.091 283.535 285.603 282.306 286.86C281.729 287.465 281.416 288.275 281.436 289.111C281.457 289.946 281.808 290.74 282.413 291.317C283.018 291.894 283.828 292.206 284.664 292.186C285.499 292.166 286.293 291.815 286.87 291.21V291.21Z" fill="#2E3192"/>
<path d="M295.913 272.591C294.711 273.848 291.461 279.297 292.727 280.499C293.994 281.7 299.247 278.198 300.467 276.941C300.753 276.642 300.977 276.289 301.126 275.904C301.276 275.518 301.348 275.107 301.338 274.693C301.329 274.28 301.238 273.873 301.071 273.494C300.904 273.116 300.664 272.774 300.365 272.489C300.066 272.203 299.713 271.979 299.328 271.83C298.942 271.68 298.531 271.608 298.118 271.618C297.704 271.627 297.297 271.718 296.918 271.885C296.54 272.052 296.198 272.292 295.913 272.591V272.591Z" fill="#2E3192"/>
<path d="M287.661 281.989C287.68 282.725 287.916 283.439 288.34 284.041C288.765 284.643 289.358 285.106 290.045 285.371C290.732 285.636 291.482 285.691 292.2 285.53C292.919 285.369 293.574 284.999 294.082 284.466C294.59 283.933 294.929 283.262 295.056 282.536C295.182 281.811 295.091 281.064 294.794 280.39C294.497 279.717 294.006 279.146 293.385 278.751C292.764 278.356 292.039 278.154 291.303 278.17C290.813 278.181 290.33 278.289 289.881 278.486C289.433 278.684 289.028 278.969 288.69 279.324C288.351 279.678 288.086 280.096 287.91 280.554C287.733 281.011 287.649 281.499 287.661 281.989V281.989Z" fill="white"/>
<path d="M287.13 309.707C287.13 309.707 287.773 300.198 292.998 298.698C298.223 297.199 300.132 295.149 300.132 295.149C300.132 295.149 299.601 309.893 287.13 309.707Z" fill="#2E3192"/>
<path opacity="0.5" d="M287.13 309.707C287.13 309.707 287.773 300.198 292.998 298.698C298.223 297.199 300.132 295.149 300.132 295.149C300.132 295.149 299.601 309.893 287.13 309.707Z" fill="white"/>
<path d="M286.441 316.991C286.441 316.991 285.798 307.481 280.573 305.972C275.348 304.463 273.438 302.433 273.438 302.433C273.438 302.433 273.969 317.177 286.441 316.991Z" fill="#2E3192"/>
<path opacity="0.5" d="M286.441 316.991C286.441 316.991 285.798 307.481 280.573 305.972C275.348 304.463 273.438 302.433 273.438 302.433C273.438 302.433 273.969 317.177 286.441 316.991Z" fill="white"/>
<path d="M306.149 336.801C306.149 344.253 297.31 350.232 286.413 350.232C275.516 350.232 266.677 344.225 266.677 336.801C266.677 333.076 268.94 329.648 272.6 327.217C274.907 325.713 277.471 324.646 280.163 324.069H292.663C295.425 324.664 298.051 325.773 300.403 327.338C303.96 329.769 306.149 333.104 306.149 336.801Z" fill="#2E3192"/>
<path opacity="0.8" d="M292.663 324.069C295.425 324.664 298.051 325.773 300.403 327.338C303.96 329.769 306.149 333.104 306.149 336.801C306.149 344.253 297.31 350.232 286.413 350.232C275.516 350.232 266.677 344.225 266.677 336.801C266.677 333.076 268.94 329.648 272.6 327.217C274.907 325.713 277.471 324.646 280.163 324.069H292.663Z" fill="white"/>
<path d="M286.934 325.28H286.003V331.921H286.934V325.28Z" fill="#2E3192"/>
<path d="M301.269 323.864L300.226 327.124L300.207 327.161H272.61L272.554 326.985L271.558 323.864H301.269Z" fill="#2E3192"/>
<path d="M303.821 339.502C301.844 342.243 299.246 344.477 296.239 346.022C291.499 348.537 271.558 349.18 269.276 337.872C269.276 337.714 269.192 337.556 269.164 337.398C269.064 336.697 269.125 335.984 269.342 335.31C269.559 334.637 269.927 334.022 270.417 333.513C270.907 333.003 271.507 332.611 272.171 332.368C272.835 332.124 273.546 332.035 274.249 332.107C276.14 332.234 278.038 332.128 279.903 331.79C287.062 330.706 294.368 331.096 301.371 332.936C302.035 333.112 302.647 333.444 303.155 333.905C303.664 334.366 304.054 334.943 304.294 335.586C304.534 336.229 304.617 336.92 304.534 337.602C304.452 338.283 304.207 338.935 303.821 339.502V339.502Z" fill="#263238"/>
<path d="M160.675 335.74C160.85 335.672 161.004 335.561 161.124 335.418C161.245 335.274 161.327 335.103 161.364 334.92C161.4 334.809 161.405 334.691 161.379 334.578C161.352 334.465 161.296 334.361 161.215 334.277C160.498 333.532 157.583 334.063 157.257 334.128C157.219 334.131 157.183 334.147 157.155 334.172C157.126 334.197 157.107 334.231 157.099 334.268C157.091 334.304 157.094 334.342 157.108 334.377C157.121 334.411 157.143 334.441 157.173 334.464C157.754 334.888 158.379 335.25 159.036 335.544C159.543 335.799 160.123 335.868 160.675 335.74V335.74ZM160.936 334.538C160.97 334.577 160.994 334.624 161.003 334.675C161.013 334.726 161.009 334.778 160.992 334.827C160.97 334.949 160.918 335.064 160.84 335.16C160.762 335.256 160.66 335.331 160.545 335.376C160.014 335.572 158.999 335.209 157.751 334.445C158.961 334.24 160.554 334.138 160.936 334.538V334.538Z" fill="#2E3192"/>
<path d="M157.312 334.501C158.244 334.389 160.255 333.337 160.432 332.424C160.463 332.275 160.441 332.12 160.37 331.985C160.298 331.851 160.182 331.746 160.041 331.688C159.91 331.616 159.765 331.572 159.615 331.561C159.466 331.55 159.316 331.571 159.175 331.623C158.057 332.005 157.144 334.147 157.107 334.24C157.094 334.269 157.087 334.301 157.087 334.333C157.087 334.365 157.094 334.397 157.107 334.426C157.129 334.455 157.158 334.477 157.191 334.491L157.312 334.501ZM159.846 332.023C160.069 332.144 160.078 332.265 160.06 332.349C159.948 332.908 158.579 333.774 157.62 334.044C157.964 333.346 158.635 332.182 159.305 331.977C159.455 331.916 159.622 331.916 159.771 331.977L159.846 332.023Z" fill="#2E3192"/>
<path d="M148.474 330.747L156.055 333.812L162.677 316.292L155.087 313.228L148.474 330.747Z" fill="#FFB573"/>
<path d="M157.014 333.188L148.501 329.751C148.356 329.687 148.193 329.679 148.043 329.727C147.892 329.775 147.764 329.876 147.682 330.011L143.956 336.252C143.868 336.412 143.816 336.59 143.802 336.772C143.788 336.954 143.813 337.138 143.875 337.31C143.938 337.482 144.037 337.638 144.165 337.769C144.293 337.9 144.447 338.002 144.618 338.068C147.617 339.223 149.116 339.623 152.86 341.142C155.17 342.073 158.449 343.666 161.616 344.96C164.782 346.255 166.272 343.219 165.052 342.399C159.641 338.739 159.464 336.624 158.113 334.165C157.873 333.721 157.484 333.375 157.014 333.188Z" fill="#263238"/>
<path d="M162.575 324.889L149.405 319.561L150.616 314.737L164.745 319.906L162.575 324.889Z" fill="#2E3192"/>
<path d="M175.763 122.106C173.09 129.846 165.182 148.064 159.082 140.473C157.983 139.132 157.086 137.639 156.418 136.039C153.838 129.659 153.195 119.321 152.869 117.058L150.792 109.97C150.756 109.849 150.737 109.723 150.736 109.597V105.546C150.736 103.906 152.059 102.928 153.847 103.077C153.847 103.077 156.735 102.742 156.735 104.465L157.293 110.547C157.582 112.661 156.744 115.605 157.237 117.542C159.1 124.835 161.662 125.17 163.273 132.696C165.518 127.266 169.532 117.868 169.532 117.868C172.196 118.203 176.638 119.563 175.763 122.106Z" fill="#FFB573"/>
<path d="M166.208 143.248C165.789 143.902 165.217 144.444 164.543 144.828C163.868 145.212 163.11 145.426 162.334 145.453C161.558 145.479 160.788 145.317 160.088 144.98C159.389 144.643 158.782 144.142 158.319 143.518C157.215 142.051 156.347 140.42 155.748 138.685C153.327 130.74 151.827 125.822 151.622 117.523C152.48 116.656 153.565 116.047 154.752 115.765C155.939 115.484 157.181 115.541 158.337 115.931L162.305 129.371C162.305 129.371 170.38 109.299 173.65 108.582C177.496 107.734 179.098 111.171 180.728 115.4C181.902 118.436 171.47 135.136 166.208 143.248Z" fill="#2E3192"/>
<path d="M198.834 88.4917C197.903 93.1487 195.872 103.319 199.132 106.43C199.132 106.43 197.856 111.153 189.204 111.153C179.675 111.153 184.649 106.43 184.649 106.43C189.846 105.192 189.707 101.336 188.803 97.7125L198.834 88.4917Z" fill="#FFB573"/>
<path d="M184.276 77.5571C184.331 77.5658 184.388 77.5658 184.443 77.5571C184.529 77.5097 184.594 77.431 184.623 77.3373C184.653 77.2437 184.645 77.1423 184.602 77.0541C184.353 76.5191 183.978 76.0523 183.509 75.6938C183.04 75.3353 182.492 75.0958 181.91 74.9958C181.862 74.9893 181.812 74.9926 181.765 75.0057C181.718 75.0187 181.674 75.0411 181.636 75.0715C181.598 75.102 181.566 75.1398 181.543 75.1828C181.519 75.2258 181.505 75.2731 181.5 75.3218C181.494 75.3702 181.497 75.4195 181.51 75.4666C181.523 75.5138 181.546 75.5578 181.576 75.596C181.606 75.6343 181.644 75.666 181.687 75.6893C181.73 75.7126 181.778 75.727 181.826 75.7316V75.7316C182.285 75.821 182.715 76.0179 183.083 76.3061C183.45 76.5943 183.744 76.9656 183.941 77.3895C183.977 77.4445 184.027 77.4891 184.086 77.5185C184.144 77.548 184.21 77.5613 184.276 77.5571V77.5571Z" fill="#263238"/>
<path d="M181.436 81.5808C180.698 82.9427 179.777 84.1963 178.697 85.3064C178.99 85.5744 179.337 85.7757 179.715 85.8963C180.093 86.0169 180.492 86.054 180.886 86.0049L181.436 81.5808Z" fill="#ED893E"/>
<path d="M182.181 80.221C182.321 80.8357 182.097 81.4131 181.697 81.497C181.296 81.5808 180.849 81.1524 180.719 80.5656C180.588 79.9788 180.803 79.3734 181.212 79.2803C181.622 79.1871 182.051 79.5969 182.181 80.221Z" fill="#263238"/>
<path d="M181.398 79.2523L179.814 79.1405C179.814 79.1405 180.83 80.1371 181.398 79.2523Z" fill="#263238"/>
<path opacity="0.2" d="M175.428 118.138C177.077 116.62 178.222 117.076 178.949 118.278C179.703 121.761 175.223 129.063 173.463 131.829L175.428 118.138Z" fill="black"/>
<path d="M213.569 122.73C213.355 126.567 212.992 131.401 212.405 137.483C211.79 143.9 210.915 151.696 209.713 161.168C197.055 161.168 183.802 160.973 177.645 160.973C178.167 148.39 178.353 135.639 172.709 110.603C172.638 110.293 172.63 109.971 172.686 109.658C172.742 109.344 172.861 109.045 173.034 108.779C173.208 108.512 173.434 108.283 173.698 108.105C173.962 107.927 174.259 107.804 174.572 107.744C178.251 107.077 181.968 106.638 185.702 106.43C190.523 106.085 195.363 106.085 200.185 106.43C206.397 106.999 213.457 108.442 213.457 108.442C213.457 108.442 214.221 110.752 213.569 122.73Z" fill="#2E3192"/>
<path opacity="0.2" d="M213.568 122.73C213.354 126.567 212.991 131.401 212.404 137.483C208.995 133.534 205.773 119.936 206.816 115.288C209.357 117.167 211.591 119.43 213.438 121.994C213.495 122.237 213.538 122.482 213.568 122.73Z" fill="black"/>
<path d="M246.437 139.774L252.957 136.123L254.168 142.764C254.168 142.764 248.672 144.878 245.785 143.397L246.437 139.774Z" fill="#FFB573"/>
<path d="M257.27 136.878L257.726 139.048C257.793 139.381 257.761 139.726 257.634 140.04C257.506 140.355 257.289 140.625 257.009 140.817L254.14 142.755L252.93 136.114L255.174 135.555C255.399 135.499 255.633 135.489 255.861 135.525C256.09 135.562 256.309 135.645 256.505 135.768C256.701 135.892 256.87 136.054 257.001 136.245C257.133 136.435 257.224 136.651 257.27 136.878Z" fill="#FFB573"/>
<path d="M207.328 116.135C209.405 120.364 217.024 136.337 220.368 140.026L221.029 140.715L221.355 141.06C221.467 141.171 221.56 141.274 221.737 141.432C222.338 142.003 223 142.506 223.711 142.932C224.982 143.665 226.349 144.217 227.772 144.571C230.268 145.15 232.831 145.391 235.391 145.288C240.162 145.097 244.888 144.296 249.455 142.904L248.682 139.029C246.53 139.215 244.277 139.346 242.097 139.383C239.937 139.447 237.775 139.378 235.624 139.178C233.629 139.035 231.659 138.65 229.756 138.032C228.988 137.774 228.26 137.407 227.595 136.943C227.341 136.764 227.106 136.558 226.897 136.328C226.823 136.252 226.755 136.171 226.692 136.086L226.45 135.797L225.956 135.22C223.385 131.997 216.595 116.461 214.556 112.578L207.328 116.135Z" fill="#FFB573"/>
<path d="M246.335 146.387C240.968 149.24 234.688 149.85 228.872 148.082C223.324 146.298 218.643 142.504 215.748 137.446C212.386 132.5 203.435 118.511 204.572 114.897C205.904 110.575 208.735 107.893 213.466 109.057C216.792 109.858 223.134 126.008 226.208 132.463C227.409 134.26 229.719 137.12 232.299 137.995C236.854 139.569 240.207 138.927 244.976 138.21C245.851 138.731 245.786 139.541 246.224 140.445C246.694 141.361 246.948 142.373 246.967 143.403C246.987 144.433 246.771 145.454 246.335 146.387V146.387Z" fill="#2E3192"/>
<path d="M203.528 81.0313C202.103 88.6873 201.665 91.9565 197.269 95.4399C190.675 100.674 181.575 97.2468 180.69 89.3114C179.889 82.1676 182.357 70.8418 190.293 68.7089C192.04 68.2294 193.881 68.2047 195.641 68.6371C197.401 69.0694 199.021 69.9446 200.347 71.1793C201.673 72.414 202.661 73.9674 203.218 75.6917C203.775 77.416 203.882 79.2541 203.528 81.0313V81.0313Z" fill="#FFB573"/>
<path d="M230.706 123.419C229.244 125.086 228.788 126.055 226.748 126.958C224.708 127.862 220.293 127.07 218.887 125.347C219.343 126.688 222.007 129.073 223.404 129.287C221.827 130.151 220.003 130.453 218.232 130.141C216.461 129.83 214.849 128.924 213.662 127.573C213.857 128.413 214.264 129.189 214.844 129.827C215.425 130.464 216.16 130.942 216.978 131.215C199.132 131.68 206.648 123.279 195.472 111.329C183.103 98.1037 185.785 87.1691 185.785 87.1691C185.815 84.4458 184.962 81.786 183.354 79.5876C181.566 77.2964 182.088 74.2041 182.656 72.4717C183.485 69.929 186.009 69.0349 188.43 68.8859C188.859 66.3804 194.019 66.8368 194.643 67.2559C195.267 67.6751 195.341 67.5912 195.909 67.2559C197.167 66.4456 200.334 65.6074 203.724 68.3457C205.792 70.0222 208.008 73.0026 208.083 79.4106C208.157 86.0515 204.981 93.9404 215.972 104.027C222.445 109.951 219.343 122.72 230.706 123.419Z" fill="#263238"/>
<path d="M184.313 81.6087C183.447 82.8367 183.087 84.3509 183.307 85.8373C183.624 87.8025 185.533 87.9329 186.921 86.6755C188.309 85.4181 189.52 83.1455 188.495 81.5156C187.471 79.8857 185.394 80.1185 184.313 81.6087Z" fill="#FFB573"/>
<path d="M201.6 161.159C201.6 161.159 197.79 214.63 193.506 249.893C192.218 260.476 188.991 270.731 183.987 280.145L162.993 319.785L152.227 315.547C152.227 315.547 159.678 277.872 174.198 257.326C174.198 257.326 163.338 195.919 177.551 160.973L201.6 161.159Z" fill="#263238"/>
<path opacity="0.2" d="M186.959 174.115C186.959 174.115 190.163 198.331 191.914 212.74C185.347 204.078 180.253 191.988 186.959 174.115Z" fill="black"/>
<path d="M228.788 340.76C228.913 340.621 228.999 340.451 229.039 340.268C229.078 340.085 229.069 339.895 229.011 339.717C228.99 339.602 228.938 339.496 228.861 339.409C228.784 339.322 228.684 339.258 228.574 339.223C227.577 338.888 225.258 340.704 224.997 340.909C224.968 340.934 224.947 340.966 224.935 341.002C224.924 341.038 224.923 341.077 224.932 341.114C224.944 341.148 224.965 341.178 224.993 341.201C225.021 341.224 225.054 341.239 225.09 341.244C225.814 341.354 226.549 341.382 227.279 341.328C227.833 341.319 228.366 341.118 228.788 340.76V340.76ZM228.443 339.586C228.493 339.601 228.537 339.63 228.57 339.67C228.604 339.709 228.624 339.758 228.629 339.81C228.67 339.926 228.68 340.051 228.657 340.172C228.634 340.293 228.58 340.406 228.499 340.499C228.127 340.918 227.065 341.067 225.612 340.918C226.562 340.21 227.922 339.4 228.443 339.586V339.586Z" fill="#2E3192"/>
<path d="M225.229 341.216C225.965 340.704 227.278 338.832 226.999 337.947C226.955 337.8 226.861 337.672 226.734 337.586C226.607 337.499 226.454 337.459 226.3 337.472C226.152 337.468 226.005 337.496 225.868 337.553C225.732 337.611 225.609 337.698 225.509 337.807C224.698 338.664 224.913 340.974 224.922 341.076C224.928 341.11 224.941 341.141 224.96 341.168C224.979 341.196 225.004 341.219 225.034 341.235C225.067 341.243 225.103 341.243 225.136 341.235C225.168 341.238 225.201 341.232 225.229 341.216V341.216ZM226.291 337.854C226.543 337.854 226.608 337.966 226.636 338.049C226.794 338.599 226.002 339.987 225.285 340.667C225.177 339.769 225.353 338.86 225.788 338.068C225.894 337.95 226.04 337.877 226.198 337.863L226.291 337.854Z" fill="#2E3192"/>
<path d="M215.637 341.971L223.796 341.188L221.3 322.653L213.141 323.445L215.637 341.971Z" fill="#FFB573"/>
<path d="M224.345 340.21L215.18 341.095C215.023 341.106 214.875 341.175 214.765 341.289C214.655 341.402 214.591 341.552 214.584 341.71L214.249 348.947C214.249 349.13 214.288 349.312 214.363 349.48C214.439 349.647 214.548 349.797 214.686 349.92C214.823 350.042 214.984 350.134 215.159 350.189C215.335 350.245 215.519 350.262 215.702 350.241C218.887 349.887 220.359 349.552 224.438 349.161C226.916 348.919 230.567 348.826 233.995 348.5C237.422 348.174 237.264 344.821 235.857 344.653C229.338 343.917 228.136 342.148 225.808 340.574C225.377 340.286 224.86 340.158 224.345 340.21V340.21Z" fill="#263238"/>
<path d="M209.666 161.15C209.666 161.15 220.107 224.96 222.11 262.756L222.492 330.468L214.044 332.116C214.044 332.116 201.815 288.918 200.399 263.948C196.673 197.707 175.093 197.595 188.077 161.029L209.666 161.15Z" fill="#263238"/>
<path d="M225.295 330.747L211.315 332.657L209.89 327.292L224.839 325.345L225.295 330.747Z" fill="#2E3192"/>
<path d="M149.954 92.6923H150.485C150.359 92.6921 150.234 92.7177 150.117 92.7673C150.001 92.817 149.896 92.8898 149.809 92.9813C149.722 93.0728 149.655 93.181 149.611 93.2995C149.567 93.4179 149.547 93.5441 149.554 93.6702L150.41 109.886C150.436 110.14 150.555 110.376 150.744 110.548C150.933 110.72 151.179 110.816 151.435 110.817H150.885C150.63 110.814 150.385 110.718 150.196 110.546C150.008 110.374 149.888 110.139 149.861 109.886L149.023 93.6702C149.016 93.5441 149.036 93.4179 149.08 93.2995C149.124 93.181 149.191 93.0728 149.278 92.9813C149.366 92.8898 149.47 92.817 149.587 92.7673C149.703 92.7177 149.828 92.6921 149.954 92.6923Z" fill="#2E3192"/>
<path opacity="0.1" d="M149.954 92.6923H150.485C150.359 92.6921 150.234 92.7177 150.117 92.7673C150.001 92.817 149.896 92.8898 149.809 92.9813C149.722 93.0728 149.655 93.181 149.611 93.2995C149.567 93.4179 149.547 93.5441 149.554 93.6702L150.41 109.886C150.436 110.14 150.555 110.376 150.744 110.548C150.933 110.72 151.179 110.816 151.435 110.817H150.885C150.63 110.814 150.385 110.718 150.196 110.546C150.008 110.374 149.888 110.139 149.861 109.886L149.023 93.6702C149.016 93.5441 149.036 93.4179 149.08 93.2995C149.124 93.181 149.191 93.0728 149.278 92.9813C149.366 92.8898 149.47 92.817 149.587 92.7673C149.703 92.7177 149.828 92.6921 149.954 92.6923Z" fill="white"/>
<path d="M151.026 110.864H157.545C157.792 110.864 158.029 110.766 158.204 110.591C158.379 110.416 158.477 110.179 158.477 109.932L157.629 93.7169C157.613 93.4548 157.498 93.2086 157.308 93.0273C157.118 92.8461 156.867 92.7431 156.605 92.7389H150.085C149.959 92.7387 149.834 92.7643 149.717 92.814C149.601 92.8637 149.496 92.9365 149.409 93.0279C149.322 93.1194 149.255 93.2277 149.211 93.3461C149.167 93.4645 149.147 93.5907 149.154 93.7169L150.001 109.932C150.028 110.186 150.148 110.421 150.337 110.593C150.525 110.764 150.77 110.861 151.026 110.864V110.864Z" fill="#2E3192"/>
<path opacity="0.4" d="M151.026 110.864H157.545C157.792 110.864 158.029 110.766 158.204 110.591C158.379 110.416 158.477 110.179 158.477 109.932L157.629 93.7169C157.613 93.4548 157.498 93.2086 157.308 93.0273C157.118 92.8461 156.867 92.7431 156.605 92.7389H150.085C149.959 92.7387 149.834 92.7643 149.717 92.814C149.601 92.8637 149.496 92.9365 149.409 93.0279C149.322 93.1194 149.255 93.2277 149.211 93.3461C149.167 93.4645 149.147 93.5907 149.154 93.7169L150.001 109.932C150.028 110.186 150.148 110.421 150.337 110.593C150.525 110.764 150.77 110.861 151.026 110.864V110.864Z" fill="white"/>
<path d="M158.086 109.551C158.091 109.632 158.079 109.713 158.052 109.79C158.025 109.867 157.982 109.938 157.927 109.998C157.81 110.112 157.653 110.175 157.49 110.175H151.147C150.969 110.172 150.799 110.103 150.671 109.98C150.543 109.857 150.467 109.69 150.457 109.513L149.629 93.7821C149.623 93.702 149.634 93.6217 149.661 93.5462C149.688 93.4708 149.731 93.402 149.787 93.3443C149.843 93.2844 149.911 93.2369 149.986 93.2048C150.061 93.1727 150.143 93.1568 150.225 93.158H156.567C156.745 93.1601 156.915 93.2296 157.043 93.3525C157.171 93.4753 157.247 93.6422 157.257 93.8193L157.313 94.9463L158.086 109.551Z" fill="#263238"/>
<g opacity="0.1">
<path opacity="0.1" d="M157.312 94.9463L155.207 110.156H152.683L155.067 93.1394H156.567C156.744 93.1415 156.914 93.211 157.042 93.3339C157.17 93.4567 157.246 93.6236 157.256 93.8007L157.312 94.9463Z" fill="white"/>
<path opacity="0.1" d="M151.77 110.175H151.202L153.587 93.1581H154.155L151.77 110.175Z" fill="white"/>
</g>
<path d="M175.586 162.966C170.844 172.312 168.295 182.617 168.135 193.097C183.968 205.382 198.712 190.992 216.837 193.423C216.204 185.236 213.419 170.138 210.122 162.575C198.116 163.087 186.902 161.886 175.586 162.966Z" fill="#2E3192"/>
<path d="M177.235 159.641C177.235 159.641 175.959 162.929 176.303 162.929H209.563C209.852 162.929 210.085 162.789 210.104 162.603L210.392 159.809C210.392 159.613 210.159 159.445 209.852 159.445H177.756C177.66 159.432 177.562 159.443 177.471 159.477C177.38 159.511 177.299 159.568 177.235 159.641V159.641Z" fill="white"/>
<path d="M181.92 163.245H181.063C180.886 163.245 180.756 163.152 180.765 163.041L181.175 159.315C181.175 159.203 181.333 159.119 181.501 159.119H182.367C182.535 159.119 182.665 159.203 182.656 159.315L182.255 163.041C182.229 163.107 182.183 163.162 182.122 163.199C182.062 163.236 181.991 163.252 181.92 163.245V163.245Z" fill="#2E3192"/>
<path d="M202.746 163.245H201.889C201.721 163.245 201.591 163.152 201.6 163.041L202.001 159.315C202.001 159.203 202.159 159.119 202.336 159.119H203.193C203.36 159.119 203.491 159.203 203.481 159.315L203.081 163.041C203.044 163.115 202.923 163.245 202.746 163.245Z" fill="#2E3192"/>
</svg>
