<svg width="28" height="28" viewBox="0 0 28 28" fill="none" xmlns="http://www.w3.org/2000/svg">
<circle cx="14" cy="14" r="14" fill="#00ADEF"/>
<path d="M21.3123 10.4701C20.7744 10.7022 20.1891 10.8691 19.5861 10.9342C20.2121 10.5623 20.6809 9.97477 20.9045 9.28184C20.3171 9.63128 19.6736 9.87631 19.0025 10.0061C18.7221 9.70623 18.3829 9.46736 18.006 9.30436C17.6292 9.14135 17.2229 9.05769 16.8123 9.0586C15.1512 9.0586 13.8152 10.4051 13.8152 12.0574C13.8152 12.2895 13.8434 12.5215 13.8891 12.7447C11.4018 12.6147 9.1834 11.4264 7.70859 9.60704C7.43987 10.066 7.29905 10.5886 7.30078 11.1205C7.30078 12.1611 7.82988 13.0787 8.63672 13.6184C8.16124 13.5996 7.69689 13.4689 7.28145 13.2369V13.2738C7.28145 14.7311 8.31152 15.9387 9.68437 16.2164C9.42661 16.2834 9.16144 16.3176 8.89512 16.3184C8.7 16.3184 8.51543 16.299 8.3291 16.2727C8.70879 17.4609 9.81445 18.324 11.1311 18.3522C10.101 19.159 8.81074 19.6336 7.40977 19.6336C7.1584 19.6336 6.92637 19.6248 6.68555 19.5967C8.01445 20.4492 9.59121 20.9414 11.2893 20.9414C16.8018 20.9414 19.8182 16.3746 19.8182 12.4107C19.8182 12.2807 19.8182 12.1506 19.8094 12.0205C20.393 11.5934 20.9045 11.0643 21.3123 10.4701Z" fill="white"/>
</svg>
