<svg width="466" height="347" viewBox="0 0 466 347" fill="none" xmlns="http://www.w3.org/2000/svg">
<path d="M465.697 304.938H0V305.171H465.697V304.938Z" fill="#E6E6E6"/>
<path d="M116.257 319.03H85.4089V319.263H116.257V319.03Z" fill="#E6E6E6"/>
<path d="M75.6478 319.03H57.7744V319.263H75.6478V319.03Z" fill="#E6E6E6"/>
<path d="M196.105 322.458H178.232V322.691H196.105V322.458Z" fill="#E6E6E6"/>
<path d="M289.3 327.655H249.073V327.888H289.3V327.655Z" fill="#E6E6E6"/>
<path d="M240.784 327.655H234.888V327.888H240.784V327.655Z" fill="#E6E6E6"/>
<path d="M422.247 322.458H334.995V322.691H422.247V322.458Z" fill="#E6E6E6"/>
<path d="M220.74 263.398H40.8976C39.4887 263.396 38.1384 262.834 37.143 261.837C36.1477 260.84 35.5886 259.489 35.5886 258.08V5.27169C35.6009 3.8709 36.1653 2.53151 37.1594 1.54445C38.1534 0.5574 39.4967 0.00239963 40.8976 0H220.74C222.151 0 223.504 0.560315 224.501 1.55768C225.498 2.55505 226.059 3.90777 226.059 5.31826V258.08C226.059 259.49 225.498 260.843 224.501 261.841C223.504 262.838 222.151 263.398 220.74 263.398ZM40.8976 0.18628C39.5504 0.188747 38.2593 0.725617 37.3077 1.67905C36.356 2.63248 35.8215 3.92457 35.8215 5.27169V258.08C35.8215 259.427 36.356 260.719 37.3077 261.673C38.2593 262.626 39.5504 263.163 40.8976 263.165H220.74C222.088 263.163 223.38 262.626 224.334 261.673C225.287 260.72 225.823 259.428 225.826 258.08V5.27169C225.823 3.92371 225.287 2.63165 224.334 1.67848C223.38 0.725314 222.088 0.188742 220.74 0.18628H40.8976Z" fill="#E6E6E6"/>
<path d="M422.21 263.398H242.358C240.948 263.396 239.597 262.835 238.6 261.838C237.603 260.841 237.042 259.49 237.04 258.08V5.27169C237.054 3.87005 237.621 2.53067 238.616 1.54387C239.612 0.557075 240.956 0.00237346 242.358 0H422.21C423.609 0.00484744 424.95 0.560931 425.942 1.54772C426.934 2.53452 427.498 3.87251 427.51 5.27169V258.08C427.51 259.487 426.952 260.837 425.959 261.834C424.965 262.831 423.617 263.393 422.21 263.398ZM242.358 0.18628C241.01 0.188742 239.718 0.725314 238.765 1.67848C237.812 2.63165 237.275 3.92371 237.273 5.27169V258.08C237.275 259.428 237.812 260.72 238.765 261.673C239.718 262.626 241.01 263.163 242.358 263.165H422.21C423.558 263.163 424.85 262.626 425.803 261.673C426.757 260.72 427.293 259.428 427.296 258.08V5.27169C427.293 3.92371 426.757 2.63165 425.803 1.67848C424.85 0.725314 423.558 0.188742 422.21 0.18628H242.358Z" fill="#E6E6E6"/>
<path d="M249.055 225.379H228.573V306.624H249.055V225.379Z" fill="#E0E0E0"/>
<path d="M245.162 306.625H249.055V295.56H241.082L245.162 306.625Z" fill="#FAFAFA"/>
<path d="M159.306 225.379H138.824V306.624H159.306V225.379Z" fill="#E0E0E0"/>
<path d="M249.055 225.379H155.915V299.835H249.055V225.379Z" fill="#FAFAFA"/>
<path d="M245.674 229.04V248.739H159.268V229.04H245.646H245.674ZM246.009 228.676H158.933V249.092H246.037V228.676H246.009Z" fill="#E0E0E0"/>
<path d="M159.799 306.625H155.915V295.56H163.879L159.799 306.625Z" fill="#FAFAFA"/>
<path d="M200.427 238.884C200.427 239.291 200.547 239.689 200.774 240.028C201 240.366 201.321 240.63 201.697 240.786C202.073 240.942 202.487 240.982 202.887 240.903C203.286 240.823 203.653 240.627 203.941 240.34C204.228 240.052 204.424 239.685 204.504 239.286C204.583 238.886 204.543 238.472 204.387 238.096C204.231 237.72 203.967 237.399 203.629 237.173C203.29 236.946 202.892 236.826 202.485 236.826C201.939 236.826 201.416 237.043 201.03 237.429C200.644 237.815 200.427 238.338 200.427 238.884Z" fill="#E6E6E6"/>
<path d="M245.674 252.752V272.451H159.268V252.752H245.646H245.674ZM246.009 252.398H158.933V272.815H246.037V252.408L246.009 252.398Z" fill="#E0E0E0"/>
<path d="M200.427 262.653C200.427 263.06 200.547 263.458 200.774 263.797C201 264.135 201.321 264.399 201.697 264.555C202.073 264.711 202.487 264.751 202.887 264.672C203.286 264.593 203.653 264.396 203.941 264.109C204.228 263.821 204.424 263.454 204.504 263.055C204.583 262.655 204.543 262.242 204.387 261.865C204.231 261.489 203.967 261.168 203.629 260.942C203.29 260.715 202.892 260.595 202.485 260.595C201.939 260.595 201.416 260.812 201.03 261.198C200.644 261.584 200.427 262.107 200.427 262.653Z" fill="#E6E6E6"/>
<path d="M245.674 276.475V296.183H159.268V276.475H245.646H245.674ZM246.009 276.112H158.933V296.537H246.037V276.112H246.009Z" fill="#E0E0E0"/>
<path d="M200.427 286.329C200.428 286.736 200.551 287.133 200.778 287.47C201.005 287.807 201.327 288.07 201.704 288.224C202.08 288.378 202.494 288.418 202.892 288.337C203.291 288.257 203.657 288.06 203.944 287.772C204.231 287.484 204.426 287.117 204.504 286.718C204.583 286.319 204.542 285.905 204.386 285.53C204.23 285.154 203.966 284.833 203.628 284.607C203.289 284.382 202.892 284.261 202.485 284.261C202.214 284.261 201.945 284.315 201.695 284.419C201.445 284.523 201.217 284.675 201.026 284.867C200.835 285.06 200.683 285.288 200.581 285.538C200.478 285.789 200.425 286.058 200.427 286.329Z" fill="#E6E6E6"/>
<path d="M146.797 178.195H126.316V306.634H146.797V178.195Z" fill="#E0E0E0"/>
<path d="M142.904 306.625H146.797V295.56H138.834L142.904 306.625Z" fill="#FAFAFA"/>
<path d="M70.2551 178.195H49.7737V306.634H70.2551V178.195Z" fill="#E0E0E0"/>
<path d="M146.797 178.195H66.8554V299.844H146.797V178.195Z" fill="#FAFAFA"/>
<path d="M143.351 181.622V209.163H70.3016V181.622H143.351ZM143.779 181.203H69.8545V209.564H143.761V181.212L143.779 181.203Z" fill="#E0E0E0"/>
<path d="M143.351 212.526V285.575H108.554V212.526H143.351ZM143.779 212.097H108.135V286.003H143.779V212.097Z" fill="#E0E0E0"/>
<path d="M105.098 212.526V285.575H70.3016V212.526H105.098ZM105.518 212.097H69.8545V286.003H105.499V212.097H105.518Z" fill="#E0E0E0"/>
<path d="M70.7486 306.625H66.8554V295.56H74.8281L70.7486 306.625Z" fill="#FAFAFA"/>
<path d="M104.763 195.407C104.761 195.816 104.881 196.217 105.107 196.558C105.333 196.899 105.655 197.166 106.033 197.323C106.411 197.481 106.827 197.524 107.228 197.445C107.63 197.366 107.999 197.17 108.29 196.881C108.58 196.592 108.778 196.224 108.858 195.823C108.939 195.421 108.898 195.005 108.742 194.627C108.586 194.248 108.321 193.925 107.981 193.697C107.64 193.47 107.24 193.348 106.831 193.348C106.284 193.348 105.76 193.565 105.372 193.95C104.985 194.336 104.766 194.86 104.763 195.407Z" fill="#E6E6E6"/>
<path d="M112.14 247.313C112.14 247.722 112.261 248.122 112.489 248.463C112.717 248.803 113.04 249.068 113.418 249.224C113.797 249.38 114.213 249.421 114.614 249.34C115.016 249.26 115.384 249.062 115.673 248.772C115.962 248.482 116.158 248.112 116.237 247.71C116.315 247.309 116.273 246.893 116.115 246.515C115.957 246.137 115.691 245.815 115.349 245.589C115.008 245.363 114.608 245.243 114.198 245.245C113.927 245.245 113.659 245.299 113.408 245.403C113.158 245.507 112.931 245.659 112.739 245.851C112.548 246.043 112.397 246.271 112.294 246.522C112.191 246.773 112.139 247.042 112.14 247.313Z" fill="#E6E6E6"/>
<path d="M97.396 247.313C97.3978 247.72 97.5201 248.117 97.7474 248.454C97.9747 248.791 98.2968 249.053 98.6731 249.208C99.0493 249.362 99.4629 249.402 99.8616 249.321C100.26 249.241 100.626 249.044 100.913 248.756C101.2 248.467 101.395 248.101 101.474 247.702C101.552 247.303 101.511 246.889 101.355 246.514C101.199 246.138 100.935 245.817 100.597 245.591C100.259 245.366 99.861 245.245 99.4543 245.245C99.1832 245.245 98.9148 245.299 98.6645 245.403C98.4141 245.507 98.1868 245.659 97.9955 245.851C97.8043 246.043 97.6529 246.271 97.55 246.522C97.4471 246.773 97.3947 247.042 97.396 247.313Z" fill="#E6E6E6"/>
<path d="M95.0674 142.382H86.4334C87.229 146.571 87.7301 150.81 87.9329 155.068C87.9329 159.725 81.3573 178.194 90.7271 178.194C100.097 178.194 93.5213 159.771 93.5213 155.068C93.7395 150.808 94.2561 146.57 95.0674 142.382Z" fill="#E0E0E0"/>
<path d="M62.2172 161.271V166.859C62.227 169.855 63.4214 172.725 65.5398 174.843C67.6582 176.962 70.5285 178.156 73.5243 178.166H79.1126C82.1085 178.156 84.9788 176.962 87.0971 174.843C89.2155 172.725 90.41 169.855 90.4198 166.859V161.271H62.2172Z" fill="#F5F5F5"/>
<path d="M182.246 213.531C182.246 220.051 189.539 225.379 198.452 225.379H206.499C215.413 225.379 222.706 220.051 222.706 213.531H182.246Z" fill="#E0E0E0"/>
<path d="M395.479 203.976C390.599 207.962 383.855 215.255 377.689 225.519C373.573 232.355 371.095 239.49 370.005 248.971C370.005 238.26 370.071 226.757 370.108 215.897C371.347 213.103 374.178 206.658 376.209 201.573C382.98 184.593 385.523 180.411 391.605 165.77C399.736 146.21 408.062 123.056 405.678 124.909C400.816 128.682 382.188 163.562 380.176 168.555C374.693 181.877 371.303 195.968 370.127 210.328C370.127 200.082 370.201 190.768 370.238 183.541C370.369 159.967 370.769 152.358 370.965 150.011C371.719 148.818 372.604 147.431 373.126 146.685C377.503 140.352 379.189 134.969 383.306 125.524C389.155 112.159 394.184 88.4175 392.713 89.6097C386.584 94.6019 381.76 105.313 375.408 118.977C369.055 132.64 370.872 140.492 369.614 152.153C369.354 154.444 369.149 163.087 369 175.056C367.36 162.296 364.268 153.894 358.633 146.257C351.704 136.859 344.998 130.516 340.08 127.201C335.162 123.885 348.574 146.965 354.982 157.005C360.692 165.984 365.954 173.892 368.953 181.687C368.795 197.921 368.72 218.468 368.72 237.571C367.249 228.872 364.846 219.493 361.642 212.237C357.786 203.519 351.862 190.144 347.14 185.608C346.013 184.519 352.076 210.533 355.969 217.443C359.863 224.354 362.722 230.883 365.172 234.805C365.74 235.736 367.64 239.247 368.72 241.278C368.72 264.628 368.851 285.23 369.055 292.244H370.061C369.996 290.437 369.978 278.552 370.005 262.83C372.436 254.299 377.988 244.556 382.57 235.671C387.562 226.05 400.36 200.017 395.479 203.976Z" fill="#E0E0E0"/>
<path d="M384.144 306.624H354.954L352.747 278.012H386.352L384.144 306.624Z" fill="#F0F0F0"/>
<path d="M388.522 281.347H350.567L349.487 271.688H389.612L388.522 281.347Z" fill="#F5F5F5"/>
<path d="M115.735 19.0933H63.5303V76.4206H115.735V19.0933Z" fill="#E0E0E0"/>
<path d="M121.389 19.0933H67.4609V76.4206H121.389V19.0933Z" fill="#F5F5F5"/>
<path d="M116.871 71.9036V23.6108L71.9782 23.6108V71.9036H116.871Z" fill="white"/>
<path d="M105.983 60.1866V35.3091H82.8568V60.1866H105.983Z" fill="#F5F5F5"/>
<path d="M381.918 25.772H333.42V79.0291H381.918V25.772Z" fill="#E0E0E0"/>
<path d="M387.171 25.772H337.081V79.0291H387.171V25.772Z" fill="#F5F5F5"/>
<path d="M382.98 74.8281V29.9722L341.281 29.9722V74.8281H382.98Z" fill="white"/>
<path d="M362.126 65.4123C369.312 65.4123 375.137 59.5868 375.137 52.4007C375.137 45.2146 369.312 39.3892 362.126 39.3892C354.94 39.3892 349.114 45.2146 349.114 52.4007C349.114 59.5868 354.94 65.4123 362.126 65.4123Z" fill="#F5F5F5"/>
<path d="M169.97 53.2759H131.243V95.8033H169.97V53.2759Z" fill="#E0E0E0"/>
<path d="M174.161 53.2759H134.158V95.8033H174.161V53.2759Z" fill="#F5F5F5"/>
<path d="M170.808 92.4503V56.6289H137.511V92.4503H170.808Z" fill="white"/>
<path d="M154.164 65.4771L145.055 81.2549H163.273L154.164 65.4771Z" fill="#F5F5F5"/>
<path d="M232.849 347C332.585 347 413.437 342.279 413.437 336.456C413.437 330.633 332.585 325.913 232.849 325.913C133.113 325.913 52.2606 330.633 52.2606 336.456C52.2606 342.279 133.113 347 232.849 347Z" fill="#F5F5F5"/>
<path d="M325.289 100.991L316.05 97.2651C316.05 97.2651 303.858 119.498 300.365 120.625C295.615 122.152 285.78 126.399 279.949 127.144C279.158 128.076 277.863 130.972 277.984 132.025C285.817 134.642 303.029 131.168 306.717 128.43C315.109 122.217 325.289 100.991 325.289 100.991Z" fill="#E58A7B"/>
<path d="M328.13 95.9328C329.853 102.294 320.521 115.092 320.521 115.092L308.292 108.236C308.292 108.236 310.583 102.974 313.377 97.6186C317.857 88.9659 326.165 88.6772 328.13 95.9328Z" fill="#3855B3"/>
<path opacity="0.2" d="M328.13 95.9328C329.853 102.294 320.521 115.092 320.521 115.092L308.292 108.236C308.292 108.236 310.583 102.974 313.377 97.6186C317.857 88.9659 326.165 88.6772 328.13 95.9328Z" fill="black"/>
<path opacity="0.2" d="M313.144 110.975L317.959 113.676L318.807 98.895C316.003 101.047 314.029 107.529 313.144 110.975Z" fill="black"/>
<path d="M320.083 91.1455C320.083 91.1455 310.564 112.325 316.115 151.761H353.622C354.219 146.005 352.244 117.914 359.388 90.7916C355.273 89.9875 351.11 89.4555 346.926 89.1989C341.618 88.8914 336.297 88.8914 330.99 89.1989C327.31 89.5725 323.664 90.2233 320.083 91.1455Z" fill="#3855B3"/>
<path opacity="0.2" d="M320.083 91.1455C320.083 91.1455 310.564 112.325 316.115 151.761H353.622C354.219 146.005 352.244 117.914 359.388 90.7916C355.273 89.9875 351.11 89.4555 346.926 89.1989C341.618 88.8914 336.297 88.8914 330.99 89.1989C327.31 89.5725 323.664 90.2233 320.083 91.1455Z" fill="black"/>
<g style="mix-blend-mode:multiply">
<path d="M311.384 337.295C311.328 338.301 325.55 339.111 343.144 339.111C360.738 339.111 375.063 338.301 375.119 337.295C375.175 336.289 360.962 335.488 343.359 335.488C325.755 335.488 311.449 336.298 311.384 337.295Z" fill="#E8ECF1"/>
</g>
<path d="M336.42 310.864L329.768 313.439L335.498 328.243L342.15 325.668L336.42 310.864Z" fill="#E58A7B"/>
<path d="M366.084 330.132H359.071L356.5 313.897H363.514L366.084 330.132Z" fill="#E58A7B"/>
<path d="M358.587 329.322H366.466C366.603 329.322 366.735 329.371 366.839 329.46C366.943 329.548 367.013 329.671 367.035 329.806L368.05 336.037C368.071 336.193 368.059 336.353 368.013 336.504C367.968 336.655 367.89 336.794 367.786 336.913C367.681 337.031 367.553 337.126 367.409 337.19C367.265 337.254 367.109 337.287 366.951 337.285C364.203 337.239 362.881 337.071 359.416 337.071C357.283 337.071 352.896 337.295 349.934 337.295C346.972 337.295 346.777 334.389 347.997 334.118C353.473 332.936 355.597 331.324 357.423 329.76C357.744 329.477 358.158 329.321 358.587 329.322Z" fill="#263238"/>
<path d="M335.302 326.919L342.753 324.739C342.886 324.702 343.028 324.711 343.155 324.765C343.282 324.82 343.387 324.916 343.452 325.038L346.246 330.626C346.311 330.768 346.344 330.922 346.343 331.078C346.342 331.234 346.307 331.388 346.241 331.529C346.174 331.67 346.078 331.795 345.958 331.894C345.838 331.994 345.698 332.067 345.547 332.107C342.837 332.852 341.021 333.308 337.63 334.296C335.293 334.976 332.908 336.084 330.598 336.82C328.996 337.332 325.234 337.351 323.287 337.351C320.409 337.351 319.766 334.314 321.005 334.175C324.125 333.83 324.544 333.988 326.267 333.122C329.087 331.89 331.642 330.125 333.793 327.925C334.199 327.463 334.719 327.116 335.302 326.919Z" fill="#263238"/>
<path d="M281.123 127.107L273.411 123.875L270.235 132.425C273.396 132.907 276.611 132.907 279.772 132.425L281.123 127.107Z" fill="#E58A7B"/>
<path d="M267.673 123.651L267.469 129.332L270.235 132.406L273.411 123.856L267.673 123.651Z" fill="#E58A7B"/>
<path d="M337.333 312.121L330.66 314.697L333.615 322.352L340.288 319.776L337.333 312.121Z" fill="#CF6F64"/>
<path d="M363.514 313.897H356.5L357.832 322.271H364.846L363.514 313.897Z" fill="#CF6F64"/>
<path opacity="0.2" d="M314.923 141.096C315.063 142.782 315.221 144.505 315.426 146.275L343.312 137.221C347.667 135.931 351.451 133.194 354.042 129.463C354.153 126.976 354.293 124.359 354.507 121.63C354.6 120.307 354.712 118.947 354.833 117.569C354.954 116.19 355.122 114.663 355.299 113.191L314.923 141.096Z" fill="black"/>
<path d="M324.032 110.547L323.101 110.435C323.65 105.778 327.124 102.108 330.785 102.201V103.133C327.581 103.068 324.526 106.374 324.032 110.547Z" fill="white"/>
<path d="M328.996 119.143H328.838V118.212C332.042 118.333 335.05 114.989 335.544 110.826L336.476 110.937C335.982 115.492 332.62 119.143 328.996 119.143Z" fill="white"/>
<path d="M346.404 71.251C345.091 76.383 343.545 85.7807 346.926 89.1989C346.926 89.1989 344.56 94.4054 335.032 94.4054C326.323 94.4054 330.99 89.1989 330.99 89.1989C336.783 87.8391 336.885 83.6106 336.122 79.6056L346.404 71.251Z" fill="#E58A7B"/>
<path d="M342.213 74.6602L336.131 79.6059C336.319 80.5262 336.428 81.461 336.457 82.4C338.236 84.1697 341.803 79.6897 342.166 77.3985C342.351 76.4964 342.367 75.568 342.213 74.6602Z" fill="#CF6F64"/>
<path d="M325.671 71.1858C326.095 71.9193 326.664 72.5577 327.346 73.0609C328.027 73.5641 328.804 73.9214 329.63 74.1104C331.865 74.604 332.983 72.5457 332.368 70.478C331.819 68.6152 329.984 66.1097 327.711 66.5382C327.224 66.6384 326.769 66.8539 326.382 67.1665C325.996 67.4791 325.69 67.8797 325.49 68.3349C325.29 68.79 325.203 69.2863 325.234 69.7824C325.266 70.2784 325.416 70.7596 325.671 71.1858Z" fill="#CF6F64"/>
<path d="M329.369 54.7654C325.885 56.358 324.656 70.1986 329.034 72.2476C333.411 74.2967 335.963 51.7383 329.369 54.7654Z" fill="#263238"/>
<path d="M347.466 63.5296C346.628 70.4778 346.534 74.5666 342.809 78.1245C341.654 79.3052 340.196 80.1439 338.595 80.548C336.994 80.9521 335.312 80.9058 333.736 80.4144C332.159 79.9229 330.749 79.0054 329.662 77.7631C328.574 76.5207 327.85 75.002 327.571 73.3744C326.444 67.1341 328 56.8235 334.967 54.0573C336.43 53.4116 338.04 53.1693 339.629 53.3553C341.218 53.5413 342.729 54.1489 344.004 55.1152C345.279 56.0815 346.272 57.3713 346.881 58.8508C347.49 60.3303 347.692 61.9457 347.466 63.5296Z" fill="#E58A7B"/>
<path d="M336.019 58.3605C341.179 57.0472 344.97 56.1531 343.61 60.4468C341.812 66.1842 339.652 71.7353 342.548 71.9868C344.318 72.1451 352.142 68.8294 351.145 65.467C350.279 62.5425 353.939 61.7415 354.591 60.2605C357.003 54.8957 350.102 55.6036 351.331 52.3437C352.561 49.0838 345.743 43.8308 342.017 46.448C335.954 50.6765 325.55 50.6113 331.018 43.6538C334.939 38.6895 327.944 39.7047 327.944 39.7047C327.944 39.7047 332.172 42.2101 325.057 46.0847C317.531 50.2201 324.433 61.3317 336.019 58.3605Z" fill="#263238"/>
<path d="M350.204 71.1858C349.186 72.6598 347.655 73.7022 345.911 74.1104C343.61 74.604 342.725 72.5457 343.591 70.478C344.364 68.6152 346.488 66.1097 348.686 66.5382C350.884 66.9666 351.387 69.3603 350.204 71.1858Z" fill="#E58A7B"/>
<path d="M316.115 151.761C316.115 151.761 309.819 208.11 309.325 229.495C308.822 251.737 330.664 321.135 330.664 321.135L341.84 316.478C341.84 316.478 328.801 253.068 330.664 231.227C332.638 207.412 340.797 151.798 340.797 151.798L316.115 151.761Z" fill="#162248"/>
<path opacity="0.2" d="M331.763 167.231C326.742 177.644 330.123 198.238 332.843 210.439C333.877 201.823 335.106 192.472 336.271 183.82C336.159 170.519 335.125 160.246 331.763 167.231Z" fill="black"/>
<path d="M341.347 312.79C341.403 312.79 342.669 316.347 342.669 316.347L329.779 321.768L327.748 317.987L341.347 312.79Z" fill="#3855B3"/>
<path d="M329.425 151.761C329.425 151.761 334.24 205.353 337.425 225.425C340.928 247.415 354.656 320.65 354.656 320.65H367.5C367.5 320.65 359.807 249.194 358.354 227.418C356.771 203.798 353.622 151.761 353.622 151.761H329.425Z" fill="#162248"/>
<path d="M367.696 317.307C367.752 317.307 368.124 320.893 368.124 320.893H354.004L352.998 316.776L367.696 317.307Z" fill="#3855B3"/>
<path opacity="0.2" d="M362.778 313.059C362.749 313.059 362.721 313.049 362.698 313.031C362.676 313.012 362.661 312.985 362.657 312.957C362.582 312.305 355.644 247.759 354.34 228.2C352.924 206.983 350.074 159.919 350.046 159.444C350.045 159.429 350.047 159.413 350.052 159.399C350.057 159.384 350.065 159.371 350.075 159.359C350.086 159.348 350.098 159.339 350.113 159.333C350.127 159.326 350.142 159.323 350.158 159.323C350.188 159.323 350.218 159.335 350.24 159.355C350.263 159.376 350.276 159.405 350.279 159.435C350.279 159.91 353.157 206.936 354.573 228.191C355.876 247.75 362.815 312.249 362.881 312.947C362.883 312.963 362.883 312.979 362.879 312.994C362.875 313.009 362.868 313.023 362.858 313.035C362.849 313.048 362.836 313.058 362.823 313.065C362.809 313.072 362.794 313.077 362.778 313.078V313.059Z" fill="black"/>
<path d="M336.811 65.4669C336.811 66.0351 336.457 66.4914 336.084 66.4914C335.712 66.4914 335.442 66.0351 335.479 65.4669C335.516 64.8988 335.833 64.4424 336.205 64.4424C336.578 64.4424 336.848 64.9081 336.811 65.4669Z" fill="#263238"/>
<path d="M330.421 65.4669C330.421 66.0351 330.058 66.4914 329.695 66.4914C329.332 66.4914 329.052 66.0351 329.08 65.4669C329.108 64.8988 329.443 64.4424 329.816 64.4424C330.189 64.4424 330.459 64.9081 330.421 65.4669Z" fill="#263238"/>
<path d="M332.433 65.7554C331.656 67.4903 330.654 69.1155 329.453 70.5893C330.384 71.5207 332.126 71.0923 332.126 71.0923L332.433 65.7554Z" fill="#DF5753"/>
<path d="M332.601 73.4674C332.579 73.4675 332.558 73.4631 332.538 73.4545C332.518 73.446 332.5 73.4335 332.486 73.4178C332.471 73.4021 332.459 73.3835 332.452 73.3632C332.444 73.3429 332.441 73.3213 332.443 73.2998C332.445 73.2545 332.465 73.2118 332.498 73.1806C332.531 73.1494 332.574 73.1321 332.62 73.1321C333.332 73.137 334.036 72.9823 334.681 72.6793C335.326 72.3763 335.894 71.9327 336.345 71.3811C336.377 71.3529 336.419 71.3374 336.462 71.3374C336.504 71.3374 336.546 71.3529 336.578 71.3811C336.608 71.4123 336.625 71.4541 336.625 71.4975C336.625 71.5409 336.608 71.5827 336.578 71.6139C336.095 72.2002 335.488 72.6709 334.8 72.9917C334.111 73.3124 333.36 73.475 332.601 73.4674Z" fill="#263238"/>
<path d="M337.947 63.7529C337.902 63.7757 337.853 63.7877 337.803 63.7877C337.753 63.7877 337.703 63.7757 337.658 63.7529C337.31 63.5276 336.913 63.3875 336.501 63.3438C336.088 63.3001 335.671 63.3541 335.283 63.5014C335.246 63.5203 335.204 63.5314 335.162 63.5342C335.12 63.5369 335.078 63.5311 335.038 63.5172C334.998 63.5033 334.961 63.4816 334.93 63.4533C334.898 63.425 334.873 63.3906 334.855 63.3524C334.82 63.2695 334.819 63.1764 334.853 63.0929C334.886 63.0094 334.95 62.9421 335.032 62.9053C335.519 62.7064 336.047 62.628 336.57 62.6766C337.094 62.7253 337.598 62.8995 338.04 63.1847C338.076 63.209 338.106 63.2401 338.13 63.2763C338.154 63.3124 338.17 63.3529 338.178 63.3954C338.185 63.4378 338.185 63.4814 338.175 63.5236C338.166 63.5658 338.149 63.6057 338.124 63.6411C338.077 63.6945 338.016 63.7333 337.947 63.7529Z" fill="#263238"/>
<path d="M327.953 61.8906C327.904 61.8786 327.858 61.8527 327.823 61.8161C327.792 61.7857 327.767 61.7495 327.75 61.7095C327.734 61.6695 327.725 61.6266 327.725 61.5832C327.725 61.5398 327.734 61.4969 327.75 61.4569C327.767 61.4169 327.792 61.3807 327.823 61.3504C328.18 60.95 328.624 60.6374 329.122 60.4371C329.62 60.2368 330.157 60.1541 330.691 60.1954C330.734 60.202 330.775 60.2174 330.812 60.2405C330.849 60.2636 330.88 60.294 330.905 60.3298C330.929 60.3656 330.946 60.4061 330.954 60.4486C330.962 60.4912 330.962 60.535 330.952 60.5773C330.932 60.6635 330.882 60.7395 330.81 60.791C330.738 60.8424 330.649 60.8658 330.561 60.8567C330.138 60.8301 329.714 60.9001 329.322 61.0614C328.93 61.2228 328.58 61.4713 328.298 61.7881C328.255 61.8353 328.201 61.8698 328.14 61.8878C328.079 61.9059 328.014 61.9069 327.953 61.8906Z" fill="#263238"/>
<path d="M362.992 99.9564L353.306 97.3765C353.306 97.3765 343.806 120.764 340.443 122.282C335.879 124.368 324.321 131.596 319.403 135.014C319.133 136.178 319.347 139.261 319.962 140.109C328.344 138.581 344.392 132.406 347.745 129.267C355.392 122.105 362.992 99.9564 362.992 99.9564Z" fill="#E58A7B"/>
<path d="M356.23 330.551C355.758 330.589 355.287 330.46 354.899 330.188C354.779 330.08 354.689 329.942 354.638 329.788C354.588 329.635 354.578 329.471 354.61 329.312C354.616 329.213 354.648 329.118 354.704 329.036C354.76 328.954 354.837 328.889 354.926 328.847C355.709 328.446 357.898 329.834 358.149 329.992C358.177 330.009 358.198 330.035 358.21 330.065C358.222 330.095 358.223 330.129 358.214 330.16C358.206 330.192 358.19 330.222 358.167 330.247C358.144 330.271 358.116 330.289 358.084 330.3C357.477 330.449 356.855 330.533 356.23 330.551ZM355.299 329.098C355.228 329.082 355.155 329.082 355.085 329.098C355.049 329.116 355.019 329.144 355 329.179C354.98 329.214 354.971 329.254 354.973 329.294C354.948 329.402 354.952 329.515 354.985 329.621C355.018 329.728 355.078 329.823 355.159 329.899C355.523 330.225 356.435 330.262 357.637 330.03C356.921 329.558 356.116 329.241 355.271 329.098H355.299Z" fill="#3855B3"/>
<path d="M358.037 330.3C358.013 330.308 357.987 330.308 357.963 330.3C357.264 329.909 355.951 328.372 356.147 327.59C356.176 327.465 356.246 327.355 356.346 327.276C356.445 327.196 356.569 327.153 356.696 327.152C356.821 327.135 356.948 327.146 357.069 327.183C357.189 327.219 357.301 327.282 357.395 327.366C358.168 328.027 358.214 330.058 358.214 330.16C358.219 330.191 358.213 330.222 358.198 330.249C358.183 330.276 358.159 330.297 358.13 330.309C358.099 330.316 358.067 330.312 358.037 330.3ZM356.789 327.459H356.724C356.51 327.459 356.482 327.58 356.473 327.627C356.361 328.083 357.19 329.247 357.879 329.797C357.876 329.01 357.632 328.243 357.18 327.599C357.072 327.505 356.933 327.455 356.789 327.459Z" fill="#3855B3"/>
<path d="M331.502 329.387C330.932 329.586 330.311 329.586 329.741 329.387C329.612 329.317 329.502 329.215 329.423 329.092C329.343 328.968 329.296 328.826 329.285 328.679C329.273 328.587 329.285 328.493 329.319 328.407C329.354 328.321 329.409 328.245 329.481 328.186C330.226 327.515 333.271 328.186 333.616 328.316C333.649 328.324 333.678 328.344 333.698 328.371C333.718 328.398 333.729 328.431 333.728 328.465C333.729 328.5 333.72 328.534 333.702 328.564C333.684 328.594 333.657 328.618 333.625 328.633C332.94 328.942 332.229 329.195 331.502 329.387ZM329.984 328.279C329.877 328.3 329.778 328.348 329.695 328.418C329.665 328.441 329.643 328.471 329.629 328.505C329.616 328.54 329.613 328.578 329.62 328.614C329.626 328.712 329.657 328.806 329.709 328.889C329.761 328.972 329.833 329.041 329.918 329.089C330.412 329.35 331.558 329.145 333.039 328.521C332.041 328.269 331.008 328.187 329.984 328.279Z" fill="#3855B3"/>
<path d="M333.598 328.632H333.523C332.592 328.465 330.729 327.393 330.673 326.592C330.673 326.406 330.757 326.145 331.204 325.996C331.355 325.943 331.515 325.92 331.675 325.929C331.835 325.939 331.992 325.981 332.135 326.052C333.141 326.546 333.672 328.334 333.7 328.418C333.706 328.446 333.706 328.476 333.697 328.503C333.689 328.531 333.674 328.556 333.653 328.576C333.639 328.599 333.62 328.618 333.598 328.632ZM331.39 326.276H331.297C331.008 326.378 331.008 326.499 331.008 326.537C331.008 327.021 332.359 327.906 333.299 328.204C333.083 327.456 332.624 326.801 331.996 326.341C331.808 326.246 331.593 326.223 331.39 326.276Z" fill="#3855B3"/>
<path d="M320.195 134.465L310.48 138.936L309.353 141.73L312.939 144.142C312.939 144.142 319.645 143.416 321.555 139.103L320.195 134.465Z" fill="#E58A7B"/>
<path d="M320.605 140.267C320.387 138.401 319.771 136.603 318.798 134.996L320.334 133.841C321.49 135.693 322.228 137.775 322.495 139.941L320.605 140.267Z" fill="#263238"/>
<path d="M322.262 135.787C322.468 136.11 322.569 136.489 322.551 136.871C322.534 137.253 322.399 137.621 322.166 137.924C321.932 138.227 321.61 138.451 321.245 138.565C320.879 138.679 320.488 138.678 320.123 138.561C319.759 138.445 319.439 138.218 319.207 137.914C318.976 137.609 318.844 137.24 318.829 136.858C318.814 136.475 318.918 136.098 319.126 135.776C319.333 135.454 319.635 135.205 319.99 135.061C320.388 134.858 320.85 134.82 321.276 134.956C321.701 135.093 322.056 135.391 322.262 135.787Z" fill="#263238"/>
<path d="M303.914 142.549L305.209 143.853L313.926 140.128L310.48 138.936L303.914 142.549Z" fill="#E58A7B"/>
<path opacity="0.2" d="M341.347 312.79C341.403 312.79 342.669 316.347 342.669 316.347L329.779 321.768L327.748 317.987L341.347 312.79Z" fill="black"/>
<path opacity="0.2" d="M367.696 317.307C367.752 317.307 368.124 320.893 368.124 320.893H354.004L352.998 316.776L367.696 317.307Z" fill="black"/>
<path d="M365.516 97.2739C368.078 105.535 358.065 116.833 358.065 116.833L344.234 111.189C345.873 106.414 347.764 101.729 349.897 97.1528C354.144 87.9972 362.927 88.9379 365.516 97.2739Z" fill="#3855B3"/>
<path opacity="0.2" d="M365.516 97.2739C368.078 105.535 358.065 116.833 358.065 116.833L344.234 111.189C345.873 106.414 347.764 101.729 349.897 97.1528C354.144 87.9972 362.927 88.9379 365.516 97.2739Z" fill="black"/>
<path d="M228.08 14.5024H222.128V15.4618H228.08V14.5024Z" fill="#3855B3"/>
<path d="M305.123 52.4724L304.403 68.4575L305.361 68.5007L306.081 52.5156L305.123 52.4724Z" fill="#3855B3"/>
<path d="M303.271 18.8052H193.367L183.14 247.667H293.045L303.271 18.8052Z" fill="#3855B3"/>
<path opacity="0.56" d="M299.993 21.9536H190.088L179.862 250.816H289.766L299.993 21.9536Z" fill="#FAFAFA"/>
<path opacity="0.07" d="M296.714 25.0923H186.81L176.574 253.954H286.478L296.714 25.0923Z" fill="#3855B3"/>
<path d="M284.206 124.91H190.396L189.613 142.42H283.423L284.206 124.91Z" fill="white"/>
<path d="M241.986 112.131H190.964L190.619 119.964H241.641L241.986 112.131Z" fill="#3855B3"/>
<path d="M282.091 172.169H188.281L187.499 189.679H281.309L282.091 172.169Z" fill="white"/>
<path opacity="0.47" d="M264.889 213.327H201.805L200.865 234.311H263.948L264.889 213.327Z" fill="#3855B3"/>
<path d="M260.669 237.571H197.586C197.559 237.579 197.53 237.579 197.502 237.571C197.493 237.544 197.493 237.515 197.502 237.488L198.434 216.494C198.434 216.48 198.436 216.466 198.442 216.453C198.448 216.439 198.456 216.428 198.467 216.418C198.477 216.408 198.49 216.401 198.503 216.397C198.517 216.392 198.531 216.39 198.545 216.392H261.629C261.64 216.386 261.653 216.383 261.666 216.383C261.679 216.383 261.692 216.386 261.703 216.392C261.71 216.403 261.713 216.416 261.713 216.429C261.713 216.442 261.71 216.455 261.703 216.466L260.79 237.506C260.779 237.528 260.762 237.546 260.74 237.558C260.718 237.569 260.694 237.574 260.669 237.571ZM197.698 237.348H260.558L261.489 216.578H198.629L197.698 237.348Z" fill="white"/>
<path d="M230.967 159.39H188.85L188.505 167.232H230.613L230.967 159.39Z" fill="#3855B3"/>
<path d="M263.687 68.3467C263.446 73.4427 261.634 78.3393 258.499 82.3642C256.179 85.4044 253.192 87.8725 249.769 89.579C246.347 91.2856 242.578 92.1853 238.754 92.209C235.663 92.2326 232.6 91.6231 229.754 90.4182C226.908 89.2133 224.338 87.4384 222.204 85.2029C220.07 82.9674 218.416 80.3186 217.344 77.4196C216.272 74.5207 215.805 71.433 215.972 68.3467C216.299 61.9424 219.061 55.9052 223.692 51.4697C228.323 47.0342 234.474 44.5354 240.887 44.4844C243.98 44.4555 247.046 45.0613 249.895 46.2641C252.745 47.4669 255.318 49.2414 257.455 51.4777C259.591 53.7141 261.247 56.3649 262.319 59.2663C263.391 62.1678 263.857 65.2582 263.687 68.3467Z" fill="white"/>
<path d="M265.932 49.4758C265.871 50.8308 265.389 52.1332 264.553 53.2014C263.935 54.0089 263.14 54.6644 262.23 55.118C261.319 55.5716 260.317 55.8112 259.3 55.8186C258.315 55.8246 257.343 55.5892 256.469 55.133C255.596 54.6767 254.847 54.0136 254.289 53.2014C253.55 52.1039 253.185 50.7975 253.246 49.4758C253.336 47.7755 254.072 46.1735 255.302 44.9966C256.533 43.8197 258.166 43.1566 259.868 43.1423C260.69 43.1348 261.504 43.2956 262.261 43.6148C263.018 43.9339 263.701 44.4047 264.27 44.9981C264.838 45.5914 265.278 46.2948 265.564 47.0649C265.85 47.835 265.975 48.6555 265.932 49.4758Z" fill="#3855B3"/>
<path d="M200.501 133.665C200.457 134.415 200.129 135.121 199.584 135.64C199.04 136.158 198.319 136.451 197.567 136.459C197.204 136.463 196.844 136.393 196.509 136.253C196.175 136.113 195.872 135.905 195.621 135.643C195.369 135.381 195.174 135.071 195.048 134.73C194.921 134.39 194.866 134.027 194.885 133.665C194.925 132.913 195.252 132.205 195.797 131.685C196.342 131.166 197.066 130.874 197.819 130.871C198.181 130.868 198.541 130.939 198.875 131.08C199.209 131.22 199.511 131.428 199.762 131.69C200.013 131.951 200.209 132.261 200.336 132.601C200.463 132.941 200.519 133.303 200.501 133.665Z" fill="#263238"/>
<path d="M213.056 133.665C213.014 134.416 212.687 135.123 212.142 135.642C211.597 136.161 210.875 136.453 210.123 136.459C209.76 136.462 209.401 136.391 209.068 136.25C208.734 136.109 208.433 135.902 208.182 135.64C207.932 135.378 207.738 135.068 207.612 134.728C207.486 134.389 207.43 134.027 207.449 133.665C207.49 132.914 207.815 132.208 208.358 131.688C208.902 131.169 209.623 130.877 210.374 130.871C210.737 130.866 211.097 130.937 211.432 131.077C211.767 131.217 212.069 131.425 212.321 131.687C212.572 131.949 212.767 132.259 212.894 132.6C213.02 132.94 213.076 133.302 213.056 133.665Z" fill="#263238"/>
<path d="M225.621 133.665C225.578 134.416 225.251 135.123 224.707 135.642C224.162 136.161 223.44 136.453 222.687 136.459C222.324 136.462 221.965 136.391 221.631 136.25C221.297 136.109 220.995 135.902 220.744 135.64C220.492 135.379 220.297 135.069 220.17 134.729C220.043 134.389 219.987 134.027 220.005 133.665C220.047 132.914 220.374 132.207 220.919 131.688C221.464 131.169 222.186 130.877 222.939 130.871C223.302 130.866 223.662 130.937 223.996 131.077C224.331 131.217 224.634 131.425 224.885 131.687C225.136 131.949 225.332 132.259 225.458 132.6C225.585 132.94 225.64 133.302 225.621 133.665Z" fill="#263238"/>
<path d="M198.387 180.924C198.342 181.675 198.015 182.38 197.47 182.899C196.926 183.417 196.205 183.71 195.453 183.718C195.091 183.721 194.731 183.65 194.397 183.509C194.063 183.369 193.761 183.161 193.51 182.899C193.259 182.638 193.063 182.328 192.936 181.988C192.809 181.648 192.753 181.286 192.771 180.924C192.813 180.173 193.14 179.466 193.685 178.947C194.23 178.428 194.952 178.136 195.705 178.13C196.067 178.127 196.427 178.198 196.761 178.339C197.095 178.48 197.397 178.687 197.648 178.949C197.899 179.211 198.094 179.521 198.221 179.86C198.348 180.2 198.405 180.562 198.387 180.924Z" fill="#263238"/>
<path d="M210.942 180.924C210.9 181.674 210.574 182.379 210.031 182.898C209.488 183.417 208.768 183.71 208.018 183.718C207.655 183.723 207.295 183.652 206.96 183.512C206.625 183.372 206.322 183.164 206.071 182.902C205.82 182.64 205.625 182.33 205.498 181.99C205.371 181.649 205.316 181.287 205.335 180.924C205.378 180.173 205.705 179.466 206.25 178.947C206.795 178.428 207.517 178.136 208.269 178.13C208.631 178.127 208.99 178.198 209.324 178.339C209.658 178.48 209.959 178.688 210.209 178.949C210.46 179.211 210.654 179.521 210.78 179.861C210.906 180.201 210.961 180.562 210.942 180.924Z" fill="#263238"/>
<path d="M223.535 180.924C223.492 181.676 223.165 182.383 222.62 182.901C222.075 183.42 221.353 183.713 220.601 183.718C220.238 183.72 219.88 183.648 219.546 183.507C219.213 183.365 218.911 183.158 218.66 182.897C218.409 182.635 218.214 182.326 218.087 181.987C217.959 181.648 217.902 181.286 217.918 180.924C217.963 180.174 218.291 179.468 218.835 178.95C219.38 178.431 220.1 178.138 220.852 178.13C221.215 178.126 221.575 178.196 221.91 178.336C222.245 178.477 222.547 178.684 222.799 178.946C223.05 179.208 223.245 179.519 223.372 179.859C223.498 180.199 223.554 180.562 223.535 180.924Z" fill="#263238"/>
<path d="M236.071 180.924C236.026 181.675 235.699 182.38 235.154 182.899C234.61 183.417 233.889 183.71 233.137 183.718C232.775 183.72 232.416 183.648 232.083 183.507C231.749 183.365 231.448 183.158 231.197 182.896C230.946 182.635 230.751 182.326 230.623 181.987C230.496 181.647 230.438 181.286 230.455 180.924C230.5 180.174 230.827 179.468 231.372 178.949C231.916 178.431 232.637 178.138 233.389 178.13C233.751 178.127 234.111 178.198 234.445 178.339C234.779 178.48 235.081 178.687 235.332 178.949C235.583 179.211 235.778 179.521 235.905 179.86C236.033 180.2 236.089 180.562 236.071 180.924Z" fill="#263238"/>
<path d="M248.682 180.924C248.638 181.675 248.31 182.38 247.765 182.899C247.221 183.417 246.5 183.71 245.748 183.718C245.385 183.723 245.025 183.652 244.691 183.512C244.356 183.372 244.053 183.164 243.802 182.902C243.55 182.64 243.355 182.33 243.229 181.99C243.102 181.649 243.047 181.287 243.066 180.924C243.109 180.173 243.436 179.466 243.98 178.947C244.525 178.428 245.247 178.136 246 178.13C246.363 178.127 246.722 178.198 247.056 178.339C247.39 178.48 247.692 178.687 247.943 178.949C248.194 179.211 248.39 179.521 248.517 179.86C248.644 180.2 248.7 180.562 248.682 180.924Z" fill="#263238"/>
<path d="M246.776 67.1033C250.674 63.2911 250.881 57.1805 247.238 53.4549C243.595 49.7294 237.481 49.7997 233.583 53.612C229.684 57.4242 229.478 63.5348 233.121 67.2603C236.764 70.9859 242.878 70.9156 246.776 67.1033Z" fill="#3855B3"/>
<path d="M258.499 82.3642C256.179 85.4044 253.192 87.8725 249.769 89.5791C246.347 91.2857 242.578 92.1854 238.754 92.2091C235.045 92.2405 231.385 91.359 228.098 89.6421C224.81 87.9252 221.996 85.4258 219.902 82.3642C224.429 77.8563 231.591 74.9131 239.527 74.9131C247.462 74.9131 254.373 77.8563 258.499 82.3642Z" fill="#3855B3"/>
<path opacity="0.1" d="M246.776 67.1033C250.674 63.2911 250.881 57.1805 247.238 53.4549C243.595 49.7294 237.481 49.7997 233.583 53.612C229.684 57.4242 229.478 63.5348 233.121 67.2603C236.764 70.9859 242.878 70.9156 246.776 67.1033Z" fill="white"/>
<path opacity="0.1" d="M258.499 82.3642C256.179 85.4044 253.192 87.8725 249.769 89.5791C246.347 91.2857 242.578 92.1854 238.754 92.2091C235.045 92.2405 231.385 91.359 228.098 89.6421C224.81 87.9252 221.996 85.4258 219.902 82.3642C224.429 77.8563 231.591 74.9131 239.527 74.9131C247.462 74.9131 254.373 77.8563 258.499 82.3642Z" fill="white"/>
<path d="M121.463 146.639C120.578 148.576 119.647 150.709 118.837 152.777C118.026 154.844 117.197 156.977 116.48 159.101C115.016 163.286 113.901 167.585 113.146 171.954L112.941 173.323C112.921 173.558 112.943 173.794 113.006 174.022C113.226 174.794 113.572 175.524 114.031 176.182C115.227 177.888 116.614 179.45 118.166 180.839C119.802 182.361 121.518 183.794 123.307 185.133C125.096 186.512 126.977 187.853 128.83 189.119L127.089 192.389C122.663 190.46 118.462 188.052 114.561 185.208C112.481 183.69 110.602 181.912 108.973 179.917C108.007 178.73 107.254 177.384 106.747 175.94C106.452 175.038 106.301 174.095 106.3 173.146C106.3 172.923 106.3 172.597 106.3 172.438V171.982L106.393 171.05C106.927 166.198 107.947 161.411 109.439 156.763C110.165 154.472 110.938 152.19 111.823 149.964C112.708 147.738 113.621 145.558 114.748 143.295L121.463 146.639Z" fill="#E58A7B"/>
<path d="M127.517 188.542L134.102 185.208L132.398 192.435C132.398 192.435 127.88 193.702 125.785 191.504L127.517 188.542Z" fill="#E58A7B"/>
<path d="M140.128 186.39L138.377 192.37L132.398 192.435L134.102 185.208L140.128 186.39Z" fill="#E58A7B"/>
<path d="M149.423 111.768C149.776 113.058 150.266 114.307 150.886 115.493C150.705 115.699 150.471 115.851 150.211 115.935C149.95 116.018 149.672 116.03 149.405 115.968L149.423 111.768Z" fill="#DF5753"/>
<path d="M149.228 111.823C149.614 111.823 149.926 111.344 149.926 110.752C149.926 110.161 149.614 109.681 149.228 109.681C148.842 109.681 148.529 110.161 148.529 110.752C148.529 111.344 148.842 111.823 149.228 111.823Z" fill="#263238"/>
<path d="M149.023 109.718L150.439 109.318C150.439 109.318 149.749 110.417 149.023 109.718Z" fill="#263238"/>
<path d="M131.233 118.604C132.081 122.935 132.929 130.88 129.892 133.776C129.892 133.776 131.084 138.173 139.141 138.173C147.999 138.173 143.369 133.776 143.369 133.776C138.536 132.621 138.657 129.036 139.504 125.664L131.233 118.604Z" fill="#E58A7B"/>
<path d="M128.877 108.731C129.324 115.968 129.361 119.042 133.012 122.758C138.517 128.346 147.309 126.223 149.032 119.032C150.588 112.513 149.601 101.783 142.513 98.9048C140.957 98.2639 139.263 98.0305 137.592 98.2266C135.921 98.4228 134.327 99.042 132.962 100.026C131.597 101.01 130.505 102.325 129.79 103.849C129.076 105.372 128.761 107.052 128.877 108.731Z" fill="#E58A7B"/>
<path d="M129.594 100.591C125.962 101.913 121.118 100.926 123.019 112.131C125.03 123.997 121.938 127.899 121.938 127.899C121.938 127.899 135.713 130.833 149.777 127.722C149.777 127.722 145.484 120.215 146.685 114.683C148.222 107.697 147.011 105.117 147.011 105.117C147.011 105.117 134.698 98.7281 129.594 100.591Z" fill="#263238"/>
<path d="M144.962 112.503C144.966 113.879 145.36 115.226 146.098 116.387C147.086 117.896 148.25 117.318 148.539 115.716C148.8 114.31 148.604 111.823 147.347 110.854C146.089 109.886 144.981 110.836 144.962 112.503Z" fill="#E58A7B"/>
<path d="M126.437 101.811C125.394 98.877 130.367 94.3597 140.892 96.2225C151.417 98.0853 151.873 106.85 151.873 106.85L149.749 104.316L149.843 106.98L139.029 109.057L126.437 101.811Z" fill="#263238"/>
<path d="M127.331 134.27C127.269 133.844 127.375 133.412 127.627 133.064C127.88 132.716 128.258 132.48 128.681 132.407C131.96 131.867 139.411 130.768 143.155 131.289C145.949 131.68 146.676 133.301 146.797 134.633C146.816 134.866 146.785 135.101 146.706 135.321C146.626 135.541 146.501 135.742 146.338 135.909C146.174 136.077 145.977 136.208 145.759 136.293C145.541 136.378 145.308 136.415 145.074 136.403L128.886 135.676C128.505 135.657 128.141 135.506 127.858 135.25C127.575 134.994 127.388 134.647 127.331 134.27Z" fill="#3855B3"/>
<path opacity="0.6" d="M127.331 134.27C127.269 133.844 127.375 133.412 127.627 133.064C127.88 132.716 128.258 132.48 128.681 132.407C131.96 131.867 139.411 130.768 143.155 131.289C145.949 131.68 146.676 133.301 146.797 134.633C146.816 134.866 146.785 135.101 146.706 135.321C146.626 135.541 146.501 135.742 146.338 135.909C146.174 136.077 145.977 136.208 145.759 136.293C145.541 136.378 145.308 136.415 145.074 136.403L128.886 135.676C128.505 135.657 128.141 135.506 127.858 135.25C127.575 134.994 127.388 134.647 127.331 134.27Z" fill="black"/>
<path d="M136.691 296.984L142.699 301.157L152.749 287.531L146.741 283.367L136.691 296.984Z" fill="#E58A7B"/>
<path d="M122.683 296.714L129.026 300.328L137.921 285.919L131.578 282.306L122.683 296.714Z" fill="#E58A7B"/>
<path d="M152.739 287.531L147.561 294.553L141.553 290.39L146.732 283.367L152.739 287.531Z" fill="#CF6F64"/>
<path d="M131.569 282.306L137.921 285.929L133.338 293.352L126.986 289.729L131.569 282.306Z" fill="#CF6F64"/>
<path d="M141.758 179.759C141.758 179.759 165.211 209.312 160.805 237.58C157.257 260.409 136.673 291.322 136.673 291.322L126.996 286.516C133.817 272.848 139.638 258.703 144.413 244.193C145.885 239.688 146.315 234.908 145.669 230.213C145.024 225.517 143.32 221.03 140.687 217.09C128.802 199.738 109.765 210.067 122.571 179.759H141.758Z" fill="#3855B3"/>
<path opacity="0.6" d="M141.758 179.759C141.758 179.759 165.211 209.312 160.805 237.58C157.257 260.409 136.673 291.322 136.673 291.322L126.996 286.516C133.817 272.848 139.638 258.703 144.413 244.193C145.885 239.688 146.315 234.908 145.669 230.213C145.024 225.517 143.32 221.03 140.687 217.09C128.802 199.738 109.765 210.067 122.571 179.759H141.758Z" fill="black"/>
<path opacity="0.4" d="M153.261 198.741L149.852 195.351C149.852 195.621 156.456 236.388 158.309 247.844C159.403 244.498 160.24 241.073 160.814 237.599C162.994 223.731 158.439 209.564 153.261 198.741Z" fill="black"/>
<path d="M152.227 179.759C152.227 179.759 180.467 216.903 181.268 239.173C181.929 257.801 150.532 293.892 150.532 293.892L141.404 287.987C141.404 287.987 159.781 262.355 164.41 241.418C162.621 220.666 124.807 179.759 124.807 179.759H152.227Z" fill="#3855B3"/>
<path opacity="0.6" d="M152.227 179.759C152.227 179.759 180.467 216.903 181.268 239.173C181.929 257.801 150.532 293.892 150.532 293.892L141.404 287.987C141.404 287.987 159.781 262.355 164.41 241.418C162.621 220.666 124.807 179.759 124.807 179.759H152.227Z" fill="black"/>
<path d="M117.29 135.434C114.273 136.151 111.376 147.123 111.376 147.123L123.177 155.003C123.177 155.003 127.107 146.322 125.729 142.522C124.304 138.564 121.081 134.531 117.29 135.434Z" fill="#3855B3"/>
<path opacity="0.2" d="M119.6 142.504L118.781 152.069L123.168 155.013C124.379 152.286 125.276 149.429 125.841 146.5L119.6 142.504Z" fill="black"/>
<path d="M155.72 135.648C155.72 135.648 159.203 136.868 152.227 179.75H122.553C123.056 167.641 123.065 160.19 117.29 135.434C121.445 134.578 125.657 134.023 129.892 133.776C134.379 133.454 138.883 133.454 143.369 133.776C149.163 134.307 155.72 135.648 155.72 135.648Z" fill="#3855B3"/>
<path d="M158.737 142.504C159.408 144.366 160.116 146.369 160.861 148.297C161.606 150.225 162.314 152.209 163.068 154.165L165.35 160.014L165.928 161.476L166.226 162.202L166.366 162.566C166.366 162.631 166.366 162.631 166.366 162.622C166.195 162.382 165.972 162.184 165.714 162.044C165.345 161.827 164.93 161.703 164.503 161.681C164.148 161.67 163.795 161.737 163.469 161.877C163.04 162.072 163.04 162.156 163.05 162.147C163.127 162.085 163.196 162.013 163.255 161.932C163.77 161.255 164.216 160.528 164.587 159.762C165.024 158.905 165.443 157.993 165.863 157.071C166.682 155.208 167.437 153.28 168.191 151.333C168.946 149.387 169.663 147.421 170.361 145.437L172.485 139.495L176.071 140.427C175.363 144.674 174.45 148.809 173.351 153.019C172.82 155.115 172.196 157.192 171.488 159.287C171.134 160.34 170.743 161.383 170.296 162.454C169.83 163.616 169.256 164.733 168.582 165.788C168.335 166.144 168.061 166.48 167.763 166.794C167.287 167.308 166.71 167.717 166.068 167.996C165.498 168.24 164.88 168.355 164.261 168.331C163.566 168.305 162.89 168.103 162.295 167.744C161.594 167.306 161.011 166.702 160.6 165.984C160.461 165.742 160.339 165.5 160.256 165.323L160.079 164.969L159.725 164.242L159.017 162.799C158.085 160.861 157.154 158.905 156.344 156.94C155.533 154.975 154.677 152.982 153.876 150.979C153.075 148.977 152.357 146.974 151.677 144.813L158.737 142.504Z" fill="#E58A7B"/>
<path d="M155.72 135.649C159.287 136.496 163.301 147.04 163.301 147.04L152.693 156.065C152.693 156.065 145.828 144.571 147.216 140.781C148.66 136.832 151.063 134.54 155.72 135.649Z" fill="#3855B3"/>
<path d="M174.171 136.161L177.896 133.05L180.486 137.083L178.576 140.445C178.576 140.445 175.54 143.239 172.857 141.814C172.432 140.857 172.33 139.788 172.567 138.767C172.804 137.747 173.367 136.832 174.171 136.161Z" fill="#E58A7B"/>
<path d="M184.621 133.059L184.341 134.074L178.446 135.062L177.868 133.05L184.621 133.059Z" fill="#E58A7B"/>
<path d="M151.258 294.367L140.622 287.494L142.531 284.178L154.481 291.526L151.258 294.367Z" fill="#3855B3"/>
<path d="M133.189 299.844C132.256 299.73 131.359 299.412 130.563 298.913C130.53 298.901 130.501 298.88 130.481 298.851C130.461 298.823 130.45 298.789 130.45 298.754C130.45 298.719 130.461 298.685 130.481 298.657C130.501 298.629 130.53 298.607 130.563 298.596C130.852 298.503 133.357 297.73 134.083 298.326C134.165 298.394 134.227 298.482 134.263 298.582C134.299 298.682 134.308 298.79 134.288 298.894C134.275 299.062 134.22 299.223 134.127 299.363C134.034 299.504 133.907 299.618 133.757 299.695C133.583 299.79 133.388 299.841 133.189 299.844ZM131.094 298.819C132.258 299.416 133.189 299.63 133.636 299.406C133.734 299.352 133.816 299.274 133.874 299.18C133.933 299.085 133.967 298.977 133.972 298.866C133.972 298.717 133.972 298.652 133.888 298.615C133.497 298.298 132.1 298.54 131.075 298.819H131.094Z" fill="#263238"/>
<path d="M130.628 298.978C130.579 298.977 130.532 298.957 130.498 298.922C130.484 298.896 130.477 298.867 130.477 298.838C130.477 298.809 130.484 298.78 130.498 298.754C130.498 298.67 131.103 296.649 132.053 296.193C132.174 296.138 132.306 296.109 132.44 296.109C132.573 296.109 132.705 296.138 132.826 296.193C132.957 296.234 133.07 296.318 133.148 296.431C133.225 296.544 133.263 296.68 133.255 296.817C133.189 297.655 131.485 298.81 130.703 299.006L130.628 298.978ZM132.435 296.435C132.344 296.438 132.255 296.46 132.174 296.5C131.597 296.78 131.122 297.869 130.889 298.531C131.708 298.186 132.835 297.273 132.873 296.761C132.873 296.677 132.873 296.575 132.658 296.482C132.589 296.444 132.513 296.419 132.435 296.407V296.435Z" fill="#263238"/>
<path d="M146.48 303.868C145.428 303.868 143.966 302.517 143.165 301.688C143.144 301.66 143.133 301.626 143.133 301.591C143.133 301.556 143.144 301.521 143.165 301.493C143.183 301.463 143.209 301.438 143.24 301.422C143.271 301.406 143.306 301.398 143.342 301.4C143.714 301.4 146.946 301.884 147.402 302.797C147.451 302.879 147.476 302.972 147.476 303.067C147.476 303.162 147.451 303.255 147.402 303.337C147.334 303.479 147.231 303.602 147.102 303.693C146.973 303.784 146.823 303.841 146.667 303.859L146.48 303.868ZM143.779 301.819C144.953 302.955 145.987 303.588 146.573 303.514C146.676 303.501 146.774 303.462 146.859 303.402C146.943 303.342 147.011 303.262 147.058 303.169C147.079 303.137 147.09 303.1 147.09 303.062C147.09 303.024 147.079 302.987 147.058 302.955C146.816 302.452 145.093 302.024 143.779 301.819Z" fill="#263238"/>
<path d="M143.882 301.772C143.673 301.778 143.463 301.762 143.258 301.725C143.229 301.721 143.202 301.709 143.179 301.691C143.156 301.673 143.138 301.649 143.127 301.623C143.113 301.595 143.106 301.565 143.106 301.534C143.106 301.503 143.113 301.473 143.127 301.446C143.183 301.38 144.44 299.862 145.633 299.76C145.97 299.734 146.304 299.841 146.564 300.058C146.927 300.374 146.909 300.654 146.816 300.831C146.583 301.464 144.971 301.772 143.882 301.772ZM143.639 301.427C144.683 301.483 146.35 301.138 146.564 300.682C146.564 300.682 146.639 300.533 146.396 300.328C146.3 300.244 146.187 300.181 146.066 300.143C145.944 300.104 145.816 300.091 145.689 300.104C144.885 300.329 144.17 300.793 143.639 301.436V301.427Z" fill="#263238"/>
<path d="M130.879 297.972L122.981 295.736C122.845 295.695 122.698 295.705 122.57 295.766C122.441 295.826 122.338 295.931 122.283 296.062L119.619 302.051C119.556 302.204 119.527 302.369 119.533 302.535C119.538 302.7 119.579 302.863 119.652 303.012C119.725 303.16 119.829 303.292 119.956 303.398C120.084 303.503 120.232 303.581 120.392 303.625C123.186 304.352 124.527 304.557 128.001 305.553C130.144 306.149 133.199 307.258 136.151 308.096C139.104 308.934 140.091 306.056 138.945 305.441C133.767 302.703 133.357 300.784 131.941 298.735C131.688 298.364 131.312 298.094 130.879 297.972Z" fill="#3855B3"/>
<path d="M143.379 300.598L136.635 295.941C136.521 295.858 136.38 295.82 136.239 295.833C136.099 295.847 135.968 295.912 135.872 296.016L131.401 300.822C131.292 300.946 131.211 301.092 131.163 301.25C131.114 301.408 131.1 301.575 131.122 301.738C131.143 301.902 131.199 302.06 131.285 302.2C131.372 302.341 131.488 302.462 131.625 302.554C134 304.147 135.229 304.79 138.2 306.848C140.063 308.115 143.667 310.927 146.182 312.678C148.697 314.429 150.569 312.026 149.675 311.076C145.67 306.801 144.794 304.119 144.133 301.688C144.018 301.247 143.751 300.861 143.379 300.598Z" fill="#3855B3"/>
<path d="M137.912 291.936L125.757 285.891L127.014 282.594L139.998 288.965L137.912 291.936Z" fill="#3855B3"/>
<path d="M122.106 178.008L121.081 180.691C120.979 180.895 121.221 181.11 121.566 181.11H152.376C152.646 181.11 152.87 180.979 152.888 180.812L153.149 178.148C153.149 177.971 152.935 177.813 152.646 177.813H122.59C122.5 177.804 122.408 177.817 122.324 177.851C122.24 177.885 122.165 177.939 122.106 178.008Z" fill="#3855B3"/>
<path opacity="0.4" d="M122.106 178.008L121.081 180.691C120.979 180.895 121.221 181.11 121.566 181.11H152.376C152.646 181.11 152.87 180.979 152.888 180.812L153.149 178.148C153.149 177.971 152.935 177.813 152.646 177.813H122.59C122.5 177.804 122.408 177.817 122.324 177.851C122.24 177.885 122.165 177.939 122.106 178.008Z" fill="white"/>
<path d="M126.958 181.37H126.148C125.99 181.37 125.869 181.287 125.878 181.184L126.26 177.729C126.26 177.636 126.409 177.552 126.567 177.552H127.377C127.536 177.552 127.657 177.636 127.648 177.729L127.266 181.184C127.256 181.287 127.117 181.37 126.958 181.37Z" fill="#3855B3"/>
<path d="M145.959 181.37H145.158C144.999 181.37 144.878 181.287 144.888 181.184L145.26 177.729C145.26 177.636 145.419 177.552 145.577 177.552H146.378C146.536 177.552 146.667 177.636 146.648 177.729L146.275 181.184C146.229 181.287 146.126 181.37 145.959 181.37Z" fill="#3855B3"/>
<g style="mix-blend-mode:multiply">
<path d="M126.25 339.102C140.031 339.102 151.202 338.293 151.202 337.295C151.202 336.297 140.031 335.488 126.25 335.488C112.47 335.488 101.298 336.297 101.298 337.295C101.298 338.293 112.47 339.102 126.25 339.102Z" fill="#F5F5F5"/>
</g>
<path d="M141.451 334.743C137.036 333.458 132.137 331.809 129.175 330.086C129.091 330.03 128.998 330.003 128.914 329.956V309.968H137.846C138.524 309.928 139.161 309.63 139.627 309.136C140.093 308.642 140.353 307.988 140.353 307.309C140.353 306.63 140.093 305.976 139.627 305.482C139.161 304.988 138.524 304.69 137.846 304.65H128.961V213.541H123.596V304.65H114.72C114.357 304.629 113.994 304.681 113.653 304.805C113.312 304.929 113 305.122 112.735 305.371C112.471 305.62 112.261 305.92 112.117 306.253C111.973 306.587 111.899 306.946 111.899 307.309C111.899 307.672 111.973 308.031 112.117 308.365C112.261 308.698 112.471 308.999 112.735 309.248C113 309.497 113.312 309.689 113.653 309.813C113.994 309.937 114.357 309.99 114.72 309.968H123.596V329.928C123.512 329.928 123.428 330.003 123.345 330.058C120.336 331.809 115.474 333.458 111.059 334.715C110.761 334.806 110.505 335 110.338 335.262C110.17 335.525 110.102 335.839 110.146 336.147C110.19 336.456 110.343 336.738 110.577 336.944C110.811 337.149 111.111 337.264 111.423 337.267H141.088C141.385 337.247 141.667 337.125 141.886 336.922C142.105 336.719 142.247 336.448 142.29 336.152C142.332 335.857 142.272 335.556 142.119 335.299C141.967 335.043 141.731 334.847 141.451 334.743Z" fill="#E0E0E0"/>
<path d="M142.82 204.264H109.7C107.035 204.264 104.875 206.424 104.875 209.089V218.934C104.875 221.598 107.035 223.758 109.7 223.758H142.82C145.485 223.758 147.645 221.598 147.645 218.934V209.089C147.645 206.424 145.485 204.264 142.82 204.264Z" fill="#3855B3"/>
<path d="M109.392 223.768V225.463C109.392 226.86 110.91 227.996 112.773 227.996H139.784C141.646 227.996 143.165 226.86 143.165 225.463V223.768H109.392Z" fill="#3855B3"/>
<path opacity="0.3" d="M109.392 223.768V225.463C109.392 226.86 110.91 227.996 112.773 227.996H139.784C141.646 227.996 143.165 226.86 143.165 225.463V223.768H109.392Z" fill="white"/>
</svg>
