<svg width="100" height="87" viewBox="0 0 100 87" fill="none" xmlns="http://www.w3.org/2000/svg">
<path fill-rule="evenodd" clip-rule="evenodd" d="M96.6276 11.2178C97.2936 11.2183 97.9322 11.4817 98.403 11.9503C98.8738 12.4189 99.1383 13.0542 99.1383 13.7166C99.1383 14.379 98.8738 15.0144 98.403 15.4829C97.9322 15.9515 97.2936 16.215 96.6276 16.2155H93.9127C93.5826 16.2157 93.2557 16.1513 92.9506 16.0258C92.6456 15.9004 92.3684 15.7163 92.1349 15.4843C91.9014 15.2522 91.7161 14.9766 91.5898 14.6733C91.4634 14.37 91.3983 14.0449 91.3983 13.7166C91.3983 13.3883 91.4634 13.0632 91.5898 12.7599C91.7161 12.4566 91.9014 12.181 92.1349 11.949C92.3684 11.7169 92.6456 11.5329 92.9506 11.4074C93.2557 11.2819 93.5826 11.2175 93.9127 11.2178H96.6276Z" fill="url(#paint0_linear_2105:76692)"/>
<path fill-rule="evenodd" clip-rule="evenodd" d="M86.5247 11.2178C87.1908 11.2183 87.8294 11.4817 88.3001 11.9503C88.7709 12.4189 89.0354 13.0542 89.0354 13.7166C89.0354 14.379 88.7709 15.0144 88.3001 15.4829C87.8294 15.9515 87.1908 16.215 86.5247 16.2155H66.7192C66.3891 16.2157 66.0622 16.1513 65.7572 16.0258C65.4521 15.9004 65.1749 15.7163 64.9414 15.4843C64.7079 15.2522 64.5227 14.9766 64.3963 14.6733C64.2699 14.37 64.2048 14.0449 64.2048 13.7166C64.2048 13.3883 64.2699 13.0632 64.3963 12.7599C64.5227 12.4566 64.7079 12.181 64.9414 11.949C65.1749 11.7169 65.4521 11.5329 65.7572 11.4074C66.0622 11.2819 66.3891 11.2175 66.7192 11.2178H86.5247Z" fill="url(#paint1_linear_2105:76692)"/>
<path fill-rule="evenodd" clip-rule="evenodd" d="M96.6275 2.14356C97.2936 2.144 97.9322 2.40743 98.403 2.87601C98.8738 3.34459 99.1383 3.97999 99.1383 4.64244C99.1383 5.30489 98.8738 5.94021 98.403 6.4088C97.9322 6.87738 97.2936 7.14087 96.6275 7.14132H53.6341C53.304 7.14154 52.9771 7.07703 52.6721 6.95155C52.3671 6.82607 52.0899 6.64204 51.8564 6.40997C51.6229 6.17791 51.4377 5.90236 51.3113 5.59907C51.1849 5.29578 51.1199 4.97074 51.1199 4.64244C51.1199 4.31414 51.1849 3.98902 51.3113 3.68574C51.4377 3.38245 51.6229 3.1069 51.8564 2.87483C52.0899 2.64277 52.3671 2.45874 52.6721 2.33326C52.9771 2.20778 53.304 2.14333 53.6341 2.14356H96.6275Z" fill="url(#paint2_linear_2105:76692)"/>
<path fill-rule="evenodd" clip-rule="evenodd" d="M27.3446 0.000112754C28.6074 0.00693126 29.8876 0.306286 31.1446 0.958965L96.0624 37.1823C99.7403 39.2725 101.089 43.9874 99.0455 47.6585C92.1626 59.8039 85.1055 71.9951 79.4069 82.4614C77.3051 86.1194 72.5505 87.4412 68.8594 85.4089L3.9416 49.1146C0.239076 47.0667 -1.08236 42.376 0.958521 38.7093C7.3826 27.0417 14.2513 15.568 20.5973 3.87103C21.9826 1.40755 24.5667 -0.0145811 27.3446 0.000112754ZM24.7168 6.81861L5.36213 41.1242C4.63109 42.5473 5.25587 44.0264 6.39208 44.782C28.1087 56.7403 49.5961 69.1235 71.3453 81.0053C72.6317 81.7046 74.2896 81.2935 75.0387 80.011C81.4949 68.5147 88.0057 57.013 94.4998 45.5278L54.2636 56.7499C46.4005 58.9776 38.1819 54.348 35.9389 46.5931L24.7168 6.81861Z" fill="url(#paint3_linear_2105:76692)"/>
<defs>
<linearGradient id="paint0_linear_2105:76692" x1="101.216" y1="10.5236" x2="101.216" y2="16.2155" gradientUnits="userSpaceOnUse">
<stop stop-color="#00ADEF"/>
<stop offset="0.901042" stop-color="#2E3192"/>
</linearGradient>
<linearGradient id="paint1_linear_2105:76692" x1="95.701" y1="10.5236" x2="95.701" y2="16.2155" gradientUnits="userSpaceOnUse">
<stop stop-color="#00ADEF"/>
<stop offset="0.901042" stop-color="#2E3192"/>
</linearGradient>
<linearGradient id="paint2_linear_2105:76692" x1="112.029" y1="1.44942" x2="112.029" y2="7.14132" gradientUnits="userSpaceOnUse">
<stop stop-color="#00ADEF"/>
<stop offset="0.901042" stop-color="#2E3192"/>
</linearGradient>
<linearGradient id="paint3_linear_2105:76692" x1="126.844" y1="-11.9948" x2="126.844" y2="86.3629" gradientUnits="userSpaceOnUse">
<stop stop-color="#00ADEF"/>
<stop offset="0.901042" stop-color="#2E3192"/>
</linearGradient>
</defs>
</svg>
