<svg width="301" height="327" viewBox="0 0 301 327" fill="none" xmlns="http://www.w3.org/2000/svg">
<path d="M253.525 176.942L200.766 156.993C199.899 156.665 199.105 156.17 198.43 155.535C197.755 154.901 197.212 154.139 196.831 153.294C196.45 152.45 196.24 151.538 196.212 150.612C196.184 149.686 196.338 148.763 196.667 147.897L224.276 74.8768C224.938 73.1263 226.268 71.7103 227.974 70.9404C229.68 70.1704 231.622 70.1095 233.373 70.771L266.836 83.4222L282.635 119.91L262.621 172.865C261.954 174.61 260.621 176.02 258.916 176.784C257.21 177.548 255.272 177.605 253.525 176.942Z" fill="#F5F5F5"/>
<path d="M266.836 83.4219L259.059 103.973C258.754 104.779 258.61 105.638 258.637 106.5C258.663 107.362 258.859 108.21 259.214 108.996C259.568 109.782 260.074 110.491 260.702 111.081C261.33 111.672 262.069 112.133 262.875 112.438L282.635 119.91L266.836 83.4219Z" fill="#EBEBEB"/>
<path d="M258.646 105.881C258.646 105.881 256.506 110.77 261.547 114.586C261.738 114.728 261.936 114.859 262.142 114.977C264.551 116.428 280.393 125.859 280.539 125.474L282.628 119.947L262.868 112.475C262.868 112.475 258.007 110.407 258.646 105.881Z" fill="#E0E0E0"/>
<path d="M254.954 101.463C254.852 101.732 249.31 99.8748 242.571 97.3286C235.832 94.7824 230.449 92.4974 230.551 92.2507C230.652 92.0041 236.194 93.8394 242.933 96.3856C249.673 98.9317 255.055 101.181 254.954 101.463Z" fill="#E0E0E0"/>
<path d="M266.321 119.047C266.22 119.308 257.152 116.146 246.061 111.931C234.969 107.716 226.054 104.118 226.155 103.85C226.257 103.581 235.325 106.751 246.423 110.973C257.522 115.195 266.401 118.779 266.321 119.047Z" fill="#E0E0E0"/>
<path d="M266.27 130.117C266.168 130.378 256.288 126.889 244.195 122.311C232.103 117.734 222.382 113.817 222.484 113.556C222.586 113.295 232.466 116.784 244.558 121.361C256.651 125.938 266.4 129.848 266.27 130.117Z" fill="#E0E0E0"/>
<path d="M262.81 139.271C262.709 139.532 252.829 136.043 240.736 131.466C228.643 126.889 218.923 122.942 219.024 122.71C219.126 122.478 229.006 125.938 241.099 130.508C253.191 135.078 262.912 139.003 262.81 139.271Z" fill="#E0E0E0"/>
<path d="M259.349 148.426C259.248 148.688 249.36 145.198 237.275 140.621C225.19 136.044 215.462 132.126 215.556 131.865C215.651 131.604 225.538 135.093 237.638 139.663C249.738 144.234 259.444 148.158 259.349 148.426Z" fill="#E0E0E0"/>
<path d="M255.882 157.581C255.788 157.842 245.901 154.345 233.815 149.775C221.73 145.205 211.995 141.281 212.097 141.02C212.198 140.758 222.078 144.248 234.171 148.818C246.264 153.388 255.984 157.312 255.882 157.581Z" fill="#E0E0E0"/>
<path d="M77.6249 101.135L8.0721 125.492C5.66727 126.334 4.40048 128.966 5.24264 131.371L40.1394 231.021C40.9816 233.425 43.6138 234.692 46.0186 233.85L115.571 209.493C117.976 208.651 119.243 206.019 118.401 203.614L83.504 103.964C82.6619 101.559 80.0297 100.293 77.6249 101.135Z" fill="#EBEBEB"/>
<path d="M78.5168 107.329L11.2371 130.89L45.8246 229.656L113.104 206.095L78.5168 107.329Z" fill="#E0E0E0"/>
<path d="M77.3132 106.864L10.0334 130.425L43.9616 227.308L111.241 203.747L77.3132 106.864Z" fill="#FAFAFA"/>
<path d="M111.228 203.746L77.2135 106.896L77.3369 106.955L10.0697 130.523L10.135 130.392C22.8151 166.779 34.6175 200.387 44.0406 227.278L43.9318 227.227L111.235 203.746L43.9826 227.401H43.9028V227.322C34.4724 200.431 22.7063 166.823 9.95361 130.443V130.342H10.0479L77.3224 106.795H77.4167V106.882L111.228 203.746Z" fill="#E0E0E0"/>
<path d="M87.3701 212.102C87.3701 212.102 102.35 199.466 104.947 186.307C103.444 188.393 101.534 190.152 99.3319 191.48C97.1302 192.808 94.6824 193.676 92.1361 194.032C92.1361 194.032 91.8386 207.815 87.3701 212.102Z" fill="#E0E0E0"/>
<path d="M33.0249 152.013L29.4853 153.252C28.1921 153.705 27.5109 155.121 27.9638 156.414L29.2033 159.953C29.6562 161.246 31.0716 161.928 32.3648 161.475L35.9044 160.235C37.1975 159.782 37.8787 158.367 37.4259 157.074L36.1863 153.534C35.7335 152.241 34.318 151.56 33.0249 152.013Z" fill="#EBEBEB"/>
<path d="M32.5936 158.11C32.5689 158.123 32.5416 158.13 32.5138 158.13C32.4861 158.13 32.4587 158.123 32.434 158.11L30.8091 157.167C30.7697 157.137 30.7427 157.094 30.7331 157.045C30.7235 156.997 30.732 156.946 30.7569 156.904C30.7819 156.861 30.8216 156.829 30.8686 156.813C30.9156 156.798 30.9667 156.8 31.0122 156.819L32.463 157.646L34.175 154.019C34.2 153.971 34.2421 153.934 34.2931 153.915C34.3441 153.896 34.4003 153.897 34.4507 153.918C34.4752 153.929 34.4972 153.946 34.5153 153.966C34.5334 153.986 34.5473 154.01 34.5561 154.035C34.5649 154.061 34.5684 154.088 34.5665 154.115C34.5646 154.143 34.5573 154.169 34.545 154.193L32.7387 158.052C32.7201 158.072 32.6975 158.087 32.6724 158.097C32.6474 158.107 32.6205 158.112 32.5936 158.11Z" fill="white"/>
<path d="M79.0488 137.015C79.0488 137.073 70.3439 140.185 59.5426 143.965C48.7412 147.744 39.9565 150.762 39.9565 150.711C39.9565 150.66 48.6615 147.541 59.4701 143.762C70.2786 139.982 79.0343 136.965 79.0488 137.015Z" fill="#E0E0E0"/>
<path d="M58.5343 150.958C58.5343 150.958 58.3094 151.06 57.9032 151.219L56.1477 151.872C54.6969 152.409 52.6077 153.141 50.3444 153.939C48.0811 154.737 45.992 155.448 44.5411 155.949L42.7639 156.536C42.5487 156.615 42.3281 156.678 42.1038 156.725C42.3066 156.619 42.5177 156.529 42.7349 156.457L44.4904 155.811C45.9412 155.267 48.0303 154.534 50.2936 153.736C52.5569 152.938 54.6461 152.235 56.0969 151.727L57.8742 151.139C58.0886 151.06 58.3094 150.999 58.5343 150.958Z" fill="#E0E0E0"/>
<path d="M79.9706 139.685C79.9706 139.736 71.2657 142.848 60.4571 146.628C49.6485 150.407 40.8711 153.432 40.8711 153.374C40.8711 153.316 49.576 150.211 60.3919 146.432C71.2077 142.652 79.9706 139.627 79.9706 139.685Z" fill="#E0E0E0"/>
<path d="M38.0776 166.447L34.538 167.687C33.2448 168.14 32.5636 169.555 33.0165 170.848L34.2561 174.388C34.7089 175.681 36.1243 176.362 37.4175 175.909L40.9571 174.67C42.2503 174.217 42.9315 172.802 42.4786 171.508L41.2391 167.969C40.7862 166.676 39.3708 165.994 38.0776 166.447Z" fill="#EBEBEB"/>
<path d="M37.6506 172.546C37.6247 172.558 37.5961 172.565 37.5672 172.565C37.5383 172.565 37.5097 172.558 37.4838 172.546L35.8661 171.603C35.8427 171.59 35.8221 171.572 35.8056 171.551C35.7892 171.53 35.7772 171.506 35.7704 171.48C35.7636 171.455 35.7621 171.428 35.7661 171.401C35.7701 171.375 35.7795 171.35 35.7936 171.327C35.8063 171.304 35.8238 171.283 35.8448 171.266C35.8658 171.25 35.8899 171.238 35.9158 171.231C35.9416 171.224 35.9685 171.223 35.9949 171.227C36.0213 171.231 36.0466 171.24 36.0692 171.254L37.5201 172.081L39.232 168.418C39.2556 168.37 39.2964 168.333 39.3462 168.314C39.396 168.296 39.4511 168.296 39.5004 168.316C39.5494 168.339 39.5877 168.379 39.6067 168.43C39.6258 168.48 39.6241 168.536 39.602 168.585L37.7957 172.451C37.7796 172.476 37.7583 172.498 37.7333 172.514C37.7083 172.53 37.6801 172.541 37.6506 172.546Z" fill="white"/>
<path d="M84.1052 151.451C84.1052 151.509 75.4003 154.614 64.5917 158.4C53.7831 162.187 45.0056 165.197 45.0056 165.147C45.0056 165.096 53.7105 161.977 64.5191 158.197C75.3277 154.418 84.0907 151.4 84.1052 151.451Z" fill="#E0E0E0"/>
<path d="M63.5904 165.394C63.5904 165.394 63.3656 165.495 62.9521 165.655L61.2038 166.308C59.753 166.844 57.6638 167.577 55.4006 168.375C53.1373 169.173 51.0481 169.884 49.5973 170.384L47.82 170.972C47.6049 171.051 47.3843 171.114 47.1599 171.161C47.3619 171.053 47.5731 170.963 47.791 170.892L49.5465 170.247C50.9973 169.702 53.0865 168.97 55.3498 168.172C57.6131 167.374 59.7022 166.67 61.1531 166.162L62.9303 165.575C63.1447 165.496 63.3656 165.435 63.5904 165.394Z" fill="#E0E0E0"/>
<path d="M85.0488 154.135C85.0488 154.186 76.3439 157.298 65.5353 161.077C54.7267 164.857 45.9492 167.882 45.9492 167.824C45.9492 167.765 54.6541 164.661 65.4627 160.881C76.2713 157.102 85.0488 154.063 85.0488 154.135Z" fill="#E0E0E0"/>
<path d="M43.1389 180.881L39.5993 182.12C38.3061 182.573 37.6249 183.989 38.0778 185.282L39.3173 188.822C39.7702 190.115 41.1856 190.796 42.4788 190.343L46.0184 189.103C47.3115 188.651 47.9927 187.235 47.5399 185.942L46.3003 182.402C45.8475 181.109 44.432 180.428 43.1389 180.881Z" fill="#EBEBEB"/>
<path d="M42.7063 186.982C42.6803 186.995 42.6518 187.002 42.6229 187.002C42.5939 187.002 42.5654 186.995 42.5394 186.982L40.9145 186.054C40.8881 186.042 40.8643 186.025 40.8448 186.004C40.8253 185.983 40.8106 185.958 40.8015 185.931C40.7925 185.903 40.7894 185.874 40.7924 185.846C40.7954 185.817 40.8044 185.789 40.8189 185.764C40.8334 185.74 40.8531 185.718 40.8765 185.701C40.9 185.685 40.9267 185.673 40.955 185.668C40.9832 185.662 41.0123 185.662 41.0404 185.669C41.0684 185.675 41.0948 185.688 41.1176 185.705L42.5685 186.532L44.2804 182.869C44.2906 182.844 44.3058 182.82 44.3252 182.801C44.3445 182.782 44.3676 182.766 44.393 182.756C44.4185 182.746 44.4457 182.741 44.4731 182.741C44.5005 182.742 44.5276 182.748 44.5526 182.759C44.5776 182.77 44.6 182.787 44.6186 182.807C44.6371 182.827 44.6514 182.851 44.6606 182.877C44.6697 182.902 44.6735 182.93 44.6718 182.957C44.67 182.985 44.6627 183.011 44.6504 183.036L42.8441 186.902C42.8086 186.944 42.76 186.972 42.7063 186.982Z" fill="white"/>
<path d="M89.1616 165.886C89.1616 165.944 80.4567 169.049 69.6481 172.836C58.8395 176.622 50.062 179.633 50.062 179.575C50.062 179.517 58.7669 176.412 69.5828 172.633C80.3986 168.853 89.1398 165.836 89.1616 165.886Z" fill="#E0E0E0"/>
<path d="M68.6468 179.822C68.4409 179.927 68.2275 180.017 68.0084 180.091L66.2529 180.744C64.8021 181.28 62.7202 182.013 60.4496 182.811C58.1791 183.609 56.0972 184.313 54.6464 184.82L52.8691 185.408C52.6536 185.486 52.4331 185.549 52.209 185.597C52.411 185.488 52.6222 185.399 52.8401 185.328L54.5956 184.675C56.0464 184.138 58.1356 183.406 60.3988 182.608C62.6621 181.81 64.7513 181.106 66.2021 180.598L67.9721 180.011C68.1933 179.935 68.4185 179.872 68.6468 179.822Z" fill="#E0E0E0"/>
<path d="M90.1269 168.556C90.1269 168.607 81.422 171.719 70.6134 175.499C59.8048 179.278 51.0273 182.303 51.0273 182.245C51.0273 182.187 59.7323 179.082 70.5409 175.296C81.3494 171.509 90.0761 168.498 90.1269 168.556Z" fill="#E0E0E0"/>
<path d="M48.1916 195.315L44.652 196.555C43.3589 197.008 42.6777 198.423 43.1305 199.716L44.3701 203.256C44.8229 204.549 46.2384 205.23 47.5315 204.778L51.0711 203.538C52.3643 203.085 53.0455 201.67 52.5926 200.377L51.3531 196.837C50.9002 195.544 49.4848 194.863 48.1916 195.315Z" fill="#EBEBEB"/>
<path d="M47.7555 201.417C47.7303 201.428 47.7032 201.433 47.6757 201.433C47.6483 201.433 47.6212 201.428 47.5959 201.417L45.971 200.474C45.9248 200.446 45.8916 200.401 45.8787 200.348C45.8658 200.296 45.8742 200.241 45.9021 200.194C45.93 200.148 45.9751 200.115 46.0275 200.102C46.0799 200.089 46.1352 200.098 46.1814 200.126L47.6322 200.953L49.3442 197.326C49.3663 197.276 49.4071 197.238 49.4574 197.219C49.5077 197.2 49.5635 197.202 49.6126 197.224C49.6603 197.248 49.6974 197.288 49.7162 197.338C49.7351 197.388 49.7343 197.443 49.7141 197.492L47.9006 201.359C47.8615 201.396 47.8095 201.417 47.7555 201.417Z" fill="white"/>
<path d="M94.2177 180.323C94.2177 180.381 85.5128 183.485 74.7042 187.265C63.8956 191.044 55.1182 194.069 55.1182 194.011C55.1182 193.953 63.8231 190.848 74.6317 187.069C85.4403 183.289 94.196 180.25 94.2177 180.323Z" fill="#E0E0E0"/>
<path d="M73.6959 194.258C73.4939 194.366 73.2827 194.456 73.0648 194.526L71.3093 195.179C69.8585 195.716 67.7693 196.449 65.506 197.246C63.2428 198.044 61.1536 198.748 59.7028 199.256L57.9255 199.843C57.5048 199.974 57.2654 200.039 57.2654 200.032C57.4674 199.924 57.6786 199.834 57.8965 199.764L59.652 199.111C61.1028 198.574 63.192 197.841 65.4553 197.043C67.7185 196.245 69.8077 195.542 71.2585 195.034L73.0358 194.446C73.2513 194.369 73.4718 194.306 73.6959 194.258Z" fill="#E0E0E0"/>
<path d="M95.1528 182.992C95.1528 183.043 86.4479 186.155 75.6393 189.934C64.8307 193.714 56.0532 196.731 56.0532 196.681C56.0532 196.63 64.7581 193.518 75.5667 189.731C86.3753 185.944 95.131 182.934 95.1528 182.992Z" fill="#E0E0E0"/>
<path d="M17.6506 120.984L19.4206 126.062C19.9157 127.475 20.9517 128.635 22.301 129.285C23.6503 129.935 25.2026 130.023 26.6167 129.529L63.8302 116.472C64.5298 116.227 65.1744 115.848 65.7271 115.354C66.2797 114.86 66.7296 114.263 67.051 113.595C67.3724 112.927 67.559 112.203 67.6 111.463C67.6411 110.723 67.5359 109.982 67.2904 109.283L65.5204 104.205L17.6506 120.984Z" fill="#E0E0E0"/>
<path d="M42.0826 114.107C41.094 114.455 40.0245 114.502 39.0094 114.241C37.9943 113.981 37.0792 113.425 36.3801 112.645C35.681 111.864 35.2292 110.893 35.082 109.856C34.9348 108.818 35.0988 107.76 35.5532 106.816C36.0076 105.872 36.7319 105.083 37.6346 104.551C38.5372 104.018 39.5775 103.766 40.6238 103.825C41.6701 103.884 42.6754 104.252 43.5123 104.883C44.3492 105.514 44.9801 106.379 45.3252 107.368C45.7868 108.692 45.7047 110.145 45.0969 111.408C44.489 112.671 43.405 113.642 42.0826 114.107ZM39.2535 106.033C38.6438 106.246 38.1109 106.635 37.7223 107.151C37.3337 107.667 37.1068 108.286 37.0704 108.931C37.0339 109.576 37.1895 110.217 37.5175 110.773C37.8455 111.329 38.3311 111.776 38.9129 112.056C39.4948 112.337 40.1466 112.438 40.7861 112.348C41.4255 112.257 42.0238 111.979 42.5052 111.549C42.9867 111.118 43.3296 110.555 43.4907 109.929C43.6518 109.304 43.6237 108.645 43.4101 108.036C43.124 107.219 42.5255 106.55 41.7461 106.174C40.9667 105.799 40.0702 105.748 39.2535 106.033Z" fill="#E0E0E0"/>
<path d="M71.8247 127.295C71.8247 127.39 62.0462 130.922 49.9101 135.166C37.774 139.41 27.9084 142.783 27.8722 142.688C27.8359 142.594 37.6507 139.061 49.7868 134.818C61.9229 130.574 71.7884 127.172 71.8247 127.295Z" fill="#E0E0E0"/>
<path d="M59.2525 129.073C59.2525 129.167 54.9726 130.77 49.6118 132.649C44.251 134.528 39.8768 136 39.8406 135.87C39.8043 135.739 44.1277 134.172 49.4885 132.294C54.8493 130.415 59.2235 128.978 59.2525 129.073Z" fill="#E0E0E0"/>
<path d="M252.616 276.061C255.287 274.807 258.29 274.444 261.183 275.024C262.736 275.278 264.361 275.749 265.413 276.91C266.464 278.071 266.675 280.131 265.456 281.132C264.669 281.667 263.718 281.906 262.772 281.807C260.501 281.807 257.992 281.379 256.185 282.742C255.148 283.519 254.466 284.81 253.233 285.194C252.612 285.339 251.961 285.275 251.38 285.013C250.8 284.751 250.321 284.305 250.019 283.743C249.433 282.609 249.303 281.293 249.657 280.066C249.809 279.215 250.155 278.412 250.668 277.717C251.182 277.023 251.848 276.456 252.616 276.061Z" fill="#2E3192"/>
<path d="M246.611 264.541C248.207 266.812 251.304 266.065 252.74 264.672C254.177 263.279 254.779 261.27 255.33 259.355C256.592 254.966 257.869 250.367 256.933 245.898C256.7 244.556 256.106 243.302 255.214 242.271C254.759 241.76 254.178 241.377 253.529 241.161C252.88 240.944 252.185 240.902 251.515 241.038C249.948 241.452 248.983 242.982 248.279 244.433C246.21 248.734 245.128 253.443 245.109 258.216C245.109 260.436 245.363 262.757 246.611 264.592" fill="#2E3192"/>
<path d="M242.236 267.807C243.055 266.737 243.601 265.483 243.826 264.155C244.052 262.826 243.949 261.462 243.527 260.183C242.65 257.634 241.089 255.375 239.015 253.654C236.657 251.555 233.912 249.936 230.934 248.888C229.784 248.423 228.546 248.213 227.307 248.271C226.687 248.306 226.086 248.493 225.554 248.814C225.023 249.135 224.579 249.581 224.26 250.114C223.404 251.739 224.26 253.705 225.102 255.308C226.654 258.138 228.43 260.84 230.412 263.389C232 265.442 233.821 267.466 236.251 268.394C238.681 269.323 241.191 269.207 242.475 267.531" fill="#2E3192"/>
<path d="M246.508 298.861C246.588 298.523 246.634 298.178 246.646 297.831C246.726 297.106 246.813 296.134 246.922 295.01C247.061 293.619 247.274 292.236 247.56 290.867C247.929 289.202 248.431 287.57 249.062 285.985C249.681 284.403 250.521 282.915 251.557 281.568C252.401 280.469 253.479 279.572 254.713 278.942C255.548 278.527 256.444 278.248 257.368 278.115C257.715 278.102 258.06 278.054 258.398 277.97C258.048 277.932 257.696 277.932 257.346 277.97C256.389 278.047 255.454 278.292 254.582 278.695C253.283 279.306 252.143 280.21 251.253 281.336C250.175 282.705 249.304 284.225 248.67 285.848C248.026 287.454 247.526 289.115 247.176 290.809C246.909 292.195 246.725 293.595 246.624 295.002C246.53 296.199 246.501 297.178 246.487 297.839C246.454 298.179 246.461 298.523 246.508 298.861Z" fill="#263238"/>
<path d="M246.697 296.692C246.719 296.533 246.719 296.372 246.697 296.213V294.863C246.697 293.674 246.697 291.962 246.755 289.786C246.864 285.527 247.227 280.95 247.938 274.494C248.605 268.422 249.505 261.357 250.455 256.765C250.658 255.72 250.861 254.777 251.057 253.958C251.253 253.138 251.398 252.42 251.55 251.847C251.703 251.274 251.782 250.86 251.869 250.512C251.909 250.354 251.938 250.195 251.956 250.033C251.884 250.176 251.828 250.327 251.79 250.483C251.681 250.831 251.55 251.266 251.391 251.803C251.231 252.34 251.028 253.08 250.825 253.9C250.622 254.719 250.382 255.655 250.157 256.7C248.995 262.139 248.121 267.635 247.539 273.166C246.813 279.637 246.509 285.498 246.487 289.793C246.487 291.926 246.487 293.652 246.559 294.871C246.559 295.429 246.617 295.886 246.639 296.242C246.645 296.393 246.665 296.544 246.697 296.692Z" fill="#263238"/>
<path d="M246.727 285.332C246.767 284.849 246.767 284.364 246.727 283.881C246.645 282.581 246.497 281.286 246.284 280C245.973 278.091 245.552 276.202 245.022 274.342C244.408 272.052 243.618 269.814 242.657 267.647C241.016 263.651 238.664 259.987 235.715 256.831C235.201 256.291 234.654 255.785 234.076 255.315C233.829 255.097 233.604 254.887 233.35 254.72L232.719 254.285C232.339 253.993 231.934 253.736 231.508 253.516C232.901 254.604 234.221 255.781 235.461 257.041C238.321 260.219 240.613 263.866 242.237 267.821C243.177 269.975 243.972 272.19 244.616 274.451C245.162 276.293 245.61 278.162 245.958 280.051C246.255 281.669 246.429 282.953 246.531 283.896C246.561 284.379 246.627 284.859 246.727 285.332Z" fill="#263238"/>
<path d="M235.744 305.375L236.883 320.971H256.926L258.058 305.375H235.744Z" fill="#263238"/>
<path d="M260.459 299.224H233.815V305.375H260.459V299.224Z" fill="#263238"/>
<path d="M233.815 320.377V322.074H235.062H260.009V320.377H233.815Z" fill="#455A64"/>
<path d="M236.288 325.077L235.062 322.074H259.058L257.622 325.077H236.288Z" fill="#455A64"/>
<path d="M257.695 310.467C257.695 310.467 257.695 310.525 257.601 310.612L257.303 311.011L256.135 312.506L256.085 312.571L256.034 312.498L253.168 308.538H253.343L250.513 312.535L250.426 312.658L250.325 312.542L246.981 308.552H247.169L246.988 308.784L243.992 312.535L243.898 312.665L243.803 312.535C242.788 311.084 241.838 309.749 240.974 308.538H241.141L237.666 312.498L237.601 312.571L237.55 312.491C237.093 311.722 236.731 311.106 236.462 310.663L236.187 310.177C236.15 310.123 236.121 310.065 236.1 310.003C236.1 310.003 236.143 310.046 236.216 310.155L236.528 310.627L237.666 312.419H237.558L240.982 308.407L241.069 308.306L241.148 308.414L243.999 312.397H243.803L246.814 308.646L247.003 308.414L247.097 308.291L247.191 308.407L250.535 312.404H250.347L253.197 308.422L253.277 308.306L253.364 308.422C254.489 310.039 255.454 311.41 256.172 312.433H256.063L257.282 310.982L257.608 310.605L257.695 310.467Z" fill="#E0E0E0"/>
<path d="M258.341 305.267C258.341 305.339 253.321 305.397 247.126 305.397C240.931 305.397 235.911 305.339 235.911 305.267C235.911 305.194 240.931 305.144 247.126 305.144C253.321 305.144 258.341 305.202 258.341 305.267Z" fill="#455A64"/>
<path d="M259.356 322.249C259.356 322.314 253.893 322.372 247.169 322.372C240.444 322.372 234.982 322.314 234.982 322.249C234.982 322.183 240.437 322.118 247.169 322.118C253.901 322.118 259.356 322.176 259.356 322.249Z" fill="#263238"/>
<path d="M61.6886 272.485C61.6306 272.551 61.1736 272.275 60.6658 271.869C60.158 271.463 59.7881 271.078 59.8461 271.006C59.9041 270.933 60.3539 271.216 60.8617 271.622C61.3694 272.028 61.7394 272.413 61.6886 272.485Z" fill="#263238"/>
<path d="M75.6165 251.71C75.8141 249.775 75.6542 247.82 75.145 245.943C74.5357 244.093 73.1139 242.403 71.2133 242.004C69.0371 241.554 66.8173 242.925 65.5986 244.782C64.38 246.639 63.9665 248.888 63.6038 251.072C61.1288 266.159 60.2173 281.462 60.8835 296.736L69.7625 297.984C73.6289 282.047 74.8911 268.111 75.6165 251.71Z" fill="#455A64"/>
<path d="M69.9445 241.909L69.901 242.054L69.7559 242.453L69.1611 243.991C69.0378 244.325 68.8709 244.717 68.7404 245.101L68.3124 246.443L67.8118 247.988L67.3548 249.751C66.6094 252.662 66.0354 255.615 65.6356 258.594C65.1568 261.93 64.8449 265.63 64.591 269.518C64.1413 277.302 64.0687 284.367 63.8656 289.474C63.7713 292.035 63.6842 294.102 63.5899 295.524C63.5392 296.25 63.5029 296.765 63.4739 297.171C63.4739 297.338 63.4739 297.483 63.4739 297.592C63.4739 297.7 63.4739 297.737 63.4739 297.737C63.4739 297.737 63.4739 297.693 63.4739 297.592C63.4739 297.49 63.4739 297.338 63.4739 297.164C63.4739 296.765 63.4739 296.213 63.5247 295.517C63.5827 294.066 63.6335 292.028 63.6988 289.467C63.8438 284.389 63.8801 277.295 64.3371 269.504C64.5838 265.608 64.9102 261.901 65.4035 258.55C65.8195 255.581 66.4179 252.64 67.1952 249.744L67.674 247.981C67.8626 247.439 68.0367 246.924 68.1963 246.436L68.6606 245.094C68.7984 244.688 68.9725 244.325 69.1031 243.991L69.7559 242.482C69.8236 242.323 69.8817 242.192 69.93 242.091C69.9248 242.03 69.9297 241.968 69.9445 241.909Z" fill="#263238"/>
<path d="M70.7646 241.945C71.2274 242.492 71.5952 243.112 71.8528 243.781C72.5316 245.615 72.8063 247.575 72.658 249.526C72.4258 254.437 71.9833 261.198 71.403 268.669C70.8227 276.141 70.1626 282.887 69.6403 287.769C69.3719 290.207 69.147 292.18 68.9801 293.573C68.8931 294.233 68.8278 294.755 68.777 295.14L68.719 295.546C68.7224 295.592 68.7224 295.638 68.719 295.684C68.719 295.684 68.719 295.64 68.719 295.546C68.719 295.452 68.719 295.299 68.719 295.132C68.719 294.748 68.7988 294.226 68.8568 293.558C68.9946 292.165 69.1832 290.2 69.4154 287.755C69.8796 282.866 70.4962 276.148 71.0838 268.648C71.6714 261.147 72.1429 254.422 72.4331 249.526C72.591 247.598 72.3439 245.658 71.7077 243.831C71.4497 243.176 71.1341 242.545 70.7646 241.945Z" fill="#263238"/>
<path d="M76.9224 264.934C76.3397 264.892 75.7695 264.744 75.2394 264.499C74.6759 264.352 74.1429 264.107 73.6653 263.773C74.2486 263.811 74.8196 263.959 75.3482 264.209C75.9123 264.354 76.4456 264.599 76.9224 264.934Z" fill="#263238"/>
<path d="M77.9966 255.881C77.5155 256.265 76.9737 256.567 76.3934 256.773C75.8543 257.072 75.2678 257.275 74.6597 257.375C75.6768 256.687 76.806 256.182 77.9966 255.881Z" fill="#263238"/>
<path d="M77.438 248.489C76.5612 248.647 75.6587 248.585 74.812 248.308C75.2412 248.185 75.693 248.162 76.1323 248.242C76.5807 248.222 77.0277 248.307 77.438 248.489Z" fill="#263238"/>
<path d="M68.2683 243.758C68.1958 243.802 67.804 243.316 67.4051 242.678C67.1147 242.309 66.9091 241.88 66.803 241.423C66.8755 241.379 67.2672 241.858 67.6735 242.504C68.0797 243.149 68.3626 243.708 68.2683 243.758Z" fill="#263238"/>
<path d="M65.2435 248.228C64.8396 248.373 64.4064 248.418 63.9813 248.358C63.5538 248.399 63.1228 248.335 62.7263 248.17C63.1303 248.025 63.5634 247.98 63.9885 248.039C64.416 247.998 64.847 248.063 65.2435 248.228Z" fill="#263238"/>
<path d="M63.0673 257.143C62.603 257.124 62.149 257 61.7398 256.78C61.2919 256.653 60.8781 256.427 60.5283 256.12C60.9926 256.139 61.4466 256.263 61.8558 256.483C62.3037 256.61 62.7175 256.836 63.0673 257.143Z" fill="#263238"/>
<path d="M62.8358 264.68C62.8358 264.767 62.3498 264.949 61.7042 265.079C61.0586 265.21 60.529 265.261 60.5073 265.174C60.4855 265.087 61.0005 264.905 61.6389 264.775C62.0239 264.644 62.4352 264.612 62.8358 264.68Z" fill="#263238"/>
<path d="M61.8349 276.983C61.8349 277.07 61.3126 277.236 60.6307 277.36C60.2233 277.481 59.7925 277.501 59.3757 277.418C59.7416 277.2 60.1546 277.073 60.5799 277.048C60.9863 276.922 61.4176 276.9 61.8349 276.983Z" fill="#263238"/>
<path d="M61.1088 283.772C61.1523 283.845 60.7025 284.164 60.1077 284.498C59.5129 284.831 58.9978 285.005 58.9616 284.926C58.9253 284.846 59.3678 284.534 59.9626 284.2C60.5574 283.866 61.1088 283.692 61.1088 283.772Z" fill="#263238"/>
<path d="M66.6726 291.477C66.6001 291.52 66.2083 290.983 65.8021 290.272C65.5083 289.866 65.3054 289.401 65.2073 288.909C65.2798 288.865 65.6715 289.402 66.0778 290.113C66.3716 290.52 66.5745 290.985 66.6726 291.477Z" fill="#263238"/>
<path d="M68.2755 278.673C68.3335 278.731 67.8982 279.26 67.3034 279.848C66.7086 280.435 66.1718 280.856 66.1065 280.791C66.0412 280.726 66.4837 280.203 67.0785 279.616C67.6734 279.028 68.2102 278.607 68.2755 278.673Z" fill="#263238"/>
<path d="M67.92 271.948C67.8547 272.014 67.4557 271.68 67.0205 271.223C66.5852 270.766 66.295 270.324 66.3531 270.265C66.4111 270.207 66.8173 270.534 67.2526 270.991C67.6878 271.448 67.9853 271.89 67.92 271.948Z" fill="#263238"/>
<path d="M69.0231 263.367C69.0884 263.425 68.7257 263.94 68.2106 264.506C67.6956 265.071 67.2313 265.499 67.166 265.441C67.1008 265.383 67.4635 264.868 67.9713 264.295C68.479 263.722 68.9578 263.309 69.0231 263.367Z" fill="#263238"/>
<path d="M69.6392 257.143C69.5739 257.208 69.0734 256.809 68.5076 256.258C67.9418 255.707 67.5428 255.206 67.6008 255.141C67.6589 255.075 68.1666 255.474 68.7325 256.033C69.2983 256.592 69.6972 257.078 69.6392 257.143Z" fill="#263238"/>
<path d="M70.8586 248.714C70.7626 249.171 70.567 249.602 70.2856 249.976C69.9011 250.629 69.5239 251.122 69.4514 251.078C69.3788 251.035 69.6255 250.469 70.0172 249.816C70.4089 249.163 70.7789 248.67 70.8586 248.714Z" fill="#263238"/>
<path d="M73.1431 240.908C73.2229 240.952 72.998 241.517 72.6426 242.17C72.2871 242.823 71.9172 243.324 71.8591 243.287C71.9282 242.834 72.0993 242.403 72.3597 242.025C72.7151 241.365 73.0633 240.872 73.1431 240.908Z" fill="#263238"/>
<path d="M75.7403 244.456C75.7765 244.536 75.4211 244.782 74.9423 245.014C74.4635 245.246 74.05 245.363 74.0138 245.283C73.9775 245.203 74.333 244.956 74.8117 244.724C75.2905 244.492 75.704 244.376 75.7403 244.456Z" fill="#263238"/>
<path d="M75.7985 272.485C74.5935 272.397 73.4524 271.91 72.5559 271.1C73.1207 271.271 73.6674 271.497 74.1881 271.774C74.7478 271.956 75.2874 272.194 75.7985 272.485Z" fill="#263238"/>
<path d="M74.7392 278.419C74.7392 278.506 74.2242 278.68 73.5423 278.81C73.137 278.94 72.7058 278.968 72.2874 278.89C72.6502 278.668 73.0602 278.533 73.4843 278.498C74.1662 278.368 74.7247 278.331 74.7392 278.419Z" fill="#263238"/>
<path d="M73.4402 288.596C73.3894 288.669 72.7148 288.197 72.0909 287.414C71.6755 286.967 71.3831 286.419 71.2422 285.825C71.6476 286.256 72.0141 286.722 72.3376 287.218C72.7466 287.643 73.1158 288.104 73.4402 288.596Z" fill="#263238"/>
<path d="M59.158 293.254C59.0999 293.188 59.4626 292.782 59.9632 292.354C60.4637 291.926 60.9207 291.629 60.9787 291.701C61.0368 291.774 60.6741 292.166 60.1735 292.601C59.673 293.036 59.216 293.319 59.158 293.254Z" fill="#263238"/>
<path d="M55.0517 271.042C54.4713 269.235 53.3905 267.132 51.4971 267.103C50.933 267.133 50.3875 267.315 49.9178 267.629C49.4481 267.943 49.0715 268.377 48.8276 268.887C48.3065 269.894 48.0565 271.019 48.1022 272.151C48.336 280.191 49.7061 288.158 52.1718 295.814H59.1139C59.0299 287.398 57.6599 279.044 55.0517 271.042Z" fill="#455A64"/>
<path d="M42.5092 259.675C42.1658 257.983 41.2641 256.455 39.9486 255.337C38.6332 254.219 36.9803 253.575 35.2551 253.509C32.1866 254.046 30.997 257.063 30.6343 260.154C30.2715 263.244 31.2291 266.32 32.1794 269.286C35.2164 278.804 38.2583 288.324 41.305 297.846L49.9374 296.903C47.2389 284.15 45.672 272.326 42.5092 259.675Z" fill="#455A64"/>
<path d="M51.4976 267.103C51.2733 267.411 51.0766 267.739 50.91 268.082C50.5522 269.063 50.4401 270.116 50.5836 271.15C50.7142 272.471 50.8665 274.052 51.0914 275.793C51.3163 277.534 51.6282 279.42 52.0199 281.437C52.8034 285.426 53.6884 288.995 54.2469 291.592C54.5298 292.891 54.7474 293.95 54.878 294.683C54.9361 295.024 54.9868 295.299 55.0231 295.531C55.0594 295.763 55.0666 295.829 55.0231 295.829C54.9854 295.737 54.9563 295.643 54.9361 295.546L54.7329 294.712C54.5443 293.935 54.2977 292.898 54.0075 291.643C53.3909 289.046 52.4697 285.484 51.6862 281.487C51.2945 279.485 50.9608 277.57 50.7795 275.815C50.6634 274.944 50.5909 274.103 50.5183 273.327C50.4458 272.55 50.3732 271.818 50.337 271.15C50.213 270.086 50.3628 269.007 50.7722 268.017C50.9448 267.663 51.1924 267.351 51.4976 267.103Z" fill="#263238"/>
<path d="M35.4143 253.262C35.0297 253.7 34.6804 254.168 34.3697 254.662C33.5753 256.041 33.1249 257.591 33.0568 259.181C33.0207 261.539 33.3811 263.885 34.1231 266.123C34.8485 268.691 35.7118 271.513 36.5895 274.465C38.3087 280.385 39.8611 285.738 41 289.648L42.3057 294.262C42.4508 294.784 42.5596 295.198 42.6467 295.517C42.6941 295.66 42.7257 295.809 42.741 295.959C42.6744 295.824 42.621 295.684 42.5814 295.539C42.4871 295.219 42.3492 294.813 42.1897 294.291C41.8487 293.181 41.3699 291.621 40.7896 289.714L36.2848 274.552C35.4143 271.586 34.5946 268.749 33.8402 266.196C33.1012 263.926 32.7601 261.545 32.8319 259.159C32.9254 257.539 33.4242 255.967 34.2827 254.589C34.584 254.087 34.9664 253.639 35.4143 253.262Z" fill="#263238"/>
<path d="M48.0876 295.982C48.0145 295.848 47.9491 295.71 47.8917 295.568C47.7829 295.285 47.6015 294.886 47.4057 294.35C46.9922 293.29 46.4626 291.731 45.9549 289.772C45.4471 287.814 44.8667 285.42 44.3444 282.808C43.8222 280.197 43.2999 277.273 42.7195 274.227C42.1392 271.18 41.4573 268.315 40.6811 265.754C40.0077 263.477 39.1664 261.254 38.164 259.102C37.4825 257.654 36.7046 256.253 35.8354 254.909C35.538 254.43 35.2696 254.075 35.11 253.828C35.0191 253.705 34.939 253.574 34.8706 253.437C34.977 253.544 35.0741 253.661 35.1608 253.785C35.3421 254.031 35.625 254.365 35.937 254.844C36.8544 256.166 37.6669 257.558 38.3671 259.008C39.4076 261.154 40.2736 263.381 40.9568 265.667C41.7761 268.464 42.4492 271.302 42.9734 274.169C43.5465 277.208 44.0833 280.11 44.5766 282.758C45.0699 285.405 45.5922 287.748 46.1144 289.714C46.6367 291.68 47.1228 293.24 47.5 294.306C47.6741 294.85 47.8409 295.256 47.9352 295.539C48.0025 295.681 48.0536 295.829 48.0876 295.982Z" fill="#263238"/>
<path d="M32.368 267.864C32.368 267.944 31.9183 268.132 31.3162 268.277C30.7141 268.423 30.2136 268.473 30.1991 268.386C30.1846 268.299 30.6416 268.118 31.2437 267.973C31.8457 267.828 32.3463 267.777 32.368 267.864Z" fill="#263238"/>
<path d="M31.4541 261.974C30.9826 262.107 30.4924 262.161 30.0033 262.134C29.5207 262.202 29.0301 262.187 28.5525 262.09C29.0042 261.875 29.504 261.78 30.0033 261.814C30.4926 261.743 30.992 261.798 31.4541 261.974Z" fill="#263238"/>
<path d="M32.4258 256.591C32.3678 256.664 31.8962 256.359 31.3812 255.917C30.8662 255.474 30.4817 255.061 30.5397 254.995C30.5978 254.93 31.062 255.227 31.5843 255.67C32.1066 256.112 32.4838 256.526 32.4258 256.591Z" fill="#263238"/>
<path d="M35.0592 251.615C35.1462 251.615 35.1172 252.058 35.11 252.558C35.1027 253.059 35.11 253.487 35.0012 253.501C34.8923 253.516 34.7763 253.095 34.7908 252.551C34.8053 252.007 34.9939 251.593 35.0592 251.615Z" fill="#263238"/>
<path d="M40.4345 253.958C40.507 254.009 40.2966 254.437 39.9629 254.908C39.6292 255.38 39.3028 255.728 39.2375 255.677C39.1722 255.627 39.3754 255.206 39.7018 254.727C40.0282 254.248 40.3619 253.907 40.4345 253.958Z" fill="#263238"/>
<path d="M43.9238 260.045C43.9238 260.132 43.5103 260.386 42.93 260.625C42.3497 260.865 41.8419 260.988 41.8129 260.908C41.7839 260.828 42.2264 260.567 42.8067 260.335C43.387 260.103 43.8948 259.943 43.9238 260.045Z" fill="#263238"/>
<path d="M46.0424 266.261C45.6586 266.594 45.1834 266.804 44.6787 266.863C44.1951 267.019 43.6774 267.037 43.1843 266.914C43.6498 266.729 44.1376 266.607 44.6351 266.551C45.0907 266.397 45.5633 266.3 46.0424 266.261Z" fill="#263238"/>
<path d="M36.321 264.491C36.2412 264.491 36.321 264.034 36.4589 263.526C36.5967 263.018 36.8143 262.634 36.8941 262.663C36.9739 262.692 36.8941 263.12 36.7563 263.627C36.6185 264.135 36.4444 264.52 36.321 264.491Z" fill="#263238"/>
<path d="M37.6782 272.326C37.7076 271.868 37.8416 271.424 38.0699 271.027C38.3674 270.345 38.672 269.823 38.7518 269.859C38.7225 270.316 38.5885 270.761 38.3601 271.158C38.0627 271.84 37.758 272.376 37.6782 272.326Z" fill="#263238"/>
<path d="M34.3267 274.473C33.8992 274.462 33.4778 274.369 33.0862 274.197C32.4261 273.987 31.8893 273.798 31.911 273.711C32.3428 273.656 32.7815 273.718 33.1805 273.892C33.8551 274.103 34.3629 274.393 34.3267 274.473Z" fill="#263238"/>
<path d="M36.2569 280.856C36.3077 280.929 35.9378 281.277 35.4372 281.639C34.9367 282.002 34.4724 282.234 34.4217 282.169C34.3709 282.104 34.7408 281.741 35.2486 281.378C35.7564 281.016 36.2062 280.783 36.2569 280.856Z" fill="#263238"/>
<path d="M37.8084 287.225C37.8084 287.305 37.3732 287.494 36.7856 287.632C36.198 287.769 35.712 287.82 35.6902 287.74C35.6684 287.661 36.1254 287.472 36.713 287.327C37.3006 287.182 37.7866 287.138 37.8084 287.225Z" fill="#263238"/>
<path d="M46.2163 271.586C46.2599 271.658 45.8681 271.97 45.3023 272.181C44.7365 272.391 44.2287 272.42 44.2142 272.34C44.1997 272.26 44.6495 272.094 45.1863 271.883C45.7231 271.673 46.1728 271.506 46.2163 271.586Z" fill="#263238"/>
<path d="M47.4134 281.488C47.3771 281.568 46.9129 281.43 46.3761 281.176C45.8393 280.922 45.433 280.654 45.4693 280.574C45.5056 280.494 45.9771 280.639 46.5139 280.886C47.0507 281.132 47.4569 281.408 47.4134 281.488Z" fill="#263238"/>
<path d="M49.5384 288.582C49.0579 288.558 48.5881 288.432 48.1601 288.212C47.4347 287.929 46.8761 287.632 46.9051 287.545C47.3832 287.57 47.8506 287.696 48.2762 287.915C49.0016 288.198 49.5674 288.495 49.5384 288.582Z" fill="#263238"/>
<path d="M38.1498 294.138C38.1063 294.059 38.6721 293.681 39.325 293.166C39.9779 292.651 40.4856 292.187 40.5509 292.252C40.6162 292.318 40.2027 292.876 39.5208 293.413C39.1415 293.779 38.6662 294.031 38.1498 294.138Z" fill="#263238"/>
<path d="M43.7497 290.511C43.6627 290.511 43.5394 290.047 43.3218 289.495C43.1041 288.944 42.8865 288.502 42.9591 288.451C43.0316 288.4 43.3943 288.777 43.6192 289.379C43.844 289.981 43.8368 290.511 43.7497 290.511Z" fill="#263238"/>
<path d="M42.2485 282.003C42.1977 282.075 41.835 281.901 41.436 281.618C41.0371 281.335 40.7614 281.045 40.8122 280.973C40.863 280.9 41.2257 281.074 41.6246 281.357C42.0236 281.64 42.321 281.93 42.2485 282.003Z" fill="#263238"/>
<path d="M55.3055 268.64C55.3563 268.713 55.0008 269.061 54.5148 269.416C54.0288 269.772 53.5935 270.011 53.5428 269.939C53.492 269.866 53.8402 269.525 54.3262 269.163C54.8122 268.8 55.3055 268.568 55.3055 268.64Z" fill="#263238"/>
<path d="M57.3004 274.024C57.3004 274.111 56.7564 274.227 56.0745 274.154C55.3926 274.082 54.8776 273.85 54.8993 273.77C54.9211 273.69 55.4579 273.77 56.1108 273.835C56.7636 273.9 57.2932 273.937 57.3004 274.024Z" fill="#263238"/>
<path d="M48.8347 275.235C48.8347 275.315 48.3486 275.496 47.6813 275.539C47.0139 275.583 46.4916 275.474 46.4989 275.387C46.5061 275.3 47.0284 275.271 47.6668 275.228C48.3051 275.184 48.8202 275.148 48.8347 275.235Z" fill="#263238"/>
<path d="M49.5674 270.142C49.5674 270.229 49.0451 270.244 48.4793 269.976C47.9135 269.707 47.587 269.323 47.6451 269.25C47.7031 269.178 48.0948 269.453 48.6099 269.685C49.1249 269.917 49.5746 270.055 49.5674 270.142Z" fill="#263238"/>
<path d="M58.0259 279.805C57.9824 279.877 57.4529 279.631 56.8435 279.246C56.2342 278.862 55.7844 278.521 55.8352 278.419C55.886 278.318 56.4083 278.601 57.0176 278.978C57.627 279.355 58.0767 279.732 58.0259 279.805Z" fill="#263238"/>
<path d="M78.6784 294.907H33.5217V302.908H78.6784V294.907Z" fill="#2E3192"/>
<path d="M36.8943 301.327L42.3856 325.244H69.2983L75.3047 301.327H36.8943Z" fill="#2E3192"/>
<path d="M78.6566 302.923C78.6566 303.01 68.5009 303.083 55.9078 303.083C43.3147 303.083 33.1589 303.01 33.1589 302.923C33.1589 302.836 43.3147 302.764 55.9078 302.764C68.5009 302.764 78.6566 302.843 78.6566 302.923Z" fill="#263238"/>
<path d="M53.5431 275.409C53.4706 275.452 53.1587 275.097 52.854 274.604C52.5493 274.11 52.3607 273.675 52.4333 273.632C52.5058 273.588 52.8177 273.943 53.1224 274.437C53.4271 274.93 53.6157 275.358 53.5431 275.409Z" fill="#263238"/>
<path d="M53.5569 281.843C53.5352 281.426 53.6174 281.01 53.7963 280.632C54.0066 279.986 54.2533 279.486 54.3331 279.515C54.3554 279.935 54.2731 280.353 54.0937 280.734C53.8543 281.372 53.6439 281.872 53.5569 281.843Z" fill="#263238"/>
<path d="M55.7629 288.604C55.6831 288.648 55.3494 288.104 55.0375 287.4C54.7872 286.992 54.6288 286.534 54.5732 286.058C54.653 286.015 54.9867 286.559 55.2987 287.262C55.5489 287.671 55.7074 288.129 55.7629 288.604Z" fill="#263238"/>
<path d="M50.9964 294.044C50.9311 293.986 51.1995 293.572 51.5984 293.108C51.9974 292.644 52.3674 292.325 52.4399 292.383C52.5125 292.441 52.2368 292.862 51.8378 293.319C51.4389 293.776 51.0616 294.138 50.9964 294.044Z" fill="#263238"/>
<path d="M49.9953 284.172C49.9953 284.259 49.5456 284.252 49.0233 284.172C48.501 284.092 48.0948 283.94 48.1093 283.853C48.1238 283.766 48.559 283.773 49.0741 283.853C49.5891 283.932 50.0098 284.085 49.9953 284.172Z" fill="#263238"/>
<path d="M207.098 239.908H100.013V325.303H207.098V239.908Z" fill="#E0E0E0"/>
<g opacity="0.3">
<path opacity="0.3" d="M107.81 240.082C120.418 244.579 134.324 245.544 147.853 245.798C150.66 245.849 153.497 245.841 156.21 246.523C158.923 247.205 161.541 248.75 162.934 251.18C164.45 253.828 164.291 257.143 163.427 260.067C162.564 262.99 161.077 265.696 160.003 268.547C158.103 273.591 157.521 279.036 158.313 284.368C158.557 286.639 159.322 288.824 160.548 290.751C161.169 291.709 162.005 292.508 162.99 293.085C163.975 293.662 165.081 294.001 166.22 294.074C170.29 294.132 173.075 290.135 175.092 286.595C183.369 272.087 192.32 255.62 197.616 239.784L107.81 240.082Z" fill="black"/>
</g>
<path d="M136.501 324.846C136.392 324.846 136.312 305.92 136.312 282.577C136.312 259.233 136.392 240.3 136.501 240.3C136.609 240.3 136.689 259.226 136.689 282.577C136.689 305.928 136.602 324.846 136.501 324.846Z" fill="#455A64"/>
<path d="M180.38 176.797C180.061 174.664 173.692 167.628 173.692 167.628C173.692 167.628 170.515 154.853 169.557 151.088C169.239 150 168.772 148.96 168.172 147.998C165.92 144.246 162.717 141.156 158.887 139.039L150.073 134.085L147.969 129.399L126.802 118.518L121.064 128.673C121.064 128.673 107.129 133.098 105.286 136.239C103.443 139.38 106.2 181.795 106.2 181.795C106.2 181.795 100.397 206.256 99.1418 211.319C97.8868 216.383 99.5335 222.418 99.5335 222.418L109.914 209.397C113.142 205.349 120.222 203.485 125.307 203.557L168.767 203.753L167.018 191.581L202.179 198.385C202.179 198.385 208.222 186.59 208.708 186.358C209.194 186.126 180.38 176.797 180.38 176.797Z" fill="#2E3192"/>
<path d="M125.902 132.627C125.597 132.315 128.354 141.636 131.821 151.132C133.686 156.263 134.637 161.682 134.628 167.142V201.526L155.462 200.112L152.35 177.464C152.35 177.464 149.811 162.855 149.1 157.298C148.447 152.22 146.199 138.437 146.199 138.437C146.199 138.437 134.628 141.513 125.902 132.627Z" fill="white"/>
<path d="M172.14 185.328C172.107 185.153 172.107 184.974 172.14 184.799C172.187 184.325 172.28 183.856 172.415 183.399C172.856 181.873 173.674 180.483 174.795 179.358C175.921 178.237 177.31 177.414 178.835 176.964C179.292 176.829 179.761 176.737 180.235 176.689C180.408 176.656 180.585 176.656 180.757 176.689C180.757 176.754 180.032 176.834 178.915 177.218C177.465 177.716 176.148 178.539 175.066 179.624C173.983 180.709 173.163 182.028 172.669 183.479C172.285 184.603 172.205 185.328 172.14 185.328Z" fill="#263238"/>
<path d="M173.214 177.087C174.181 176.519 175.276 176.202 176.398 176.166C177.509 176.012 178.641 176.147 179.684 176.558C179.684 176.674 178.233 176.391 176.427 176.558C174.621 176.725 173.257 177.196 173.214 177.087Z" fill="#263238"/>
<g opacity="0.3">
<path opacity="0.3" d="M104.104 195.854L102.291 197.899C104.182 200.233 106.744 201.93 109.632 202.759C112.542 203.377 115.515 203.645 118.489 203.557C119.694 203.616 120.9 203.501 122.072 203.216C123.255 202.875 124.35 202.208 125.576 202.136C126.398 202.139 127.216 202.257 128.006 202.484C128.802 202.709 129.642 202.722 130.444 202.52C130.841 202.413 131.192 202.181 131.447 201.858C131.702 201.535 131.846 201.139 131.858 200.728C122.815 198.085 113.507 196.45 104.104 195.854Z" fill="black"/>
</g>
<path d="M163.587 198.48L158.509 193.054L147.955 190.406C147.955 190.406 138.321 193.308 138.089 193.308C137.857 193.308 129.703 191.074 129.703 191.074L126.853 201.534L141.542 202.542L158.314 201.868C158.314 201.868 159.191 201.055 158.669 200.497C158.147 199.938 161.476 201.44 161.868 201.454C162.26 201.469 163.014 201.773 163.536 201.15C163.892 200.685 164.371 199.314 163.587 198.48Z" fill="#FFBE9D"/>
<path d="M158.669 200.46C158.099 200.352 157.541 200.192 157.001 199.981C155.985 199.662 154.57 199.256 152.996 198.821C151.422 198.385 149.971 198.095 148.919 197.914C148.344 197.839 147.778 197.705 147.229 197.515C147.81 197.489 148.392 197.533 148.963 197.645C150.351 197.839 151.726 198.11 153.083 198.458C154.442 198.803 155.78 199.229 157.088 199.735C157.643 199.908 158.175 200.152 158.669 200.46Z" fill="#EB996E"/>
<path d="M163.587 198.48C162.796 198.28 162.017 198.037 161.252 197.754C159.801 197.275 157.82 196.681 155.593 196.064C153.366 195.447 151.393 194.744 149.892 194.657C149.083 194.615 148.272 194.647 147.469 194.751C147.665 194.643 147.879 194.57 148.1 194.533C148.693 194.405 149.3 194.357 149.906 194.388C151.459 194.388 153.533 195.048 155.709 195.701C157.886 196.354 159.931 196.956 161.353 197.508C162.078 197.776 162.623 198.023 163.014 198.197C163.218 198.262 163.411 198.358 163.587 198.48Z" fill="#EB996E"/>
<path d="M105.286 136.239C105.286 136.239 97.7057 141.513 95.8559 149.101C94.0061 156.689 86.0194 187.7 87.6588 192.335C89.2982 196.971 121.173 201.526 121.173 201.526L124.952 185.567L108.761 181.135C108.761 181.135 108.971 166.373 109.174 160.258C109.378 154.142 105.286 136.239 105.286 136.239Z" fill="#2E3192"/>
<path d="M124.749 187.969L129.964 189.253L126.823 201.28L121.702 200.46L124.749 187.969Z" fill="white"/>
<path d="M87.5422 190.696C87.5422 190.696 87.5422 190.964 87.622 191.421C87.7983 192.123 88.1857 192.753 88.7318 193.228C90.1174 194.519 92.7651 195.592 96.1165 196.194C97.6471 196.702 99.3953 197.101 101.26 197.522C103.124 197.943 105.141 198.371 107.259 198.799C111.502 199.669 116.196 200.583 121.172 201.512L120.955 201.65C121.31 200.199 121.68 198.61 122.079 197.021C122.971 193.394 123.842 189.825 124.661 186.467L124.792 186.684L110.436 182.615C108.454 181.78 106.309 181.403 104.161 181.512C102.529 181.603 100.925 181.981 99.4244 182.629C98.4704 183.042 97.5593 183.547 96.7041 184.138L96.044 184.617C95.9718 184.675 95.894 184.726 95.8118 184.769C95.8118 184.769 95.8771 184.697 96.0149 184.581C96.1528 184.465 96.3631 184.283 96.6533 184.066C97.4958 183.441 98.4029 182.908 99.3591 182.477C100.87 181.792 102.492 181.387 104.147 181.28C106.332 181.141 108.521 181.503 110.545 182.339L124.944 186.372L125.118 186.416L125.075 186.59C124.255 189.949 123.392 193.489 122.507 197.152C122.115 198.733 121.738 200.3 121.375 201.773L121.332 201.947H121.158C116.181 201.011 111.495 200.083 107.252 199.198C105.133 198.755 103.124 198.313 101.252 197.877C99.3808 197.442 97.6253 197.029 96.0875 196.499C92.6926 195.854 90.0448 194.736 88.6448 193.38C88.0896 192.881 87.7084 192.217 87.5567 191.487C87.5044 191.226 87.4995 190.958 87.5422 190.696Z" fill="#263238"/>
<path d="M109.646 182.216C109.603 182.267 109.059 181.766 108.086 181.12C105.541 179.416 102.532 178.537 99.4686 178.603C98.2935 178.603 97.5753 178.763 97.5608 178.698C98.1686 178.478 98.8079 178.358 99.4541 178.342C102.601 178.114 105.726 179.023 108.261 180.903C108.792 181.261 109.26 181.705 109.646 182.216Z" fill="#263238"/>
<path d="M111.772 156.246C111.798 156.57 111.798 156.895 111.772 157.218C111.772 157.849 111.707 158.749 111.62 159.866C111.438 162.093 111.112 165.161 110.524 168.527C110.065 171.407 109.393 174.249 108.515 177.029C108.341 177.559 108.152 178.037 108 178.48L107.535 179.524C107.399 179.822 107.232 180.104 107.035 180.366C107.126 180.055 107.247 179.754 107.398 179.466C107.521 179.155 107.652 178.799 107.804 178.407C107.956 178.016 108.101 177.508 108.261 176.957C109.054 174.166 109.686 171.332 110.154 168.469C110.735 165.118 111.104 162.064 111.351 159.844C111.46 158.792 111.554 157.915 111.627 157.218C111.636 156.889 111.685 156.563 111.772 156.246Z" fill="#263238"/>
<path d="M130.254 148.027C130.254 148.027 130.182 147.832 130.008 147.491C129.75 147.007 129.373 146.598 128.912 146.301C128.572 146.067 128.183 145.915 127.774 145.854C127.365 145.794 126.948 145.828 126.555 145.953C126.056 146.124 125.61 146.421 125.262 146.817C124.913 147.213 124.674 147.692 124.567 148.209L124.466 148.724L124.241 148.245C123.392 146.424 122.654 144.554 122.028 142.645C120.92 139.465 120.365 136.118 120.389 132.75C120.389 132.105 120.476 131.524 120.512 131.009C120.548 130.494 120.665 130.066 120.744 129.718C120.821 129.352 120.928 128.993 121.064 128.645C120.816 130 120.678 131.373 120.65 132.75C120.71 136.081 121.295 139.381 122.384 142.529C123.009 144.423 123.736 146.283 124.56 148.1L124.234 148.144C124.359 147.573 124.632 147.046 125.025 146.614C125.419 146.182 125.919 145.862 126.475 145.684C126.907 145.554 127.363 145.526 127.808 145.603C128.252 145.68 128.673 145.859 129.036 146.127C129.507 146.458 129.878 146.912 130.109 147.44C130.173 147.579 130.219 147.725 130.247 147.875C130.262 147.969 130.269 148.027 130.254 148.027Z" fill="#263238"/>
<path d="M147.94 149.66C147.863 149.377 147.807 149.088 147.773 148.797C147.615 147.997 147.563 147.18 147.621 146.367C147.784 145.116 148.407 143.97 149.369 143.153C149.964 142.664 150.71 142.395 151.48 142.391C151.9 142.387 152.316 142.473 152.699 142.645C153.082 142.816 153.424 143.069 153.7 143.385L153.381 143.574L152.692 141.84C151.335 138.424 150.131 135.312 149.275 133.07L148.281 130.393C148.143 130.074 148.038 129.741 147.969 129.399C148.148 129.699 148.298 130.015 148.419 130.342C148.709 131.068 149.079 131.917 149.529 132.976C150.45 135.203 151.705 138.286 153.047 141.681L153.729 143.422L154.171 144.539L153.446 143.603C153.206 143.325 152.909 143.103 152.574 142.953C152.24 142.802 151.876 142.727 151.509 142.732C150.819 142.728 150.148 142.961 149.609 143.393C148.702 144.151 148.097 145.208 147.904 146.374C147.826 147.169 147.84 147.969 147.947 148.761C147.982 149.06 147.979 149.362 147.94 149.66Z" fill="#263238"/>
<path d="M161.397 151.459C161.498 151.459 163.138 162.471 165.06 176.087C166.982 189.703 168.448 200.751 168.346 200.751C168.245 200.751 166.605 189.739 164.683 176.087C162.761 162.434 161.295 151.473 161.397 151.459Z" fill="#263238"/>
<g opacity="0.3">
<path opacity="0.3" d="M122.246 142.761C122.334 145.582 122.947 148.361 124.052 150.958C124.843 149.979 125.721 148.948 126.954 148.658C128.448 148.303 129.964 149.224 131.045 150.356C130.858 149.224 130.411 148.152 129.74 147.222C129.404 146.765 128.968 146.392 128.465 146.131C127.961 145.871 127.405 145.73 126.838 145.72C126.273 145.734 125.729 145.935 125.291 146.292C124.854 146.65 124.548 147.143 124.422 147.694L122.34 142.812" fill="black"/>
</g>
<path d="M109.994 150.733C109.929 150.733 109.951 149.971 109.733 148.789C109.435 147.248 108.836 145.782 107.97 144.473C107.483 143.764 106.927 143.106 106.309 142.507C105.798 142.023 105.242 141.588 104.648 141.209C103.625 140.563 102.907 140.316 102.936 140.251C103.114 140.264 103.289 140.308 103.451 140.382C103.654 140.436 103.851 140.512 104.039 140.606C104.29 140.714 104.532 140.84 104.764 140.984C105.395 141.34 105.986 141.763 106.527 142.246C107.178 142.852 107.759 143.528 108.261 144.262C109.16 145.61 109.745 147.142 109.973 148.746C110.045 149.226 110.069 149.712 110.045 150.196C110.045 150.545 110.023 150.733 109.994 150.733Z" fill="#263238"/>
<path d="M152.104 99.0041C151.69 95.1198 149.828 91.5338 146.89 88.9597C143.951 86.3856 140.152 85.0121 136.246 85.1126H135.441C126.773 85.838 122.551 93.6071 123.523 102.247L125.902 132.641L126.91 133.875C129.174 136.656 132.294 138.61 135.784 139.432C139.275 140.255 142.939 139.9 146.206 138.423L145.539 128.644C145.539 128.644 153.852 127.136 153.736 118.793C153.685 114.746 152.902 106.461 152.104 99.0041Z" fill="#FFBE9D"/>
<path d="M145.605 128.622C141.734 128.73 137.914 127.723 134.6 125.721C134.6 125.721 137.321 131.662 145.627 130.697L145.605 128.622Z" fill="#EB996E"/>
<path d="M149.464 105.866C149.472 106.176 149.361 106.477 149.153 106.707C148.945 106.937 148.656 107.077 148.347 107.099C148.196 107.114 148.043 107.099 147.898 107.055C147.753 107.01 147.618 106.937 147.501 106.84C147.384 106.743 147.288 106.623 147.218 106.488C147.147 106.354 147.105 106.206 147.092 106.055C147.082 105.745 147.193 105.443 147.401 105.212C147.61 104.982 147.899 104.842 148.209 104.822C148.36 104.806 148.513 104.82 148.659 104.864C148.805 104.909 148.94 104.982 149.057 105.079C149.174 105.176 149.27 105.296 149.34 105.431C149.41 105.567 149.452 105.715 149.464 105.866Z" fill="#263238"/>
<path d="M149.993 101.333C149.899 101.478 148.956 101.58 147.817 102.189C146.678 102.798 146.011 103.56 145.858 103.546C145.706 103.531 145.858 103.335 146.141 102.994C146.575 102.513 147.091 102.113 147.665 101.812C148.212 101.506 148.813 101.306 149.435 101.224C149.863 101.181 150.044 101.261 149.993 101.333Z" fill="#263238"/>
<path d="M137.422 106.498C137.436 106.809 137.326 107.114 137.117 107.344C136.908 107.575 136.616 107.714 136.305 107.731C136.153 107.747 136 107.733 135.855 107.689C135.709 107.644 135.574 107.571 135.457 107.474C135.34 107.377 135.243 107.257 135.173 107.122C135.104 106.986 135.061 106.839 135.05 106.687C135.04 106.376 135.15 106.074 135.359 105.844C135.567 105.614 135.857 105.474 136.167 105.454C136.318 105.438 136.471 105.452 136.617 105.496C136.763 105.54 136.898 105.613 137.015 105.711C137.132 105.808 137.228 105.928 137.298 106.063C137.368 106.199 137.41 106.346 137.422 106.498Z" fill="#263238"/>
<path d="M137.277 103.081C137.11 103.081 136.334 102.595 135.101 102.291C133.867 101.986 132.845 102.051 132.736 101.95C132.627 101.848 132.866 101.804 133.309 101.768C133.955 101.727 134.604 101.788 135.231 101.95C135.838 102.094 136.417 102.339 136.943 102.675C137.233 102.907 137.32 103.067 137.277 103.081Z" fill="#263238"/>
<path d="M142.268 113.041C142.94 112.816 143.637 112.673 144.343 112.613C144.669 112.613 144.974 112.497 145.025 112.272C145.045 111.936 144.962 111.601 144.785 111.314L143.748 108.841C142.297 105.33 141.267 102.435 141.412 102.384C141.557 102.334 142.863 105.127 144.263 108.637C144.611 109.508 144.945 110.335 145.257 111.126C145.471 111.515 145.543 111.966 145.46 112.402C145.415 112.519 145.344 112.625 145.252 112.71C145.16 112.795 145.05 112.859 144.931 112.896C144.752 112.952 144.566 112.983 144.379 112.99C143.681 113.097 142.971 113.114 142.268 113.041Z" fill="#263238"/>
<path d="M137.277 98.1338C137.131 98.4747 135.862 98.2498 134.375 98.3514C132.888 98.453 131.626 98.8157 131.473 98.4892C131.386 98.3369 131.618 98.0177 132.119 97.7058C132.792 97.3226 133.544 97.0985 134.318 97.0507C135.091 97.0029 135.865 97.1327 136.58 97.4301C137.059 97.684 137.32 97.9669 137.277 98.1338Z" fill="#263238"/>
<path d="M149.965 98.4162C149.682 98.7136 148.579 98.4162 147.259 98.4162C145.938 98.4162 144.814 98.6411 144.553 98.3364C144.437 98.1913 144.611 97.8939 145.097 97.611C145.767 97.2596 146.517 97.0872 147.273 97.1105C148.036 97.1052 148.786 97.3003 149.449 97.6763C149.928 97.9737 150.088 98.2784 149.965 98.4162Z" fill="#263238"/>
<path d="M154.535 91.5907C154.461 91.2099 154.251 90.8691 153.944 90.6326C153.637 90.3961 153.253 90.2802 152.866 90.3067C153.283 90.1878 153.673 89.9882 154.013 89.7191C154.182 89.5828 154.309 89.4016 154.379 89.1963C154.45 88.9909 154.461 88.7699 154.412 88.5585C154.194 87.9128 153.367 87.775 152.714 87.5937C151.857 87.3446 151.097 86.8381 150.538 86.1428C149.747 85.1418 149.442 83.836 148.753 82.7552C148.308 82.0574 147.712 81.4683 147.01 81.0313C146.307 80.5943 145.515 80.3205 144.692 80.23C143.869 80.1395 143.037 80.2347 142.256 80.5085C141.475 80.7823 140.765 81.2278 140.179 81.8121C139.539 81.1542 138.751 80.6585 137.881 80.3664C137.011 80.0742 136.083 79.9939 135.176 80.1323C134.269 80.2706 133.407 80.6236 132.664 81.1618C131.92 81.7 131.316 82.4079 130.901 83.2267C129.788 82.7626 128.571 82.6062 127.377 82.774C126.183 82.9417 125.056 83.4274 124.114 84.1801C123.173 84.9329 122.45 85.925 122.024 87.0526C121.597 88.1802 121.481 89.4019 121.688 90.5896L126.882 93.7741C126.924 93.3791 127.05 92.9976 127.25 92.6546C127.451 92.3117 127.722 92.0153 128.046 91.7849C128.369 91.5545 128.738 91.3954 129.128 91.3182C129.518 91.2409 129.919 91.2473 130.306 91.3368C131.873 91.7938 132.874 93.6073 134.499 93.7306C135.769 93.8249 136.849 92.8456 138.075 92.5192C139.562 92.1202 141.137 92.715 142.479 93.4695C143.821 94.2239 145.105 95.1669 146.599 95.5441C148.384 95.902 150.236 95.6809 151.887 94.913C152.62 94.6559 153.288 94.2425 153.846 93.7016C154.121 93.4302 154.326 93.0969 154.446 92.7297C154.566 92.3625 154.597 91.972 154.535 91.5907Z" fill="#263238"/>
<path d="M127.76 91.322L151.553 91.1914C150.695 89.5924 149.447 88.2352 147.926 87.2452C144.767 84.9364 140.958 83.6848 137.045 83.6689C133.164 83.6689 125.402 88.6525 122.668 91.4018C120.491 93.578 120.549 95.4568 120.549 95.4568C120.274 98.5471 122.095 101.986 122.871 105.01C123.262 106.563 124.082 111.264 124.082 111.264C125.388 111.227 125.845 110.168 125.613 108.877L125.228 103.799C126.512 102.728 127.412 101.267 127.79 99.6386C128.168 98.01 128.005 96.3023 127.325 94.775C126.998 94.3252 126.215 92.2288 127.76 91.322Z" fill="#263238"/>
<path d="M124.887 103.466C123.676 99.2586 122.559 94.7611 123.85 90.5537H123.124L122.834 90.7641C122.163 90.5387 121.438 90.5328 120.764 90.7474C120.09 90.962 119.501 91.3858 119.084 91.9574C118.667 92.5289 118.443 93.2186 118.444 93.9262C118.445 94.6338 118.672 95.3226 119.091 95.8927C118.384 95.8865 117.698 96.1389 117.164 96.6024C116.63 97.066 116.283 97.7087 116.189 98.4099C116.192 99.3869 116.46 100.345 116.966 101.181C117.472 102.02 117.782 102.962 117.872 103.938C117.903 104.423 117.761 104.904 117.472 105.296C117.182 105.687 116.764 105.964 116.291 106.077C116.52 106.572 116.913 106.973 117.403 107.212C117.893 107.451 118.451 107.514 118.982 107.39C118.643 108.217 118.078 108.932 117.35 109.451C118.902 110.51 121.028 110.176 122.711 109.327C123.755 108.907 124.607 108.117 125.105 107.108C125.569 105.94 125.221 104.656 124.887 103.466Z" fill="#263238"/>
<path d="M124.495 108.376C124.35 108.318 118.692 106.831 119.047 112.525C119.403 118.22 125.032 116.718 125.032 116.551C125.032 116.385 124.495 108.376 124.495 108.376Z" fill="#FFBE9D"/>
<path d="M123.668 114.485C123.668 114.485 123.574 114.558 123.407 114.645C123.182 114.756 122.922 114.777 122.682 114.703C122.065 114.514 121.506 113.593 121.419 112.563C121.375 112.07 121.442 111.575 121.615 111.112C121.662 110.929 121.752 110.76 121.878 110.619C122.005 110.479 122.163 110.372 122.341 110.307C122.453 110.272 122.574 110.276 122.684 110.32C122.794 110.363 122.885 110.443 122.943 110.546C123.03 110.698 122.994 110.814 123.03 110.829C123.066 110.843 123.146 110.72 123.088 110.488C123.041 110.352 122.955 110.234 122.841 110.147C122.761 110.091 122.67 110.052 122.574 110.032C122.478 110.012 122.379 110.012 122.283 110.031C122.052 110.092 121.84 110.21 121.667 110.375C121.495 110.54 121.367 110.746 121.296 110.974C121.087 111.484 121 112.035 121.042 112.584C121.151 113.731 121.768 114.761 122.638 114.964C122.793 114.998 122.953 114.997 123.107 114.962C123.261 114.927 123.406 114.858 123.53 114.761C123.668 114.623 123.69 114.492 123.668 114.485Z" fill="#EB996E"/>
<path d="M118.582 103.654C118.582 103.654 118.423 103.437 118.474 102.987C118.534 102.682 118.661 102.394 118.846 102.143C119.03 101.892 119.267 101.685 119.54 101.536C120.357 101.147 121.247 100.932 122.151 100.905C122.658 100.905 123.157 100.785 123.608 100.556C124.059 100.327 124.45 99.9938 124.748 99.5847C125.222 98.6622 125.38 97.6097 125.198 96.5888C125.06 95.6312 124.806 94.768 124.683 94.0208C124.453 93.2202 124.466 92.3696 124.719 91.5762C124.724 92.3765 124.814 93.1741 124.988 93.9555C125.147 94.6809 125.43 95.5297 125.604 96.538C125.823 97.6535 125.655 98.8105 125.126 99.8168C124.811 100.337 124.334 100.74 123.769 100.963C123.263 101.151 122.733 101.268 122.195 101.311C121.337 101.316 120.488 101.484 119.692 101.804C119.443 101.933 119.222 102.109 119.041 102.323C118.861 102.537 118.725 102.785 118.64 103.052C118.608 103.251 118.588 103.452 118.582 103.654Z" fill="#455A64"/>
<path d="M117.205 101.18C117.205 101.18 117.082 101.021 117.031 100.665C116.972 100.164 117.071 99.6568 117.314 99.2143C117.48 98.8999 117.71 98.6233 117.988 98.4018C118.314 98.1576 118.687 97.9846 119.084 97.894C119.469 97.8116 119.835 97.6591 120.165 97.4443C120.31 97.3139 120.425 97.1522 120.499 96.9712C120.573 96.7903 120.605 96.5949 120.593 96.3997C120.593 95.9717 120.542 95.5147 120.556 95.0577C120.562 94.6212 120.611 94.1863 120.701 93.7592C120.848 93.0376 121.126 92.3491 121.521 91.7281C121.647 91.5002 121.828 91.3072 122.047 91.1666C122.266 91.026 122.516 90.9422 122.776 90.9229C123.153 90.9229 123.313 91.0969 123.298 91.1115C123.284 91.126 123.11 91.0462 122.791 91.1115C122.573 91.158 122.368 91.2542 122.193 91.3926C122.018 91.531 121.878 91.7079 121.782 91.9094C121.455 92.5179 121.225 93.1738 121.1 93.8535C121.03 94.256 120.994 94.6636 120.992 95.0722C120.992 95.4929 121.057 95.9427 121.035 96.436C121.046 96.6942 120.997 96.9514 120.893 97.1878C120.788 97.4242 120.631 97.6336 120.433 97.7997C120.059 98.0504 119.636 98.2208 119.193 98.3003C118.862 98.3567 118.548 98.483 118.27 98.6706C117.992 98.8583 117.758 99.103 117.582 99.3884C117.284 99.936 117.153 100.559 117.205 101.18Z" fill="#455A64"/>
<path d="M150.545 86.1425C150.581 86.1425 150.117 86.4544 149.369 86.1062C148.949 85.8781 148.581 85.5642 148.289 85.185C147.929 84.7132 147.48 84.3164 146.968 84.0171C146.302 83.6426 145.542 83.4699 144.779 83.5202C144.017 83.5704 143.285 83.8413 142.674 84.3C141.949 84.8078 141.346 85.5259 140.498 86.1208C140.066 86.4409 139.572 86.6658 139.047 86.7809C138.504 86.876 137.945 86.8234 137.429 86.6285C136.399 86.2586 135.587 85.6275 134.702 85.3083C133.848 84.9804 132.94 84.8156 132.025 84.8223C130.449 84.8203 128.918 85.3436 127.672 86.3094C126.841 86.9591 126.15 87.771 125.641 88.6959C125.286 89.3561 125.155 89.7623 125.119 89.7478C125.083 89.7333 125.119 89.639 125.177 89.4431C125.259 89.1607 125.361 88.8844 125.482 88.6161C125.95 87.6283 126.631 86.7564 127.477 86.0627C128.75 85.0219 130.337 84.4417 131.981 84.416C132.95 84.3909 133.913 84.556 134.818 84.9021C135.775 85.2503 136.602 85.8814 137.538 86.2078C137.981 86.3785 138.463 86.4262 138.931 86.3456C139.385 86.2415 139.812 86.0439 140.186 85.7653C140.947 85.2212 141.586 84.5031 142.362 83.9663C143.08 83.4287 143.954 83.1408 144.85 83.1466C145.615 83.1522 146.365 83.3572 147.026 83.7414C147.556 84.0792 148.016 84.515 148.383 85.0254C148.637 85.3981 148.966 85.7142 149.348 85.9539C149.708 86.168 150.136 86.2356 150.545 86.1425Z" fill="#455A64"/>
<path d="M139.105 114.535C139.287 114.535 139.49 115.71 140.679 116.399C141.869 117.089 143.138 116.74 143.182 116.907C143.226 117.074 142.928 117.197 142.384 117.299C141.673 117.431 140.938 117.308 140.309 116.951C139.707 116.602 139.261 116.036 139.062 115.369C138.931 114.869 139.018 114.542 139.105 114.535Z" fill="#263238"/>
<path d="M214.171 227.88C211.962 225.983 209.096 225.029 206.191 225.225L201.287 240.8C204.878 240.96 208.462 242.809 211.929 241.859C213.314 241.432 214.548 240.618 215.485 239.512C216.422 238.407 217.023 237.056 217.217 235.62C217.368 234.181 217.17 232.725 216.64 231.378C216.11 230.031 215.263 228.831 214.171 227.88Z" fill="#2E3192"/>
<path d="M206.249 224.87C206.249 224.747 206.778 224.645 207.699 224.653C209.07 224.678 210.426 224.935 211.711 225.414C213.674 226.179 215.372 227.497 216.6 229.208C217.351 230.223 217.904 231.37 218.232 232.589C218.587 233.923 218.627 235.321 218.348 236.673C218.078 238.043 217.467 239.323 216.571 240.394C215.713 241.37 214.626 242.118 213.408 242.57C211.429 243.27 209.295 243.408 207.242 242.969C205.921 242.71 204.632 242.309 203.398 241.772C202.534 241.402 202.077 241.127 202.121 241.003C202.165 240.88 202.687 240.916 203.572 241.069C204.457 241.221 205.799 241.504 207.395 241.649C209.205 241.85 211.036 241.601 212.726 240.924C213.653 240.532 214.474 239.925 215.12 239.154C215.798 238.31 216.261 237.314 216.47 236.252C216.669 235.199 216.654 234.117 216.426 233.07C216.198 232.023 215.761 231.033 215.142 230.159C214.142 228.645 212.768 227.415 211.152 226.59C210.007 226.049 208.809 225.631 207.576 225.342C206.742 225.153 206.234 225.001 206.249 224.87Z" fill="#F5F5F5"/>
<path d="M160.816 283.302L150.153 313.181L187.258 326.638C188.331 323.011 171.712 308.938 171.712 308.938L179.329 290.077L160.816 283.302Z" fill="#2E3192"/>
<g opacity="0.6">
<path opacity="0.6" d="M160.824 303.17C160.427 303.149 160.037 303.275 159.728 303.524C159.418 303.773 159.212 304.128 159.148 304.52C159.113 304.914 159.23 305.307 159.475 305.617C159.721 305.928 160.076 306.132 160.468 306.188C160.891 306.211 161.307 306.074 161.635 305.806C161.962 305.537 162.177 305.156 162.238 304.737C162.238 303.947 161.455 303.04 160.671 303.149" fill="white"/>
</g>
<path d="M150.153 313.181L151.234 310.171L186.474 324.229C186.474 324.229 187.867 325.542 187.258 326.638L150.153 313.181Z" fill="white"/>
<path d="M172.387 308.967C172.314 309.148 171.378 308.901 170.276 309.162C169.173 309.424 168.419 310.011 168.281 309.888C168.143 309.765 168.788 308.807 170.131 308.517C171.473 308.227 172.481 308.814 172.387 308.967Z" fill="#263238"/>
<path d="M175.724 311.991C175.724 312.18 174.802 312.202 173.91 312.717C173.018 313.232 172.546 314.008 172.365 313.936C172.184 313.863 172.445 312.797 173.569 312.137C174.694 311.476 175.724 311.817 175.724 311.991Z" fill="#263238"/>
<path d="M176.21 317.447C176.036 317.447 176.108 316.431 176.935 315.604C177.762 314.778 178.749 314.698 178.77 314.879C178.792 315.06 178.081 315.394 177.414 316.083C176.746 316.772 176.398 317.498 176.21 317.447Z" fill="#263238"/>
<path d="M173.642 304.476C173.504 304.614 172.764 304.063 171.72 303.751C170.675 303.439 169.754 303.482 169.718 303.294C169.681 303.105 170.675 302.735 171.894 303.112C173.112 303.49 173.787 304.367 173.642 304.476Z" fill="#263238"/>
<path d="M174.353 299.755C173.686 299.696 173.048 299.461 172.503 299.073C171.874 298.713 171.294 298.274 170.776 297.767C170.467 297.471 170.178 297.153 169.913 296.817C169.746 296.626 169.609 296.411 169.507 296.178C169.434 296.006 169.421 295.815 169.47 295.635C169.518 295.455 169.626 295.296 169.775 295.184C169.912 295.091 170.068 295.031 170.231 295.008C170.395 294.985 170.562 295.001 170.718 295.054C170.954 295.138 171.176 295.256 171.378 295.402C171.741 295.644 172.081 295.919 172.394 296.222C172.918 296.73 173.359 297.317 173.7 297.963C174.072 298.528 174.262 299.194 174.244 299.871C174.142 299.871 173.925 299.182 173.294 298.202C172.919 297.639 172.475 297.125 171.973 296.672C171.676 296.405 171.358 296.163 171.023 295.946C170.668 295.7 170.334 295.576 170.174 295.714C170.015 295.852 170.094 295.794 170.138 295.939C170.213 296.11 170.314 296.269 170.435 296.41C170.673 296.732 170.933 297.038 171.212 297.324C171.682 297.82 172.2 298.27 172.757 298.666C173.714 299.356 174.396 299.66 174.353 299.755Z" fill="#263238"/>
<path d="M174.026 299.943C173.868 299.285 173.924 298.594 174.185 297.969C174.405 297.27 174.741 296.613 175.179 296.025C175.442 295.68 175.736 295.36 176.057 295.068C176.248 294.86 176.489 294.705 176.756 294.616C177.024 294.527 177.31 294.508 177.587 294.56C177.751 294.625 177.893 294.735 177.997 294.878C178.101 295.02 178.163 295.189 178.175 295.365C178.188 295.609 178.169 295.853 178.117 296.091C178.003 296.68 177.772 297.24 177.438 297.738C177.104 298.236 176.674 298.663 176.173 298.992C175.099 299.718 174.265 299.631 174.272 299.565C174.28 299.5 174.998 299.333 175.897 298.608C176.409 298.191 176.825 297.669 177.116 297.077C177.285 296.733 177.405 296.367 177.471 295.989C177.558 295.576 177.522 295.198 177.363 295.191C177.199 295.185 177.036 295.215 176.886 295.279C176.735 295.343 176.601 295.439 176.492 295.561C176.191 295.816 175.914 296.097 175.665 296.403C175.24 296.922 174.893 297.502 174.635 298.122C174.185 299.217 174.134 299.943 174.026 299.943Z" fill="#263238"/>
<path d="M124.873 203.507C119.244 203.637 113.905 204.428 110.024 208.512C104.881 213.931 98.526 221.642 98.1633 226.988C97.6265 234.968 102.45 237.361 105.969 239.32C107.525 240.162 109.279 240.57 111.047 240.503L176.101 240.009L178.14 228.99L136.066 218.617L137.814 202.781L124.873 203.507Z" fill="#263238"/>
<path d="M137.85 202.774L158.314 201.831C158.314 201.831 193.67 203.797 201.207 210.71C208.744 217.623 207.808 225.479 205.291 233.016C202.774 240.553 180.627 288.786 180.627 288.786C180.627 288.786 182.426 291.854 181.418 294.916C181.01 296.256 180.26 297.468 179.243 298.432C178.226 299.396 176.975 300.079 175.615 300.414L155.942 293.16C155.942 293.16 153.272 292.217 155.158 289.7C157.044 287.183 158.299 286.718 158.299 286.718V281.691C158.299 281.691 165.212 269.12 165.836 267.394C166.46 265.667 173.09 240.089 173.09 240.089L177.493 232.523C177.493 232.523 166.852 227.518 157.624 223.891L136.08 218.581L137.85 202.774Z" fill="#263238"/>
<path d="M171.045 292.275C170.45 291.929 169.874 291.551 169.319 291.144C166.539 289.343 163.409 288.154 160.135 287.654C159.448 287.588 158.766 287.486 158.089 287.35C158.779 287.27 159.477 287.282 160.164 287.386C163.52 287.745 166.725 288.964 169.471 290.926C170.053 291.305 170.582 291.758 171.045 292.275Z" fill="#455A64"/>
<path d="M180.873 288.822C180.444 288.47 180.062 288.066 179.734 287.618C179.067 286.841 178.182 285.739 177.261 284.477C176.34 283.214 175.542 282.046 174.998 281.183C174.673 280.732 174.401 280.245 174.185 279.732C174.575 280.126 174.92 280.562 175.215 281.031L177.565 284.252C178.443 285.441 179.248 286.515 179.945 287.451C180.303 287.873 180.615 288.332 180.873 288.822Z" fill="#455A64"/>
<path d="M188.055 225.646C188.055 225.705 187.33 225.864 186.191 226.241C183.208 227.225 180.507 228.912 178.313 231.16C177.885 231.654 177.432 232.126 176.956 232.574C177.263 231.988 177.654 231.451 178.117 230.978C179.172 229.786 180.394 228.753 181.744 227.91C183.093 227.06 184.56 226.413 186.096 225.987C186.728 225.775 187.389 225.66 188.055 225.646Z" fill="#455A64"/>
<path d="M167.961 259.798C167.97 259.653 167.997 259.509 168.041 259.37L168.346 258.173L169.521 253.785L173.547 239.342C174.367 236.52 175.063 233.836 175.854 231.399C176.689 229.28 177.95 227.357 179.561 225.748C180.624 224.657 181.801 223.685 183.072 222.846C183.529 222.556 183.884 222.338 184.138 222.208C184.26 222.13 184.389 222.065 184.523 222.012C184.523 222.012 184.029 222.345 183.159 222.962C181.93 223.839 180.788 224.833 179.749 225.929C178.196 227.532 176.982 229.432 176.18 231.515C175.455 233.916 174.73 236.636 173.91 239.443L169.782 253.85C169.245 255.656 168.803 257.129 168.484 258.202C168.331 258.681 168.215 259.073 168.114 259.378C168.082 259.524 168.031 259.666 167.961 259.798Z" fill="#455A64"/>
<path d="M149.863 222.955C149.754 222.955 149.326 219.139 148.898 214.41C148.47 209.68 148.172 205.835 148.317 205.828C148.463 205.821 148.847 209.644 149.275 214.373C149.703 219.103 149.964 222.948 149.863 222.955Z" fill="#455A64"/>
<path d="M115.798 233.205C115.74 233.205 115.428 232.618 114.782 231.711C113.949 230.531 112.949 229.478 111.815 228.584C110.672 227.702 109.409 226.986 108.065 226.459C107.028 226.053 106.353 225.9 106.367 225.835C106.978 225.864 107.58 225.988 108.152 226.205C110.989 227.14 113.412 229.033 115.007 231.558C115.359 232.06 115.626 232.617 115.798 233.205Z" fill="#455A64"/>
<path d="M128.332 219.277C128.332 219.335 127.433 218.784 125.931 218.095C121.992 216.305 117.622 215.681 113.338 216.296C111.706 216.528 110.712 216.818 110.698 216.753C110.909 216.633 111.136 216.545 111.372 216.491C112.003 216.296 112.645 216.141 113.295 216.027C117.627 215.267 122.089 215.907 126.033 217.855C126.624 218.147 127.196 218.477 127.745 218.842C127.96 218.959 128.158 219.105 128.332 219.277Z" fill="#455A64"/>
<path d="M177.341 228.969C177.167 228.96 176.994 228.931 176.826 228.882L175.376 228.57L170.08 227.402C165.604 226.401 159.409 225.052 152.54 223.695C145.67 222.339 139.432 221.214 134.912 220.438L129.551 219.517L128.101 219.263C127.929 219.243 127.761 219.201 127.6 219.14C127.772 219.144 127.944 219.159 128.115 219.183L129.566 219.372C130.835 219.546 132.671 219.822 134.941 220.177C139.475 220.902 145.728 221.962 152.605 223.325C159.482 224.689 165.662 226.075 170.131 227.141C172.358 227.678 174.164 228.127 175.405 228.454L176.855 228.831C177.021 228.862 177.184 228.908 177.341 228.969Z" fill="#455A64"/>
<path d="M136.102 220.474C136.029 220.474 135.877 219.618 135.202 218.399C134.807 217.696 134.319 217.05 133.751 216.477C133.035 215.772 132.274 215.112 131.474 214.504C129.998 213.414 128.439 212.444 126.809 211.602C126.12 211.274 125.455 210.896 124.822 210.471C125.552 210.702 126.258 211 126.932 211.363C128.616 212.143 130.215 213.094 131.706 214.199C132.517 214.818 133.283 215.495 133.998 216.223C134.581 216.826 135.07 217.514 135.449 218.262C135.709 218.767 135.907 219.303 136.036 219.858C136.096 220.057 136.118 220.266 136.102 220.474Z" fill="#455A64"/>
<path d="M208.563 230.304C208.643 230.391 207.555 231.486 206.706 233.162C205.857 234.838 205.581 236.346 205.473 236.325C205.47 235.152 205.781 234 206.372 232.988C206.853 231.916 207.609 230.99 208.563 230.304Z" fill="#263238"/>
<g opacity="0.3">
<path opacity="0.3" d="M161.999 155.979L166.656 188.782L166.888 189.304C167.98 177.963 166.303 166.527 161.999 155.979Z" fill="black"/>
</g>
<path d="M187.077 174.824L171.937 201.287L134.629 202.099L134.535 203.789L170.661 203.521L171.807 203.477L209.949 203.557L217.66 190.26L227.511 176.144C227.653 175.935 227.736 175.69 227.75 175.437C227.764 175.184 227.709 174.932 227.59 174.708C227.471 174.484 227.294 174.297 227.077 174.167C226.859 174.036 226.611 173.967 226.357 173.968L188.281 174.113C188.035 174.115 187.794 174.181 187.583 174.306C187.371 174.431 187.197 174.61 187.077 174.824Z" fill="#E0E0E0"/>
<path d="M217.659 190.282C217.659 190.282 219.618 192.081 219.313 193.605C219.008 195.128 219.103 196.267 217.659 196.368C217.686 196.926 217.498 197.472 217.133 197.895C216.769 198.317 216.256 198.584 215.7 198.639C215.7 198.639 216.143 201.033 213.357 201.446C213.357 201.446 212.501 204.007 210.746 203.383C209.734 203.039 208.762 202.589 207.844 202.041L207.329 201.113C207.329 201.113 204.739 200.141 205.378 198.682C205.77 197.797 207.104 197.565 207.104 197.565C206.951 197.202 206.886 196.807 206.915 196.414C206.944 196.02 207.066 195.639 207.271 195.302C207.888 194.468 209.904 195.157 209.904 195.157C209.863 194.443 210.09 193.738 210.543 193.184C211.268 192.364 214.445 194.577 214.445 194.577L216.194 192.487L217.659 190.282Z" fill="#FFBE9D"/>
<path d="M213.357 201.446C212.226 200.965 211.147 200.369 210.137 199.669C209.06 199.075 208.049 198.37 207.119 197.565C208.249 198.052 209.328 198.649 210.34 199.35C211.414 199.945 212.425 200.648 213.357 201.446Z" fill="#EB996E"/>
<path d="M215.701 198.639C214.649 198.226 213.646 197.695 212.712 197.058C211.714 196.529 210.778 195.892 209.919 195.157C210.973 195.567 211.976 196.098 212.908 196.739C213.906 197.267 214.843 197.905 215.701 198.639Z" fill="#EB996E"/>
<path d="M212.509 193.387C212.567 193.278 213.764 193.909 215.157 194.794C216.02 195.293 216.851 195.845 217.645 196.448C217.594 196.572 216.347 196.006 214.954 195.114C214.081 194.626 213.261 194.047 212.509 193.387Z" fill="#EB996E"/>
<path d="M227.511 174.984C227.451 174.993 227.389 174.993 227.329 174.984H226.793H224.732L217.159 175.042L192.169 175.1H190.348C190.08 175.074 189.81 175.121 189.566 175.236C189.322 175.351 189.114 175.53 188.963 175.753C188.382 176.788 187.816 177.808 187.265 178.814L184.044 184.617L178.582 194.432C177.03 197.203 175.76 199.452 174.868 201.04C174.44 201.766 174.092 202.39 173.845 202.825L173.569 203.282L173.468 203.434C173.468 203.434 173.468 203.369 173.533 203.26L173.78 202.781L174.744 200.968L178.372 194.301L183.769 184.443C184.784 182.593 185.858 180.649 186.96 178.64L188.665 175.557C188.851 175.281 189.107 175.059 189.406 174.914C189.705 174.768 190.038 174.705 190.37 174.73H192.191L217.181 174.781L224.754 174.846L226.814 174.882H227.351C227.41 174.907 227.464 174.941 227.511 174.984Z" fill="#263238"/>
<path d="M200.67 188.295C200.494 188.55 200.395 188.85 200.386 189.16C200.376 189.469 200.456 189.775 200.615 190.041C200.775 190.306 201.008 190.52 201.286 190.656C201.564 190.793 201.876 190.846 202.184 190.81C202.491 190.773 202.782 190.649 203.021 190.452C203.26 190.255 203.436 189.993 203.53 189.697C203.624 189.402 203.63 189.086 203.549 188.787C203.468 188.488 203.302 188.219 203.071 188.012C202.714 187.734 202.262 187.607 201.813 187.66C201.363 187.713 200.953 187.941 200.67 188.295Z" fill="white"/>
<g opacity="0.3">
<path opacity="0.3" d="M94.7602 178.074C94.441 178.205 94.071 178.422 94.071 178.799C94.0826 178.94 94.1412 179.072 94.2373 179.175C94.3334 179.277 94.4615 179.345 94.6006 179.365C95.1327 179.29 95.6538 179.151 96.153 178.952C100.077 178.089 103.306 178.916 107.034 180.403L107.157 180.279C105.678 177.066 98.9821 176.355 94.7602 178.074Z" fill="black"/>
</g>
<path d="M296.867 325.331C296.867 325.433 231.254 325.52 150.335 325.52C69.4153 325.52 3.802 325.404 3.802 325.331C3.802 325.259 69.4007 325.143 150.335 325.143C231.269 325.143 296.867 325.193 296.867 325.331Z" fill="#263238"/>
<path d="M74.4714 94.079C74.5947 94.2023 98.6856 85.9254 98.6856 85.9254L89.4003 64.6709L67.979 72.8898L79.7742 79.6651L74.4714 94.079Z" fill="#455A64"/>
<path d="M85.7729 71.0688V42.1322C85.7729 42.1322 119.004 36.0533 142.95 36.416C166.895 36.7787 191.552 40.7032 191.552 40.7032V68.4863C191.552 68.4863 116.501 61.7836 85.7729 71.0688Z" fill="#455A64"/>
<path d="M85.5989 71.0978L98.6562 86.0485V68.4863C98.6562 68.4863 87.7388 69.7921 85.5989 71.0978Z" fill="#263238"/>
<path d="M85.7728 42.125C85.8816 42.125 85.9251 48.6537 85.8816 56.6332C85.838 64.6127 85.7075 71.1414 85.6059 71.1414C85.5044 71.1414 85.4536 64.6562 85.4971 56.6332C85.5406 48.6102 85.6639 42.125 85.7728 42.125Z" fill="#263238"/>
<path d="M202.796 91.8587C202.673 91.982 178.582 83.7051 178.582 83.7051L187.846 62.4434L209.289 70.6477L197.486 77.4231L202.796 91.8587Z" fill="#455A64"/>
<path d="M191.683 68.8781L178.626 83.8288V67.5361C183.004 67.686 187.366 68.1344 191.683 68.8781Z" fill="#263238"/>
<path d="M191.538 40.7031C191.64 40.7031 191.756 47.0069 191.792 54.7906C191.828 62.5742 191.792 68.878 191.669 68.878C191.546 68.878 191.451 62.5742 191.415 54.7906C191.379 47.0069 191.429 40.7031 191.538 40.7031Z" fill="#263238"/>
<path d="M104.511 54.8199C104.442 53.9869 104.621 53.1521 105.024 52.42C105.428 51.6879 106.038 51.091 106.779 50.7039C107.52 50.3169 108.358 50.1568 109.189 50.2438C110.021 50.3307 110.808 50.6609 111.453 51.1929L110.437 52.4116C110.164 52.162 109.839 51.9761 109.485 51.867C109.131 51.7579 108.758 51.7283 108.391 51.7805C107.741 51.8709 107.153 52.2159 106.758 52.7397C106.362 53.2634 106.19 53.923 106.281 54.5733C106.371 55.2236 106.716 55.8113 107.24 56.2072C107.764 56.603 108.423 56.7747 109.073 56.6842C109.442 56.6357 109.795 56.5049 110.107 56.3015C110.418 56.0981 110.68 55.8273 110.872 55.5091L112.149 56.4013C111.676 57.0895 111.011 57.6227 110.236 57.9344C109.461 58.2461 108.612 58.3223 107.794 58.1535C106.976 57.9846 106.226 57.5783 105.638 56.9853C105.051 56.3924 104.651 55.6391 104.489 54.8199H104.511Z" fill="white"/>
<path d="M112.425 53.7311C112.29 52.8936 112.409 52.0348 112.768 51.266C113.127 50.4972 113.708 49.8537 114.436 49.419C115.165 48.9842 116.007 48.7781 116.854 48.8275C117.701 48.8768 118.513 49.1793 119.186 49.6957C119.859 50.2121 120.362 50.9187 120.629 51.7239C120.895 52.5292 120.914 53.396 120.683 54.2122C120.452 55.0284 119.981 55.7563 119.331 56.3016C118.681 56.847 117.882 57.1847 117.038 57.2711C116.501 57.3568 115.952 57.3321 115.424 57.1984C114.897 57.0648 114.402 56.825 113.97 56.4937C113.538 56.1624 113.179 55.7465 112.913 55.2715C112.647 54.7966 112.481 54.2724 112.425 53.7311ZM119.033 53.0492C118.974 52.5785 118.778 52.1356 118.469 51.7758C118.16 51.4159 117.752 51.155 117.296 51.0255C116.839 50.8961 116.355 50.9039 115.903 51.0479C115.451 51.192 115.051 51.4659 114.754 51.8355C114.457 52.2052 114.275 52.6541 114.231 53.1265C114.187 53.5988 114.284 54.0736 114.508 54.4916C114.732 54.9095 115.075 55.2522 115.492 55.4769C115.91 55.7016 116.385 55.7983 116.857 55.755C117.183 55.7336 117.501 55.6447 117.79 55.4941C118.08 55.3435 118.335 55.1344 118.539 54.8801C118.744 54.6257 118.894 54.3316 118.979 54.0165C119.064 53.7013 119.082 53.3719 119.033 53.0492Z" fill="white"/>
<path d="M129.522 56.1476L129.21 51.5195L127.186 55.4802L126.388 55.531L123.886 51.962L124.183 56.4886L122.507 56.5974L122.043 48.8863L123.494 48.792L126.686 53.3983L129.218 48.4293L130.668 48.335L131.191 56.0388L129.522 56.1476Z" fill="white"/>
<path d="M139.512 50.8662C139.555 52.5927 138.293 53.6953 136.233 53.7679L134.673 53.8114L134.739 55.9441L132.947 55.9949L132.729 48.2258L136.073 48.1315C138.141 48.1024 139.454 49.1398 139.512 50.8662ZM137.698 50.917C137.698 50.0683 137.111 49.5895 136.015 49.6185L134.565 49.6621L134.644 52.3461L136.095 52.3026C137.183 52.2735 137.72 51.7585 137.698 50.917Z" fill="white"/>
<path d="M140.904 48.0586H142.689V54.3261H146.562V55.777H140.904V48.0586Z" fill="white"/>
<path d="M153.49 54.5514V56.0022L147.505 55.8281L147.73 48.1025L153.533 48.2766L153.49 49.7275L149.427 49.6041L149.384 51.2871L152.967 51.3886L152.924 52.7814L149.34 52.6726L149.29 54.4644L153.49 54.5514Z" fill="white"/>
<path d="M156.798 49.8938L154.331 49.7487L154.418 48.2979L161.136 48.7041L161.049 50.1549L158.582 50.0026L158.205 56.2628L156.42 56.154L156.798 49.8938Z" fill="white"/>
<path d="M167.643 55.6101L167.512 57.061L161.549 56.5096L162.274 48.8203L168.078 49.3571L167.947 50.8079L163.899 50.4017L163.747 52.0774L167.316 52.4038L167.193 53.7894L163.616 53.4629L163.457 55.2402L167.643 55.6101Z" fill="white"/>
<path d="M169.877 49.5244L173.352 49.9887C175.854 50.3224 177.371 52.0561 177.066 54.3411C176.761 56.6262 174.832 57.9682 172.329 57.6055L168.854 57.1412L169.877 49.5244ZM172.438 56.1764C172.754 56.2271 173.076 56.214 173.387 56.1379C173.697 56.0618 173.99 55.9242 174.246 55.7333C174.503 55.5424 174.718 55.3021 174.881 55.0264C175.043 54.7508 175.148 54.4455 175.19 54.1285C175.232 53.8115 175.21 53.4893 175.126 53.1808C175.042 52.8724 174.896 52.584 174.699 52.3327C174.501 52.0813 174.255 51.8722 173.975 51.7175C173.695 51.5629 173.387 51.4659 173.069 51.4322L171.451 51.2146L170.82 55.9588L172.438 56.1764Z" fill="white"/>
<path d="M206.402 43.3362L208.302 45.5632L213.656 43.3362L212.089 40.9932L206.402 43.3362Z" fill="#455A64"/>
<path d="M203.949 32.7377C203.949 33.2887 203.786 33.8272 203.48 34.2853C203.174 34.7434 202.738 35.1004 202.229 35.3113C201.72 35.5221 201.16 35.5772 200.62 35.4698C200.08 35.3623 199.583 35.097 199.194 34.7074C198.804 34.3178 198.539 33.8215 198.431 33.2812C198.324 32.7408 198.379 32.1807 198.59 31.6717C198.801 31.1627 199.158 30.7277 199.616 30.4216C200.074 30.1155 200.613 29.9521 201.164 29.9521C201.902 29.9541 202.609 30.2482 203.131 30.7701C203.653 31.2921 203.947 31.9995 203.949 32.7377Z" fill="#2E3192"/>
<path d="M141.549 74.2889C141.548 74.565 141.465 74.8344 141.31 75.0629C141.155 75.2914 140.935 75.4688 140.68 75.5724C140.424 75.676 140.143 75.7013 139.872 75.6449C139.602 75.5886 139.355 75.4532 139.162 75.2559C138.968 75.0587 138.838 74.8085 138.788 74.5371C138.737 74.2657 138.768 73.9854 138.877 73.7317C138.986 73.4781 139.168 73.2625 139.4 73.1124C139.631 72.9624 139.902 72.8845 140.178 72.8888C140.545 72.8946 140.895 73.0448 141.152 73.307C141.409 73.5691 141.551 73.922 141.549 74.2889Z" fill="#2E3192"/>
<path d="M76.6617 53.3541C76.6616 53.5642 76.5991 53.7695 76.4821 53.944C76.3651 54.1185 76.1988 54.2542 76.0044 54.3339C75.8101 54.4136 75.5964 54.4337 75.3905 54.3917C75.1847 54.3496 74.996 54.2473 74.8485 54.0977C74.701 53.9482 74.6013 53.7581 74.5621 53.5517C74.5229 53.3453 74.5459 53.1319 74.6283 52.9387C74.7107 52.7454 74.8487 52.581 75.0248 52.4664C75.2008 52.3518 75.407 52.2921 75.6171 52.295C75.8954 52.2988 76.1611 52.4121 76.3566 52.6103C76.5521 52.8085 76.6617 53.0757 76.6617 53.3541Z" fill="#2E3192"/>
<path d="M72.7302 41.6964L75.8495 41.885L77.3293 35.748L74.4132 35.8714L72.7302 41.6964Z" fill="#455A64"/>
<path d="M170.226 90.6838L171.278 93.629L177.502 92.5844L176.247 89.9512L170.226 90.6838Z" fill="#2E3192"/>
<path d="M107.274 73.6875L105.352 76.1539L109.567 80.8473L111.119 78.3736L107.274 73.6875Z" fill="#455A64"/>
<path d="M99.8245 15.749L107.187 23.257L117.553 19.3398L117.967 21.915L113.477 31.1059L117.619 37.9683L117.271 40.0212L107.238 38.331L101.304 44.8379L99.9115 43.7861L98.6856 35.5092L89.3278 30.6344L88.9143 28.7411L98.3374 26.1659L99.8245 15.749Z" fill="#2E3192"/>
<g opacity="0.3">
<path opacity="0.3" d="M99.8245 15.749L107.187 23.257L117.553 19.3398L117.967 21.915L113.477 31.1059L117.619 37.9683L117.271 40.0212L107.238 38.331L101.304 44.8379L99.9115 43.7861L98.6856 35.5092L89.3278 30.6344L88.9143 28.7411L98.3374 26.1659L99.8245 15.749Z" fill="black"/>
</g>
<path d="M99.8245 13.6377L107.187 21.1529L117.553 19.3394L112.686 28.6682L117.619 37.9679L107.238 36.2269L99.9115 43.7857L98.3664 33.3761L88.9143 28.7407L98.3374 24.0546L99.8245 13.6377Z" fill="#2E3192"/>
<path d="M176.174 15.749L168.804 23.257L158.438 19.3398L158.024 21.915L162.514 31.1059L158.372 37.9683L158.721 40.0212L168.753 38.331L174.687 44.8379L176.08 43.7861L177.306 35.5092L186.663 30.6344L187.077 28.7411L177.654 26.1659L176.174 15.749Z" fill="#2E3192"/>
<g opacity="0.3">
<path opacity="0.3" d="M176.174 15.749L168.804 23.257L158.438 19.3398L158.024 21.915L162.514 31.1059L158.372 37.9683L158.721 40.0212L168.753 38.331L174.687 44.8379L176.08 43.7861L177.306 35.5092L186.663 30.6344L187.077 28.7411L177.654 26.1659L176.174 15.749Z" fill="black"/>
</g>
<path d="M176.174 13.6377L168.804 21.1529L158.438 19.3394L163.305 28.6682L158.373 37.9679L168.753 36.2269L176.08 43.7857L177.625 33.3761L187.077 28.7407L177.654 24.0546L176.174 13.6377Z" fill="#2E3192"/>
<path d="M137.756 2.56836L143.886 14.5449L158.024 13.7106L157.546 17.004L148.565 26.5141L150.995 36.4595L149.798 38.8316L138.199 32.9485L128.486 38.6357L127.187 36.8149L128.841 26.2457L119.28 16.7356L119.498 14.2765L131.975 14.719L137.756 2.56836Z" fill="#2E3192"/>
<g opacity="0.3">
<path opacity="0.3" d="M137.756 2.56836L143.886 14.5449L158.024 13.7106L157.546 17.004L148.565 26.5141L150.995 36.4595L149.798 38.8316L138.199 32.9485L128.486 38.6357L127.187 36.8149L128.841 26.2457L119.28 16.7356L119.498 14.2765L131.975 14.719L137.756 2.56836Z" fill="black"/>
</g>
<path d="M138.555 0L144.684 11.9693L158.025 13.7102L148.529 23.2421L150.995 36.4591L139.004 30.3801L127.187 36.8145L129.269 23.525L119.498 14.2761L132.78 12.1433L138.555 0Z" fill="#2E3192"/>
<path d="M162.979 107.439L173.222 108.571C176.68 103.675 181.844 100.25 187.699 98.9685C193.554 97.6868 199.677 98.6414 204.864 101.645C210.052 104.648 213.928 109.483 215.732 115.199C217.535 120.914 217.136 127.098 214.612 132.535C212.088 137.971 207.622 142.267 202.092 144.579C196.562 146.89 190.367 147.049 184.725 145.025C179.083 143.001 174.403 138.94 171.603 133.64C168.803 128.34 168.087 122.185 169.595 116.384L162.979 107.439Z" fill="#FAFAFA"/>
<path d="M162.979 107.44C163.378 107.977 165.453 110.719 169.689 116.341H169.537C169.542 116.329 169.55 116.318 169.559 116.31C169.569 116.301 169.581 116.295 169.593 116.291C169.606 116.288 169.619 116.287 169.632 116.289C169.645 116.292 169.657 116.297 169.667 116.304C169.684 116.315 169.698 116.33 169.705 116.348C169.713 116.366 169.715 116.387 169.711 116.406C168.673 120.476 168.728 124.747 169.87 128.789C170.206 130.001 170.65 131.181 171.198 132.314C171.488 132.894 171.764 133.489 172.076 134.077L173.156 135.796C176.608 140.799 181.829 144.307 187.766 145.611C191.053 146.333 194.455 146.348 197.748 145.654C201.219 144.899 204.481 143.388 207.302 141.229C210.256 138.986 212.631 136.068 214.229 132.72C215.884 129.316 216.7 125.565 216.608 121.781C216.503 118.161 215.586 114.611 213.924 111.393C212.362 108.343 210.148 105.673 207.439 103.573C202.56 99.8019 196.419 98.0467 190.283 98.6696C187.691 98.9808 185.16 99.6802 182.775 100.744C178.982 102.498 175.713 105.214 173.294 108.622C173.287 108.636 173.275 108.647 173.261 108.654C173.246 108.66 173.23 108.662 173.215 108.659L162.979 107.44L173.236 108.477L173.149 108.521C175.56 105.066 178.844 102.312 182.667 100.541C185.063 99.437 187.615 98.7079 190.233 98.3795C196.452 97.721 202.687 99.4822 207.642 103.298C210.398 105.422 212.65 108.13 214.236 111.226C215.933 114.491 216.867 118.097 216.971 121.774C217.067 125.617 216.241 129.428 214.563 132.887C212.936 136.287 210.522 139.249 207.519 141.527C204.652 143.715 201.338 145.246 197.813 146.01C194.462 146.715 190.999 146.692 187.657 145.945C181.657 144.622 176.385 141.066 172.91 135.999L171.822 134.258C171.51 133.663 171.234 133.054 170.937 132.466C170.391 131.319 169.949 130.124 169.616 128.897C168.479 124.813 168.449 120.499 169.529 116.399L169.704 116.464C169.69 116.485 169.669 116.5 169.645 116.507C169.621 116.514 169.595 116.511 169.573 116.5L162.979 107.44Z" fill="#263238"/>
<path d="M183.994 113.831C184.003 113.942 184.003 114.054 183.994 114.165C183.994 114.404 183.994 114.709 183.994 115.093C183.994 115.935 183.994 117.103 184.038 118.582C184.038 121.593 184.089 125.837 184.125 130.914L183.958 130.748H201.027C201.07 130.704 200.671 131.103 200.838 130.929V128.608C200.838 127.846 200.838 127.084 200.838 126.33V121.912C200.838 119.054 200.838 116.348 200.838 113.86L200.998 114.027L188.666 113.94L185.177 113.904H184.248H183.914H184.212H185.111L188.557 113.86L200.983 113.78H201.15V113.94C201.15 116.428 201.15 119.134 201.15 121.992V130.922C201.324 130.755 200.925 131.161 200.962 131.118H183.893H183.726V130.922C183.726 125.8 183.784 121.528 183.806 118.495C183.806 117.045 183.806 115.869 183.849 115.042C183.849 114.673 183.849 114.375 183.849 114.143C183.883 114.033 183.932 113.928 183.994 113.831Z" fill="#263238"/>
<path d="M199.22 116.653C199.467 116.849 197.174 120.157 194.091 124.045C193.482 124.821 192.88 125.561 192.321 126.221L191.959 126.664L191.553 126.294C188.883 123.893 187.077 122.05 187.236 121.861C187.396 121.673 189.492 123.196 192.256 125.488L191.48 125.561C192.01 124.836 192.59 124.11 193.206 123.341C196.282 119.453 198.981 116.464 199.22 116.653Z" fill="#2E3192"/>
</svg>
