<svg width="64" height="17" viewBox="0 0 64 17" fill="none" xmlns="http://www.w3.org/2000/svg">
<path d="M44.6354 4.11719C44.5834 4.67563 44.4146 5.18212 44.1938 5.66264C43.8042 6.54575 43.2847 7.33796 42.7003 8.0912C41.6873 9.3899 41.6873 11.312 42.6873 12.6237C43.986 14.3379 46.3107 14.6756 48.0509 13.3899C49.6873 12.1821 50.0509 9.74055 48.8172 8.13016C48.1289 7.22107 47.5574 6.26004 47.1938 5.18212C47.0769 4.84446 47.012 4.49381 46.9081 4.14316C49.0899 4.44186 51.7782 6.46783 52.0769 9.80548C52.3886 13.299 49.8302 16.3639 46.3496 16.6886C42.8691 17.0262 39.7782 14.4808 39.4276 11.0133C39.064 7.4938 41.5834 4.62368 44.6354 4.11719Z" fill="#8BC34A"/>
<path d="M47.2594 11.8706C46.4802 12.6499 45.2334 12.7148 44.3893 12.0135C43.5451 11.2992 43.3503 10.0655 43.9867 9.18234C44.9996 7.75378 45.4672 6.15638 45.5711 4.4421C45.61 3.75379 45.5451 3.06548 45.2464 2.41613C45.1685 2.2473 45.0646 2.07847 44.9607 1.92263C44.649 1.49406 44.675 0.935617 45.0516 0.571982C45.4282 0.208347 45.9867 0.182373 46.4022 0.507047C46.7918 0.818734 46.8957 1.42912 46.597 1.84471C46.1815 2.41613 45.9867 3.06548 45.9607 3.75379C45.8828 5.57196 46.3373 7.26027 47.2724 8.81871C47.3763 8.98754 47.5061 9.14338 47.61 9.31221C48.0776 10.1564 47.9347 11.1823 47.2594 11.8706Z" fill="#8BC34A"/>
<path d="M9.64932 11.1951V14.1171C9.64932 15.5587 8.48049 16.7275 7.03894 16.7275H6.03894V11.1561L0 1.11719H2.36363C3.2857 1.11719 4.12986 1.5977 4.59739 2.37692L8.01296 8.05223L11.4285 2.37692C11.8961 1.5977 12.7532 1.11719 13.6623 1.11719H15.7272L9.64932 11.1951Z" fill="black"/>
<path d="M25.1303 11.5324H16.0524C16.39 13.0259 17.6628 13.935 19.4809 13.935C20.1043 13.935 20.6368 13.8441 21.1173 13.6622C22.1043 13.2856 23.2212 13.5713 23.9355 14.3376L24.3381 14.7791C23.2212 16.0518 21.5459 16.7142 19.39 16.7142C15.2472 16.7142 12.5459 14.1038 12.5459 10.5324C12.5459 6.94798 15.2861 4.35059 18.9485 4.35059C22.4679 4.35059 25.1952 6.71421 25.1952 10.5713C25.1952 10.87 25.1562 11.2467 25.1303 11.5324ZM16.0134 9.50641H21.9225C21.6757 7.98694 20.5459 7.01291 18.9744 7.01291C17.39 6.99993 16.2472 7.96096 16.0134 9.50641Z" fill="black"/>
<path d="M39.0004 10.5584C39.0004 14.3246 36.3901 16.7402 33.0264 16.7402C31.416 16.7402 30.1303 16.2337 29.2602 15.1818C29.2602 15.948 28.6368 16.5584 27.8836 16.5584H25.9355V0H26.8057C28.2472 0 29.4161 1.16883 29.4161 2.61038V5.81816C30.3122 4.83115 31.5329 4.36362 33.0264 4.36362C36.3901 4.37661 39.0004 6.7792 39.0004 10.5584ZM35.481 10.5584C35.481 8.48049 34.1693 7.23374 32.429 7.23374C30.6888 7.23374 29.3771 8.48049 29.3771 10.5584C29.3771 12.6363 30.6888 13.8831 32.429 13.8831C34.1563 13.8701 35.481 12.6233 35.481 10.5584Z" fill="black"/>
<path d="M59.2601 15.636L57.4159 13.0516L55.4809 15.675C54.9874 16.3373 54.2082 16.7399 53.377 16.7399H50.8965L55.5069 10.701L51.0523 4.75293H53.6237C54.4549 4.75293 55.2471 5.15552 55.7406 5.83085L57.5069 8.25941L59.338 5.80487C59.8315 5.14254 60.6107 4.75293 61.4289 4.75293H63.8185L59.364 10.623L64.0003 16.7529H61.39C60.5458 16.7269 59.7536 16.3243 59.2601 15.636Z" fill="black"/>
</svg>
