<svg width="17" height="17" viewBox="0 0 17 17" fill="none" xmlns="http://www.w3.org/2000/svg">
<path d="M8.49968 4.95833C8.77987 4.95833 9.05376 4.87525 9.28673 4.71958C9.5197 4.56392 9.70128 4.34266 9.80851 4.0838C9.91573 3.82494 9.94378 3.5401 9.88912 3.26529C9.83446 2.99048 9.69953 2.73806 9.50141 2.53993C9.30329 2.34181 9.05086 2.20688 8.77605 2.15222C8.50125 2.09756 8.2164 2.12561 7.95754 2.23284C7.69868 2.34006 7.47743 2.52164 7.32176 2.75461C7.16609 2.98758 7.08301 3.26148 7.08301 3.54167C7.08301 3.91739 7.23226 4.27773 7.49794 4.5434C7.76362 4.80908 8.12395 4.95833 8.49968 4.95833ZM8.49968 12.0417C8.21949 12.0417 7.94559 12.1248 7.71262 12.2804C7.47965 12.4361 7.29807 12.6573 7.19085 12.9162C7.08362 13.1751 7.05557 13.4599 7.11023 13.7347C7.16489 14.0095 7.29982 14.2619 7.49794 14.4601C7.69607 14.6582 7.94849 14.7931 8.2233 14.8478C8.4981 14.9024 8.78295 14.8744 9.04181 14.7672C9.30067 14.6599 9.52193 14.4784 9.67759 14.2454C9.83326 14.0124 9.91634 13.7385 9.91634 13.4583C9.91634 13.0826 9.76709 12.7223 9.50141 12.4566C9.23573 12.1909 8.8754 12.0417 8.49968 12.0417ZM8.49968 7.08333C8.21949 7.08333 7.94559 7.16642 7.71262 7.32209C7.47965 7.47775 7.29807 7.699 7.19085 7.95787C7.08362 8.21673 7.05557 8.50157 7.11023 8.77638C7.16489 9.05118 7.29982 9.30361 7.49794 9.50173C7.69607 9.69986 7.94849 9.83478 8.2233 9.88945C8.4981 9.94411 8.78295 9.91605 9.04181 9.80883C9.30067 9.70161 9.52193 9.52003 9.67759 9.28706C9.83326 9.05409 9.91634 8.78019 9.91634 8.5C9.91634 8.12428 9.76709 7.76394 9.50141 7.49827C9.23573 7.23259 8.8754 7.08333 8.49968 7.08333Z" fill="#9B9DC3"/>
</svg>
