<svg width="17" height="17" viewBox="0 0 17 17" fill="none" xmlns="http://www.w3.org/2000/svg">
<path d="M8.50065 4.95833C8.78084 4.95833 9.05474 4.87525 9.28771 4.71958C9.52068 4.56392 9.70226 4.34266 9.80948 4.0838C9.91671 3.82494 9.94476 3.5401 9.8901 3.26529C9.83544 2.99048 9.70051 2.73806 9.50239 2.53993C9.30426 2.34181 9.05184 2.20688 8.77703 2.15222C8.50222 2.09756 8.21738 2.12561 7.95852 2.23284C7.69966 2.34006 7.4784 2.52164 7.32274 2.75461C7.16707 2.98758 7.08399 3.26148 7.08399 3.54167C7.08399 3.91739 7.23324 4.27773 7.49892 4.5434C7.76459 4.80908 8.12493 4.95833 8.50065 4.95833ZM8.50065 12.0417C8.22046 12.0417 7.94656 12.1248 7.71359 12.2804C7.48062 12.4361 7.29905 12.6573 7.19182 12.9162C7.0846 13.1751 7.05654 13.4599 7.11121 13.7347C7.16587 14.0095 7.30079 14.2619 7.49892 14.4601C7.69704 14.6582 7.94947 14.7931 8.22427 14.8478C8.49908 14.9024 8.78393 14.8744 9.04279 14.7672C9.30165 14.6599 9.5229 14.4784 9.67857 14.2454C9.83423 14.0124 9.91732 13.7385 9.91732 13.4583C9.91732 13.0826 9.76806 12.7223 9.50239 12.4566C9.23671 12.1909 8.87638 12.0417 8.50065 12.0417ZM8.50065 7.08333C8.22046 7.08333 7.94656 7.16642 7.71359 7.32209C7.48062 7.47775 7.29905 7.699 7.19182 7.95787C7.0846 8.21673 7.05654 8.50157 7.11121 8.77638C7.16587 9.05118 7.30079 9.30361 7.49892 9.50173C7.69704 9.69986 7.94947 9.83478 8.22427 9.88945C8.49908 9.94411 8.78393 9.91605 9.04279 9.80883C9.30165 9.70161 9.5229 9.52003 9.67857 9.28706C9.83423 9.05409 9.91732 8.78019 9.91732 8.5C9.91732 8.12428 9.76806 7.76394 9.50239 7.49827C9.23671 7.23259 8.87638 7.08333 8.50065 7.08333Z" fill="#9B9DC3"/>
</svg>
