<svg width="12" height="7" viewBox="0 0 12 7" fill="none" xmlns="http://www.w3.org/2000/svg">
<path d="M10.9999 0.670004C10.8126 0.483753 10.5591 0.379211 10.2949 0.379211C10.0308 0.379211 9.77731 0.483753 9.58995 0.670004L5.99995 4.21L2.45995 0.670004C2.27259 0.483753 2.01913 0.379211 1.75495 0.379211C1.49076 0.379211 1.23731 0.483753 1.04995 0.670004C0.95622 0.762967 0.881826 0.873568 0.831057 0.995427C0.780288 1.11729 0.75415 1.24799 0.75415 1.38C0.75415 1.51202 0.780288 1.64272 0.831057 1.76458C0.881826 1.88644 0.95622 1.99704 1.04995 2.09L5.28995 6.33C5.38291 6.42373 5.49351 6.49813 5.61537 6.54889C5.73723 6.59966 5.86794 6.6258 5.99995 6.6258C6.13196 6.6258 6.26267 6.59966 6.38453 6.54889C6.50638 6.49813 6.61699 6.42373 6.70995 6.33L10.9999 2.09C11.0937 1.99704 11.1681 1.88644 11.2188 1.76458C11.2696 1.64272 11.2957 1.51202 11.2957 1.38C11.2957 1.24799 11.2696 1.11729 11.2188 0.995427C11.1681 0.873568 11.0937 0.762967 10.9999 0.670004Z" fill="black"/>
</svg>
