<svg width="40" height="40" viewBox="0 0 40 40" fill="none" xmlns="http://www.w3.org/2000/svg">
<rect x="0.25" y="0.25" width="39.5" height="39.5" rx="19.75" fill="#650A9D" stroke="#CBC8C8" stroke-width="0.5"/>
<path d="M24.0901 8C24.1448 8 24.1994 8 24.2572 8C24.3912 9.65596 23.7591 10.8933 22.991 11.7893C22.2372 12.6792 21.2051 13.5422 19.5357 13.4113C19.4244 11.779 20.0575 10.6334 20.8246 9.73948C21.5361 8.90634 22.8404 8.16498 24.0901 8Z" fill="white"/>
<path d="M29.1435 25.2377C29.1435 25.2542 29.1435 25.2687 29.1435 25.2841C28.6744 26.705 28.0052 27.9227 27.1886 29.0528C26.4431 30.0788 25.5295 31.4594 23.8983 31.4594C22.4888 31.4594 21.5525 30.5531 20.1079 30.5283C18.5798 30.5036 17.7395 31.2862 16.3423 31.4832C16.1825 31.4832 16.0227 31.4832 15.866 31.4832C14.84 31.3347 14.012 30.5222 13.4088 29.7901C11.6302 27.6268 10.2557 24.8325 10 21.2566C10 20.906 10 20.5565 10 20.2059C10.1083 17.6467 11.3518 15.5659 13.0046 14.5575C13.877 14.0213 15.0761 13.5646 16.4114 13.7687C16.9837 13.8574 17.5683 14.0533 18.0808 14.2472C18.5664 14.4338 19.1738 14.7648 19.7491 14.7472C20.1389 14.7359 20.5266 14.5328 20.9194 14.3894C22.0701 13.9739 23.1982 13.4975 24.685 13.7213C26.4719 13.9914 27.7402 14.7854 28.5238 16.0104C27.0122 16.9724 25.8172 18.4221 26.0214 20.8978C26.2028 23.1466 27.5103 24.4623 29.1435 25.2377Z" fill="white"/>
</svg>
