<svg width="17" height="18" viewBox="0 0 17 18" fill="none" xmlns="http://www.w3.org/2000/svg">
<circle cx="8.5" cy="9" r="8.5" fill="#18A615"/>
<path d="M12.6938 6.00519C12.6357 5.94661 12.5666 5.90011 12.4904 5.86838C12.4142 5.83665 12.3325 5.82031 12.25 5.82031C12.1675 5.82031 12.0858 5.83665 12.0097 5.86838C11.9335 5.90011 11.8644 5.94661 11.8063 6.00519L7.15003 10.6677L5.19378 8.70519C5.13345 8.64691 5.06224 8.60109 4.98421 8.57034C4.90617 8.53959 4.82284 8.52451 4.73898 8.52596C4.65512 8.52741 4.57236 8.54536 4.49544 8.57879C4.41851 8.61223 4.34893 8.66049 4.29065 8.72081C4.23238 8.78114 4.18656 8.85235 4.15581 8.93039C4.12505 9.00842 4.10997 9.09175 4.11142 9.17561C4.11287 9.25947 4.13083 9.34223 4.16426 9.41915C4.1977 9.49608 4.24595 9.56566 4.30628 9.62394L6.70628 12.0239C6.76438 12.0825 6.83351 12.129 6.90967 12.1607C6.98583 12.1925 7.06752 12.2088 7.15003 12.2088C7.23254 12.2088 7.31423 12.1925 7.39039 12.1607C7.46655 12.129 7.53568 12.0825 7.59378 12.0239L12.6938 6.92394C12.7572 6.86541 12.8078 6.79438 12.8425 6.71532C12.8771 6.63625 12.895 6.55088 12.895 6.46456C12.895 6.37825 12.8771 6.29287 12.8425 6.21381C12.8078 6.13475 12.7572 6.06371 12.6938 6.00519Z" fill="white"/>
</svg>
