<svg width="246" height="174" viewBox="0 0 246 174" fill="none" xmlns="http://www.w3.org/2000/svg">
<path d="M0 8C0 3.58172 3.58172 0 8 0H238C242.418 0 246 3.58172 246 8V174H0V8Z" fill="#F9F9FC"/>
<path fill-rule="evenodd" clip-rule="evenodd" d="M112.333 71C110.861 71 109.667 72.1939 109.667 73.6667V100.333C109.667 101.806 110.861 103 112.333 103H133.667C135.14 103 136.333 101.806 136.333 100.333V87V79.0958C136.333 78.8205 136.223 78.5558 136.024 78.3571L128.995 71.328C128.785 71.1184 128.496 71 128.193 71H123H112.333ZM117.445 84.0667C116.984 84.0667 116.611 84.4249 116.611 84.8667C116.611 85.3085 116.984 85.6667 117.445 85.6667H126.535C126.996 85.6667 127.369 85.3085 127.369 84.8667C127.369 84.4249 126.996 84.0667 126.535 84.0667H117.445ZM117.445 88.3333C116.984 88.3333 116.611 88.6915 116.611 89.1333C116.611 89.5751 116.984 89.9333 117.445 89.9333H128.556C129.016 89.9333 129.389 89.5751 129.389 89.1333C129.389 88.6915 129.016 88.3333 128.556 88.3333H117.445ZM117.445 92.6C116.984 92.6 116.611 92.9582 116.611 93.4C116.611 93.8418 116.984 94.2 117.445 94.2H128.556C129.016 94.2 129.389 93.8418 129.389 93.4C129.389 92.9582 129.016 92.6 128.556 92.6H117.445Z" fill="#E83274"/>
<path d="M136.333 79C136.333 79 136.333 78.3333 135.667 77.6667L129.667 71.6667C129 71 128.333 71 128.333 71V77.6667C128.333 78.3333 129 79 129.667 79H136.333Z" fill="#F194BA"/>
</svg>
