<svg width="38" height="38" viewBox="0 0 38 38" fill="none" xmlns="http://www.w3.org/2000/svg">
<path d="M25.8017 20.3013C27.599 18.8872 28.911 16.948 29.5549 14.7536C30.1989 12.5591 30.1428 10.2185 29.3946 8.05735C28.6464 5.89622 27.2431 4.02204 25.3801 2.69556C23.5171 1.36908 21.287 0.65625 19 0.65625C16.713 0.65625 14.4829 1.36908 12.6199 2.69556C10.7569 4.02204 9.35363 5.89622 8.60538 8.05735C7.85714 10.2185 7.8011 12.5591 8.44506 14.7536C9.08901 16.948 10.4009 18.8872 12.1983 20.3013C9.11847 21.5352 6.43119 23.5818 4.42296 26.2228C2.41474 28.8639 1.16086 32.0004 0.794994 35.298C0.768511 35.5387 0.789708 35.7824 0.857374 36.0149C0.92504 36.2475 1.03785 36.4645 1.18936 36.6534C1.49536 37.0351 1.94043 37.2795 2.42666 37.333C2.91289 37.3865 3.40045 37.2446 3.78209 36.9386C4.16373 36.6326 4.40818 36.1876 4.46166 35.7013C4.86423 32.1175 6.57309 28.8076 9.26173 26.4041C11.9504 24.0006 15.4303 22.6719 19.0367 22.6719C22.643 22.6719 26.1229 24.0006 28.8116 26.4041C31.5002 28.8076 33.2091 32.1175 33.6117 35.7013C33.6615 36.1518 33.8765 36.5679 34.215 36.8692C34.5536 37.1705 34.9918 37.3357 35.445 37.333H35.6467C36.1272 37.2777 36.5665 37.0347 36.8687 36.657C37.1709 36.2792 37.3115 35.7973 37.26 35.3163C36.8924 32.0094 35.6318 28.8648 33.6132 26.2197C31.5947 23.5746 28.8943 21.5287 25.8017 20.3013ZM19 18.9997C17.5496 18.9997 16.1318 18.5696 14.9258 17.7638C13.7199 16.958 12.7799 15.8127 12.2249 14.4727C11.6698 13.1327 11.5246 11.6582 11.8076 10.2357C12.0905 8.81314 12.789 7.50646 13.8145 6.48088C14.8401 5.45529 16.1468 4.75686 17.5693 4.4739C18.9919 4.19094 20.4663 4.33617 21.8063 4.89121C23.1463 5.44625 24.2916 6.38618 25.0974 7.59214C25.9032 8.7981 26.3333 10.2159 26.3333 11.6663C26.3333 13.6112 25.5607 15.4765 24.1854 16.8518C22.8102 18.227 20.9449 18.9997 19 18.9997Z" fill="#828282"/>
</svg>
