<svg width="20" height="21" viewBox="0 0 20 21" fill="none" xmlns="http://www.w3.org/2000/svg">
<path d="M11.8083 4.16862L15.8333 8.19362V15.8353H4.16667V4.16862H11.8083ZM11.8083 2.50195H4.16667C3.25 2.50195 2.5 3.25195 2.5 4.16862V15.8353C2.5 16.752 3.25 17.502 4.16667 17.502H15.8333C16.75 17.502 17.5 16.752 17.5 15.8353V8.19362C17.5 7.75195 17.325 7.32695 17.0083 7.01862L12.9833 2.99362C12.675 2.67695 12.25 2.50195 11.8083 2.50195ZM5.83333 12.502H14.1667V14.1686H5.83333V12.502ZM5.83333 9.16862H14.1667V10.8353H5.83333V9.16862ZM5.83333 5.83529H11.6667V7.50195H5.83333V5.83529Z" fill="#2E3192"/>
</svg>
