<svg width="25" height="16" viewBox="0 0 25 16" fill="none" xmlns="http://www.w3.org/2000/svg">
<path d="M8 2C9.1 2 10 2.9 10 4C10 5.1 9.1 6 8 6C6.9 6 6 5.1 6 4C6 2.9 6.9 2 8 2ZM8 12C10.7 12 13.8 13.29 14 14H2C2.23 13.28 5.31 12 8 12ZM8 0C5.79 0 4 1.79 4 4C4 6.21 5.79 8 8 8C10.21 8 12 6.21 12 4C12 1.79 10.21 0 8 0ZM8 10C5.33 10 0 11.34 0 14V16H16V14C16 11.34 10.67 10 8 10Z" fill="#F9F9FC"/>
<path d="M20.1638 4.85938L16 9.02315L16.9785 10.0016L20.1638 6.82329L23.3491 10.0016L24.3275 9.02315L20.1638 4.85938Z" fill="#F9F9FC"/>
<path d="M20.1638 0L16 4.16378L16.9785 5.14226L20.1638 1.96391L23.3491 5.14226L24.3275 4.16378L20.1638 0Z" fill="#F9F9FC"/>
</svg>
