<svg width="20" height="19" viewBox="0 0 20 19" fill="none" xmlns="http://www.w3.org/2000/svg">
<path d="M5.5 0.912109L0.25 3.53711V18.9999H19.75V5.49986H10.75V3.53711L5.5 0.912109ZM5.5 2.58761L9.25 4.46261V17.4999H1.75V4.46261L5.5 2.58761ZM3.25 5.49986V6.99986H4.75V5.49986H3.25ZM6.25 5.49986V6.99986H7.75V5.49986H6.25ZM10.75 6.99986H18.25V17.4999H10.75V6.99986ZM3.25 8.49986V9.99986H4.75V8.49986H3.25ZM6.25 8.49986V9.99986H7.75V8.49986H6.25ZM12.25 8.49986V9.99986H13.75V8.49986H12.25ZM15.25 8.49986V9.99986H16.75V8.49986H15.25ZM3.25 11.4999V12.9999H4.75V11.4999H3.25ZM6.25 11.4999V12.9999H7.75V11.4999H6.25ZM12.25 11.4999V12.9999H13.75V11.4999H12.25ZM15.25 11.4999V12.9999H16.75V11.4999H15.25ZM3.25 14.4999V15.9999H4.75V14.4999H3.25ZM6.25 14.4999V15.9999H7.75V14.4999H6.25ZM12.25 14.4999V15.9999H13.75V14.4999H12.25ZM15.25 14.4999V15.9999H16.75V14.4999H15.25Z" fill="#5E5E5E"/>
</svg>
