<svg width="17" height="18" viewBox="0 0 17 18" fill="none" xmlns="http://www.w3.org/2000/svg">
<path d="M8.50033 1.91797C4.58324 1.91797 1.41699 5.08422 1.41699 9.0013C1.41699 12.9184 4.58324 16.0846 8.50033 16.0846C12.4174 16.0846 15.5837 12.9184 15.5837 9.0013C15.5837 5.08422 12.4174 1.91797 8.50033 1.91797ZM8.50033 14.668C5.37658 14.668 2.83366 12.1251 2.83366 9.0013C2.83366 5.87755 5.37658 3.33464 8.50033 3.33464C11.6241 3.33464 14.167 5.87755 14.167 9.0013C14.167 12.1251 11.6241 14.668 8.50033 14.668ZM11.0432 5.45964L8.50033 8.00255L5.95741 5.45964L4.95866 6.45839L7.50158 9.0013L4.95866 11.5442L5.95741 12.543L8.50033 10.0001L11.0432 12.543L12.042 11.5442L9.49908 9.0013L12.042 6.45839L11.0432 5.45964Z" fill="#A8300A"/>
</svg>
