<svg width="21" height="20" viewBox="0 0 21 20" fill="none" xmlns="http://www.w3.org/2000/svg">
<path d="M6.99999 9C6.80221 9 6.60887 9.05865 6.44442 9.16853C6.27997 9.27841 6.1518 9.43459 6.07611 9.61732C6.00042 9.80004 5.98062 10.0011 6.0192 10.1951C6.05779 10.3891 6.15303 10.5673 6.29288 10.7071C6.43273 10.847 6.61092 10.9422 6.8049 10.9808C6.99888 11.0194 7.19995 10.9996 7.38267 10.9239C7.5654 10.8482 7.72158 10.72 7.83146 10.5556C7.94134 10.3911 7.99999 10.1978 7.99999 10C7.99999 9.73478 7.89463 9.48043 7.70709 9.29289C7.51956 9.10536 7.2652 9 6.99999 9ZM11 9C10.8022 9 10.6089 9.05865 10.4444 9.16853C10.28 9.27841 10.1518 9.43459 10.0761 9.61732C10.0004 9.80004 9.98062 10.0011 10.0192 10.1951C10.0578 10.3891 10.153 10.5673 10.2929 10.7071C10.4327 10.847 10.6109 10.9422 10.8049 10.9808C10.9989 11.0194 11.1999 10.9996 11.3827 10.9239C11.5654 10.8482 11.7216 10.72 11.8315 10.5556C11.9413 10.3911 12 10.1978 12 10C12 9.73478 11.8946 9.48043 11.7071 9.29289C11.5196 9.10536 11.2652 9 11 9ZM15 9C14.8022 9 14.6089 9.05865 14.4444 9.16853C14.28 9.27841 14.1518 9.43459 14.0761 9.61732C14.0004 9.80004 13.9806 10.0011 14.0192 10.1951C14.0578 10.3891 14.153 10.5673 14.2929 10.7071C14.4327 10.847 14.6109 10.9422 14.8049 10.9808C14.9989 11.0194 15.1999 10.9996 15.3827 10.9239C15.5654 10.8482 15.7216 10.72 15.8315 10.5556C15.9413 10.3911 16 10.1978 16 10C16 9.73478 15.8946 9.48043 15.7071 9.29289C15.5196 9.10536 15.2652 9 15 9ZM11 0C9.68677 0 8.38641 0.258658 7.17315 0.761205C5.9599 1.26375 4.85751 2.00035 3.92892 2.92893C2.05356 4.8043 0.999988 7.34784 0.999988 10C0.991246 12.3091 1.79078 14.5485 3.25999 16.33L1.25999 18.33C1.12123 18.4706 1.02723 18.6492 0.98986 18.8432C0.952486 19.0372 0.973409 19.2379 1.04999 19.42C1.13305 19.5999 1.26769 19.7511 1.43683 19.8544C1.60598 19.9577 1.80199 20.0083 1.99999 20H11C13.6522 20 16.1957 18.9464 18.0711 17.0711C19.9464 15.1957 21 12.6522 21 10C21 7.34784 19.9464 4.8043 18.0711 2.92893C16.1957 1.05357 13.6522 0 11 0ZM11 18H4.40999L5.33999 17.07C5.43448 16.9774 5.50965 16.8669 5.56114 16.7451C5.61264 16.6232 5.63944 16.4923 5.63999 16.36C5.63623 16.0962 5.5284 15.8446 5.33999 15.66C4.03057 14.352 3.21516 12.6305 3.03268 10.7888C2.8502 8.94705 3.31193 7.09901 4.33922 5.55952C5.3665 4.02004 6.89578 2.88436 8.6665 2.34597C10.4372 1.80759 12.3398 1.8998 14.0502 2.60691C15.7606 3.31402 17.1728 4.59227 18.0464 6.22389C18.92 7.85551 19.2009 9.73954 18.8411 11.555C18.4814 13.3705 17.5033 15.005 16.0735 16.1802C14.6438 17.3554 12.8508 17.9985 11 18Z" fill="#2F2F30"/>
</svg>
