<svg width="10" height="9" viewBox="0 0 10 9" fill="none" xmlns="http://www.w3.org/2000/svg">
<path d="M9.46686 0.855167C9.35621 0.777745 9.23139 0.722881 9.09953 0.693708C8.96767 0.664536 8.83135 0.661626 8.69837 0.685147C8.56539 0.708668 8.43834 0.758157 8.32449 0.830788C8.21064 0.903419 8.11221 0.997769 8.03483 1.10845L4.12545 6.69157L1.56217 4.94064C1.35658 4.80001 1.10356 4.74681 0.858748 4.79274C0.61394 4.83867 0.397405 4.97997 0.256778 5.18556C0.116151 5.39114 0.0629519 5.64417 0.108884 5.88898C0.154815 6.13379 0.296116 6.35032 0.5017 6.49095L3.93764 8.83782C4.04346 8.91006 4.16305 8.95968 4.28893 8.98358C4.41481 9.00748 4.54426 9.00515 4.6692 8.97673C4.80246 8.95344 4.92981 8.90407 5.04395 8.83146C5.15809 8.75885 5.25678 8.66443 5.33436 8.5536L9.72029 2.28798C9.87661 2.06425 9.9377 1.78761 9.89015 1.51885C9.8426 1.2501 9.69029 1.01121 9.4667 0.854699" fill="white"/>
</svg>
