<svg width="10" height="9" viewBox="0 0 10 9" fill="none" xmlns="http://www.w3.org/2000/svg">
<path d="M9.46735 0.855656C9.35669 0.778233 9.23188 0.723369 9.10002 0.694196C8.96816 0.665024 8.83184 0.662115 8.69886 0.685635C8.56588 0.709156 8.43883 0.758645 8.32498 0.831276C8.21112 0.903908 8.11269 0.998258 8.03531 1.10894L4.12594 6.69206L1.56266 4.94112C1.35707 4.8005 1.10404 4.7473 0.859237 4.79323C0.614428 4.83916 0.397893 4.98046 0.257266 5.18605C0.116639 5.39163 0.0634402 5.64466 0.109372 5.88947C0.155304 6.13427 0.296604 6.35081 0.502188 6.49144L3.93813 8.83831C4.04395 8.91055 4.16354 8.96017 4.28942 8.98407C4.4153 9.00797 4.54475 9.00564 4.66969 8.97722C4.80295 8.95393 4.9303 8.90456 5.04444 8.83195C5.15858 8.75934 5.25727 8.66492 5.33484 8.55409L9.72078 2.28847C9.8771 2.06473 9.93819 1.7881 9.89064 1.51934C9.84309 1.25058 9.69078 1.0117 9.46719 0.855187" fill="white"/>
</svg>
