<svg width="8" height="12" viewBox="0 0 8 12" fill="none" xmlns="http://www.w3.org/2000/svg">
<path d="M1.30183 1.07122C1.11414 1.25713 1.00763 1.50976 1.00559 1.77394C1.00354 2.03812 1.10611 2.29237 1.2909 2.48117L4.80297 6.0985L1.23564 9.61096C1.04795 9.79687 0.941445 10.0495 0.939397 10.3137C0.93735 10.5779 1.03992 10.8321 1.22472 11.0209C1.31695 11.1154 1.42697 11.1906 1.54843 11.2423C1.6699 11.294 1.8004 11.3212 1.9324 11.3222C2.06441 11.3232 2.19532 11.2981 2.31756 11.2483C2.43981 11.1985 2.55099 11.1249 2.64467 11.0319L6.91741 6.82491C7.01185 6.73268 7.0871 6.62266 7.13881 6.5012C7.19053 6.37973 7.21768 6.24923 7.2187 6.11723C7.21972 5.98522 7.1946 5.85431 7.14478 5.73206C7.09495 5.60982 7.02142 5.49864 6.92841 5.40495L2.72179 1.08222C2.62956 0.987776 2.51954 0.912527 2.39807 0.860815C2.27661 0.809104 2.14611 0.781952 2.0141 0.780929C1.8821 0.779906 1.75119 0.805031 1.62894 0.854854C1.50669 0.904677 1.39552 0.978212 1.30183 1.07122Z" fill="black"/>
</svg>
