<svg width="20" height="21" viewBox="0 0 20 21" fill="none" xmlns="http://www.w3.org/2000/svg">
<path d="M12.59 6.26843L10 8.85843L7.41 6.26843L6 7.67843L8.59 10.2684L6 12.8584L7.41 14.2684L10 11.6784L12.59 14.2684L14 12.8584L11.41 10.2684L14 7.67843L12.59 6.26843ZM10 0.268433C4.47 0.268433 0 4.73843 0 10.2684C0 15.7984 4.47 20.2684 10 20.2684C15.53 20.2684 20 15.7984 20 10.2684C20 4.73843 15.53 0.268433 10 0.268433ZM10 18.2684C5.59 18.2684 2 14.6784 2 10.2684C2 5.85843 5.59 2.26843 10 2.26843C14.41 2.26843 18 5.85843 18 10.2684C18 14.6784 14.41 18.2684 10 18.2684Z" fill="#BDBDBD"/>
</svg>
