<svg width="24" height="24" viewBox="0 0 24 24" fill="none" xmlns="http://www.w3.org/2000/svg">
<path d="M7.5 2.91211L2.25 5.53711V20.9999H21.75V7.49986H12.75V5.53711L7.5 2.91211ZM7.5 4.58761L11.25 6.46261V19.4999H3.75V6.46261L7.5 4.58761ZM5.25 7.49986V8.99986H6.75V7.49986H5.25ZM8.25 7.49986V8.99986H9.75V7.49986H8.25ZM12.75 8.99986H20.25V19.4999H12.75V8.99986ZM5.25 10.4999V11.9999H6.75V10.4999H5.25ZM8.25 10.4999V11.9999H9.75V10.4999H8.25ZM14.25 10.4999V11.9999H15.75V10.4999H14.25ZM17.25 10.4999V11.9999H18.75V10.4999H17.25ZM5.25 13.4999V14.9999H6.75V13.4999H5.25ZM8.25 13.4999V14.9999H9.75V13.4999H8.25ZM14.25 13.4999V14.9999H15.75V13.4999H14.25ZM17.25 13.4999V14.9999H18.75V13.4999H17.25ZM5.25 16.4999V17.9999H6.75V16.4999H5.25ZM8.25 16.4999V17.9999H9.75V16.4999H8.25ZM14.25 16.4999V17.9999H15.75V16.4999H14.25ZM17.25 16.4999V17.9999H18.75V16.4999H17.25Z" fill="#5E5E5E"/>
</svg>
