<svg width="16" height="17" viewBox="0 0 16 17" fill="none" xmlns="http://www.w3.org/2000/svg">
<path d="M7.9935 1.83203C4.3135 1.83203 1.3335 4.8187 1.3335 8.4987C1.3335 12.1787 4.3135 15.1654 7.9935 15.1654C11.6802 15.1654 14.6668 12.1787 14.6668 8.4987C14.6668 4.8187 11.6802 1.83203 7.9935 1.83203ZM8.00016 13.832C5.0535 13.832 2.66683 11.4454 2.66683 8.4987C2.66683 5.55203 5.0535 3.16536 8.00016 3.16536C10.9468 3.16536 13.3335 5.55203 13.3335 8.4987C13.3335 11.4454 10.9468 13.832 8.00016 13.832Z" fill="#525151"/>
<path d="M8.3335 5.16797H7.3335V9.16797L10.8335 11.268L11.3335 10.448L8.3335 8.66797V5.16797Z" fill="#525151"/>
</svg>
