<svg width="16" height="24" viewBox="0 0 16 24" fill="none" xmlns="http://www.w3.org/2000/svg">
<rect width="16" height="16" transform="translate(0 4)" fill="white" fill-opacity="0.01"/>
<path d="M8.00003 11.0574L4.47136 7.52872C4.34563 7.40728 4.17722 7.34009 4.00243 7.3416C3.82763 7.34312 3.66042 7.41324 3.53682 7.53684C3.41321 7.66045 3.3431 7.82766 3.34158 8.00245C3.34006 8.17725 3.40726 8.34565 3.52869 8.47139L7.05736 12.0001L3.52869 15.5287C3.40726 15.6545 3.34006 15.8229 3.34158 15.9977C3.3431 16.1725 3.41321 16.3397 3.53682 16.4633C3.66042 16.5869 3.82763 16.657 4.00243 16.6585C4.17722 16.66 4.34563 16.5928 4.47136 16.4714L8.00003 12.9427L11.5287 16.4714C11.6544 16.5928 11.8228 16.66 11.9976 16.6585C12.1724 16.657 12.3396 16.5869 12.4632 16.4633C12.5868 16.3397 12.657 16.1725 12.6585 15.9977C12.66 15.8229 12.5928 15.6545 12.4714 15.5287L8.94269 12.0001L12.4714 8.47139C12.535 8.40989 12.5858 8.33633 12.6208 8.25499C12.6557 8.17365 12.6741 8.08617 12.6749 7.99766C12.6756 7.90914 12.6588 7.82135 12.6252 7.73942C12.5917 7.65749 12.5422 7.58305 12.4796 7.52046C12.417 7.45786 12.3426 7.40836 12.2607 7.37484C12.1787 7.34132 12.0909 7.32445 12.0024 7.32522C11.9139 7.32599 11.8264 7.34438 11.7451 7.37932C11.6638 7.41426 11.5902 7.46505 11.5287 7.52872L8.00003 11.0574Z" fill="#42526E"/>
</svg>
