<svg width="11" height="11" viewBox="0 0 11 11" fill="none" xmlns="http://www.w3.org/2000/svg">
<path d="M6.38121 5.49865L10.3187 1.5674C10.4364 1.44971 10.5025 1.29009 10.5025 1.12365C10.5025 0.957213 10.4364 0.797591 10.3187 0.679901C10.201 0.562211 10.0414 0.496094 9.87496 0.496094C9.70852 0.496094 9.5489 0.562211 9.43121 0.679901L5.49996 4.6174L1.56871 0.679901C1.45102 0.562211 1.2914 0.496094 1.12496 0.496094C0.958523 0.496094 0.798902 0.562211 0.681212 0.679901C0.563522 0.797591 0.497405 0.957213 0.497405 1.12365C0.497405 1.29009 0.563522 1.44971 0.681212 1.5674L4.61871 5.49865L0.681212 9.4299C0.622632 9.488 0.576135 9.55713 0.544405 9.63329C0.512674 9.70945 0.496338 9.79114 0.496338 9.87365C0.496338 9.95616 0.512674 10.0378 0.544405 10.114C0.576135 10.1902 0.622632 10.2593 0.681212 10.3174C0.739314 10.376 0.808439 10.4225 0.884601 10.4542C0.960763 10.4859 1.04245 10.5023 1.12496 10.5023C1.20747 10.5023 1.28916 10.4859 1.36532 10.4542C1.44148 10.4225 1.51061 10.376 1.56871 10.3174L5.49996 6.3799L9.43121 10.3174C9.48931 10.376 9.55844 10.4225 9.6346 10.4542C9.71076 10.4859 9.79245 10.5023 9.87496 10.5023C9.95747 10.5023 10.0392 10.4859 10.1153 10.4542C10.1915 10.4225 10.2606 10.376 10.3187 10.3174C10.3773 10.2593 10.4238 10.1902 10.4555 10.114C10.4873 10.0378 10.5036 9.95616 10.5036 9.87365C10.5036 9.79114 10.4873 9.70945 10.4555 9.63329C10.4238 9.55713 10.3773 9.488 10.3187 9.4299L6.38121 5.49865Z" fill="black"/>
</svg>
