<svg width="24" height="25" viewBox="0 0 24 25" fill="none" xmlns="http://www.w3.org/2000/svg">
<path d="M19.35 10.042C18.67 6.59195 15.64 4.00195 12 4.00195C9.11 4.00195 6.6 5.64195 5.35 8.04195C2.34 8.36195 0 10.912 0 14.002C0 17.312 2.69 20.002 6 20.002H19C21.76 20.002 24 17.762 24 15.002C24 12.362 21.95 10.222 19.35 10.042ZM19 18.002H6C3.79 18.002 2 16.212 2 14.002C2 11.952 3.53 10.242 5.56 10.032L6.63 9.92195L7.13 8.97195C8.08 7.14195 9.94 6.00195 12 6.00195C14.62 6.00195 16.88 7.86195 17.39 10.432L17.69 11.932L19.22 12.042C20.78 12.142 22 13.452 22 15.002C22 16.652 20.65 18.002 19 18.002ZM13.45 10.002H10.55V13.002H8L12 17.002L16 13.002H13.45V10.002Z" fill="#2E3192"/>
</svg>
