<svg width="18" height="18" viewBox="0 0 18 18" fill="none" xmlns="http://www.w3.org/2000/svg">
<circle cx="8.83607" cy="8.83607" r="8.83607" fill="#0A66C2"/>
<path d="M9.3973 13.2541H7.15323V6.52188H9.3973V7.64392C9.63355 7.34336 9.93338 7.09881 10.2753 6.92781C10.6172 6.75681 10.9927 6.66359 11.3749 6.65484C12.0433 6.65855 12.6829 6.92717 13.1536 7.4018C13.6242 7.87643 13.8874 8.51832 13.8855 9.18672V13.2541H11.6414V9.46723C11.598 9.16404 11.4465 8.88673 11.2149 8.68633C10.9833 8.48594 10.6871 8.37595 10.3808 8.37661C10.2437 8.38094 10.1089 8.41292 9.98448 8.47063C9.86006 8.52834 9.74859 8.61059 9.65674 8.71245C9.5649 8.8143 9.49457 8.93366 9.44999 9.06336C9.40541 9.19306 9.38749 9.33043 9.3973 9.46723V13.2541ZM6.03119 13.2541H3.78711V6.52188H6.03119V13.2541ZM4.90915 5.39984C4.61157 5.39984 4.32617 5.28163 4.11575 5.0712C3.90532 4.86078 3.78711 4.57538 3.78711 4.2778C3.78711 3.98022 3.90532 3.69482 4.11575 3.4844C4.32617 3.27398 4.61157 3.15576 4.90915 3.15576C5.20673 3.15576 5.49213 3.27398 5.70255 3.4844C5.91297 3.69482 6.03119 3.98022 6.03119 4.2778C6.03119 4.57538 5.91297 4.86078 5.70255 5.0712C5.49213 5.28163 5.20673 5.39984 4.90915 5.39984Z" fill="white"/>
</svg>
