<svg width="19" height="18" viewBox="0 0 19 18" fill="none" xmlns="http://www.w3.org/2000/svg">
<path d="M0.344238 9C0.344238 13.9706 4.37368 18 9.34424 18C14.3148 18 18.3442 13.9706 18.3442 9C18.3442 4.02944 14.3148 0 9.34424 0C4.37368 0 0.344238 4.02944 0.344238 9Z" fill="#25D366"/>
<path fill-rule="evenodd" clip-rule="evenodd" d="M12.4942 5.79375C11.6505 4.95 10.5255 4.5 9.34424 4.5C6.86924 4.5 4.84424 6.525 4.84424 9C4.84424 9.7875 5.06924 10.575 5.46299 11.25L4.84424 13.5L7.20675 12.8812C7.88175 13.2188 8.61299 13.4437 9.34424 13.4437C11.8192 13.4437 13.8442 11.4187 13.8442 8.94375C13.8442 7.7625 13.338 6.6375 12.4942 5.79375ZM9.34424 12.7125C8.66924 12.7125 7.99424 12.5438 7.43174 12.2063L7.31923 12.15L5.91298 12.5437L6.30674 11.1937L6.19423 11.025C5.80048 10.4062 5.63173 9.73125 5.63173 9.05625C5.63173 7.03125 7.31924 5.34375 9.34424 5.34375C10.3567 5.34375 11.2567 5.7375 11.988 6.4125C12.7192 7.14375 13.0567 8.04375 13.0567 9.05625C13.0567 11.025 11.4255 12.7125 9.34424 12.7125ZM11.3692 9.9C11.2567 9.84375 10.6942 9.5625 10.5817 9.5625C10.4692 9.50625 10.413 9.50625 10.3567 9.61875C10.3005 9.73125 10.0755 9.95625 10.0192 10.0687C9.963 10.125 9.90673 10.125 9.79423 10.125C9.68173 10.0687 9.34424 9.95625 8.89425 9.5625C8.55675 9.28125 8.33174 8.8875 8.27549 8.775C8.21924 8.6625 8.2755 8.60625 8.33175 8.55C8.388 8.49375 8.44424 8.4375 8.50049 8.38125C8.55674 8.325 8.55675 8.26875 8.613 8.2125C8.66925 8.15625 8.613 8.1 8.613 8.04375C8.613 7.9875 8.38799 7.425 8.27549 7.2C8.21924 7.03125 8.10675 7.03125 8.0505 7.03125C7.99425 7.03125 7.93798 7.03125 7.82548 7.03125C7.76923 7.03125 7.65673 7.03125 7.54423 7.14375C7.43173 7.25625 7.15049 7.5375 7.15049 8.1C7.15049 8.6625 7.54423 9.16875 7.60048 9.28125C7.65673 9.3375 8.38798 10.5188 9.51298 10.9688C10.4692 11.3625 10.638 11.25 10.863 11.25C11.088 11.25 11.538 10.9688 11.5942 10.7438C11.7067 10.4625 11.7067 10.2375 11.6505 10.2375C11.5942 9.95625 11.4817 9.95625 11.3692 9.9Z" fill="white"/>
</svg>
