<svg width="19" height="18" viewBox="0 0 19 18" fill="none" xmlns="http://www.w3.org/2000/svg">
<circle cx="9.50843" cy="8.83607" r="8.83607" fill="#00ADEF"/>
<path d="M14.1237 6.60817C13.7842 6.75462 13.4148 6.86001 13.0343 6.90106C13.4293 6.66634 13.7252 6.29553 13.8663 5.85819C13.4956 6.07873 13.0895 6.23338 12.6659 6.31528C12.4889 6.12604 12.2748 5.97528 12.037 5.8724C11.7992 5.76952 11.5427 5.71672 11.2836 5.71729C10.2351 5.71729 9.39197 6.56712 9.39197 7.60999C9.39197 7.75644 9.40973 7.90288 9.43857 8.04378C7.86872 7.96169 6.4686 7.2117 5.53778 6.06343C5.36818 6.35313 5.2793 6.68297 5.28039 7.01866C5.28039 7.67545 5.61433 8.25458 6.12357 8.59518C5.82347 8.58336 5.5304 8.50087 5.26819 8.35443V8.37772C5.26819 9.29745 5.91832 10.0596 6.78479 10.2349C6.6221 10.2772 6.45474 10.2988 6.28665 10.2993C6.16351 10.2993 6.04702 10.2871 5.92942 10.2704C6.16905 11.0204 6.86689 11.5651 7.69786 11.5829C7.04773 12.0921 6.2334 12.3917 5.34918 12.3917C5.19053 12.3917 5.04408 12.3861 4.89209 12.3684C5.73083 12.9065 6.72599 13.2171 7.79771 13.2171C11.2769 13.2171 13.1807 10.3348 13.1807 7.83299C13.1807 7.75089 13.1807 7.66879 13.1752 7.58669C13.5435 7.3171 13.8663 6.98316 14.1237 6.60817Z" fill="white"/>
</svg>
