<svg width="17" height="18" viewBox="0 0 17 18" fill="none" xmlns="http://www.w3.org/2000/svg">
<circle cx="8.5" cy="9" r="8.5" fill="#E21919"/>
<path d="M9.02873 9.00007L11.3912 6.64132C11.4618 6.57071 11.5015 6.47493 11.5015 6.37507C11.5015 6.27521 11.4618 6.17943 11.3912 6.10882C11.3206 6.03821 11.2248 5.99854 11.125 5.99854C11.0251 5.99854 10.9293 6.03821 10.8587 6.10882L8.49998 8.47132L6.14123 6.10882C6.07061 6.03821 5.97484 5.99854 5.87498 5.99854C5.77511 5.99854 5.67934 6.03821 5.60873 6.10882C5.53811 6.17943 5.49844 6.27521 5.49844 6.37507C5.49844 6.47493 5.53811 6.57071 5.60873 6.64132L7.97123 9.00007L5.60873 11.3588C5.57358 11.3937 5.54568 11.4352 5.52664 11.4809C5.5076 11.5266 5.4978 11.5756 5.4978 11.6251C5.4978 11.6746 5.5076 11.7236 5.52664 11.7693C5.54568 11.815 5.57358 11.8565 5.60873 11.8913C5.64359 11.9265 5.68506 11.9544 5.73076 11.9734C5.77646 11.9924 5.82547 12.0022 5.87498 12.0022C5.92448 12.0022 5.9735 11.9924 6.01919 11.9734C6.06489 11.9544 6.10637 11.9265 6.14123 11.8913L8.49998 9.52882L10.8587 11.8913C10.8936 11.9265 10.9351 11.9544 10.9808 11.9734C11.0265 11.9924 11.0755 12.0022 11.125 12.0022C11.1745 12.0022 11.2235 11.9924 11.2692 11.9734C11.3149 11.9544 11.3564 11.9265 11.3912 11.8913C11.4264 11.8565 11.4543 11.815 11.4733 11.7693C11.4924 11.7236 11.5022 11.6746 11.5022 11.6251C11.5022 11.5756 11.4924 11.5266 11.4733 11.4809C11.4543 11.4352 11.4264 11.3937 11.3912 11.3588L9.02873 9.00007Z" fill="white"/>
</svg>
