<svg width="12" height="11" viewBox="0 0 12 11" fill="none" xmlns="http://www.w3.org/2000/svg">
<path d="M6.94004 5.50232L11.14 1.30899C11.2656 1.18345 11.3361 1.01319 11.3361 0.835654C11.3361 0.65812 11.2656 0.487857 11.14 0.362321C11.0145 0.236785 10.8442 0.16626 10.6667 0.16626C10.4892 0.16626 10.3189 0.236785 10.1934 0.362321L6.00004 4.56232L1.80671 0.362321C1.68117 0.236785 1.51091 0.16626 1.33337 0.16626C1.15584 0.16626 0.985576 0.236785 0.860041 0.362321C0.734505 0.487857 0.66398 0.65812 0.66398 0.835654C0.66398 1.01319 0.734505 1.18345 0.860041 1.30899L5.06004 5.50232L0.860041 9.69565C0.797555 9.75763 0.747959 9.83136 0.714113 9.9126C0.680267 9.99384 0.662842 10.081 0.662842 10.169C0.662842 10.257 0.680267 10.3441 0.714113 10.4254C0.747959 10.5066 0.797555 10.5803 0.860041 10.6423C0.922016 10.7048 0.99575 10.7544 1.07699 10.7882C1.15823 10.8221 1.24537 10.8395 1.33337 10.8395C1.42138 10.8395 1.50852 10.8221 1.58976 10.7882C1.671 10.7544 1.74473 10.7048 1.80671 10.6423L6.00004 6.44232L10.1934 10.6423C10.2554 10.7048 10.3291 10.7544 10.4103 10.7882C10.4916 10.8221 10.5787 10.8395 10.6667 10.8395C10.7547 10.8395 10.8419 10.8221 10.9231 10.7882C11.0043 10.7544 11.0781 10.7048 11.14 10.6423C11.2025 10.5803 11.2521 10.5066 11.286 10.4254C11.3198 10.3441 11.3372 10.257 11.3372 10.169C11.3372 10.081 11.3198 9.99384 11.286 9.9126C11.2521 9.83136 11.2025 9.75763 11.14 9.69565L6.94004 5.50232Z" fill="black"/>
</svg>
