<svg width="20" height="24" viewBox="0 0 20 24" fill="none" xmlns="http://www.w3.org/2000/svg">
<path fill-rule="evenodd" clip-rule="evenodd" d="M2 0C0.895433 0 0 0.895432 0 2V22C0 23.1046 0.895433 24 2 24H18C19.1046 24 20 23.1046 20 22V12V6.07187C20 5.86535 19.9168 5.66683 19.7678 5.51785L14.4961 0.245976C14.3389 0.088832 14.1218 0 13.8949 0H10H2ZM5.83333 9.8C5.48817 9.8 5.20833 10.0686 5.20833 10.4C5.20833 10.7314 5.48817 11 5.83333 11H12.6515C12.9967 11 13.2765 10.7314 13.2765 10.4C13.2765 10.0686 12.9967 9.8 12.6515 9.8H5.83333ZM5.83333 13C5.48817 13 5.20833 13.2686 5.20833 13.6C5.20833 13.9314 5.48817 14.2 5.83333 14.2H14.1667C14.5118 14.2 14.7917 13.9314 14.7917 13.6C14.7917 13.2686 14.5118 13 14.1667 13H5.83333ZM5.83333 16.2C5.48817 16.2 5.20833 16.4686 5.20833 16.8C5.20833 17.1314 5.48817 17.4 5.83333 17.4H14.1667C14.5118 17.4 14.7917 17.1314 14.7917 16.8C14.7917 16.4686 14.5118 16.2 14.1667 16.2H5.83333Z" fill="#E83274"/>
</svg>
