<svg width="28" height="33" viewBox="0 0 28 33" fill="none" xmlns="http://www.w3.org/2000/svg">
<path fill-rule="evenodd" clip-rule="evenodd" d="M3.33317 0.00244141C1.86042 0.00244141 0.666504 1.19635 0.666504 2.66911V29.3358C0.666504 30.8085 1.86042 32.0024 3.33317 32.0024H24.6665C26.1393 32.0024 27.3332 30.8085 27.3332 29.3358V16.0024V8.09827C27.3332 7.82291 27.2223 7.55822 27.0236 7.35957L19.9946 0.330409C19.7851 0.120884 19.4956 0.00244141 19.1931 0.00244141H13.9998H3.33317ZM8.44428 13.0691C7.98406 13.0691 7.61095 13.4273 7.61095 13.8691C7.61095 14.3109 7.98406 14.6691 8.44428 14.6691H17.5352C17.9954 14.6691 18.3685 14.3109 18.3685 13.8691C18.3685 13.4273 17.9954 13.0691 17.5352 13.0691H8.44428ZM8.44428 17.3358C7.98406 17.3358 7.61095 17.694 7.61095 18.1358C7.61095 18.5776 7.98406 18.9358 8.44428 18.9358H19.5554C20.0156 18.9358 20.3887 18.5776 20.3887 18.1358C20.3887 17.694 20.0156 17.3358 19.5554 17.3358H8.44428ZM8.44428 21.6024C7.98406 21.6024 7.61095 21.9606 7.61095 22.4024C7.61095 22.8443 7.98406 23.2024 8.44428 23.2024H19.5554C20.0156 23.2024 20.3887 22.8443 20.3887 22.4024C20.3887 21.9606 20.0156 21.6024 19.5554 21.6024H8.44428Z" fill="#E83274"/>
</svg>
