<svg width="246" height="246" viewBox="0 0 246 246" fill="none" xmlns="http://www.w3.org/2000/svg">
<path d="M0 8.00001C0 3.58173 3.58172 0 8 0H238C242.418 0 246 3.58172 246 8V246H0V8.00001Z" fill="#F9F9FC"/>
<path fill-rule="evenodd" clip-rule="evenodd" d="M112.334 107C110.861 107 109.667 108.194 109.667 109.667V136.333C109.667 137.806 110.861 139 112.334 139H133.667C135.14 139 136.334 137.806 136.334 136.333V123V115.096C136.334 114.82 136.223 114.556 136.024 114.357L128.995 107.328C128.786 107.118 128.496 107 128.194 107H123H112.334ZM117.445 120.067C116.985 120.067 116.611 120.425 116.611 120.867C116.611 121.308 116.985 121.667 117.445 121.667H126.536C126.996 121.667 127.369 121.308 127.369 120.867C127.369 120.425 126.996 120.067 126.536 120.067H117.445ZM117.445 124.333C116.985 124.333 116.611 124.692 116.611 125.133C116.611 125.575 116.985 125.933 117.445 125.933H128.556C129.016 125.933 129.389 125.575 129.389 125.133C129.389 124.692 129.016 124.333 128.556 124.333H117.445ZM117.445 128.6C116.985 128.6 116.611 128.958 116.611 129.4C116.611 129.842 116.985 130.2 117.445 130.2H128.556C129.016 130.2 129.389 129.842 129.389 129.4C129.389 128.958 129.016 128.6 128.556 128.6H117.445Z" fill="#E83274"/>
<path d="M136.333 115C136.333 115 136.333 114.333 135.666 113.667L129.666 107.667C129 107 128.333 107 128.333 107V113.667C128.333 114.333 129 115 129.666 115H136.333Z" fill="#F194BA"/>
</svg>
