<svg width="4" height="14" viewBox="0 0 4 14" fill="none" xmlns="http://www.w3.org/2000/svg">
<path d="M2.07904 3.21227C2.34518 3.21227 2.60534 3.12852 2.82663 2.97162C3.04792 2.81472 3.2204 2.59171 3.32224 2.33079C3.42409 2.06988 3.45074 1.78277 3.39882 1.50578C3.3469 1.2288 3.21874 0.974368 3.03055 0.774671C2.84236 0.574974 2.60259 0.438979 2.34156 0.383883C2.08053 0.328787 1.80997 0.357064 1.56408 0.465139C1.3182 0.573214 1.10804 0.756233 0.96018 0.991052C0.81232 1.22587 0.733399 1.50194 0.733399 1.78436C0.733399 2.16306 0.875172 2.52626 1.12753 2.79404C1.37988 3.06183 1.72215 3.21227 2.07904 3.21227ZM2.07904 10.3518C1.81289 10.3518 1.55273 10.4356 1.33144 10.5925C1.11015 10.7494 0.937678 10.9724 0.83583 11.2333C0.733981 11.4942 0.707333 11.7813 0.759255 12.0583C0.811177 12.3353 0.939337 12.5897 1.12753 12.7894C1.31572 12.9891 1.55549 13.1251 1.81652 13.1802C2.07754 13.2353 2.34811 13.207 2.59399 13.0989C2.83987 12.9909 3.05003 12.8078 3.19789 12.573C3.34575 12.3382 3.42467 12.0621 3.42467 11.7797C3.42467 11.401 3.2829 11.0378 3.03055 10.77C2.77819 10.5023 2.43592 10.3518 2.07904 10.3518ZM2.07904 5.35413C1.81289 5.35413 1.55273 5.43788 1.33144 5.59478C1.11015 5.75168 0.937678 5.97469 0.83583 6.2356C0.733981 6.49652 0.707333 6.78363 0.759255 7.06061C0.811177 7.3376 0.939337 7.59203 1.12753 7.79173C1.31572 7.99142 1.55549 8.12742 1.81652 8.18251C2.07754 8.23761 2.34811 8.20933 2.59399 8.10126C2.83987 7.99318 3.05003 7.81016 3.19789 7.57535C3.34575 7.34053 3.42467 7.06446 3.42467 6.78204C3.42467 6.40334 3.2829 6.04014 3.03055 5.77236C2.77819 5.50457 2.43592 5.35413 2.07904 5.35413Z" fill="#9B9DC3"/>
</svg>
