<svg width="18" height="18" viewBox="0 0 18 18" fill="none" xmlns="http://www.w3.org/2000/svg">
<path d="M15.75 8.99654C15.5511 8.99654 15.3603 9.07555 15.2197 9.21621C15.079 9.35686 15 9.54762 15 9.74654V14.2465C15 14.4454 14.921 14.6362 14.7803 14.7769C14.6397 14.9175 14.4489 14.9965 14.25 14.9965H3.75C3.55109 14.9965 3.36032 14.9175 3.21967 14.7769C3.07902 14.6362 3 14.4454 3 14.2465V3.74654C3 3.54762 3.07902 3.35686 3.21967 3.21621C3.36032 3.07555 3.55109 2.99654 3.75 2.99654H8.25C8.44891 2.99654 8.63968 2.91752 8.78033 2.77687C8.92098 2.63621 9 2.44545 9 2.24654C9 2.04762 8.92098 1.85686 8.78033 1.71621C8.63968 1.57555 8.44891 1.49654 8.25 1.49654H3.75C3.15326 1.49654 2.58097 1.73359 2.15901 2.15555C1.73705 2.5775 1.5 3.1498 1.5 3.74654V14.2465C1.5 14.8433 1.73705 15.4156 2.15901 15.8375C2.58097 16.2595 3.15326 16.4965 3.75 16.4965H14.25C14.8467 16.4965 15.419 16.2595 15.841 15.8375C16.2629 15.4156 16.5 14.8433 16.5 14.2465V9.74654C16.5 9.54762 16.421 9.35686 16.2803 9.21621C16.1397 9.07555 15.9489 8.99654 15.75 8.99654ZM4.5 9.56654V12.7465C4.5 12.9454 4.57902 13.1362 4.71967 13.2769C4.86032 13.4175 5.05109 13.4965 5.25 13.4965H8.43C8.5287 13.4971 8.62655 13.4782 8.71793 13.4409C8.80931 13.4035 8.89242 13.3485 8.9625 13.279L14.1525 8.08154L16.2825 5.99654C16.3528 5.92681 16.4086 5.84386 16.4467 5.75247C16.4847 5.66107 16.5043 5.56305 16.5043 5.46404C16.5043 5.36503 16.4847 5.267 16.4467 5.1756C16.4086 5.08421 16.3528 5.00126 16.2825 4.93154L13.1025 1.71404C13.0328 1.64374 12.9498 1.58794 12.8584 1.54987C12.767 1.51179 12.669 1.49219 12.57 1.49219C12.471 1.49219 12.373 1.51179 12.2816 1.54987C12.1902 1.58794 12.1072 1.64374 12.0375 1.71404L9.9225 3.83654L4.7175 9.03404C4.64799 9.10412 4.59299 9.18723 4.55567 9.27861C4.51835 9.36998 4.49943 9.46783 4.5 9.56654ZM12.57 3.30404L14.6925 5.42654L13.6275 6.49154L11.505 4.36904L12.57 3.30404ZM6 9.87404L10.4475 5.42654L12.57 7.54904L8.1225 11.9965H6V9.87404Z" fill="#808084"/>
</svg>
