<svg width="24" height="24" viewBox="0 0 24 24" fill="none" xmlns="http://www.w3.org/2000/svg">
<path d="M11.9793 1.16456C6.70265 1.05687 1.77876 5.3944 1.22988 10.6473C0.649833 15.0898 3.08882 19.7757 7.15777 21.7118C10.9999 23.6425 15.9822 23.0611 19.1686 20.131C22.3865 17.3088 23.731 12.5065 22.2422 8.46185C20.8735 4.47521 17.0453 1.43894 12.811 1.19608C12.5343 1.17567 12.2568 1.16433 11.9793 1.16433L11.9793 1.16456ZM11.8565 2.33365C16.6951 2.15144 21.2427 6.18615 21.6218 11.0176C22.0875 15.2786 19.4065 19.6929 15.3266 21.0972C11.3606 22.5637 6.49237 21.138 4.09706 17.6104C1.6386 14.1668 1.73624 9.08365 4.52573 5.85292C6.3111 3.70241 9.05051 2.34409 11.8565 2.33366V2.33365ZM12.0486 3.38742C7.57263 3.24501 3.45469 7.17473 3.37383 11.651C3.17652 15.6959 6.17438 19.6654 10.1791 20.4358C13.8898 21.2481 18.0359 19.3418 19.6915 15.8903C21.4037 12.5195 20.6379 8.0336 17.7166 5.57128C16.1686 4.20015 14.1212 3.38969 12.0486 3.38742ZM11.996 4.53644C15.9418 4.43212 19.5354 7.98303 19.4721 11.9327C19.5419 15.584 16.6032 19.0541 12.9371 19.4223C9.49511 19.8742 5.86605 17.6671 4.87647 14.2999C3.8392 11.0917 5.20199 7.22768 8.19131 5.57581C9.33743 4.90063 10.6651 4.53429 11.996 4.53644ZM11.9998 7.20023C10.8656 10.3565 10.1457 13.644 9.01156 16.8002C10.0521 15.7658 10.9593 14.6069 11.9998 13.5725L14.9881 16.8002C13.9731 13.6062 13.0149 10.3943 11.9998 7.20024V7.20023Z" fill="white"/>
</svg>
