<svg width="22" height="22" viewBox="0 0 22 22" fill="none" xmlns="http://www.w3.org/2000/svg">
<path d="M10.9788 0.164073C5.70216 0.0563773 0.77827 4.39391 0.229388 9.6468C-0.350655 14.0893 2.08833 18.7752 6.15728 20.7113C9.99945 22.642 14.9817 22.0606 18.1682 19.1306C21.386 16.3083 22.7305 11.506 21.2418 7.46136C19.873 3.47472 16.0448 0.438455 11.8105 0.195596C11.5338 0.175182 11.2563 0.163838 10.9789 0.163838L10.9788 0.164073ZM10.856 1.33316C15.6946 1.15096 20.2422 5.18566 20.6213 10.0171C21.087 14.2781 18.406 18.6924 14.3261 20.0967C10.3601 21.5632 5.49188 20.1375 3.09657 16.61C0.638114 13.1663 0.735755 8.08316 3.52524 4.85243C5.31061 2.70192 8.05002 1.3436 10.856 1.33317V1.33316ZM11.0481 2.38693C6.57214 2.24453 2.4542 6.17424 2.37334 10.6505C2.17604 14.6954 5.17389 18.6649 9.17866 19.4353C12.8893 20.2476 17.0354 18.3413 18.691 14.8898C20.4032 11.519 19.6374 7.03311 16.7161 4.57079C15.1681 3.19966 13.1207 2.38921 11.0481 2.38693ZM10.9955 3.53595C14.9413 3.43163 18.5349 6.98254 18.4717 10.9322C18.5414 14.5835 15.6027 18.0536 11.9366 18.4218C8.49462 18.8737 4.86556 16.6666 3.87598 13.2994C2.83871 10.0913 4.2015 6.22719 7.19082 4.57533C8.33695 3.90014 9.66463 3.5338 10.9955 3.53595ZM10.9994 6.19974C9.86515 9.35598 9.14526 12.6435 8.01107 15.7997C9.05161 14.7653 9.95884 13.6065 10.9994 12.5721L13.9876 15.7997C12.9726 12.6057 12.0144 9.39384 10.9994 6.19976V6.19974Z" fill="white"/>
</svg>
