<svg width="17" height="18" viewBox="0 0 17 18" fill="none" xmlns="http://www.w3.org/2000/svg">
<path d="M14.5136 10.3742L14.2728 10.5159C14.1113 10.6117 13.9944 10.7678 13.9479 10.9498C13.9014 11.1317 13.9291 11.3247 14.0249 11.4863C14.0876 11.592 14.1767 11.6796 14.2835 11.7405C14.3903 11.8013 14.5111 11.8334 14.634 11.8334C14.7612 11.8333 14.886 11.7991 14.9953 11.7342L15.2361 11.5925C15.3779 11.4894 15.4765 11.3373 15.5126 11.1658C15.5488 10.9942 15.52 10.8153 15.4319 10.6637C15.3437 10.5121 15.2025 10.3986 15.0355 10.3451C14.8685 10.2916 14.6876 10.302 14.5278 10.3742H14.5136ZM8.25196 5.00505L8.49988 4.8563L13.4582 7.68963L12.2115 8.39797C12.0751 8.47529 11.9682 8.59572 11.9075 8.74036C11.8469 8.885 11.8359 9.04568 11.8765 9.1972C11.917 9.34872 12.0066 9.48251 12.1314 9.57758C12.2561 9.67266 12.4089 9.72365 12.5657 9.72255C12.6898 9.72341 12.8119 9.69165 12.9199 9.63047L15.229 8.29172C15.3381 8.22994 15.4287 8.14035 15.4918 8.03208C15.5549 7.92382 15.5881 7.80077 15.5881 7.67547C15.5881 7.55017 15.5549 7.42711 15.4918 7.31885C15.4287 7.21059 15.3381 7.121 15.229 7.05922L8.85404 3.38297C8.74636 3.3208 8.62421 3.28807 8.49988 3.28807C8.37554 3.28807 8.25339 3.3208 8.14571 3.38297L7.54363 3.73005C7.38019 3.82398 7.26076 3.97899 7.2116 4.16098C7.16245 4.34297 7.18761 4.53703 7.28154 4.70047C7.37547 4.86391 7.53048 4.98334 7.71247 5.03249C7.89446 5.08164 8.08852 5.05648 8.25196 4.96255V5.00505ZM2.62779 2.12213C2.56175 2.05609 2.48334 2.0037 2.39705 1.96796C2.31076 1.93221 2.21828 1.91382 2.12488 1.91382C2.03148 1.91382 1.93899 1.93221 1.8527 1.96796C1.76641 2.0037 1.688 2.05609 1.62196 2.12213C1.48858 2.25552 1.41364 2.43642 1.41364 2.62505C1.41364 2.81368 1.48858 2.99458 1.62196 3.12797L4.20029 5.69922L1.77071 7.11588C1.6617 7.17766 1.57103 7.26725 1.50794 7.37551C1.44486 7.48378 1.41162 7.60683 1.41162 7.73213C1.41162 7.85743 1.44486 7.98049 1.50794 8.08875C1.57103 8.19701 1.6617 8.2866 1.77071 8.34838L8.14571 12.0317C8.25468 12.0903 8.37615 12.1219 8.49988 12.1238C8.62346 12.1209 8.74468 12.0893 8.85404 12.0317L9.91654 11.4084L10.9436 12.4425L8.50696 13.8592L2.47904 10.3671C2.3156 10.2732 2.12154 10.248 1.93956 10.2972C1.75757 10.3463 1.60256 10.4658 1.50863 10.6292C1.4147 10.7927 1.38954 10.9867 1.43869 11.1687C1.48784 11.3507 1.60727 11.5057 1.77071 11.5996L8.14571 15.283C8.25339 15.3451 8.37554 15.3779 8.49988 15.3779C8.62421 15.3779 8.74636 15.3451 8.85404 15.283L11.9778 13.4767L14.372 15.878C14.4378 15.9444 14.5162 15.9971 14.6025 16.033C14.6888 16.069 14.7814 16.0875 14.8749 16.0875C14.9684 16.0875 15.061 16.069 15.1473 16.033C15.2336 15.9971 15.3119 15.9444 15.3778 15.878C15.4442 15.8121 15.4969 15.7338 15.5328 15.6475C15.5688 15.5611 15.5873 15.4686 15.5873 15.375C15.5873 15.2815 15.5688 15.189 15.5328 15.1026C15.4969 15.0163 15.4442 14.938 15.3778 14.8721L2.62779 2.12213ZM8.49988 10.6221L3.54154 7.71797L5.24154 6.74047L8.86821 10.3742L8.49988 10.6221Z" fill="#3855B3"/>
</svg>
