<svg width="16" height="16" viewBox="0 0 16 16" fill="none" xmlns="http://www.w3.org/2000/svg">
<path fill-rule="evenodd" clip-rule="evenodd" d="M8 2C6.5 2 5.2 2.4 4.1 3.2L4.9 3.9C5.8 3.3 6.8 3 8 3C11.3 3 14 5.7 14 9H15C15 5.1 11.9 2 8 2ZM1 3L2.6 4.5C1.6 5.7 1 7.3 1 9H2C2 7.5 2.5 6.2 3.4 5.2L5.6 7.2C5.2 7.7 5 8.3 5 9C5 10.7 6.3 12 8 12C8.8 12 9.5 11.7 10 11.2L13 14L13.7 13.3L1.7 2.3L1 3ZM6.3 7.9L9.2 10.6C8.9 10.8 8.5 11 8 11C6.9 11 6 10.1 6 9C6 8.6 6.1 8.2 6.3 7.9ZM11 9.5L10 8.6C9.8 7.8 9.1 7.1 8.2 7L7.2 6.1C7.5 6 7.7 6 8 6C9.7 6 11 7.3 11 9V9.5Z" fill="#2E3192"/>
</svg>
