<svg width="249" height="38" viewBox="0 0 249 38" fill="none" xmlns="http://www.w3.org/2000/svg">
<path d="M18.6837 0C21.7388 0 24.7999 0 27.9776 0C27.7713 0.293955 27.6428 0.492899 27.4993 0.682931C24.9464 4.03817 22.3905 7.39044 19.8346 10.7427C16.0979 15.6449 12.3612 20.5471 8.61555 25.4434C8.3495 25.7938 8.21796 26.1353 8.22095 26.5866C8.23889 30.0784 8.22992 33.5732 8.22992 37.065C8.22992 37.3323 8.21796 37.5965 8.21497 37.8073C8.1522 37.8756 8.13725 37.8994 8.11932 37.9113C8.10138 37.9231 8.07448 37.938 8.05355 37.938C5.6262 37.9469 3.19884 37.9528 0.771491 37.9588C0.550279 37.9588 0.329068 37.9588 0.0809518 37.9588C0.0510583 37.7836 0.0151861 37.644 0.00621807 37.5045C-0.00573933 37.3323 0.00322809 37.16 0.00322809 36.9878C0.00322809 24.9832 0.00322809 12.9785 0.00322809 0.97391C0.00322809 0.682925 0.00920642 0.388973 0.0121958 0.0772031C0.140738 0.0445415 0.233408 0.00594428 0.323089 0.00594428C2.84909 0.00297504 5.37509 0.00297504 7.90408 0.00594428C7.97583 0.00594428 8.05056 0.0267246 8.12828 0.0386016C8.31063 0.252387 8.22992 0.50774 8.22992 0.74231C8.2359 4.23414 8.23291 7.72894 8.2359 11.2208C8.2359 11.4583 8.24786 11.6929 8.25384 11.9096C8.32857 11.9304 8.35547 11.9453 8.37341 11.9393C8.39433 11.9334 8.41227 11.9096 8.43021 11.8948C8.44814 11.8799 8.46907 11.8621 8.48402 11.8443C8.53484 11.7909 8.58266 11.7344 8.63049 11.678C11.9367 7.82098 15.2459 3.96097 18.5521 0.103925C18.5671 0.089079 18.588 0.0772002 18.6837 0Z" fill="#F9F9FC"/>
<path d="M42.9158 0.0419922C45.654 0.0419922 48.3504 0.0419922 51.1066 0.0419922C51.0588 0.2053 51.0438 0.341884 50.981 0.457684C50.3772 1.61569 49.7703 2.77072 49.1605 3.92575C48.4341 5.29754 47.7017 6.66637 46.9813 8.03815C45.5135 10.8292 44.0517 13.6203 42.584 16.4114C40.8651 19.6806 39.1402 22.9497 37.4184 26.2159C36.3153 28.3062 35.2152 30.3995 34.1122 32.4898C33.2154 34.1882 32.3186 35.8867 31.4188 37.5851C31.362 37.6949 31.2932 37.7959 31.2394 37.885C31.1976 37.9087 31.1796 37.9206 31.1557 37.9325C31.1348 37.9443 31.1109 37.9562 31.087 37.9592C30.9375 37.9681 30.791 37.977 30.6415 37.977C27.8166 37.974 24.9917 37.9711 22.1697 37.9651C22.1219 37.9651 22.0741 37.9414 21.9784 37.9117C21.5121 37.205 21.0188 36.4716 20.5346 35.7293C19.0429 33.437 17.5542 31.1418 16.0655 28.8466C14.9266 27.0888 13.7876 25.331 12.6487 23.5732C12.5829 23.4693 12.5112 23.3684 12.4484 23.2644C12.3348 23.0774 12.3438 22.8903 12.4723 22.7121C12.5889 22.5518 12.7115 22.4004 12.831 22.243C14.4273 20.1438 16.0237 18.0445 17.623 15.9452C17.7515 15.776 17.898 15.6157 18.0803 15.4019C18.8635 16.6133 19.5062 17.8277 20.2117 19.0036C20.9202 20.1883 21.5958 21.3908 22.2893 22.5845C22.9709 23.7573 23.6525 24.9272 24.337 26.0971C25.0305 27.2877 25.7271 28.4754 26.4535 29.7166C26.5641 29.5741 26.6508 29.4939 26.7046 29.3929C27.9422 27.1512 29.1738 24.9034 30.4114 22.6617C32.2797 19.2767 34.151 15.8918 36.0194 12.5069C36.9251 10.8678 37.8249 9.22882 38.7277 7.58683C40.0101 5.25598 41.2896 2.92512 42.572 0.594267C42.6736 0.398297 42.8022 0.220147 42.9158 0.0419922Z" fill="#2EABE2"/>
<path d="M169.473 14.4246C169.601 14.4068 169.718 14.38 169.837 14.38C170.83 14.3771 171.819 14.3919 172.812 14.3711C173.153 14.3652 173.362 14.5018 173.55 14.7601C175.233 17.0405 176.931 19.3119 178.602 21.6012C178.964 22.0971 179.236 22.6553 179.547 23.1838C179.654 23.3679 179.759 23.555 179.929 23.8579C180.082 22.9493 179.849 22.1921 179.87 21.426C179.891 20.663 179.873 19.8998 179.873 19.1368C179.873 18.3499 179.867 17.5631 179.876 16.7762C179.885 16.0161 179.834 15.256 179.906 14.5196C179.968 14.4691 180.004 14.4127 180.043 14.4127C181.254 14.3325 182.464 14.3949 183.705 14.3771C183.744 14.5522 183.786 14.6888 183.801 14.8284C183.816 14.9739 183.804 15.1223 183.804 15.2708C183.804 19.5524 183.804 23.8341 183.801 28.1128C183.801 28.377 183.846 28.6502 183.726 28.9412C183.606 28.959 183.49 28.9946 183.373 28.9946C182.357 29.0006 181.34 28.9828 180.327 29.0065C179.977 29.0154 179.78 28.8581 179.595 28.6057C178.474 27.0735 177.35 25.5444 176.223 24.0152C175.903 23.5787 175.586 23.1363 175.254 22.7088C174.558 21.8091 173.93 20.8678 173.449 19.8375C173.389 19.7098 173.353 19.5584 173.156 19.496C173.156 19.6475 173.147 19.7841 173.156 19.9206C173.191 20.4343 173.263 20.948 173.266 21.4617C173.278 23.751 173.275 26.0373 173.272 28.3266C173.272 28.5166 173.251 28.7096 173.236 28.9352C172.794 29.0481 172.375 28.9828 171.963 28.9946C171.565 29.0065 171.171 28.9976 170.773 28.9976C170.355 28.9976 169.936 28.9976 169.488 28.9976C169.452 28.8135 169.416 28.6769 169.404 28.5374C169.389 28.3919 169.401 28.2434 169.401 28.0949C169.401 23.8133 169.401 19.5317 169.401 15.253C169.398 14.9858 169.362 14.7156 169.473 14.4246Z" fill="#32ABE2"/>
<path d="M70.4092 14.3947C70.5617 14.5907 70.7141 14.7807 70.8606 14.9767C72.3433 16.9779 73.8171 18.9851 75.3087 20.9775C75.9036 21.7703 76.4327 22.5927 76.8482 23.4924C76.917 23.6439 77.0306 23.7745 77.1263 23.9111C77.1382 23.9259 77.1711 23.9259 77.201 23.9319C77.201 23.8101 77.207 23.6884 77.201 23.5667C77.1621 22.952 77.0904 22.3404 77.0874 21.7287C77.0724 19.4899 77.0814 17.2511 77.0814 15.0123C77.0814 14.8222 77.0993 14.6322 77.1053 14.4511C77.7062 14.3501 79.999 14.3323 80.8569 14.4155C81.0094 14.653 80.9347 14.9321 80.9347 15.1934C80.9406 19.1544 80.9377 23.1153 80.9377 27.0763C80.9377 27.5425 80.9377 28.0116 80.9377 28.4778C80.9377 28.6203 80.9257 28.7658 80.9167 28.8935C80.3129 29.0093 78.3907 29.036 77.0665 28.9529C76.92 28.7658 76.7526 28.555 76.5941 28.3382C75.1742 26.4142 73.7692 24.4782 72.3314 22.566C71.6617 21.6753 71.0758 20.7399 70.5766 19.7482C70.5138 19.6235 70.4272 19.5107 70.2867 19.291C70.2867 19.5344 70.2807 19.6473 70.2867 19.7601C70.3255 20.3985 70.4032 21.0339 70.4062 21.6723C70.4212 23.9348 70.4122 26.1974 70.4122 28.4629C70.4122 28.6084 70.4002 28.751 70.3943 28.8875C69.8652 29.0123 67.4109 29.0301 66.6247 28.9232C66.6068 28.9054 66.5859 28.8905 66.5739 28.8697C66.5619 28.8489 66.556 28.8252 66.556 28.8014C66.55 24.2496 66.547 19.7007 66.541 15.1489C66.541 14.9291 66.541 14.7094 66.541 14.5135C66.6098 14.457 66.6456 14.3976 66.6815 14.3976C67.9161 14.3917 69.1507 14.3947 70.4092 14.3947Z" fill="#F9F9FC"/>
<path d="M105.296 17.4062C104.157 18.0149 103.009 18.5167 101.861 19.066C101.691 18.8819 101.545 18.7186 101.392 18.5612C100.256 17.3884 98.4267 17.0618 96.947 17.7744C96.1279 18.1693 95.5868 18.8196 95.2401 19.642C94.977 20.2626 94.8843 20.9218 94.8634 21.5869C94.8395 22.4005 94.9053 23.2051 95.2042 23.9801C95.7752 25.4647 96.953 26.2931 98.5523 26.3288C99.5716 26.3525 100.516 26.1328 101.335 25.4944C101.796 25.1351 102.134 24.6898 102.31 24.1345C102.352 23.9979 102.352 23.8495 102.373 23.6861C101.936 23.5703 101.515 23.6386 101.102 23.6268C100.657 23.6149 100.211 23.6297 99.7659 23.6208C99.3504 23.6149 98.9349 23.6565 98.5313 23.5882C98.4267 23.0002 98.4177 21.3137 98.5074 20.6249C98.5284 20.613 98.5463 20.5981 98.5672 20.5863C98.5881 20.5744 98.6121 20.5595 98.636 20.5595C101.087 20.5566 103.538 20.5536 105.99 20.5506C106.062 20.5506 106.136 20.5684 106.208 20.5863C106.229 20.5892 106.247 20.613 106.283 20.6397C106.298 20.6902 106.337 20.7585 106.34 20.8268C106.387 22.062 106.298 23.2853 105.933 24.476C105.207 26.8513 103.652 28.4013 101.219 29.0308C99.6075 29.4494 97.9783 29.4494 96.3671 29.0634C94.3552 28.5795 92.8635 27.3799 91.8561 25.6072C90.3256 22.9171 90.4332 19.1195 92.729 16.5808C93.7544 15.4465 94.9949 14.6864 96.4807 14.3301C98.5971 13.8253 100.657 13.953 102.618 14.9595C103.718 15.5207 104.597 16.3284 105.296 17.4062Z" fill="#F9F9FC"/>
<path d="M118.16 14.4099C119.34 14.3268 121.541 14.3535 122.088 14.4485C122.171 15.0038 122.201 27.8547 122.12 28.885C121.657 29.0127 119.191 29.0424 118.18 28.9295C118.094 28.5584 118.145 28.1694 118.136 27.7834C118.127 27.3915 118.133 26.9966 118.133 26.6016C118.133 26.2335 118.133 25.8623 118.133 25.4941C118.133 25.0992 118.133 24.7073 118.133 24.3124C118.133 23.9234 118.133 23.5314 118.133 23.1009C117.209 22.994 116.324 23.0593 115.442 23.0534C114.581 23.0475 113.72 23.0118 112.821 23.089C112.755 24.0986 112.8 25.0784 112.788 26.0553C112.776 27.0084 112.803 27.9616 112.773 28.9028C112.163 29.0008 109.828 29.0245 108.866 28.9473C108.689 28.7098 108.779 28.4307 108.776 28.1724C108.77 24.2619 108.77 20.3514 108.77 16.4379C108.77 15.9213 108.767 15.4046 108.77 14.888C108.77 14.7455 108.785 14.6029 108.791 14.4693C109.359 14.3446 111.245 14.3119 112.71 14.401C112.731 14.5495 112.776 14.7098 112.776 14.8702C112.782 16.3221 112.779 17.7741 112.782 19.2231C112.782 19.4636 112.797 19.7071 112.806 19.906C112.865 19.9595 112.88 19.9802 112.898 19.9921C112.919 20.004 112.943 20.0099 112.967 20.0188C112.991 20.0248 113.015 20.0337 113.039 20.0337C114.575 20.0367 116.109 20.0396 117.645 20.0396C117.768 20.0396 117.891 20.0248 118.058 20.0129C118.079 19.8496 118.121 19.6863 118.121 19.5259C118.127 18.074 118.124 16.622 118.124 15.173C118.136 14.9355 118.151 14.695 118.16 14.4099Z" fill="#F9F9FC"/>
<path d="M211.298 14.4777C211.31 14.6648 211.325 14.8102 211.325 14.9587C211.325 17.6399 211.337 20.3212 211.307 22.9994C211.298 23.7803 211.208 24.5702 211.074 25.3422C210.724 27.3434 209.495 28.5727 207.543 29.0893C206.141 29.4605 204.712 29.4991 203.271 29.3269C202.68 29.2556 202.1 29.1457 201.535 28.9527C199.813 28.3678 198.799 27.1653 198.429 25.4104C198.249 24.5642 198.184 23.7031 198.172 22.848C198.142 20.1935 198.154 17.536 198.154 14.8815C198.154 14.739 198.187 14.5994 198.202 14.4717C198.817 14.353 201.52 14.347 202.165 14.4599C202.291 14.7034 202.234 14.9765 202.237 15.2408C202.246 17.6993 202.246 20.1578 202.249 22.6193C202.249 23.2102 202.282 23.7952 202.405 24.3772C202.581 25.2174 203.071 25.7074 203.905 25.9152C204.682 26.1082 205.424 26.0637 206.141 25.7014C206.56 25.4906 206.859 25.1729 206.981 24.7216C207.071 24.389 207.164 24.0535 207.188 23.712C207.25 22.8539 207.301 21.9958 207.307 21.1347C207.325 19.1928 207.313 17.248 207.313 15.3061C207.313 15.0359 207.313 14.7687 207.313 14.4777C207.466 14.4391 207.579 14.3856 207.696 14.3827C208.76 14.3767 209.824 14.3738 210.891 14.3797C211.026 14.3797 211.16 14.4421 211.298 14.4777Z" fill="#33ACE2"/>
<path d="M59.5 21.5095C60.4924 22.7684 61.4669 24.0036 62.4415 25.2418C63.3951 26.4532 64.3576 27.6558 65.3322 28.9088C64.6506 29.0068 61.7778 29.0305 60.3878 28.9593C59.6076 27.9616 58.8602 26.8956 58.089 25.8475C57.3148 24.7994 56.5495 23.7453 55.7872 22.7031C55.5361 22.7506 55.6078 22.9317 55.6078 23.0564C55.6019 24.7786 55.6049 26.4978 55.6019 28.2199C55.6019 28.4605 55.6587 28.7128 55.5122 28.9623C54.2626 28.9623 53.0071 28.9623 51.7277 28.9623C51.5722 28.7099 51.644 28.4337 51.644 28.1754C51.638 24.3896 51.641 20.6038 51.641 16.8181C51.641 16.2034 51.638 15.5888 51.641 14.9741C51.641 14.8049 51.6559 14.6357 51.6649 14.4723C52.1671 14.3506 54.4809 14.3179 55.5182 14.4159C55.6617 14.6416 55.6019 14.894 55.6019 15.1345C55.6078 16.7824 55.6019 18.4303 55.6078 20.0753C55.6078 20.2831 55.566 20.5029 55.6587 20.6781C55.7364 20.6899 55.7603 20.7018 55.7812 20.6929C55.8021 20.684 55.8171 20.6603 55.832 20.6424C55.85 20.6246 55.8679 20.6068 55.8829 20.589C55.9277 20.5296 55.9695 20.4702 56.0144 20.4108C57.4044 18.4363 58.7915 16.4617 60.1815 14.4902C60.1965 14.4694 60.2144 14.4545 60.2324 14.4367C60.8003 14.3595 63.4848 14.3387 64.7552 14.4011C64.8449 14.6386 64.6386 14.7574 64.531 14.8999C63.0573 16.8418 61.5746 18.7807 60.0948 20.7196C59.8975 20.9661 59.7122 21.2244 59.5 21.5095Z" fill="#F9F9FC"/>
<path d="M214.399 14.4068C214.581 14.395 214.704 14.3771 214.827 14.3771C216.533 14.3801 218.243 14.3593 219.95 14.4009C220.662 14.4157 221.388 14.49 222.079 14.6562C223.81 15.0779 224.826 16.2062 225.191 17.9402C225.379 18.831 225.313 19.698 225.044 20.5561C224.688 21.6844 223.938 22.4535 222.835 22.887C222.605 22.9761 222.369 23.0443 222.091 23.1394C222.446 23.8401 222.919 24.4369 223.34 25.0634C223.765 25.6989 224.204 26.3224 224.632 26.9548C225.056 27.5814 225.478 28.2138 225.878 28.8106C225.848 28.8938 225.845 28.9235 225.83 28.9413C225.815 28.9561 225.791 28.968 225.768 28.971C225.72 28.9828 225.672 28.9947 225.621 28.9947C224.261 28.9947 222.901 28.9947 221.502 28.9947C221.376 28.8106 221.245 28.6384 221.134 28.4513C220.279 27.0113 219.433 25.5682 218.578 24.1281C218.483 23.9648 218.36 23.8193 218.252 23.6679C218.01 23.8015 218.076 23.9945 218.076 24.1549C218.07 25.4584 218.073 26.7618 218.073 28.0624C218.073 28.3326 218.073 28.5998 218.073 28.8819C217.947 28.9264 217.858 28.9858 217.768 28.9858C216.704 28.9917 215.64 28.9858 214.575 28.9828C214.531 28.9828 214.483 28.9531 214.39 28.9235C214.369 28.7839 214.327 28.6206 214.327 28.4573C214.321 27.6467 214.324 26.8361 214.324 26.0225C214.324 22.4327 214.324 18.8429 214.327 15.2531C214.321 14.9888 214.277 14.7156 214.399 14.4068ZM218.121 21.245C218.871 21.3519 219.577 21.3163 220.267 21.1084C220.665 20.9867 220.964 20.7343 221.125 20.3513C221.427 19.6327 221.412 18.9141 221.014 18.2342C220.907 18.0531 220.728 17.8927 220.548 17.7799C219.983 17.4325 218.817 17.3523 218.124 17.581C218.046 18.157 218.04 20.4789 218.121 21.245Z" fill="#30ABE2"/>
<path d="M157.729 14.4275C158.733 14.3324 166.099 14.3592 166.643 14.4482C166.772 14.953 166.793 16.7197 166.673 17.5541C166.497 17.5719 166.308 17.6105 166.12 17.6105C164.906 17.6164 163.696 17.6105 162.482 17.6134C162.24 17.6134 161.998 17.6342 161.723 17.6491C161.618 18.4656 161.678 19.2406 161.675 20.0571C161.914 20.0809 162.102 20.1165 162.291 20.1195C163.406 20.1254 164.518 20.1195 165.633 20.1225C165.875 20.1225 166.117 20.1432 166.344 20.1551C166.47 20.7282 166.491 22.2811 166.395 23.1214C166.246 23.2995 166.033 23.2431 165.845 23.2431C164.73 23.2491 163.618 23.2431 162.503 23.2461C162.261 23.2461 162.019 23.2639 161.788 23.2758C161.633 23.8132 161.618 24.9356 161.753 25.669C161.932 25.6838 162.12 25.7165 162.312 25.7165C163.498 25.7224 164.688 25.7195 165.875 25.7195C166.12 25.7195 166.368 25.7195 166.628 25.7195C166.673 25.8412 166.733 25.9273 166.733 26.0164C166.736 26.925 166.733 27.8336 166.727 28.7451C166.727 28.7897 166.697 28.8342 166.661 28.9292C166.547 28.947 166.407 28.9886 166.269 28.9886C163.57 28.9916 160.874 28.9916 158.174 28.9916C158.052 28.9916 157.932 28.9678 157.816 28.9589C157.618 28.7065 157.699 28.4245 157.696 28.1632C157.69 25.3127 157.693 22.4593 157.693 19.6088C157.693 18.1331 157.69 16.6603 157.696 15.1846C157.696 14.9471 157.717 14.7066 157.729 14.4275Z" fill="#32ABE2"/>
<path d="M231.488 20.1283C233.094 20.1283 234.627 20.1283 236.17 20.1283C236.385 20.6628 236.262 21.1795 236.277 21.6842C236.292 22.1712 236.313 22.6611 236.242 23.1896C236.02 23.2134 235.832 23.249 235.644 23.249C234.505 23.2549 233.366 23.249 232.227 23.2549C231.988 23.2549 231.728 23.1926 231.515 23.3618C231.402 23.9171 231.393 24.9415 231.5 25.6689C231.677 25.6868 231.865 25.7224 232.056 25.7224C233.27 25.7283 234.484 25.7254 235.697 25.7254C235.943 25.7254 236.188 25.7254 236.451 25.7254C236.499 25.8471 236.561 25.9332 236.561 26.0193C236.564 26.9279 236.561 27.8394 236.555 28.748C236.555 28.7926 236.523 28.8371 236.484 28.9381C236.373 28.9559 236.236 28.9945 236.098 28.9945C233.423 28.9975 230.747 28.9975 228.072 28.9945C227.928 28.9945 227.782 28.9737 227.593 28.9589C227.569 28.751 227.534 28.561 227.534 28.3739C227.528 27.2189 227.531 26.0609 227.531 24.9058C227.531 21.708 227.531 18.5101 227.531 15.3122C227.531 15.042 227.531 14.7748 227.531 14.4808C227.68 14.4393 227.794 14.3829 227.907 14.3829C230.657 14.3769 233.405 14.3769 236.155 14.3799C236.25 14.3799 236.349 14.4096 236.46 14.4244C236.496 14.5194 236.558 14.6085 236.558 14.7006C236.564 15.5616 236.564 16.4227 236.558 17.2808C236.558 17.3729 236.496 17.462 236.445 17.5985C235.632 17.6223 234.819 17.6074 234.002 17.6104C233.186 17.6134 232.37 17.6104 231.551 17.6104C231.327 18.041 231.45 18.4656 231.432 18.8694C231.42 19.2583 231.393 19.6533 231.488 20.1283Z" fill="#2FABE2"/>
<path d="M148.792 24.2857C148.882 24.0809 148.933 24.0007 148.954 23.9146C149.318 22.43 149.898 21.0196 150.403 19.5825C150.959 18.0058 151.527 16.4351 152.089 14.8614C152.14 14.7248 152.203 14.5912 152.254 14.4635C152.783 14.3536 155.575 14.3299 156.445 14.4308C156.418 14.5704 156.412 14.7159 156.358 14.8406C155.165 17.6732 153.967 20.5029 152.771 23.3356C152.071 24.9894 151.375 26.6433 150.675 28.2972C150.58 28.5199 150.472 28.7396 150.367 28.9682C149.342 28.9682 148.359 28.9682 147.339 28.9682C147.268 28.8465 147.181 28.7307 147.127 28.6C145.567 24.9063 144.012 21.2126 142.455 17.5218C142.12 16.729 141.776 15.9392 141.444 15.1464C141.352 14.9267 141.283 14.6951 141.199 14.4635C141.818 14.3507 144.736 14.3447 145.432 14.4546C146.009 16.0431 146.604 17.6554 147.178 19.2737C147.749 20.8919 148.412 22.4804 148.792 24.2857Z" fill="#32ABE2"/>
<path d="M248.181 15.4136C247.787 16.3073 247.383 17.2248 246.961 18.1869C246.794 18.0829 246.669 18.0176 246.555 17.9345C245.921 17.4802 245.219 17.1981 244.447 17.0704C243.96 16.9902 243.515 17.1061 243.09 17.3347C242.352 17.7266 242.376 18.7421 242.935 19.134C243.174 19.3003 243.443 19.4428 243.718 19.5408C244.157 19.7012 244.621 19.8021 245.066 19.9506C245.628 20.1376 246.193 20.3247 246.737 20.5563C247.951 21.0759 248.609 22.0112 248.836 23.3029C248.997 24.2263 248.919 25.1171 248.644 25.996C248.211 27.3707 247.284 28.3357 245.966 28.888C243.595 29.8827 240.43 29.5472 238.304 27.4895C238.236 27.4212 238.176 27.341 238.101 27.252C238.245 26.6878 238.642 26.2662 238.92 25.7822C239.186 25.313 239.482 24.8617 239.787 24.3629C239.948 24.4698 240.074 24.5351 240.179 24.6242C240.519 24.9092 240.842 25.2151 241.189 25.4912C241.682 25.8831 242.253 26.0939 242.866 26.2365C243.329 26.3434 243.763 26.284 244.172 26.1177C245.045 25.7644 245.32 25.025 245.027 24.1135C244.923 23.7928 244.684 23.5671 244.373 23.4454C243.891 23.2554 243.401 23.0861 242.911 22.9169C242.373 22.7328 241.835 22.5576 241.294 22.3794C240.842 22.231 240.451 21.9697 240.062 21.7084C239.551 21.3639 239.21 20.8889 239.007 20.3188C238.182 18.0295 239.21 15.1137 242.02 14.312C244.146 13.7063 246.187 14.0567 248.056 15.2651C248.088 15.2829 248.112 15.3305 248.181 15.4136Z" fill="#32ABE2"/>
<path d="M134.653 14.4099C134.751 15.1701 134.742 17.198 134.638 17.8097C134.115 17.8691 133.576 17.8246 133.038 17.8394C132.524 17.8542 132.007 17.8067 131.475 17.875C131.379 18.169 131.412 18.4392 131.412 18.7005C131.409 21.8449 131.412 24.9923 131.409 28.1367C131.409 28.404 131.4 28.6712 131.397 28.9622C130.061 28.9622 128.779 28.9622 127.496 28.9622C127.308 28.7098 127.395 28.4307 127.395 28.1694C127.389 25.025 127.392 21.8776 127.389 18.7331C127.389 18.4659 127.377 18.2016 127.371 17.9047C127.012 17.7859 126.665 17.8513 126.33 17.8394C125.96 17.8275 125.589 17.8394 125.218 17.8364C124.874 17.8335 124.534 17.8305 124.205 17.8246C124.073 17.2604 124.046 15.7194 124.133 14.4485C124.235 14.4248 124.345 14.3743 124.459 14.3743C127.774 14.3713 131.089 14.3713 134.408 14.3743C134.473 14.3743 134.545 14.3921 134.653 14.4099Z" fill="#F9F9FC"/>
<path d="M185.833 17.8364C185.725 17.201 185.722 15.1077 185.824 14.4396C185.977 14.4188 186.144 14.3772 186.308 14.3772C189.456 14.3743 192.601 14.3743 195.749 14.3772C195.916 14.3772 196.083 14.401 196.236 14.4129C196.359 14.977 196.382 16.8625 196.287 17.7919C196.161 17.8186 196.024 17.872 195.886 17.875C195.193 17.8839 194.499 17.878 193.806 17.8809C193.587 17.8839 193.369 17.9047 193.151 17.9166C193.007 18.2046 193.061 18.4807 193.061 18.742C193.058 21.8657 193.058 24.9923 193.058 28.1159C193.058 28.3802 193.04 28.6444 193.028 28.8938C192.436 29.0186 189.902 29.0364 189.121 28.9295C188.978 28.6919 189.041 28.4158 189.041 28.1545C189.035 25.4228 189.038 22.6911 189.038 19.9624C189.038 19.4695 189.041 18.9796 189.035 18.4867C189.035 18.3204 189.014 18.1511 188.999 17.9433C187.943 17.7859 186.903 17.9552 185.833 17.8364Z" fill="#31ABE2"/>
<path d="M88.2279 28.986C87.929 28.986 87.7347 28.986 87.5374 28.986C86.4492 28.986 85.3611 28.986 84.2371 28.986C84.2132 28.8168 84.1773 28.6802 84.1773 28.5406C84.1743 23.968 84.1743 19.3954 84.1743 14.8227C84.1743 14.701 84.1893 14.5822 84.1982 14.4694C84.7303 14.3477 87.0202 14.315 88.1412 14.413C88.2996 14.6505 88.2219 14.9267 88.2219 15.188C88.2279 18.8015 88.2249 22.4151 88.2249 26.0287C88.2249 26.8155 88.2249 27.6024 88.2249 28.3892C88.2279 28.5555 88.2279 28.7247 88.2279 28.986Z" fill="#F9F9FC"/>
</svg>
