<svg width="8" height="12" viewBox="0 0 8 12" fill="none" xmlns="http://www.w3.org/2000/svg">
<path d="M6.88384 1.07122C7.07153 1.25713 7.17804 1.50976 7.18008 1.77394C7.18213 2.03812 7.07956 2.29237 6.89476 2.48117L3.38269 6.0985L6.95002 9.61096C7.13772 9.79687 7.24422 10.0495 7.24627 10.3137C7.24832 10.5779 7.14575 10.8321 6.96095 11.0209C6.86872 11.1154 6.7587 11.1906 6.63724 11.2423C6.51577 11.294 6.38527 11.3212 6.25327 11.3222C6.12126 11.3232 5.99035 11.2981 5.8681 11.2483C5.74586 11.1985 5.63468 11.1249 5.54099 11.0319L1.26826 6.82491C1.17381 6.73268 1.09857 6.62266 1.04685 6.5012C0.995142 6.37973 0.967992 6.24923 0.966969 6.11723C0.965945 5.98522 0.99107 5.85431 1.04089 5.73206C1.09072 5.60982 1.16425 5.49864 1.25726 5.40495L5.46388 1.08222C5.55611 0.987776 5.66613 0.912527 5.7876 0.860815C5.90906 0.809104 6.03956 0.781952 6.17156 0.780929C6.30357 0.779906 6.43448 0.805031 6.55673 0.854854C6.67898 0.904677 6.79015 0.978212 6.88384 1.07122Z" fill="black"/>
</svg>
