<svg width="17" height="18" viewBox="0 0 17 18" fill="none" xmlns="http://www.w3.org/2000/svg">
<circle cx="8.5" cy="9" r="8.5" fill="#18A615"/>
<path d="M12.6937 6.00616C12.6356 5.94758 12.5665 5.90109 12.4904 5.86936C12.4142 5.83763 12.3325 5.82129 12.25 5.82129C12.1675 5.82129 12.0858 5.83763 12.0096 5.86936C11.9335 5.90109 11.8644 5.94758 11.8062 6.00616L7.15 10.6687L5.19375 8.70616C5.13342 8.64789 5.06221 8.60207 4.98418 8.57132C4.90614 8.54056 4.82281 8.52548 4.73895 8.52693C4.65509 8.52838 4.57233 8.54634 4.49541 8.57977C4.41848 8.6132 4.3489 8.66146 4.29062 8.72179C4.23235 8.78211 4.18653 8.85333 4.15578 8.93136C4.12502 9.0094 4.10994 9.09272 4.11139 9.17659C4.11284 9.26045 4.1308 9.34321 4.16423 9.42013C4.19767 9.49705 4.24592 9.56664 4.30625 9.62491L6.70625 12.0249C6.76435 12.0835 6.83348 12.13 6.90964 12.1617C6.9858 12.1935 7.06749 12.2098 7.15 12.2098C7.23251 12.2098 7.3142 12.1935 7.39036 12.1617C7.46652 12.13 7.53565 12.0835 7.59375 12.0249L12.6937 6.92491C12.7572 6.86639 12.8078 6.79535 12.8424 6.71629C12.8771 6.63723 12.895 6.55185 12.895 6.46554C12.895 6.37922 12.8771 6.29385 12.8424 6.21478C12.8078 6.13572 12.7572 6.06469 12.6937 6.00616Z" fill="white"/>
</svg>
