<svg width="32" height="32" viewBox="0 0 32 32" fill="none" xmlns="http://www.w3.org/2000/svg">
<path fill-rule="evenodd" clip-rule="evenodd" d="M5.33464 0C3.86188 0 2.66797 1.19391 2.66797 2.66667V29.3333C2.66797 30.8061 3.86188 32 5.33464 32H26.668C28.1407 32 29.3346 30.8061 29.3346 29.3333V16V8.09583C29.3346 7.82047 29.2237 7.55578 29.0251 7.35713L21.9961 0.327968C21.7865 0.118443 21.4971 0 21.1945 0H16.0013H5.33464ZM10.4457 13.0667C9.98552 13.0667 9.61241 13.4249 9.61241 13.8667C9.61241 14.3085 9.98552 14.6667 10.4457 14.6667H19.5366C19.9969 14.6667 20.37 14.3085 20.37 13.8667C20.37 13.4249 19.9969 13.0667 19.5366 13.0667H10.4457ZM10.4457 17.3333C9.98552 17.3333 9.61241 17.6915 9.61241 18.1333C9.61241 18.5751 9.98552 18.9333 10.4457 18.9333H21.5569C22.0171 18.9333 22.3902 18.5751 22.3902 18.1333C22.3902 17.6915 22.0171 17.3333 21.5569 17.3333H10.4457ZM10.4457 21.6C9.98552 21.6 9.61241 21.9582 9.61241 22.4C9.61241 22.8418 9.98552 23.2 10.4457 23.2H21.5569C22.0171 23.2 22.3902 22.8418 22.3902 22.4C22.3902 21.9582 22.0171 21.6 21.5569 21.6H10.4457Z" fill="#1AA728"/>
<path d="M29.332 8C29.332 8 29.332 7.33333 28.6654 6.66667L22.6654 0.666667C21.9987 0 21.332 0 21.332 0V6.66667C21.332 7.33333 21.9987 8 22.6654 8H29.332Z" fill="#093D0E"/>
</svg>
