<svg width="30" height="30" viewBox="0 0 30 30" fill="none" xmlns="http://www.w3.org/2000/svg">
<path d="M19.5 15C19.5 16.1935 19.0259 17.3381 18.182 18.182C17.3381 19.0259 16.1935 19.5 15 19.5C13.8065 19.5 12.6619 19.0259 11.818 18.182C10.9741 17.3381 10.5 16.1935 10.5 15C10.5 14.7435 10.527 14.493 10.5735 14.25H9V20.2455C9 20.6625 9.3375 21 9.7545 21H20.247C20.4468 20.9996 20.6384 20.9199 20.7795 20.7785C20.9207 20.637 21 20.4453 21 20.2455V14.25H19.4265C19.473 14.493 19.5 14.7435 19.5 15ZM15 18C15.3941 17.9999 15.7842 17.9222 16.1483 17.7713C16.5123 17.6204 16.8431 17.3993 17.1216 17.1206C17.4002 16.8419 17.6212 16.511 17.7719 16.1469C17.9226 15.7828 18.0001 15.3926 18 14.9985C17.9999 14.6044 17.9222 14.2142 17.7713 13.8502C17.6204 13.4862 17.3993 13.1554 17.1206 12.8769C16.8419 12.5983 16.511 12.3773 16.1469 12.2266C15.7828 12.0759 15.3926 11.9984 14.9985 11.9985C14.2027 11.9987 13.4395 12.315 12.8769 12.8779C12.3143 13.4408 11.9983 14.2042 11.9985 15C11.9987 15.7958 12.315 16.559 12.8779 17.1216C13.4408 17.6842 14.2042 18.0002 15 18ZM18.6 11.85H20.3985C20.518 11.85 20.6326 11.8026 20.7172 11.7183C20.8019 11.6339 20.8496 11.5195 20.85 11.4V9.6015C20.85 9.48175 20.8024 9.36691 20.7178 9.28224C20.6331 9.19757 20.5182 9.15 20.3985 9.15H18.6C18.4803 9.15 18.3654 9.19757 18.2807 9.28224C18.1961 9.36691 18.1485 9.48175 18.1485 9.6015V11.4C18.15 11.6475 18.3525 11.85 18.6 11.85ZM15 0.599998C11.1809 0.599998 7.51818 2.11714 4.81766 4.81766C2.11714 7.51818 0.599998 11.1809 0.599998 15C0.599998 18.8191 2.11714 22.4818 4.81766 25.1823C7.51818 27.8829 11.1809 29.4 15 29.4C16.891 29.4 18.7636 29.0275 20.5106 28.3039C22.2577 27.5802 23.8452 26.5195 25.1823 25.1823C26.5195 23.8452 27.5802 22.2577 28.3039 20.5106C29.0275 18.7636 29.4 16.891 29.4 15C29.4 13.109 29.0275 11.2364 28.3039 9.48936C27.5802 7.74227 26.5195 6.15482 25.1823 4.81766C23.8452 3.4805 22.2577 2.4198 20.5106 1.69613C18.7636 0.972466 16.891 0.599998 15 0.599998ZM22.5 20.8335C22.5 21.75 21.75 22.5 20.8335 22.5H9.1665C8.25 22.5 7.5 21.75 7.5 20.8335V9.1665C7.5 8.25 8.25 7.5 9.1665 7.5H20.8335C21.75 7.5 22.5 8.25 22.5 9.1665V20.8335Z" fill="#5651FF"/>
</svg>
