<svg width="21" height="14" viewBox="0 0 21 14" fill="none" xmlns="http://www.w3.org/2000/svg">
<path d="M14.2647 0.274415C13.1185 0.273958 11.9914 0.568412 10.9918 1.12946C9.96787 0.557174 8.81213 0.26254 7.63921 0.274792C6.46628 0.287043 5.31694 0.605755 4.30522 1.19931C3.29349 1.79286 2.45453 2.64063 1.87158 3.6585C1.28862 4.67637 0.981934 5.82898 0.981934 7.00196C0.981934 8.17495 1.28862 9.32756 1.87158 10.3454C2.45453 11.3633 3.29349 12.2111 4.30522 12.8046C5.31694 13.3982 6.46628 13.7169 7.63921 13.7291C8.81213 13.7414 9.96787 13.4468 10.9918 12.8745C11.8892 13.3747 12.8892 13.6627 13.9152 13.7163C14.9412 13.7699 15.9659 13.5878 16.9106 13.1839C17.8552 12.7799 18.6948 12.165 19.3648 11.3861C20.0348 10.6073 20.5175 9.68526 20.7758 8.69086C21.0341 7.69647 21.0612 6.65611 20.8549 5.64963C20.6486 4.64315 20.2145 3.69731 19.5858 2.8847C18.9572 2.07209 18.1507 1.4143 17.2283 0.961827C16.3059 0.509352 15.2921 0.274216 14.2647 0.274465V0.274415ZM9.2372 11.457C8.7497 11.6314 8.23657 11.7235 7.71883 11.7295C6.46501 11.7295 5.26254 11.2314 4.37596 10.3449C3.48937 9.45827 2.99129 8.25581 2.99129 7.00198C2.99129 5.74816 3.48937 4.54569 4.37596 3.65911C5.26254 2.77252 6.46501 2.27444 7.71883 2.27444C8.23657 2.28043 8.7497 2.37253 9.2372 2.54697C8.14237 3.77264 7.5372 5.35853 7.5372 7.00198C7.5372 8.64542 8.14237 10.2313 9.2372 11.457V11.457ZM10.9918 10.3996C10.5321 9.96113 10.1662 9.43393 9.91613 8.84992C9.6661 8.26591 9.53719 7.63724 9.53719 7.00196C9.53719 6.36668 9.6661 5.73801 9.91613 5.154C10.1662 4.56999 10.5321 4.04279 10.9918 3.60431C11.4515 4.04279 11.8174 4.56999 12.0674 5.154C12.3175 5.73801 12.4464 6.36668 12.4464 7.00196C12.4464 7.63724 12.3175 8.26591 12.0674 8.84992C11.8174 9.43393 11.4515 9.96113 10.9918 10.3996ZM14.2647 11.7295C13.747 11.7235 13.2339 11.6314 12.7464 11.457C13.8412 10.2313 14.4464 8.64542 14.4464 7.00198C14.4464 5.35853 13.8412 3.77264 12.7464 2.54697C13.2339 2.37253 13.747 2.28043 14.2647 2.27444C15.5186 2.27444 16.721 2.77252 17.6076 3.65911C18.4942 4.54569 18.9923 5.74816 18.9923 7.00198C18.9923 8.25581 18.4942 9.45827 17.6076 10.3449C16.721 11.2314 15.5186 11.7295 14.2647 11.7295V11.7295Z" fill="white"/>
</svg>
