<svg width="196" height="30" viewBox="0 0 196 30" fill="none" xmlns="http://www.w3.org/2000/svg">
<path d="M14.6599 0C17.057 0 19.4589 0 21.9522 0C21.7904 0.23221 21.6895 0.389366 21.5769 0.539482C19.5738 3.18996 17.5684 5.83808 15.5629 8.48621C12.631 12.3587 9.69905 16.2312 6.76007 20.099C6.55132 20.3758 6.44811 20.6456 6.45046 21.0021C6.46453 23.7605 6.45749 26.5212 6.45749 29.2795C6.45749 29.4906 6.44811 29.6994 6.44577 29.8659C6.39651 29.9199 6.38478 29.9386 6.37071 29.948C6.35664 29.9574 6.33553 29.9691 6.31911 29.9691C4.41452 29.9762 2.50993 29.9809 0.60534 29.9856C0.431769 29.9856 0.258199 29.9856 0.0635177 29.9856C0.0400622 29.8472 0.0119156 29.7369 0.00487893 29.6267C-0.00450329 29.4906 0.00253287 29.3546 0.00253287 29.2186C0.00253287 19.7355 0.00253287 10.2524 0.00253287 0.769341C0.00253287 0.539477 0.00722369 0.30727 0.00956924 0.0609867C0.110428 0.0351856 0.18314 0.00469569 0.253507 0.00469569C2.2355 0.00235013 4.21749 0.00235013 6.20183 0.00469569C6.25812 0.00469569 6.31676 0.0211111 6.37775 0.0304933C6.52082 0.199373 6.45749 0.40109 6.45749 0.586388C6.46218 3.34476 6.45984 6.10548 6.46219 8.86385C6.46219 9.0515 6.47157 9.23678 6.47626 9.40801C6.5349 9.42443 6.55601 9.43617 6.57008 9.43147C6.5865 9.42678 6.60057 9.40801 6.61465 9.39629C6.62872 9.38456 6.64514 9.37049 6.65687 9.35641C6.69674 9.31419 6.73427 9.26963 6.7718 9.22506C9.36598 6.17819 11.9625 3.12897 14.5567 0.0820958C14.5684 0.070368 14.5848 0.0609844 14.6599 0Z" fill="white"/>
<path d="M33.6712 0.0332031C35.8197 0.0332031 37.9354 0.0332031 40.098 0.0332031C40.0605 0.162209 40.0488 0.270103 39.9995 0.361579C39.5257 1.27634 39.0496 2.18876 38.5711 3.10118C38.0011 4.18483 37.4264 5.26613 36.8611 6.34978C35.7095 8.5546 34.5625 10.7594 33.4108 12.9642C32.0621 15.5467 30.7088 18.1292 29.3577 20.7093C28.4922 22.3605 27.6291 24.0141 26.7635 25.6654C26.0599 27.0071 25.3562 28.3487 24.6502 29.6904C24.6056 29.7772 24.5517 29.8569 24.5095 29.9273C24.4766 29.946 24.4626 29.9554 24.4438 29.9648C24.4274 29.9742 24.4086 29.9836 24.3898 29.9859C24.2726 29.993 24.1576 30 24.0404 30C21.8238 29.9976 19.6073 29.9953 17.3931 29.9906C17.3555 29.9906 17.318 29.9718 17.2429 29.9484C16.877 29.3901 16.49 28.8108 16.11 28.2244C14.9396 26.4136 13.7715 24.6005 12.6034 22.7874C11.7098 21.3988 10.8161 20.0103 9.92247 18.6217C9.87087 18.5396 9.81457 18.4599 9.76532 18.3778C9.67619 18.23 9.68322 18.0822 9.78408 17.9415C9.87556 17.8148 9.97173 17.6952 10.0655 17.5709C11.3181 15.9126 12.5706 14.2543 13.8255 12.596C13.9263 12.4623 14.0413 12.3356 14.1843 12.1667C14.7989 13.1237 15.3032 14.0831 15.8567 15.0119C16.4126 15.9478 16.9427 16.8977 17.4869 17.8406C18.0217 18.7671 18.5565 19.6913 19.0936 20.6154C19.6378 21.556 20.1843 22.4942 20.7542 23.4747C20.841 23.3621 20.909 23.2987 20.9513 23.219C21.9223 21.4481 22.8887 19.6725 23.8597 17.9016C25.3257 15.2277 26.794 12.5538 28.26 9.87983C28.9707 8.58509 29.6767 7.29035 30.3851 5.99325C31.3913 4.152 32.3952 2.31073 33.4015 0.469473C33.4812 0.314666 33.5821 0.173936 33.6712 0.0332031Z" fill="#00ADEF"/>
<path d="M132.974 11.3946C133.074 11.3805 133.166 11.3594 133.26 11.3594C134.039 11.357 134.815 11.3688 135.594 11.3523C135.861 11.3477 136.025 11.4555 136.173 11.6596C137.494 13.461 138.826 15.2553 140.137 17.0638C140.421 17.4555 140.634 17.8964 140.878 18.3139C140.963 18.4594 141.045 18.6071 141.178 18.8464C141.298 18.1286 141.115 17.5305 141.131 16.9254C141.148 16.3226 141.134 15.7198 141.134 15.117C141.134 14.4954 141.129 13.8738 141.136 13.2522C141.143 12.6518 141.103 12.0513 141.16 11.4696C141.209 11.4297 141.237 11.3852 141.268 11.3852C142.217 11.3219 143.167 11.3711 144.141 11.357C144.171 11.4954 144.204 11.6033 144.216 11.7136C144.228 11.8285 144.218 11.9458 144.218 12.063C144.218 15.4453 144.218 18.8276 144.216 22.2076C144.216 22.4163 144.251 22.6321 144.157 22.862C144.063 22.876 143.972 22.9042 143.88 22.9042C143.083 22.9089 142.285 22.8948 141.49 22.9136C141.216 22.9206 141.061 22.7963 140.916 22.5969C140.036 21.3866 139.154 20.1787 138.27 18.9707C138.019 18.6259 137.77 18.2764 137.51 17.9387C136.963 17.228 136.471 16.4844 136.093 15.6705C136.046 15.5696 136.018 15.45 135.863 15.4008C135.863 15.5204 135.856 15.6283 135.863 15.7362C135.891 16.142 135.948 16.5477 135.95 16.9535C135.96 18.7619 135.957 20.568 135.955 22.3764C135.955 22.5266 135.938 22.679 135.927 22.8573C135.58 22.9464 135.251 22.8948 134.927 22.9042C134.616 22.9136 134.306 22.9065 133.994 22.9065C133.666 22.9065 133.337 22.9065 132.985 22.9065C132.957 22.7611 132.929 22.6532 132.92 22.543C132.908 22.428 132.917 22.3108 132.917 22.1935C132.917 18.8112 132.917 15.4289 132.917 12.049C132.915 11.8379 132.887 11.6244 132.974 11.3946Z" fill="#00ADEF"/>
<path d="M55.2451 11.3713C55.3647 11.5261 55.4843 11.6762 55.5993 11.831C56.7627 13.4119 57.919 14.9975 59.0895 16.5714C59.5562 17.1976 59.9714 17.8473 60.2974 18.558C60.3514 18.6777 60.4405 18.7809 60.5156 18.8888C60.5249 18.9005 60.5507 18.9005 60.5742 18.9052C60.5742 18.809 60.5789 18.7128 60.5742 18.6167C60.5437 18.1311 60.4874 17.648 60.4851 17.1648C60.4733 15.3962 60.4804 13.6277 60.4804 11.8591C60.4804 11.709 60.4945 11.5589 60.4991 11.4158C60.9706 11.3361 62.7696 11.322 63.4428 11.3877C63.5624 11.5753 63.5038 11.7958 63.5038 12.0022C63.5085 15.1312 63.5061 18.2601 63.5061 21.3891C63.5061 21.7574 63.5061 22.128 63.5061 22.4962C63.5061 22.6088 63.4968 22.7237 63.4897 22.8246C63.0159 22.9161 61.5077 22.9372 60.4687 22.8715C60.3537 22.7237 60.2224 22.5572 60.0981 22.386C58.9839 20.8661 57.8815 19.3368 56.7533 17.8262C56.2279 17.1226 55.7682 16.3837 55.3765 15.6003C55.3272 15.5018 55.2592 15.4127 55.1489 15.2391C55.1489 15.4314 55.1442 15.5205 55.1489 15.6097C55.1794 16.114 55.2404 16.6159 55.2428 17.1202C55.2545 18.9075 55.2474 20.6948 55.2474 22.4845C55.2474 22.5994 55.2381 22.712 55.2334 22.8199C54.8182 22.9184 52.8925 22.9325 52.2756 22.8481C52.2616 22.834 52.2451 22.8223 52.2358 22.8058C52.2264 22.7894 52.2217 22.7706 52.2217 22.7519C52.217 19.1561 52.2147 15.5628 52.21 11.967C52.21 11.7935 52.21 11.6199 52.21 11.4651C52.2639 11.4205 52.2921 11.3736 52.3202 11.3736C53.2889 11.3689 54.2576 11.3713 55.2451 11.3713Z" fill="white"/>
<path d="M82.6211 13.7497C81.7274 14.2306 80.8267 14.627 79.926 15.0609C79.7923 14.9155 79.6774 14.7865 79.5578 14.6621C78.6665 13.7356 77.231 13.4776 76.0699 14.0406C75.4272 14.3525 75.0027 14.8662 74.7306 15.5159C74.5242 16.0061 74.4515 16.5269 74.4351 17.0523C74.4163 17.6949 74.4679 18.3306 74.7025 18.9428C75.1505 20.1156 76.0746 20.77 77.3295 20.7981C78.1293 20.8169 78.8705 20.6433 79.5132 20.139C79.8744 19.8552 80.1395 19.5034 80.2778 19.0647C80.3107 18.9569 80.3107 18.8396 80.3271 18.7106C79.9847 18.6191 79.6539 18.673 79.3302 18.6637C78.9808 18.6543 78.6313 18.666 78.2818 18.659C77.9557 18.6543 77.6297 18.6871 77.3131 18.6332C77.231 18.1687 77.2239 16.8365 77.2943 16.2923C77.3107 16.2829 77.3248 16.2712 77.3412 16.2618C77.3576 16.2524 77.3764 16.2407 77.3952 16.2407C79.3185 16.2383 81.2419 16.236 83.1652 16.2337C83.2215 16.2337 83.2802 16.2477 83.3364 16.2618C83.3529 16.2642 83.3669 16.2829 83.3951 16.304C83.4068 16.3439 83.4373 16.3979 83.4397 16.4518C83.4772 17.4275 83.4068 18.3939 83.1207 19.3345C82.5507 21.2109 81.331 22.4353 79.4217 22.9326C78.1575 23.2633 76.8791 23.2633 75.6149 22.9584C74.0363 22.576 72.8659 21.6284 72.0755 20.2281C70.8745 18.1031 70.959 15.1031 72.7603 13.0977C73.5649 12.2017 74.5383 11.6012 75.704 11.3197C77.3647 10.921 78.9808 11.0218 80.5194 11.817C81.3826 12.2603 82.0722 12.8983 82.6211 13.7497Z" fill="white"/>
<path d="M92.7115 11.3832C93.638 11.3175 95.3644 11.3386 95.7936 11.4137C95.8593 11.8523 95.8827 22.0039 95.8194 22.8178C95.4558 22.9186 93.5208 22.9421 92.728 22.8529C92.6599 22.5597 92.6998 22.2525 92.6928 21.9476C92.6857 21.6379 92.6904 21.326 92.6904 21.014C92.6904 20.7232 92.6904 20.43 92.6904 20.1391C92.6904 19.8272 92.6904 19.5176 92.6904 19.2056C92.6904 18.8983 92.6904 18.5887 92.6904 18.2486C91.9656 18.1642 91.2714 18.2158 90.5794 18.2111C89.9039 18.2064 89.2284 18.1783 88.5224 18.2392C88.4708 19.0367 88.506 19.8108 88.4966 20.5824C88.4872 21.3354 88.5083 22.0883 88.4848 22.8318C88.0064 22.9092 86.1745 22.928 85.4192 22.867C85.2808 22.6794 85.3512 22.4589 85.3488 22.2548C85.3441 19.1657 85.3441 16.0766 85.3441 12.9852C85.3441 12.5771 85.3418 12.1689 85.3441 11.7608C85.3441 11.6482 85.3559 11.5357 85.3606 11.4301C85.8062 11.3316 87.2863 11.3058 88.4356 11.3761C88.452 11.4934 88.4872 11.6201 88.4872 11.7468C88.4919 12.8937 88.4895 14.0407 88.4919 15.1853C88.4919 15.3753 88.5036 15.5677 88.5106 15.7248C88.5576 15.767 88.5693 15.7834 88.5834 15.7928C88.5998 15.8022 88.6185 15.8069 88.6373 15.8139C88.6561 15.8186 88.6748 15.8257 88.6936 15.8257C89.8992 15.828 91.1025 15.8304 92.3081 15.8304C92.4043 15.8304 92.5004 15.8186 92.6318 15.8093C92.6482 15.6802 92.681 15.5512 92.681 15.4246C92.6857 14.2776 92.6834 13.1306 92.6834 11.986C92.6928 11.7984 92.7045 11.6084 92.7115 11.3832Z" fill="white"/>
<path d="M165.791 11.4368C165.8 11.5845 165.812 11.6995 165.812 11.8168C165.812 13.9348 165.821 16.0528 165.798 18.1685C165.791 18.7854 165.72 19.4093 165.615 20.0192C165.34 21.6001 164.376 22.5711 162.845 22.9792C161.745 23.2724 160.624 23.3029 159.493 23.1669C159.029 23.1106 158.574 23.0238 158.13 22.8713C156.779 22.4093 155.984 21.4593 155.693 20.0731C155.553 19.4046 155.501 18.7244 155.492 18.0489C155.468 15.952 155.477 13.8527 155.477 11.7558C155.477 11.6432 155.503 11.5329 155.515 11.4321C155.998 11.3383 158.119 11.3336 158.625 11.4227C158.724 11.615 158.679 11.8308 158.681 12.0396C158.689 13.9817 158.689 15.9238 158.691 17.8683C158.691 18.335 158.717 18.7971 158.813 19.2569C158.951 19.9206 159.336 20.3077 159.99 20.4719C160.6 20.6243 161.182 20.5891 161.745 20.303C162.073 20.1364 162.308 19.8855 162.404 19.5289C162.474 19.2662 162.547 19.0012 162.566 18.7314C162.615 18.0536 162.655 17.3757 162.66 16.6955C162.674 15.1615 162.664 13.6252 162.664 12.0912C162.664 11.8777 162.664 11.6666 162.664 11.4368C162.784 11.4063 162.873 11.3641 162.964 11.3617C163.799 11.357 164.634 11.3547 165.472 11.3594C165.577 11.3594 165.683 11.4086 165.791 11.4368Z" fill="#00ADEF"/>
<path d="M46.6859 16.9916C47.4646 17.9861 48.2292 18.9619 48.9939 19.94C49.7421 20.897 50.4974 21.8469 51.262 22.8367C50.7273 22.9141 48.4732 22.9329 47.3825 22.8766C46.7703 22.0885 46.1839 21.2465 45.5788 20.4185C44.9713 19.5905 44.3708 18.7578 43.7727 17.9345C43.5757 17.9721 43.632 18.1152 43.632 18.2137C43.6273 19.5741 43.6296 20.9322 43.6273 22.2926C43.6273 22.4826 43.6718 22.6819 43.5569 22.879C42.5765 22.879 41.5913 22.879 40.5874 22.879C40.4655 22.6796 40.5218 22.4615 40.5218 22.2574C40.5171 19.2668 40.5194 16.2762 40.5194 13.2857C40.5194 12.8001 40.5171 12.3146 40.5194 11.8291C40.5194 11.6954 40.5311 11.5617 40.5382 11.4327C40.9322 11.3365 42.7477 11.3107 43.5616 11.3881C43.6742 11.5664 43.6273 11.7657 43.6273 11.9557C43.632 13.2575 43.6273 14.5593 43.632 15.8587C43.632 16.0229 43.5991 16.1965 43.6718 16.3349C43.7328 16.3443 43.7516 16.3536 43.768 16.3466C43.7844 16.3396 43.7962 16.3208 43.8079 16.3067C43.822 16.2927 43.836 16.2786 43.8478 16.2645C43.8829 16.2176 43.9158 16.1707 43.951 16.1238C45.0416 14.564 46.13 13.0042 47.2207 11.4467C47.2324 11.4303 47.2465 11.4186 47.2605 11.4045C47.7062 11.3435 49.8125 11.3271 50.8094 11.3764C50.8797 11.564 50.7179 11.6578 50.6334 11.7704C49.4771 13.3044 48.3137 14.8361 47.1526 16.3677C46.9978 16.5624 46.8524 16.7665 46.6859 16.9916Z" fill="white"/>
<path d="M168.228 11.3804C168.371 11.371 168.467 11.3569 168.563 11.3569C169.902 11.3593 171.244 11.3429 172.583 11.3757C173.141 11.3874 173.711 11.4461 174.253 11.5774C175.611 11.9105 176.409 12.8018 176.695 14.1716C176.843 14.8753 176.791 15.5602 176.58 16.238C176.301 17.1293 175.712 17.7368 174.847 18.0793C174.666 18.1497 174.481 18.2036 174.263 18.2787C174.542 18.8322 174.912 19.3037 175.243 19.7986C175.576 20.3005 175.921 20.7931 176.256 21.2927C176.589 21.7876 176.92 22.2872 177.234 22.7587C177.211 22.8243 177.209 22.8478 177.197 22.8619C177.185 22.8736 177.166 22.883 177.148 22.8853C177.11 22.8947 177.073 22.9041 177.033 22.9041C175.966 22.9041 174.898 22.9041 173.801 22.9041C173.702 22.7587 173.599 22.6226 173.512 22.4749C172.841 21.3373 172.177 20.1973 171.507 19.0597C171.432 18.9307 171.335 18.8158 171.251 18.6962C171.061 18.8017 171.113 18.9542 171.113 19.0808C171.108 20.1105 171.11 21.1402 171.11 22.1676C171.11 22.381 171.11 22.5921 171.11 22.815C171.012 22.8501 170.941 22.897 170.871 22.897C170.036 22.9017 169.201 22.897 168.366 22.8947C168.331 22.8947 168.293 22.8713 168.22 22.8478C168.204 22.7376 168.171 22.6086 168.171 22.4795C168.167 21.8392 168.169 21.1989 168.169 20.5562C168.169 17.7204 168.169 14.8846 168.171 12.0489C168.167 11.8401 168.131 11.6243 168.228 11.3804ZM171.148 16.7822C171.736 16.8666 172.29 16.8385 172.832 16.6743C173.144 16.5781 173.378 16.3788 173.505 16.0762C173.742 15.5086 173.73 14.9409 173.418 14.4038C173.334 14.2607 173.193 14.1341 173.052 14.0449C172.609 13.7705 171.694 13.7072 171.15 13.8878C171.089 14.3428 171.084 16.177 171.148 16.7822Z" fill="#00ADEF"/>
<path d="M123.76 11.3972C124.548 11.3221 130.328 11.3432 130.755 11.4136C130.856 11.8124 130.872 13.208 130.778 13.8671C130.64 13.8811 130.492 13.9116 130.344 13.9116C129.392 13.9163 128.442 13.9116 127.49 13.914C127.3 13.914 127.11 13.9304 126.894 13.9421C126.812 14.5871 126.859 15.1993 126.856 15.8444C127.044 15.8631 127.192 15.8913 127.34 15.8936C128.215 15.8983 129.087 15.8936 129.962 15.896C130.152 15.896 130.342 15.9124 130.52 15.9218C130.619 16.3745 130.635 17.6012 130.56 18.265C130.443 18.4057 130.276 18.3611 130.128 18.3611C129.254 18.3658 128.381 18.3611 127.506 18.3635C127.316 18.3635 127.126 18.3776 126.946 18.3869C126.824 18.8115 126.812 19.6981 126.917 20.2775C127.058 20.2892 127.206 20.315 127.356 20.315C128.287 20.3197 129.221 20.3173 130.152 20.3173C130.344 20.3173 130.539 20.3173 130.743 20.3173C130.778 20.4135 130.825 20.4815 130.825 20.5519C130.827 21.2696 130.825 21.9874 130.82 22.7074C130.82 22.7426 130.797 22.7778 130.769 22.8529C130.68 22.8669 130.569 22.8998 130.462 22.8998C128.344 22.9021 126.228 22.9021 124.11 22.9021C124.014 22.9021 123.92 22.8834 123.828 22.8763C123.674 22.677 123.737 22.4541 123.735 22.2477C123.73 19.996 123.732 17.7419 123.732 15.4902C123.732 14.3244 123.73 13.161 123.735 11.9953C123.735 11.8077 123.751 11.6177 123.76 11.3972Z" fill="#00ADEF"/>
<path d="M181.635 15.9003C182.895 15.9003 184.098 15.9003 185.309 15.9003C185.477 16.3225 185.381 16.7307 185.393 17.1294C185.405 17.5141 185.421 17.9011 185.365 18.3186C185.191 18.3374 185.043 18.3655 184.896 18.3655C184.002 18.3702 183.108 18.3655 182.215 18.3702C182.027 18.3702 181.823 18.3209 181.657 18.4546C181.567 18.8932 181.56 19.7025 181.645 20.2771C181.783 20.2912 181.931 20.3193 182.081 20.3193C183.033 20.324 183.986 20.3217 184.938 20.3217C185.13 20.3217 185.323 20.3217 185.529 20.3217C185.567 20.4179 185.616 20.4859 185.616 20.5539C185.618 21.2716 185.616 21.9917 185.611 22.7095C185.611 22.7446 185.585 22.7798 185.555 22.8596C185.468 22.8737 185.36 22.9041 185.252 22.9041C183.153 22.9065 181.054 22.9065 178.954 22.9041C178.842 22.9041 178.727 22.8877 178.579 22.876C178.56 22.7118 178.532 22.5617 178.532 22.4139C178.528 21.5015 178.53 20.5867 178.53 19.6743C178.53 17.1482 178.53 14.622 178.53 12.0958C178.53 11.8824 178.53 11.6713 178.53 11.4391C178.647 11.4062 178.736 11.3617 178.825 11.3617C180.983 11.357 183.139 11.357 185.297 11.3593C185.372 11.3593 185.449 11.3828 185.536 11.3945C185.564 11.4696 185.613 11.5399 185.613 11.6127C185.618 12.2929 185.618 12.9731 185.613 13.6509C185.613 13.7237 185.564 13.794 185.524 13.9019C184.886 13.9207 184.248 13.9089 183.608 13.9113C182.968 13.9136 182.327 13.9113 181.685 13.9113C181.509 14.2514 181.605 14.5868 181.591 14.9058C181.581 15.2131 181.56 15.525 181.635 15.9003Z" fill="#00ADEF"/>
<path d="M116.747 19.1841C116.817 19.0222 116.857 18.9589 116.873 18.8909C117.16 17.7181 117.615 16.6039 118.011 15.4687C118.447 14.2232 118.893 12.9824 119.334 11.7393C119.374 11.6314 119.423 11.5258 119.463 11.425C119.878 11.3382 122.069 11.3194 122.751 11.3992C122.73 11.5094 122.726 11.6243 122.683 11.7229C121.747 13.9605 120.807 16.1958 119.869 18.4335C119.32 19.74 118.773 21.0464 118.224 22.3529C118.149 22.5288 118.065 22.7024 117.983 22.883C117.178 22.883 116.407 22.883 115.607 22.883C115.551 22.7868 115.483 22.6953 115.44 22.5921C114.216 19.6743 112.996 16.7564 111.774 13.8409C111.511 13.2146 111.242 12.5907 110.981 11.9644C110.909 11.7909 110.855 11.6079 110.789 11.425C111.275 11.3358 113.564 11.3311 114.11 11.4179C114.563 12.6728 115.03 13.9464 115.48 15.2248C115.928 16.5031 116.449 17.758 116.747 19.1841Z" fill="#00ADEF"/>
<path d="M194.732 12.1756C194.423 12.8817 194.106 13.6064 193.775 14.3664C193.644 14.2843 193.546 14.2327 193.456 14.167C192.959 13.8081 192.408 13.5853 191.803 13.4845C191.421 13.4211 191.071 13.5126 190.738 13.6932C190.159 14.0028 190.177 14.805 190.616 15.1146C190.804 15.246 191.015 15.3586 191.231 15.436C191.575 15.5626 191.939 15.6424 192.288 15.7596C192.729 15.9074 193.173 16.0552 193.6 16.2381C194.552 16.6486 195.068 17.3875 195.246 18.4078C195.373 19.1372 195.312 19.8409 195.096 20.5352C194.756 21.6212 194.029 22.3835 192.994 22.8198C191.134 23.6055 188.65 23.3405 186.983 21.715C186.929 21.6611 186.882 21.5977 186.823 21.5274C186.936 21.0817 187.248 20.7486 187.466 20.3663C187.675 19.9957 187.907 19.6392 188.146 19.2451C188.273 19.3296 188.371 19.3812 188.453 19.4515C188.721 19.6767 188.974 19.9183 189.246 20.1365C189.633 20.4461 190.081 20.6126 190.562 20.7252C190.926 20.8096 191.266 20.7627 191.587 20.6314C192.272 20.3522 192.488 19.7682 192.258 19.0481C192.176 18.7948 191.988 18.6165 191.744 18.5204C191.367 18.3702 190.982 18.2365 190.597 18.1028C190.175 17.9574 189.753 17.819 189.328 17.6783C188.974 17.561 188.667 17.3546 188.362 17.1482C187.961 16.8761 187.693 16.5008 187.534 16.0505C186.887 14.2421 187.693 11.9387 189.898 11.3054C191.566 10.8269 193.168 11.1037 194.634 12.0584C194.66 12.0724 194.679 12.11 194.732 12.1756Z" fill="#00ADEF"/>
<path d="M105.65 11.3833C105.727 11.9838 105.72 13.5858 105.638 14.069C105.228 14.1159 104.805 14.0807 104.383 14.0924C103.98 14.1041 103.574 14.0666 103.156 14.1206C103.081 14.3528 103.107 14.5662 103.107 14.7726C103.105 17.2566 103.107 19.7428 103.105 22.2268C103.105 22.4379 103.098 22.649 103.095 22.8789C102.047 22.8789 101.041 22.8789 100.035 22.8789C99.8868 22.6795 99.9548 22.459 99.9548 22.2526C99.9501 19.7686 99.9524 17.2824 99.9501 14.7984C99.9501 14.5873 99.9407 14.3786 99.936 14.144C99.6546 14.0502 99.3825 14.1018 99.1198 14.0924C98.8289 14.083 98.5381 14.0924 98.2472 14.0901C97.9775 14.0877 97.7101 14.0854 97.4521 14.0807C97.3489 13.635 97.3278 12.4177 97.3958 11.4138C97.4755 11.395 97.5623 11.3552 97.6515 11.3552C100.253 11.3528 102.854 11.3528 105.457 11.3552C105.509 11.3552 105.565 11.3692 105.65 11.3833Z" fill="white"/>
<path d="M145.811 14.0897C145.727 13.5877 145.724 11.9341 145.804 11.4064C145.924 11.3899 146.055 11.3571 146.184 11.3571C148.654 11.3548 151.122 11.3548 153.591 11.3571C153.723 11.3571 153.854 11.3759 153.974 11.3853C154.07 11.8309 154.089 13.3203 154.014 14.0545C153.915 14.0756 153.807 14.1178 153.699 14.1202C153.155 14.1272 152.611 14.1225 152.067 14.1249C151.896 14.1272 151.724 14.1436 151.553 14.153C151.441 14.3805 151.483 14.5987 151.483 14.8051C151.48 17.2726 151.48 19.7425 151.48 22.21C151.48 22.4187 151.466 22.6275 151.457 22.8245C150.993 22.923 149.004 22.9371 148.391 22.8527C148.279 22.665 148.328 22.4469 148.328 22.2405C148.323 20.0826 148.326 17.9247 148.326 15.7691C148.326 15.3797 148.328 14.9927 148.323 14.6034C148.323 14.472 148.307 14.3383 148.295 14.1741C147.467 14.0498 146.651 14.1835 145.811 14.0897Z" fill="#00ADEF"/>
<path d="M69.2274 22.8976C68.9929 22.8976 68.8404 22.8976 68.6856 22.8976C67.8318 22.8976 66.9781 22.8976 66.0961 22.8976C66.0774 22.7639 66.0492 22.656 66.0492 22.5458C66.0469 18.9336 66.0469 15.3215 66.0469 11.7093C66.0469 11.6132 66.0586 11.5194 66.0656 11.4302C66.4831 11.3341 68.2798 11.3083 69.1594 11.3857C69.2837 11.5733 69.2228 11.7914 69.2228 11.9978C69.2274 14.8524 69.2251 17.7069 69.2251 20.5615C69.2251 21.183 69.2251 21.8046 69.2251 22.4262C69.2274 22.5575 69.2274 22.6912 69.2274 22.8976Z" fill="white"/>
</svg>
