<svg width="24" height="24" viewBox="0 0 24 24" fill="none" xmlns="http://www.w3.org/2000/svg">
<circle cx="12" cy="12" r="12" fill="#0A66C2"/>
<path d="M12.7611 18.0014H9.71351V8.85853H12.7611V10.3823C13.082 9.97417 13.4892 9.64205 13.9535 9.40982C14.4178 9.17758 14.9278 9.05099 15.4468 9.0391C16.3546 9.04414 17.2232 9.40895 17.8624 10.0535C18.5015 10.6981 18.859 11.5698 18.8564 12.4776V18.0014H15.8087V12.8585C15.7498 12.4468 15.5441 12.0702 15.2295 11.798C14.915 11.5259 14.5127 11.3765 14.0967 11.3774C13.9106 11.3833 13.7275 11.4267 13.5586 11.5051C13.3896 11.5835 13.2382 11.6952 13.1135 11.8335C12.9887 11.9718 12.8932 12.1339 12.8327 12.31C12.7721 12.4862 12.7478 12.6727 12.7611 12.8585V18.0014ZM8.18971 18.0014H5.14209V8.85853H8.18971V18.0014ZM6.6659 7.33473C6.26176 7.33473 5.87417 7.17418 5.5884 6.88841C5.30263 6.60264 5.14209 6.21506 5.14209 5.81092C5.14209 5.40678 5.30263 5.01919 5.5884 4.73342C5.87417 4.44765 6.26176 4.28711 6.6659 4.28711C7.07004 4.28711 7.45762 4.44765 7.74339 4.73342C8.02916 5.01919 8.18971 5.40678 8.18971 5.81092C8.18971 6.21506 8.02916 6.60264 7.74339 6.88841C7.45762 7.17418 7.07004 7.33473 6.6659 7.33473Z" fill="white"/>
</svg>
