<svg width="28" height="28" viewBox="0 0 28 28" fill="none" xmlns="http://www.w3.org/2000/svg">
<circle cx="14" cy="14" r="14" fill="#0A66C2"/>
<path d="M14.8889 21H11.3333V10.3333H14.8889V12.1111C15.2632 11.6349 15.7382 11.2474 16.28 10.9765C16.8217 10.7056 17.4167 10.5579 18.0222 10.544C19.0812 10.5499 20.0947 10.9755 20.8404 11.7275C21.586 12.4795 22.0031 13.4965 22 14.5555V21H18.4444V15C18.3757 14.5196 18.1357 14.0802 17.7687 13.7627C17.4017 13.4452 16.9324 13.2709 16.4471 13.272C16.2299 13.2789 16.0163 13.3295 15.8192 13.421C15.6221 13.5124 15.4455 13.6427 15.2999 13.8041C15.1544 13.9655 15.043 14.1546 14.9724 14.3601C14.9017 14.5656 14.8733 14.7832 14.8889 15V21ZM9.55555 21H6V10.3333H9.55555V21ZM7.77778 8.55555C7.30628 8.55555 6.8541 8.36825 6.5207 8.03485C6.1873 7.70146 6 7.24927 6 6.77778C6 6.30628 6.1873 5.8541 6.5207 5.5207C6.8541 5.1873 7.30628 5 7.77778 5C8.24927 5 8.70146 5.1873 9.03485 5.5207C9.36825 5.8541 9.55555 6.30628 9.55555 6.77778C9.55555 7.24927 9.36825 7.70146 9.03485 8.03485C8.70146 8.36825 8.24927 8.55555 7.77778 8.55555Z" fill="white"/>
</svg>
