<svg width="18" height="14" viewBox="0 0 18 14" fill="none" xmlns="http://www.w3.org/2000/svg">
<path d="M16.5002 13.666C16.7212 13.666 16.9331 13.5782 17.0894 13.4219C17.2457 13.2657 17.3335 13.0537 17.3335 12.8327L17.3335 1.16602C17.3335 0.945004 17.2457 0.733041 17.0894 0.57676C16.9331 0.420481 16.7212 0.332684 16.5002 0.332683C16.2792 0.332683 16.0672 0.420481 15.9109 0.57676C15.7546 0.733041 15.6668 0.945003 15.6668 1.16602L15.6668 12.8327C15.6668 13.0537 15.7546 13.2657 15.9109 13.4219C16.0672 13.5782 16.2791 13.666 16.5002 13.666ZM0.733496 7.31601C0.77316 7.41831 0.832631 7.51176 0.908497 7.59101L4.24183 10.9243C4.31953 11.002 4.41177 11.0637 4.51329 11.1057C4.61481 11.1478 4.72361 11.1694 4.8335 11.1694C5.05541 11.1694 5.26824 11.0813 5.42516 10.9243C5.58208 10.7674 5.67024 10.5546 5.67024 10.3327C5.67024 10.1108 5.58208 9.89793 5.42516 9.74101L3.5085 7.83268L13.1668 7.83268C13.3878 7.83268 13.5998 7.74489 13.7561 7.5886C13.9124 7.43232 14.0002 7.22036 14.0002 6.99935C14.0002 6.77834 13.9124 6.56637 13.7561 6.41009C13.5998 6.25381 13.3878 6.16602 13.1668 6.16602L3.5085 6.16602L5.42516 4.25768C5.50327 4.18021 5.56527 4.08805 5.60757 3.9865C5.64988 3.88495 5.67166 3.77603 5.67166 3.66602C5.67166 3.55601 5.64988 3.44708 5.60757 3.34554C5.56527 3.24399 5.50327 3.15182 5.42516 3.07435C5.34769 2.99624 5.25553 2.93425 5.15398 2.89194C5.05243 2.84963 4.94351 2.82785 4.8335 2.82785C4.72349 2.82785 4.61457 2.84963 4.51302 2.89194C4.41147 2.93425 4.3193 2.99624 4.24183 3.07435L0.908497 6.40768C0.832631 6.48693 0.77316 6.58039 0.733496 6.68268C0.650149 6.88557 0.650149 7.11313 0.733496 7.31601Z" fill="#D62828"/>
</svg>
