<svg width="38" height="38" viewBox="0 0 38 38" fill="none" xmlns="http://www.w3.org/2000/svg">
<path d="M25.8017 20.3017C27.599 18.8876 28.911 16.9484 29.5549 14.7539C30.1989 12.5595 30.1428 10.2188 29.3946 8.05772C28.6464 5.89659 27.2431 4.02241 25.3801 2.69593C23.5171 1.36944 21.287 0.656616 19 0.656616C16.713 0.656616 14.4829 1.36944 12.6199 2.69593C10.7569 4.02241 9.35363 5.89659 8.60538 8.05772C7.85714 10.2188 7.8011 12.5595 8.44506 14.7539C9.08901 16.9484 10.4009 18.8876 12.1983 20.3017C9.11847 21.5356 6.43119 23.5822 4.42296 26.2232C2.41474 28.8642 1.16086 32.0008 0.794994 35.2984C0.768511 35.5391 0.789708 35.7827 0.857374 36.0153C0.92504 36.2479 1.03785 36.4648 1.18936 36.6538C1.49536 37.0354 1.94043 37.2799 2.42666 37.3334C2.91289 37.3868 3.40045 37.245 3.78209 36.939C4.16373 36.633 4.40818 36.1879 4.46166 35.7017C4.86423 32.1179 6.57309 28.808 9.26173 26.4045C11.9504 24.0009 15.4303 22.6722 19.0367 22.6722C22.643 22.6722 26.1229 24.0009 28.8116 26.4045C31.5002 28.808 33.2091 32.1179 33.6117 35.7017C33.6615 36.1522 33.8765 36.5682 34.215 36.8696C34.5536 37.1709 34.9918 37.3361 35.445 37.3334H35.6467C36.1272 37.2781 36.5665 37.0351 36.8687 36.6573C37.1709 36.2796 37.3115 35.7977 37.26 35.3167C36.8924 32.0097 35.6318 28.8652 33.6132 26.2201C31.5947 23.575 28.8943 21.5291 25.8017 20.3017ZM19 19C17.5496 19 16.1318 18.5699 14.9258 17.7641C13.7199 16.9583 12.7799 15.813 12.2249 14.473C11.6698 13.133 11.5246 11.6586 11.8076 10.236C12.0905 8.8135 12.789 7.50683 13.8145 6.48124C14.8401 5.45566 16.1468 4.75723 17.5693 4.47427C18.9919 4.19131 20.4663 4.33653 21.8063 4.89158C23.1463 5.44662 24.2916 6.38655 25.0974 7.59251C25.9032 8.79847 26.3333 10.2163 26.3333 11.6667C26.3333 13.6116 25.5607 15.4769 24.1854 16.8521C22.8102 18.2274 20.9449 19 19 19Z" fill="#828282"/>
</svg>
