<svg width="17" height="17" viewBox="0 0 17 17" fill="none" xmlns="http://www.w3.org/2000/svg">
<path d="M8.49992 4.95833C8.78011 4.95833 9.05401 4.87525 9.28698 4.71958C9.51995 4.56392 9.70153 4.34266 9.80875 4.0838C9.91597 3.82494 9.94403 3.5401 9.88937 3.26529C9.8347 2.99048 9.69978 2.73806 9.50165 2.53993C9.30353 2.34181 9.0511 2.20688 8.7763 2.15222C8.50149 2.09756 8.21665 2.12561 7.95778 2.23284C7.69892 2.34006 7.47767 2.52164 7.322 2.75461C7.16634 2.98758 7.08325 3.26148 7.08325 3.54167C7.08325 3.91739 7.23251 4.27773 7.49819 4.5434C7.76386 4.80908 8.1242 4.95833 8.49992 4.95833ZM8.49992 12.0417C8.21973 12.0417 7.94583 12.1248 7.71286 12.2804C7.47989 12.4361 7.29831 12.6573 7.19109 12.9162C7.08387 13.1751 7.05581 13.4599 7.11047 13.7347C7.16514 14.0095 7.30006 14.2619 7.49819 14.4601C7.69631 14.6582 7.94874 14.7931 8.22354 14.8478C8.49835 14.9024 8.78319 14.8744 9.04205 14.7672C9.30092 14.6599 9.52217 14.4784 9.67783 14.2454C9.8335 14.0124 9.91659 13.7385 9.91659 13.4583C9.91659 13.0826 9.76733 12.7223 9.50165 12.4566C9.23598 12.1909 8.87564 12.0417 8.49992 12.0417ZM8.49992 7.08333C8.21973 7.08333 7.94583 7.16642 7.71286 7.32209C7.47989 7.47775 7.29831 7.699 7.19109 7.95787C7.08387 8.21673 7.05581 8.50157 7.11047 8.77638C7.16514 9.05118 7.30006 9.30361 7.49819 9.50173C7.69631 9.69986 7.94874 9.83478 8.22354 9.88945C8.49835 9.94411 8.78319 9.91605 9.04205 9.80883C9.30092 9.70161 9.52217 9.52003 9.67783 9.28706C9.8335 9.05409 9.91659 8.78019 9.91659 8.5C9.91659 8.12428 9.76733 7.76394 9.50165 7.49827C9.23598 7.23259 8.87564 7.08333 8.49992 7.08333Z" fill="#9B9DC3"/>
</svg>
