<svg width="24" height="24" viewBox="0 0 24 24" fill="none" xmlns="http://www.w3.org/2000/svg">
<path d="M3 4V8.25L7.25 4H3ZM15.75 4L20 8.25V4H15.75ZM20 21V16.75L15.75 21H20ZM3 21H7.25L3 16.75V21ZM18.9375 12.5C18.9375 8.38812 15.6119 5.0625 11.5 5.0625C7.38812 5.0625 4.0625 8.38812 4.0625 12.5C4.0625 16.6119 7.38812 19.9375 11.5 19.9375C15.6119 19.9375 18.9375 16.6119 18.9375 12.5ZM11.5 17.8125C8.5675 17.8125 6.1875 15.4325 6.1875 12.5C6.1875 9.5675 8.5675 7.1875 11.5 7.1875C14.4325 7.1875 16.8125 9.5675 16.8125 12.5C16.8125 15.4325 14.4325 17.8125 11.5 17.8125Z" fill="white"/>
</svg>
