<svg width="16" height="16" viewBox="0 0 16 16" fill="none" xmlns="http://www.w3.org/2000/svg">
<path d="M5 1.94141L1.5 3.69141V13.9999H14.5V4.99991H8.5V3.69141L5 1.94141ZM5 3.05841L7.5 4.30841V12.9999H2.5V4.30841L5 3.05841V3.05841ZM3.5 4.99991V5.99991H4.5V4.99991H3.5ZM5.5 4.99991V5.99991H6.5V4.99991H5.5ZM8.5 5.99991H13.5V12.9999H8.5V5.99991ZM3.5 6.99991V7.99991H4.5V6.99991H3.5ZM5.5 6.99991V7.99991H6.5V6.99991H5.5ZM9.5 6.99991V7.99991H10.5V6.99991H9.5ZM11.5 6.99991V7.99991H12.5V6.99991H11.5ZM3.5 8.99991V9.99991H4.5V8.99991H3.5ZM5.5 8.99991V9.99991H6.5V8.99991H5.5ZM9.5 8.99991V9.99991H10.5V8.99991H9.5ZM11.5 8.99991V9.99991H12.5V8.99991H11.5ZM3.5 10.9999V11.9999H4.5V10.9999H3.5ZM5.5 10.9999V11.9999H6.5V10.9999H5.5ZM9.5 10.9999V11.9999H10.5V10.9999H9.5ZM11.5 10.9999V11.9999H12.5V10.9999H11.5Z" fill="#5E5E5E"/>
</svg>
