<svg width="64" height="89" viewBox="0 0 64 89" fill="none" xmlns="http://www.w3.org/2000/svg">
<path d="M48.2745 21.2724C51.5318 0.491508 77.8914 -6.57153 91.1027 9.79658C98.5701 19.0482 111.643 21.5219 121.975 15.6379C140.253 5.22786 162.21 21.4329 157.65 41.9673C155.072 53.5738 161.289 65.3373 172.331 69.7459C191.866 77.5457 192.887 104.816 173.989 114.054C163.308 119.275 157.987 131.471 161.425 142.852C167.506 162.988 146.822 180.789 127.817 171.774C117.075 166.678 104.223 170.122 97.4677 179.906C85.5166 197.215 58.7028 192.142 53.9017 171.663C51.188 160.087 40.4825 152.186 28.6215 153.005C7.63683 154.454 -5.11469 130.327 7.90324 113.804C15.2613 104.465 14.7638 91.1694 6.72842 82.4065C-7.48782 66.9032 3.42502 41.8907 24.4593 41.767C36.3483 41.6971 46.4334 33.0182 48.2745 21.2724Z" fill="#DEF6FF"/>
</svg>
