<svg width="28" height="32" viewBox="0 0 28 32" fill="none" xmlns="http://www.w3.org/2000/svg">
<path fill-rule="evenodd" clip-rule="evenodd" d="M3.33268 0C1.85993 0 0.666016 1.19391 0.666016 2.66667V29.3333C0.666016 30.8061 1.85993 32 3.33268 32H24.666C26.1388 32 27.3327 30.8061 27.3327 29.3333V16V8.09583C27.3327 7.82047 27.2218 7.55578 27.0231 7.35713L19.9941 0.327968C19.7846 0.118443 19.4951 0 19.1926 0H13.9993H3.33268ZM8.44379 13.0667C7.98357 13.0667 7.61046 13.4249 7.61046 13.8667C7.61046 14.3085 7.98357 14.6667 8.44379 14.6667H17.5347C17.9949 14.6667 18.368 14.3085 18.368 13.8667C18.368 13.4249 17.9949 13.0667 17.5347 13.0667H8.44379ZM8.44379 17.3333C7.98357 17.3333 7.61046 17.6915 7.61046 18.1333C7.61046 18.5751 7.98357 18.9333 8.44379 18.9333H19.5549C20.0151 18.9333 20.3882 18.5751 20.3882 18.1333C20.3882 17.6915 20.0151 17.3333 19.5549 17.3333H8.44379ZM8.44379 21.6C7.98357 21.6 7.61046 21.9582 7.61046 22.4C7.61046 22.8418 7.98357 23.2 8.44379 23.2H19.5549C20.0151 23.2 20.3882 22.8418 20.3882 22.4C20.3882 21.9582 20.0151 21.6 19.5549 21.6H8.44379Z" fill="#E83274"/>
</svg>
