<svg width="14" height="15" viewBox="0 0 14 15" fill="none" xmlns="http://www.w3.org/2000/svg">
<path d="M2.905 2.25C2.95 2.9175 3.0625 3.57 3.2425 4.1925L2.3425 5.0925C2.035 4.1925 1.84 3.24 1.7725 2.25H2.905ZM10.3 11.265C10.9375 11.445 11.59 11.5575 12.25 11.6025V12.72C11.26 12.6525 10.3075 12.4575 9.4 12.1575L10.3 11.265ZM3.625 0.75H1C0.5875 0.75 0.25 1.0875 0.25 1.5C0.25 8.5425 5.9575 14.25 13 14.25C13.4125 14.25 13.75 13.9125 13.75 13.5V10.8825C13.75 10.47 13.4125 10.1325 13 10.1325C12.07 10.1325 11.1625 9.9825 10.3225 9.705C10.2475 9.675 10.165 9.6675 10.09 9.6675C9.895 9.6675 9.7075 9.7425 9.5575 9.885L7.9075 11.535C5.785 10.4475 4.045 8.715 2.965 6.5925L4.615 4.9425C4.825 4.7325 4.885 4.44 4.8025 4.1775C4.525 3.3375 4.375 2.4375 4.375 1.5C4.375 1.0875 4.0375 0.75 3.625 0.75Z" fill="#828282"/>
</svg>
