<svg width="28" height="32" viewBox="0 0 28 32" fill="none" xmlns="http://www.w3.org/2000/svg">
<path fill-rule="evenodd" clip-rule="evenodd" d="M3.33335 0C1.8606 0 0.666687 1.19391 0.666687 2.66667V29.3333C0.666687 30.8061 1.8606 32 3.33335 32H24.6667C26.1395 32 27.3334 30.8061 27.3334 29.3333V16V8.09583C27.3334 7.82047 27.2225 7.55578 27.0238 7.35713L19.9948 0.327968C19.7852 0.118443 19.4958 0 19.1932 0H14H3.33335ZM8.44446 13.0667C7.98424 13.0667 7.61113 13.4249 7.61113 13.8667C7.61113 14.3085 7.98424 14.6667 8.44446 14.6667H17.5354C17.9956 14.6667 18.3687 14.3085 18.3687 13.8667C18.3687 13.4249 17.9956 13.0667 17.5354 13.0667H8.44446ZM8.44446 17.3333C7.98424 17.3333 7.61113 17.6915 7.61113 18.1333C7.61113 18.5751 7.98424 18.9333 8.44446 18.9333H19.5556C20.0158 18.9333 20.3889 18.5751 20.3889 18.1333C20.3889 17.6915 20.0158 17.3333 19.5556 17.3333H8.44446ZM8.44446 21.6C7.98424 21.6 7.61113 21.9582 7.61113 22.4C7.61113 22.8418 7.98424 23.2 8.44446 23.2H19.5556C20.0158 23.2 20.3889 22.8418 20.3889 22.4C20.3889 21.9582 20.0158 21.6 19.5556 21.6H8.44446Z" fill="#E83274"/>
</svg>
