<svg width="42" height="42" viewBox="0 0 42 42" fill="none" xmlns="http://www.w3.org/2000/svg">
<path d="M18.917 18.916V10.5827H23.0837V18.916H31.417V23.0827H23.0837V31.416H18.917V23.0827H10.5837V18.916H18.917ZM21.0003 41.8327C9.49408 41.8327 0.166992 32.5056 0.166992 20.9993C0.166992 9.4931 9.49408 0.166016 21.0003 0.166016C32.5066 0.166016 41.8337 9.4931 41.8337 20.9993C41.8337 32.5056 32.5066 41.8327 21.0003 41.8327ZM21.0003 37.666C25.4206 37.666 29.6598 35.9101 32.7854 32.7845C35.911 29.6589 37.667 25.4196 37.667 20.9993C37.667 16.5791 35.911 12.3398 32.7854 9.21424C29.6598 6.08863 25.4206 4.33268 21.0003 4.33268C16.58 4.33268 12.3408 6.08863 9.21521 9.21424C6.08961 12.3398 4.33366 16.5791 4.33366 20.9993C4.33366 25.4196 6.08961 29.6589 9.21521 32.7845C12.3408 35.9101 16.58 37.666 21.0003 37.666Z" fill="#2E3192"/>
</svg>
