<svg width="20" height="22" viewBox="0 0 20 22" fill="none" xmlns="http://www.w3.org/2000/svg">
<path d="M0.499908 7.86013L9.49991 13.0601C9.65193 13.1479 9.82437 13.1941 9.99991 13.1941C10.1754 13.1941 10.3479 13.1479 10.4999 13.0601L19.4999 7.86013C19.651 7.77287 19.7767 7.64758 19.8644 7.49671C19.9521 7.34584 19.9989 7.17464 19.9999 7.00013C20.0006 6.82392 19.9547 6.65065 19.8669 6.49787C19.7791 6.3451 19.6525 6.21823 19.4999 6.13013L10.4999 0.940127C10.3479 0.852359 10.1754 0.806152 9.99991 0.806152C9.82437 0.806152 9.65193 0.852359 9.49991 0.940127L0.499908 6.13013C0.347304 6.21823 0.22069 6.3451 0.132887 6.49787C0.0450833 6.65065 -0.000791138 6.82392 -9.15701e-05 7.00013C0.0009618 7.17464 0.0476673 7.34584 0.135383 7.49671C0.223099 7.64758 0.348771 7.77287 0.499908 7.86013ZM9.99991 3.00013L16.9999 7.00013L9.99991 11.0001L2.99991 7.00013L9.99991 3.00013ZM18.4999 10.1701L9.99991 15.0001L1.49991 10.1301C1.38577 10.064 1.25969 10.0211 1.12891 10.0039C0.998131 9.98676 0.865245 9.99561 0.737905 10.03C0.610565 10.0644 0.491286 10.1236 0.386939 10.2043C0.282592 10.285 0.195238 10.3855 0.129909 10.5001C-0.000463948 10.7297 -0.0347302 11.0016 0.0345866 11.2564C0.103904 11.5112 0.271177 11.7282 0.499908 11.8601L9.49991 17.0601C9.65193 17.1479 9.82437 17.1941 9.99991 17.1941C10.1754 17.1941 10.3479 17.1479 10.4999 17.0601L19.4999 11.8601C19.7286 11.7282 19.8959 11.5112 19.9652 11.2564C20.0345 11.0016 20.0003 10.7297 19.8699 10.5001C19.8046 10.3855 19.7172 10.285 19.6129 10.2043C19.5085 10.1236 19.3893 10.0644 19.2619 10.03C19.1346 9.99561 19.0017 9.98676 18.8709 10.0039C18.7401 10.0211 18.614 10.064 18.4999 10.1301V10.1701ZM18.4999 14.1701L9.99991 19.0001L1.49991 14.1301C1.38577 14.064 1.25969 14.0211 1.12891 14.0039C0.998131 13.9868 0.865245 13.9956 0.737905 14.03C0.610565 14.0644 0.491286 14.1236 0.386939 14.2043C0.282592 14.285 0.195238 14.3855 0.129909 14.5001C-0.000463948 14.7297 -0.0347302 15.0016 0.0345866 15.2564C0.103904 15.5112 0.271177 15.7282 0.499908 15.8601L9.49991 21.0601C9.65193 21.1479 9.82437 21.1941 9.99991 21.1941C10.1754 21.1941 10.3479 21.1479 10.4999 21.0601L19.4999 15.8601C19.7286 15.7282 19.8959 15.5112 19.9652 15.2564C20.0345 15.0016 20.0003 14.7297 19.8699 14.5001C19.8046 14.3855 19.7172 14.285 19.6129 14.2043C19.5085 14.1236 19.3893 14.0644 19.2619 14.03C19.1346 13.9956 19.0017 13.9868 18.8709 14.0039C18.7401 14.0211 18.614 14.064 18.4999 14.1301V14.1701Z" fill="white"/>
</svg>
