<svg width="100" height="100" viewBox="0 0 100 100" fill="none" xmlns="http://www.w3.org/2000/svg">
<path d="M50 0C40.1109 0 30.444 2.93245 22.2215 8.42652C13.9991 13.9206 7.59043 21.7295 3.80605 30.8658C0.0216647 40.0021 -0.968502 50.0555 0.960758 59.7545C2.89002 69.4536 7.65206 78.3627 14.6447 85.3553C21.6373 92.3479 30.5464 97.11 40.2455 99.0392C49.9445 100.968 59.9979 99.9783 69.1342 96.194C78.2705 92.4096 86.0794 86.0009 91.5735 77.7785C97.0676 69.556 100 59.8891 100 50C99.9839 36.7441 94.7109 24.0358 85.3375 14.6625C75.9642 5.28914 63.2559 0.016125 50 0ZM75.7 35.8L42.4 69.0667C41.9238 69.5736 41.2888 69.9029 40.6 70C40.3912 70.0404 40.1793 70.0627 39.9667 70.0667C39.7863 70.0774 39.6055 70.0548 39.4333 70C38.7446 69.9028 38.1096 69.5735 37.6333 69.0667L24.3 55.7667C23.991 55.4583 23.7458 55.092 23.5785 54.6888C23.4112 54.2855 23.3251 53.8532 23.3251 53.4167C23.3251 52.9801 23.4112 52.5478 23.5785 52.1445C23.7458 51.7413 23.991 51.375 24.3 51.0667C24.9294 50.4421 25.7801 50.0917 26.6667 50.0917C27.5533 50.0917 28.404 50.4421 29.0333 51.0667L40.0333 62.0667L70.9667 31.1C71.5961 30.4756 72.4467 30.1252 73.3333 30.1252C74.2199 30.1252 75.0706 30.4756 75.7 31.1C76.009 31.4084 76.2542 31.7747 76.4214 32.1779C76.5887 32.5812 76.6748 33.0134 76.6748 33.45C76.6748 33.8866 76.5887 34.3188 76.4214 34.7221C76.2542 35.1253 76.009 35.4916 75.7 35.8Z" fill="#2E3192"/>
</svg>
