<svg width="25" height="24" viewBox="0 0 25 24" fill="none" xmlns="http://www.w3.org/2000/svg">
<path d="M19.9014 2H5.90137C4.79137 2 3.90137 2.9 3.90137 4V18C3.90137 19.1 4.79137 20 5.90137 20H9.90137L12.9014 23L15.9014 20H19.9014C21.0014 20 21.9014 19.1 21.9014 18V4C21.9014 2.9 21.0014 2 19.9014 2ZM19.9014 18H15.0714L14.4814 18.59L12.9014 20.17L11.3114 18.58L10.7314 18H5.90137V4H19.9014V18ZM11.9014 15H13.9014V17H11.9014V15ZM12.9014 7C14.0014 7 14.9014 7.9 14.9014 9C14.9014 11 11.9014 10.75 11.9014 14H13.9014C13.9014 11.75 16.9014 11.5 16.9014 9C16.9014 6.79 15.1114 5 12.9014 5C10.6914 5 8.90137 6.79 8.90137 9H10.9014C10.9014 7.9 11.8014 7 12.9014 7Z" fill="url(#paint0_linear_2847_73977)"/>
<defs>
<linearGradient id="paint0_linear_2847_73977" x1="26.7334" y1="-0.916667" x2="26.7334" y2="23" gradientUnits="userSpaceOnUse">
<stop stop-color="#242679"/>
<stop offset="1" stop-color="#1D2147"/>
</linearGradient>
</defs>
</svg>
