<svg width="32" height="33" viewBox="0 0 32 33" fill="none" xmlns="http://www.w3.org/2000/svg">
<g clip-path="url(#clip0_2420_83290)">
<path fill-rule="evenodd" clip-rule="evenodd" d="M5.33464 0.00195312C3.86188 0.00195312 2.66797 1.19586 2.66797 2.66862V29.3353C2.66797 30.808 3.86188 32.002 5.33464 32.002H26.668C28.1407 32.002 29.3346 30.808 29.3346 29.3353V16.002V8.09778C29.3346 7.82242 29.2237 7.55773 29.0251 7.35908L21.9961 0.329921C21.7865 0.120396 21.4971 0.00195312 21.1945 0.00195312H16.0013H5.33464ZM10.4457 13.0686C9.98552 13.0686 9.61241 13.4268 9.61241 13.8686C9.61241 14.3104 9.98552 14.6686 10.4457 14.6686H19.5366C19.9969 14.6686 20.37 14.3104 20.37 13.8686C20.37 13.4268 19.9969 13.0686 19.5366 13.0686H10.4457ZM10.4457 17.3353C9.98552 17.3353 9.61241 17.6935 9.61241 18.1353C9.61241 18.5771 9.98552 18.9353 10.4457 18.9353H21.5569C22.0171 18.9353 22.3902 18.5771 22.3902 18.1353C22.3902 17.6935 22.0171 17.3353 21.5569 17.3353H10.4457ZM10.4457 21.602C9.98552 21.602 9.61241 21.9601 9.61241 22.402C9.61241 22.8438 9.98552 23.202 10.4457 23.202H21.5569C22.0171 23.202 22.3902 22.8438 22.3902 22.402C22.3902 21.9601 22.0171 21.602 21.5569 21.602H10.4457Z" fill="#E83274"/>
<path d="M29.332 8.00195C29.332 8.00195 29.332 7.33529 28.6654 6.66862L22.6654 0.66862C21.9987 0.00195312 21.332 0.00195312 21.332 0.00195312V6.66862C21.332 7.33529 21.9987 8.00195 22.6654 8.00195H29.332Z" fill="#F194BA"/>
</g>
<defs>
<clipPath id="clip0_2420_83290">
<rect width="32" height="32" fill="white" transform="translate(0 0.00195312)"/>
</clipPath>
</defs>
</svg>
