<svg width="8" height="12" viewBox="0 0 8 12" fill="none" xmlns="http://www.w3.org/2000/svg">
<path d="M1.30147 1.06633C1.11377 1.25225 1.00727 1.50488 1.00522 1.76906C1.00317 2.03324 1.10575 2.28749 1.29054 2.47629L4.80261 6.09362L1.23528 9.60608C1.04758 9.79199 0.941078 10.0446 0.939031 10.3088C0.936983 10.573 1.03956 10.8272 1.22435 11.016C1.31658 11.1105 1.42661 11.1857 1.54807 11.2374C1.66953 11.2892 1.80003 11.3163 1.93204 11.3173C2.06404 11.3183 2.19495 11.2932 2.3172 11.2434C2.43945 11.1936 2.55062 11.12 2.64431 11.027L6.91704 6.82003C7.01149 6.7278 7.08674 6.61777 7.13845 6.49631C7.19016 6.37485 7.21731 6.24435 7.21833 6.11234C7.21936 5.98034 7.19423 5.84943 7.14441 5.72718C7.09459 5.60493 7.02105 5.49376 6.92805 5.40007L2.72142 1.07734C2.62919 0.982893 2.51917 0.907644 2.39771 0.855933C2.27624 0.804221 2.14575 0.777069 2.01374 0.776046C1.88173 0.775023 1.75083 0.800148 1.62858 0.849971C1.50633 0.899794 1.39515 0.973329 1.30147 1.06633Z" fill="black"/>
</svg>
