<svg width="24" height="24" viewBox="0 0 24 24" fill="none" xmlns="http://www.w3.org/2000/svg">
<path d="M14.9735 13.8474H14.3827L14.1733 13.6455C15.0707 12.5991 15.5344 11.1715 15.2801 9.65419C14.9286 7.5763 13.1936 5.91697 11.0995 5.66284C7.93594 5.27417 5.27347 7.93507 5.66237 11.0968C5.91665 13.1896 7.57695 14.9237 9.65607 15.275C11.1743 15.5291 12.6027 15.0657 13.6498 14.1688L13.8517 14.378V14.9685L17.0302 18.1452C17.3368 18.4516 17.8379 18.4516 18.1445 18.1452C18.4512 17.8387 18.4512 17.3379 18.1445 17.0315L14.9735 13.8474ZM10.4862 13.8474C8.62399 13.8474 7.12075 12.345 7.12075 10.4839C7.12075 8.62272 8.62399 7.12036 10.4862 7.12036C12.3484 7.12036 13.8517 8.62272 13.8517 10.4839C13.8517 12.345 12.3484 13.8474 10.4862 13.8474Z" fill="#181819" fill-opacity="0.7"/>
</svg>
