<svg width="40" height="40" viewBox="0 0 40 40" fill="none" xmlns="http://www.w3.org/2000/svg">
<path d="M24.1976 22.608H23.3635L23.0679 22.3231C24.3349 20.8458 24.9895 18.8304 24.6305 16.6883C24.1343 13.7548 21.6847 11.4122 18.7284 11.0534C14.2622 10.5047 10.5034 14.2613 11.0525 18.7248C11.4115 21.6794 13.7554 24.1275 16.6906 24.6235C18.834 24.9823 20.8506 24.328 22.3288 23.0618L22.6139 23.3572V24.1909L27.1012 28.6755C27.5341 29.1082 28.2415 29.1082 28.6744 28.6755C29.1072 28.2429 29.1072 27.5359 28.6744 27.1032L24.1976 22.608ZM17.8626 22.608C15.2336 22.608 13.1114 20.487 13.1114 17.8596C13.1114 15.2321 15.2336 13.1111 17.8626 13.1111C20.4916 13.1111 22.6139 15.2321 22.6139 17.8596C22.6139 20.487 20.4916 22.608 17.8626 22.608Z" fill="#181819" fill-opacity="0.7"/>
</svg>
