<svg width="40" height="40" viewBox="0 0 40 40" fill="none" xmlns="http://www.w3.org/2000/svg">
<path d="M24.1979 22.608H23.3638L23.0681 22.3231C24.3351 20.8458 24.9897 18.8304 24.6308 16.6883C24.1345 13.7548 21.685 11.4122 18.7286 11.0534C14.2625 10.5047 10.5037 14.2613 11.0527 18.7248C11.4117 21.6794 13.7557 24.1275 16.6909 24.6235C18.8342 24.9823 20.8509 24.328 22.329 23.0618L22.6141 23.3572V24.1909L27.1014 28.6755C27.5343 29.1082 28.2417 29.1082 28.6746 28.6755C29.1075 28.2429 29.1075 27.5359 28.6746 27.1032L24.1979 22.608ZM17.8629 22.608C15.2338 22.608 13.1116 20.487 13.1116 17.8596C13.1116 15.2321 15.2338 13.1111 17.8629 13.1111C20.4919 13.1111 22.6141 15.2321 22.6141 17.8596C22.6141 20.487 20.4919 22.608 17.8629 22.608Z" fill="#181819" fill-opacity="0.7"/>
</svg>
