<svg width="16" height="16" viewBox="0 0 16 16" fill="none" xmlns="http://www.w3.org/2000/svg">
<g clip-path="url(#clip0_4042_4037)">
<path d="M11.0003 2.49983C11.0002 1.91326 11.2064 1.34534 11.5827 0.895437C11.9591 0.445532 12.4817 0.142289 13.059 0.0387629C13.6364 -0.0647635 14.2318 0.0380191 14.741 0.329128C15.2502 0.620237 15.6409 1.08113 15.8446 1.63118C16.0484 2.18123 16.0522 2.78541 15.8555 3.338C15.6587 3.89059 15.274 4.35641 14.7685 4.65397C14.263 4.95152 13.669 5.06186 13.0903 4.96568C12.5117 4.86949 11.9853 4.57291 11.6033 4.12783L4.88527 7.24783C5.03971 7.73727 5.03971 8.26239 4.88527 8.75183L11.6033 11.8718C12.0071 11.4022 12.5709 11.0991 13.1855 11.0215C13.8 10.9438 14.4215 11.0971 14.9294 11.4515C15.4374 11.806 15.7957 12.3364 15.9349 12.9399C16.0741 13.5435 15.9843 14.1773 15.6829 14.7184C15.3814 15.2595 14.8898 15.6695 14.3033 15.8688C13.7169 16.0681 13.0773 16.0426 12.5085 15.7972C11.9398 15.5519 11.4824 15.1041 11.225 14.5407C10.9676 13.9773 10.9285 13.3384 11.1153 12.7478L4.39727 9.62783C4.0647 10.0154 3.62142 10.2918 3.12704 10.4199C2.63267 10.548 2.11093 10.5216 1.632 10.3443C1.15308 10.167 0.739941 9.84726 0.448173 9.42811C0.156404 9.00897 0 8.51052 0 7.99983C0 7.48913 0.156404 6.99068 0.448173 6.57154C0.739941 6.15239 1.15308 5.83266 1.632 5.65535C2.11093 5.47803 2.63267 5.45165 3.12704 5.57974C3.62142 5.70783 4.0647 5.98426 4.39727 6.37183L11.1153 3.25183C11.0388 3.00849 11 2.75489 11.0003 2.49983Z" fill="#2E3192"/>
</g>
<defs>
<clipPath id="clip0_4042_4037">
<rect width="16" height="16" fill="white"/>
</clipPath>
</defs>
</svg>
