<svg width="16" height="17" viewBox="0 0 16 17" fill="none" xmlns="http://www.w3.org/2000/svg">
<path d="M11 2.68195C10.9999 2.09539 11.2061 1.52747 11.5825 1.07757C11.9588 0.627661 12.4814 0.324418 13.0588 0.220892C13.6361 0.117365 14.2315 0.220148 14.7408 0.511257C15.25 0.802366 15.6406 1.26326 15.8444 1.81331C16.0481 2.36336 16.0519 2.96753 15.8552 3.52013C15.6585 4.07272 15.2737 4.53854 14.7682 4.8361C14.2627 5.13365 13.6687 5.24399 13.0901 5.14781C12.5115 5.05162 11.9851 4.75504 11.603 4.30995L4.88502 7.42996C5.03946 7.91939 5.03946 8.44452 4.88502 8.93395L11.603 12.054C12.0069 11.5843 12.5707 11.2813 13.1852 11.2036C13.7997 11.126 14.4212 11.2792 14.9292 11.6336C15.4372 11.9881 15.7955 12.5185 15.9347 13.1221C16.0739 13.7257 15.9841 14.3594 15.6826 14.9005C15.3812 15.4416 14.8896 15.8516 14.3031 16.0509C13.7166 16.2502 13.077 16.2247 12.5083 15.9794C11.9396 15.734 11.4822 15.2862 11.2247 14.7228C10.9673 14.1594 10.9282 13.5205 11.115 12.93L4.39702 9.80995C4.06446 10.1975 3.62117 10.4739 3.1268 10.602C2.63243 10.7301 2.11069 10.7037 1.63176 10.5264C1.15283 10.3491 0.739697 10.0294 0.447928 9.61024C0.15616 9.1911 -0.000244141 8.69265 -0.000244141 8.18195C-0.000244141 7.67126 0.15616 7.17281 0.447928 6.75367C0.739697 6.33452 1.15283 6.01479 1.63176 5.83748C2.11069 5.66016 2.63243 5.63378 3.1268 5.76187C3.62117 5.88996 4.06446 6.16638 4.39702 6.55396L11.115 3.43395C11.0386 3.19062 10.9998 2.93702 11 2.68195Z" fill="#2E3192"/>
</svg>
