<svg width="16" height="16" viewBox="0 0 16 16" fill="none" xmlns="http://www.w3.org/2000/svg">
<path d="M9.80833 2.16911L13.8333 6.19411V13.8358H2.16667V2.16911H9.80833ZM9.80833 0.502441H2.16667C1.25 0.502441 0.5 1.25244 0.5 2.16911V13.8358C0.5 14.7524 1.25 15.5024 2.16667 15.5024H13.8333C14.75 15.5024 15.5 14.7524 15.5 13.8358V6.19411C15.5 5.75244 15.325 5.32744 15.0083 5.01911L10.9833 0.994108C10.675 0.677441 10.25 0.502441 9.80833 0.502441ZM3.83333 10.5024H12.1667V12.1691H3.83333V10.5024ZM3.83333 7.16911H12.1667V8.83577H3.83333V7.16911ZM3.83333 3.83577H9.66667V5.50244H3.83333V3.83577Z" fill="#2E3192"/>
</svg>
