<svg width="176" height="176" viewBox="0 0 176 176" fill="none" xmlns="http://www.w3.org/2000/svg">
<path opacity="0.5" d="M88.0002 0.000358886C136.601 0.000358886 176 39.3994 176 88.0002C176 136.601 136.601 176 88.0002 176C39.3994 176 0.000365012 136.601 0.000365012 88.0002C-0.137926 39.5372 39.0366 0.13865 87.4992 0.000358886C87.6662 -0.000119629 87.8332 -0.000119629 88.0002 0.000358886Z" fill="#ADE0BF"/>
<path opacity="0.8" d="M87.9989 11.8924C130.032 11.8924 164.107 45.9672 164.107 88.0004C164.107 130.034 130.032 164.108 87.9989 164.108C45.9657 164.108 11.8909 130.034 11.8909 88.0004C11.7713 46.0864 45.652 12.012 87.5656 11.8924C87.71 11.892 87.8545 11.892 87.9989 11.8924Z" fill="#7BCE98"/>
<path d="M87.9976 23.784C123.463 23.784 152.214 52.5047 152.214 87.9334C152.214 123.362 123.463 152.083 87.9976 152.083C52.5321 152.083 23.7815 123.362 23.7815 87.9334C23.6806 52.6052 52.2674 23.8848 87.632 23.784C87.7539 23.7836 87.8757 23.7836 87.9976 23.784Z" fill="#348B52"/>
<path d="M111.107 70.6719L79.3386 102.44L64.8984 88.0001" stroke="#FBF8FC" stroke-width="7" stroke-linecap="round" stroke-linejoin="round"/>
</svg>
