<svg width="16" height="21" viewBox="0 0 16 21" fill="none" xmlns="http://www.w3.org/2000/svg">
<rect y="2.5" width="16" height="16" rx="2" fill="#5355A3"/>
<path d="M12.4673 5.85566C12.3567 5.77823 12.2319 5.72337 12.1 5.6942C11.9682 5.66502 11.8318 5.66211 11.6989 5.68564C11.5659 5.70916 11.4388 5.75865 11.325 5.83128C11.2111 5.90391 11.1127 5.99826 11.0353 6.10894L7.12594 11.6921L4.56266 9.94112C4.35707 9.8005 4.10404 9.7473 3.85924 9.79323C3.61443 9.83916 3.39789 9.98046 3.25727 10.186C3.11664 10.3916 3.06344 10.6447 3.10937 10.8895C3.1553 11.1343 3.2966 11.3508 3.50219 11.4914L6.93813 13.8383C7.04395 13.9105 7.16354 13.9602 7.28942 13.9841C7.4153 14.008 7.54475 14.0056 7.66969 13.9772C7.80295 13.9539 7.9303 13.9046 8.04444 13.832C8.15858 13.7593 8.25727 13.6649 8.33484 13.5541L12.7208 7.28847C12.8771 7.06473 12.9382 6.7881 12.8906 6.51934C12.8431 6.25058 12.6908 6.0117 12.4672 5.85519" fill="white"/>
</svg>
