<svg width="14" height="14" viewBox="0 0 14 14" fill="none" xmlns="http://www.w3.org/2000/svg">
<path d="M7.00016 0.333496C3.3335 0.333496 0.333496 3.3335 0.333496 7.00016C0.333496 10.6668 3.3335 13.6668 7.00016 13.6668C10.6668 13.6668 13.6668 10.6668 13.6668 7.00016C13.6668 3.3335 10.6668 0.333496 7.00016 0.333496ZM7.00016 12.3335C4.06016 12.3335 1.66683 9.94016 1.66683 7.00016C1.66683 4.06016 4.06016 1.66683 7.00016 1.66683C9.94016 1.66683 12.3335 4.06016 12.3335 7.00016C12.3335 9.94016 9.94016 12.3335 7.00016 12.3335ZM7.3335 3.66683H6.3335V7.66683L9.80016 9.80016L10.3335 8.9335L7.3335 7.1335V3.66683Z" fill="#5E5E5E"/>
</svg>
