<svg width="25" height="25" viewBox="0 0 25 25" fill="none" xmlns="http://www.w3.org/2000/svg">
<path d="M23.9584 8.33333C23.9584 9.47917 23.0209 10.4167 21.8751 10.4167C21.6876 10.4167 21.5105 10.3958 21.3438 10.3438L17.6355 14.0417C17.6876 14.2083 17.7084 14.3958 17.7084 14.5833C17.7084 15.7292 16.7709 16.6667 15.6251 16.6667C14.4792 16.6667 13.5417 15.7292 13.5417 14.5833C13.5417 14.3958 13.5626 14.2083 13.6147 14.0417L10.9584 11.3854C10.7917 11.4375 10.6042 11.4583 10.4167 11.4583C10.2292 11.4583 10.0417 11.4375 9.87508 11.3854L5.1355 16.1354C5.18758 16.3021 5.20841 16.4792 5.20841 16.6667C5.20841 17.8125 4.27091 18.75 3.12508 18.75C1.97925 18.75 1.04175 17.8125 1.04175 16.6667C1.04175 15.5208 1.97925 14.5833 3.12508 14.5833C3.31258 14.5833 3.48966 14.6042 3.65633 14.6562L8.40633 9.91667C8.35425 9.75 8.33341 9.5625 8.33341 9.375C8.33341 8.22917 9.27091 7.29167 10.4167 7.29167C11.5626 7.29167 12.5001 8.22917 12.5001 9.375C12.5001 9.5625 12.4792 9.75 12.4272 9.91667L15.0834 12.5729C15.2501 12.5208 15.4376 12.5 15.6251 12.5C15.8126 12.5 16.0001 12.5208 16.1667 12.5729L19.8647 8.86458C19.8126 8.69792 19.7917 8.52083 19.7917 8.33333C19.7917 7.1875 20.7292 6.25 21.8751 6.25C23.0209 6.25 23.9584 7.1875 23.9584 8.33333Z" fill="white"/>
</svg>
