<svg width="24" height="24" viewBox="0 0 24 24" fill="none" xmlns="http://www.w3.org/2000/svg">
<circle cx="12" cy="12" r="12" fill="#00ADEF"/>
<path d="M18.2689 8.97453C17.8079 9.17342 17.3061 9.31655 16.7893 9.3723C17.3259 9.05354 17.7277 8.54994 17.9194 7.95601C17.4159 8.25552 16.8643 8.46555 16.2891 8.57676C16.0487 8.31976 15.758 8.11502 15.435 7.9753C15.112 7.83558 14.7637 7.76388 14.4118 7.76465C12.9879 7.76465 11.8429 8.91878 11.8429 10.3351C11.8429 10.534 11.867 10.7328 11.9061 10.9242C9.77416 10.8127 7.8727 9.79417 6.60859 8.23474C6.37825 8.62817 6.25755 9.07612 6.25903 9.53201C6.25903 10.424 6.71255 11.2105 7.40412 11.673C6.99657 11.657 6.59856 11.545 6.24246 11.3461V11.3777C6.24246 12.6268 7.12538 13.6619 8.30211 13.8999C8.08117 13.9573 7.85388 13.9867 7.62561 13.9873C7.45836 13.9873 7.30016 13.9707 7.14045 13.9481C7.4659 14.9667 8.41361 15.7065 9.54212 15.7306C8.6592 16.4221 7.55329 16.8289 6.35245 16.8289C6.13699 16.8289 5.93811 16.8214 5.73169 16.7973C6.87075 17.528 8.22226 17.9499 9.67773 17.9499C14.4027 17.9499 16.9882 14.0355 16.9882 10.6379C16.9882 10.5264 16.9882 10.4149 16.9807 10.3034C17.4809 9.93731 17.9194 9.4838 18.2689 8.97453Z" fill="white"/>
</svg>
