<svg width="28" height="28" viewBox="0 0 28 28" fill="none" xmlns="http://www.w3.org/2000/svg">
<circle cx="14" cy="14" r="14" fill="#00ADEF"/>
<path d="M21.3125 10.4701C20.7747 10.7022 20.1893 10.8691 19.5864 10.9342C20.2124 10.5623 20.6811 9.97477 20.9047 9.28184C20.3173 9.63128 19.6738 9.87631 19.0028 10.0061C18.7223 9.70623 18.3831 9.46736 18.0063 9.30436C17.6295 9.14135 17.2231 9.05769 16.8125 9.0586C15.1514 9.0586 13.8155 10.4051 13.8155 12.0574C13.8155 12.2895 13.8436 12.5215 13.8893 12.7447C11.402 12.6147 9.18364 11.4264 7.70884 9.60704C7.44011 10.066 7.29929 10.5886 7.30103 11.1205C7.30103 12.1611 7.83013 13.0787 8.63696 13.6184C8.16148 13.5996 7.69714 13.4689 7.28169 13.2369V13.2738C7.28169 14.7311 8.31177 15.9387 9.68462 16.2164C9.42685 16.2834 9.16168 16.3176 8.89536 16.3184C8.70024 16.3184 8.51567 16.299 8.32935 16.2727C8.70903 17.4609 9.8147 18.324 11.1313 18.3522C10.1012 19.159 8.81099 19.6336 7.41001 19.6336C7.15864 19.6336 6.92661 19.6248 6.68579 19.5967C8.0147 20.4492 9.59145 20.9414 11.2895 20.9414C16.802 20.9414 19.8184 16.3746 19.8184 12.4107C19.8184 12.2807 19.8184 12.1506 19.8096 12.0205C20.3932 11.5934 20.9047 11.0643 21.3125 10.4701Z" fill="white"/>
</svg>
