<svg width="16" height="16" viewBox="0 0 16 16" fill="none" xmlns="http://www.w3.org/2000/svg">
<path d="M10.9068 9.3335C10.9602 8.8935 11.0002 8.4535 11.0002 8.00016C11.0002 7.54683 10.9602 7.10683 10.9068 6.66683H13.1602C13.2668 7.0935 13.3335 7.54016 13.3335 8.00016C13.3335 8.46016 13.2668 8.90683 13.1602 9.3335H10.9068ZM9.72683 13.0402C10.1268 12.3002 10.4335 11.5002 10.6468 10.6668H12.6135C11.9676 11.779 10.9429 12.6215 9.72683 13.0402ZM9.56016 9.3335H6.44016C6.3735 8.8935 6.3335 8.4535 6.3335 8.00016C6.3335 7.54683 6.3735 7.10016 6.44016 6.66683H9.56016C9.62016 7.10016 9.66683 7.54683 9.66683 8.00016C9.66683 8.4535 9.62016 8.8935 9.56016 9.3335ZM8.00016 13.3068C7.44683 12.5068 7.00016 11.6202 6.72683 10.6668H9.2735C9.00016 11.6202 8.5535 12.5068 8.00016 13.3068ZM5.3335 5.3335H3.38683C4.02607 4.21831 5.05003 3.37449 6.26683 2.96016C5.86683 3.70016 5.56683 4.50016 5.3335 5.3335ZM3.38683 10.6668H5.3335C5.56683 11.5002 5.86683 12.3002 6.26683 13.0402C5.05258 12.6213 4.03006 11.7786 3.38683 10.6668ZM2.84016 9.3335C2.7335 8.90683 2.66683 8.46016 2.66683 8.00016C2.66683 7.54016 2.7335 7.0935 2.84016 6.66683H5.0935C5.04016 7.10683 5.00016 7.54683 5.00016 8.00016C5.00016 8.4535 5.04016 8.8935 5.0935 9.3335H2.84016ZM8.00016 2.68683C8.5535 3.48683 9.00016 4.38016 9.2735 5.3335H6.72683C7.00016 4.38016 7.44683 3.48683 8.00016 2.68683ZM12.6135 5.3335H10.6468C10.4382 4.5078 10.1292 3.71076 9.72683 2.96016C10.9535 3.38016 11.9735 4.22683 12.6135 5.3335ZM8.00016 1.3335C4.3135 1.3335 1.3335 4.3335 1.3335 8.00016C1.3335 9.76827 2.03588 11.464 3.28612 12.7142C3.90517 13.3333 4.6401 13.8243 5.44894 14.1594C6.25778 14.4944 7.12468 14.6668 8.00016 14.6668C9.76827 14.6668 11.464 13.9645 12.7142 12.7142C13.9645 11.464 14.6668 9.76827 14.6668 8.00016C14.6668 7.12468 14.4944 6.25778 14.1594 5.44894C13.8243 4.6401 13.3333 3.90517 12.7142 3.28612C12.0952 2.66706 11.3602 2.176 10.5514 1.84097C9.74255 1.50593 8.87564 1.3335 8.00016 1.3335Z" fill="#5E5E5E"/>
</svg>
