<svg width="18" height="19" viewBox="0 0 18 19" fill="none" xmlns="http://www.w3.org/2000/svg">
<path d="M12.27 11C12.33 10.505 12.375 10.01 12.375 9.5C12.375 8.99 12.33 8.495 12.27 8H14.805C14.925 8.48 15 8.9825 15 9.5C15 10.0175 14.925 10.52 14.805 11H12.27ZM10.9425 15.17C11.3925 14.3375 11.7375 13.4375 11.9775 12.5H14.19C13.4634 13.7512 12.3106 14.699 10.9425 15.17ZM10.755 11H7.245C7.17 10.505 7.125 10.01 7.125 9.5C7.125 8.99 7.17 8.4875 7.245 8H10.755C10.8225 8.4875 10.875 8.99 10.875 9.5C10.875 10.01 10.8225 10.505 10.755 11ZM9 15.47C8.3775 14.57 7.875 13.5725 7.5675 12.5H10.4325C10.125 13.5725 9.6225 14.57 9 15.47ZM6 6.5H3.81C4.52914 5.24541 5.6811 4.29611 7.05 3.83C6.6 4.6625 6.2625 5.5625 6 6.5ZM3.81 12.5H6C6.2625 13.4375 6.6 14.3375 7.05 15.17C5.68397 14.6987 4.53363 13.7508 3.81 12.5ZM3.195 11C3.075 10.52 3 10.0175 3 9.5C3 8.9825 3.075 8.48 3.195 8H5.73C5.67 8.495 5.625 8.99 5.625 9.5C5.625 10.01 5.67 10.505 5.73 11H3.195ZM9 3.5225C9.6225 4.4225 10.125 5.4275 10.4325 6.5H7.5675C7.875 5.4275 8.3775 4.4225 9 3.5225ZM14.19 6.5H11.9775C11.7428 5.57109 11.3952 4.67442 10.9425 3.83C12.3225 4.3025 13.47 5.255 14.19 6.5ZM9 2C4.8525 2 1.5 5.375 1.5 9.5C1.5 11.4891 2.29018 13.3968 3.6967 14.8033C4.39314 15.4997 5.21993 16.0522 6.12987 16.4291C7.03982 16.806 8.01509 17 9 17C10.9891 17 12.8968 16.2098 14.3033 14.8033C15.7098 13.3968 16.5 11.4891 16.5 9.5C16.5 8.51509 16.306 7.53982 15.9291 6.62987C15.5522 5.71993 14.9997 4.89314 14.3033 4.1967C13.6069 3.50026 12.7801 2.94781 11.8701 2.5709C10.9602 2.19399 9.98491 2 9 2Z" fill="#2E3192"/>
</svg>
