<svg width="16" height="15" viewBox="0 0 16 15" fill="none" xmlns="http://www.w3.org/2000/svg">
<path d="M11.27 9C11.33 8.505 11.375 8.01 11.375 7.5C11.375 6.99 11.33 6.495 11.27 6H13.805C13.925 6.48 14 6.9825 14 7.5C14 8.0175 13.925 8.52 13.805 9H11.27ZM9.9425 13.17C10.3925 12.3375 10.7375 11.4375 10.9775 10.5H13.19C12.4634 11.7512 11.3106 12.699 9.9425 13.17ZM9.755 9H6.245C6.17 8.505 6.125 8.01 6.125 7.5C6.125 6.99 6.17 6.4875 6.245 6H9.755C9.8225 6.4875 9.875 6.99 9.875 7.5C9.875 8.01 9.8225 8.505 9.755 9ZM8 13.47C7.3775 12.57 6.875 11.5725 6.5675 10.5H9.4325C9.125 11.5725 8.6225 12.57 8 13.47ZM5 4.5H2.81C3.52914 3.24541 4.6811 2.29611 6.05 1.83C5.6 2.6625 5.2625 3.5625 5 4.5ZM2.81 10.5H5C5.2625 11.4375 5.6 12.3375 6.05 13.17C4.68397 12.6987 3.53363 11.7508 2.81 10.5ZM2.195 9C2.075 8.52 2 8.0175 2 7.5C2 6.9825 2.075 6.48 2.195 6H4.73C4.67 6.495 4.625 6.99 4.625 7.5C4.625 8.01 4.67 8.505 4.73 9H2.195ZM8 1.5225C8.6225 2.4225 9.125 3.4275 9.4325 4.5H6.5675C6.875 3.4275 7.3775 2.4225 8 1.5225ZM13.19 4.5H10.9775C10.7428 3.57109 10.3952 2.67442 9.9425 1.83C11.3225 2.3025 12.47 3.255 13.19 4.5ZM8 0C3.8525 0 0.5 3.375 0.5 7.5C0.5 9.48912 1.29018 11.3968 2.6967 12.8033C3.39314 13.4997 4.21993 14.0522 5.12987 14.4291C6.03982 14.806 7.01509 15 8 15C9.98912 15 11.8968 14.2098 13.3033 12.8033C14.7098 11.3968 15.5 9.48912 15.5 7.5C15.5 6.51509 15.306 5.53982 14.9291 4.62987C14.5522 3.71993 13.9997 2.89314 13.3033 2.1967C12.6069 1.50026 11.7801 0.947814 10.8701 0.570904C9.96018 0.193993 8.98491 0 8 0Z" fill="#828282"/>
</svg>
