<svg width="28" height="28" viewBox="0 0 28 28" fill="none" xmlns="http://www.w3.org/2000/svg">
<path d="M0 14C0 21.732 6.26801 28 14 28C21.732 28 28 21.732 28 14C28 6.26801 21.732 0 14 0C6.26801 0 0 6.26801 0 14Z" fill="#25D366"/>
<path fill-rule="evenodd" clip-rule="evenodd" d="M18.9 9.0125C17.5875 7.7 15.8375 7 14 7C10.15 7 7 10.15 7 14C7 15.225 7.35001 16.45 7.96251 17.5L7 21L10.675 20.0375C11.725 20.5625 12.8625 20.9125 14 20.9125C17.85 20.9125 21 17.7625 21 13.9125C21 12.075 20.2125 10.325 18.9 9.0125ZM14 19.775C12.95 19.775 11.9 19.5125 11.025 18.9875L10.85 18.9L8.66249 19.5125L9.27501 17.4125L9.09999 17.15C8.48749 16.1875 8.22499 15.1375 8.22499 14.0875C8.22499 10.9375 10.85 8.3125 14 8.3125C15.575 8.3125 16.975 8.925 18.1125 9.975C19.25 11.1125 19.775 12.5125 19.775 14.0875C19.775 17.15 17.2375 19.775 14 19.775ZM17.15 15.4C16.975 15.3125 16.1 14.875 15.925 14.875C15.75 14.7875 15.6625 14.7875 15.575 14.9625C15.4875 15.1375 15.1375 15.4875 15.05 15.6625C14.9625 15.75 14.875 15.75 14.7 15.75C14.525 15.6625 14 15.4875 13.3 14.875C12.775 14.4375 12.425 13.825 12.3375 13.65C12.25 13.475 12.3375 13.3875 12.425 13.3C12.5125 13.2125 12.6 13.125 12.6875 13.0375C12.775 12.95 12.775 12.8625 12.8625 12.775C12.95 12.6875 12.8625 12.6 12.8625 12.5125C12.8625 12.425 12.5125 11.55 12.3375 11.2C12.25 10.9375 12.075 10.9375 11.9875 10.9375C11.9 10.9375 11.8125 10.9375 11.6375 10.9375C11.55 10.9375 11.375 10.9375 11.2 11.1125C11.025 11.2875 10.5875 11.725 10.5875 12.6C10.5875 13.475 11.2 14.2625 11.2875 14.4375C11.375 14.525 12.5125 16.3625 14.2625 17.0625C15.75 17.675 16.0125 17.5 16.3625 17.5C16.7125 17.5 17.4125 17.0625 17.5 16.7125C17.675 16.275 17.675 15.925 17.5875 15.925C17.5 15.4875 17.325 15.4875 17.15 15.4Z" fill="white"/>
</svg>
